<svg width="419" height="228" viewBox="0 0 419 228" fill="none" xmlns="http://www.w3.org/2000/svg">
<rect x="38" y="208" width="208" height="381" rx="12" transform="rotate(-90 38 208)" fill="white"/>
<mask id="mask0_1006_1435" style="mask-type:alpha" maskUnits="userSpaceOnUse" x="38" y="0" width="381" height="208">
<rect x="38" y="208" width="208" height="381" rx="12" transform="rotate(-90 38 208)" fill="white"/>
</mask>
<g mask="url(#mask0_1006_1435)">
<path d="M14.4361 164.571C38.5002 157.585 96.6853 146.816 136.913 159.625C187.198 175.635 245.502 206.618 292.577 205.559C339.651 204.499 377.177 153.031 414.844 143.204C444.977 135.343 457.739 145.528 460.353 151.603" stroke="#BFD352" stroke-width="2"/>
<path d="M106.555 126.131C47.7697 99.6332 -21.1466 125.167 -48.2565 141.247L12.6631 34.5559L446.891 -7.8414C455.894 47.1872 466.283 153.959 435.811 140.815C397.722 124.385 351.586 181.712 274.621 185.415C197.656 189.118 180.037 159.254 106.555 126.131Z" fill="#90A22F"/>
<path d="M121.5 77.4999C69.9 47.8999 4.33333 65.1666 -22 77.4999L43.5 -15H446C449.333 36.3333 449.3 135.3 422.5 120.5C389 102 341.5 150.5 270.5 147C199.5 143.5 186 114.5 121.5 77.4999Z" fill="#BFD352"/>
<path d="M196.34 97.7889C197.783 102.423 199.515 106.961 201.526 111.378C201.849 112.105 202.211 112.831 202.553 113.561C206.66 122.101 211.672 130.176 217.502 137.648C217.956 138.246 218.42 138.788 218.883 139.388C222.551 143.991 226.494 148.368 230.69 152.496C231.165 152.982 231.668 153.474 232.166 153.946C239.625 161.063 247.736 167.464 256.391 173.067C256.954 173.445 257.538 173.818 258.102 174.196C263.995 177.916 270.112 181.269 276.418 184.236L278.259 185.092C283.519 187.498 288.903 189.628 294.386 191.471C294.982 191.682 295.579 191.884 296.199 192.071C305.086 194.979 314.216 197.086 323.478 198.368C324.25 198.516 325.047 198.583 325.818 198.683L325.789 198.484C325.11 192.958 324.046 187.486 322.604 182.108C322.47 181.552 322.308 180.991 322.155 180.431C320.333 173.966 318.022 167.649 315.242 161.535C314.984 160.939 314.704 160.336 314.404 159.725C311.57 153.684 308.328 147.842 304.702 142.24L303.6 140.553C299.897 135.004 295.854 129.69 291.494 124.64C291.06 124.142 290.631 123.616 290.174 123.133C288.068 120.8 285.897 118.454 283.657 116.163C283.101 115.593 282.562 114.988 281.973 114.489C278.071 110.615 273.959 106.931 269.636 103.439C267.458 101.68 264.594 99.577 261.195 97.1975C260.342 96.6189 259.488 96.0496 258.635 95.471C251.306 90.5513 243.69 86.0732 235.828 82.0606V82.0606C234.568 81.394 233.297 80.7833 232.025 80.1818C218.116 73.5926 204.575 69.7062 198.045 74.4858C197.728 74.6939 197.431 74.9304 197.157 75.1924C193.4 78.7315 192.568 85.7157 196.34 97.7889Z" fill="#5F9C2F"/>
<path d="M197.114 75.213C197.112 75.3399 197.139 75.4656 197.194 75.58C197.249 75.6944 197.33 75.7942 197.431 75.8717C202.433 79.9383 207.45 84.1169 212.48 88.4073C212.953 88.8068 213.407 89.2027 213.867 89.5707C219.332 94.2404 224.796 99.0191 230.258 103.907L231.678 105.144C233.908 107.135 236.138 109.174 238.361 111.25L239.878 112.641C246.335 118.568 252.78 124.629 259.212 130.821L260.923 132.452C266.64 138.018 272.333 143.677 278.002 149.427L279.663 151.116C284.814 156.349 289.933 161.668 295.019 167.075C295.606 167.68 296.179 168.262 296.763 168.885C305.838 178.511 314.745 188.332 323.482 198.349C324.253 198.498 325.05 198.564 325.822 198.664L325.792 198.466C320.491 192.375 315.124 186.358 309.692 180.416L308.164 178.733C304.424 174.62 300.648 170.539 296.838 166.538C296.495 166.163 296.125 165.784 295.779 165.428C293.329 162.826 290.857 160.239 288.4 157.674L286.794 155.997C281.343 150.352 275.858 144.798 270.34 139.334C269.827 138.792 269.29 138.274 268.77 137.769C264.167 133.195 259.566 128.714 254.966 124.326C254.429 123.808 253.892 123.29 253.333 122.787C250.576 120.181 247.824 117.611 245.078 115.078C244.618 114.613 244.154 114.167 243.666 113.745C239.797 110.167 235.926 106.633 232.053 103.143L232.007 103.134C229.341 100.751 226.668 98.3894 223.988 96.0486L222.493 94.797C217.971 90.8419 213.445 86.9699 208.916 83.1807C208.411 82.7462 207.892 82.3379 207.402 81.9256C204.473 79.511 201.564 77.123 198.676 74.7614C198.5 74.6181 198.281 74.5386 198.054 74.5358C197.809 74.5292 197.57 74.6181 197.389 74.7839C197.248 74.8885 197.15 75.0411 197.114 75.213V75.213Z" fill="#BFD352"/>
<path d="M295.04 166.163C295.029 166.47 295.009 166.774 295.01 167.122C294.667 175.222 294.453 183.405 294.391 191.549C294.986 191.76 295.584 191.962 296.204 192.149C296.277 184.45 296.457 176.646 296.806 168.961C296.823 168.174 296.845 167.407 296.88 166.623C296.896 166.539 296.912 166.456 296.928 166.372C296.911 166.146 296.813 165.934 296.653 165.774C296.493 165.614 296.28 165.517 296.055 165.5C295.988 165.49 295.921 165.497 295.858 165.52C295.665 165.503 295.473 165.56 295.321 165.679C295.169 165.799 295.069 165.972 295.04 166.163Z" fill="#BFD352"/>
<path d="M278.009 149.39L277.993 149.474C276.885 161.053 276.361 172.682 276.422 184.314L278.263 185.17C278.151 173.818 278.616 162.467 279.654 151.162C279.684 150.657 279.722 150.211 279.788 149.665C279.798 149.441 279.721 149.223 279.574 149.055C279.427 148.886 279.22 148.781 278.998 148.761C278.784 148.719 278.562 148.761 278.378 148.878C278.194 148.995 278.062 149.178 278.009 149.39V149.39Z" fill="#BFD352"/>
<path d="M259.209 130.84L259.193 130.924L256.41 173.119C256.973 173.497 257.557 173.87 258.121 174.248L260.892 132.465L260.982 131.094C260.979 130.869 260.889 130.654 260.732 130.493C260.575 130.332 260.362 130.237 260.136 130.228V130.228C259.933 130.193 259.724 130.237 259.552 130.351C259.38 130.465 259.257 130.639 259.209 130.84V130.84Z" fill="#BFD352"/>
<path d="M230.688 152.505C231.163 152.992 231.666 153.484 232.164 153.955C232.267 153.858 232.333 153.727 232.35 153.586C234.364 139.907 236.862 126.118 239.855 112.608C239.916 112.292 239.973 111.994 240.034 111.678C240.053 111.568 240.049 111.456 240.023 111.348C239.997 111.24 239.949 111.138 239.882 111.05C239.815 110.961 239.73 110.887 239.634 110.832C239.537 110.777 239.43 110.743 239.32 110.731C239.121 110.674 238.909 110.694 238.725 110.785C238.54 110.875 238.395 111.031 238.319 111.223C238.305 111.248 238.299 111.278 238.303 111.306C235.298 124.873 232.744 138.757 230.688 152.505Z" fill="#BFD352"/>
<path d="M217.5 137.657C217.954 138.255 218.419 138.798 218.882 139.398C222.232 127.662 226.511 116.211 231.676 105.154C231.833 104.788 231.987 104.442 232.162 104.08C232.232 103.935 232.252 103.771 232.219 103.614C232.187 103.456 232.104 103.313 231.983 103.207L231.937 103.198C231.851 103.133 231.758 103.08 231.659 103.039C231.449 102.952 231.215 102.944 230.999 103.016C230.783 103.088 230.601 103.235 230.484 103.43L230.258 103.907C225.124 114.804 220.858 126.089 217.5 137.657Z" fill="#BFD352"/>
<path d="M201.526 111.378C201.849 112.105 202.211 112.831 202.553 113.562C204.507 108.914 206.7 104.38 208.862 99.9078L213.871 89.5522L214.046 89.1907C214.088 89.09 214.108 88.9819 214.106 88.8731C214.104 88.7643 214.08 88.657 214.035 88.558C213.99 88.4589 213.925 88.3702 213.844 88.2973C213.763 88.2243 213.668 88.1687 213.565 88.134C213.381 88.0573 213.177 88.0407 212.983 88.0865C212.789 88.1323 212.615 88.2381 212.484 88.389C212.438 88.3801 212.418 88.4823 212.391 88.5252L207.211 99.2144C205.278 103.201 203.317 107.23 201.526 111.378Z" fill="#BFD352"/>
<path d="M207.004 82.7939C207.071 82.952 207.179 83.089 207.318 83.1904C207.456 83.2917 207.619 83.3536 207.79 83.3693C207.91 83.3819 208.032 83.3759 208.15 83.3517C208.383 83.2818 208.619 83.2243 208.858 83.1794C217.486 81.0303 226.865 81.2914 235.804 82.085C234.544 81.4184 233.273 80.8077 232.001 80.2062C223.863 79.6054 215.419 79.7458 207.589 81.8073C207.516 81.8312 207.445 81.8628 207.378 81.9017C207.215 81.9756 207.085 82.1087 207.016 82.2743C206.946 82.4398 206.942 82.6254 207.004 82.7939V82.7939Z" fill="#BFD352"/>
<path d="M222.274 95.2851C222.292 95.4931 222.384 95.6878 222.532 95.8347C222.68 95.9815 222.876 96.071 223.084 96.0869C223.115 96.104 223.151 96.1109 223.186 96.1066L223.888 96.1162C236.252 96.1993 248.77 96.582 261.147 97.2461C260.294 96.6675 259.44 96.0982 258.587 95.5196C246.765 94.9238 234.855 94.5904 223.113 94.4823C222.983 94.4775 222.854 94.501 222.735 94.5513C222.615 94.6016 222.508 94.6773 222.421 94.7734C222.308 94.9189 222.256 95.1021 222.274 95.2851Z" fill="#BFD352"/>
<path d="M243.411 114.323C243.427 114.531 243.519 114.726 243.668 114.872C243.817 115.018 244.014 115.104 244.223 115.116C244.258 115.13 244.296 115.137 244.334 115.137C244.548 115.178 244.769 115.134 244.986 115.156C257.816 115.223 270.783 115.576 283.63 116.205C283.074 115.636 282.535 115.031 281.946 114.532C269.399 113.951 256.757 113.612 244.243 113.558C244.119 113.549 243.994 113.569 243.878 113.615C243.763 113.661 243.659 113.733 243.574 113.824C243.513 113.891 243.467 113.97 243.439 114.056C243.411 114.142 243.401 114.233 243.411 114.323V114.323Z" fill="#BFD352"/>
<path d="M252.916 123.402C252.917 123.629 253.005 123.847 253.161 124.011C253.318 124.176 253.531 124.274 253.758 124.287C254.112 124.355 254.515 124.365 254.877 124.386C267.035 125.629 279.283 125.725 291.459 124.672C291.024 124.174 290.595 123.648 290.139 123.165C278.055 124.148 265.905 123.993 253.851 122.704C253.634 122.685 253.417 122.739 253.233 122.855C253.139 122.913 253.061 122.993 253.005 123.088C252.95 123.184 252.919 123.291 252.916 123.402Z" fill="#BFD352"/>
<path d="M268.317 138.424C268.321 138.65 268.41 138.865 268.567 139.026C268.725 139.187 268.938 139.282 269.163 139.291L270.242 139.392L304.651 142.259L303.548 140.572L269.229 137.693C269.034 137.68 268.84 137.727 268.673 137.828C268.57 137.891 268.484 137.978 268.422 138.082C268.36 138.186 268.324 138.304 268.317 138.424V138.424Z" fill="#BFD352"/>
<path d="M285.554 156.78C285.582 157.001 285.687 157.205 285.85 157.356C286.013 157.507 286.224 157.596 286.446 157.607L288.354 157.714C297.391 158.274 306.368 159.559 315.199 161.556C314.941 160.96 314.662 160.356 314.361 159.746C305.262 157.752 296.014 156.508 286.711 156.029C286.622 156.007 286.532 155.99 286.442 155.977C286.33 155.967 286.217 155.98 286.11 156.016C286.004 156.051 285.906 156.109 285.822 156.184C285.739 156.26 285.672 156.352 285.626 156.454C285.58 156.557 285.556 156.668 285.554 156.78Z" fill="#BFD352"/>
<path d="M307.601 179.406C307.594 179.628 307.672 179.845 307.819 180.011C307.967 180.177 308.172 180.281 308.393 180.301L309.636 180.453L322.552 182.127C322.418 181.571 322.256 181.01 322.103 180.45L308.565 178.705C308.41 178.693 308.254 178.715 308.109 178.771C307.973 178.819 307.854 178.904 307.764 179.016C307.674 179.128 307.618 179.263 307.601 179.406V179.406Z" fill="#BFD352"/>
<path d="M250.791 89.1818C253.925 92.8874 257.288 96.3926 260.861 99.677C261.442 100.221 262.058 100.748 262.657 101.288C269.767 107.553 277.529 113.038 285.808 117.648C286.459 118.022 287.099 118.341 287.759 118.713C292.93 121.524 298.266 124.019 303.738 126.186C304.366 126.449 305.021 126.706 305.663 126.947C315.305 130.595 325.269 133.332 335.422 135.121C336.089 135.25 336.772 135.365 337.438 135.494C344.315 136.625 351.255 137.33 358.219 137.606L360.247 137.677C366.03 137.844 371.818 137.708 377.586 137.27C378.217 137.232 378.846 137.185 379.489 137.116C388.807 136.332 398.036 134.716 407.067 132.289C407.835 132.125 408.595 131.876 409.345 131.667L409.24 131.496C406.462 126.671 403.35 122.046 399.928 117.654C399.587 117.194 399.22 116.74 398.861 116.284C394.664 111.04 390.075 106.123 385.132 101.574C384.662 101.126 384.17 100.679 383.656 100.234C378.692 95.7737 373.431 91.6561 367.909 87.9092L366.237 86.7848C360.665 83.1169 354.871 79.7973 348.889 76.8448C348.295 76.5553 347.694 76.2379 347.086 75.9708C344.237 74.6423 341.323 73.3277 338.368 72.0896C337.634 71.7814 336.902 71.4342 336.165 71.2041C331.062 69.1559 325.84 67.3656 320.498 65.833C317.807 65.0614 314.35 64.2401 310.293 63.3726C309.282 63.172 308.273 62.9806 307.262 62.7799C298.596 61.1038 289.837 59.9462 281.033 59.3132V59.3132C279.613 59.1902 278.204 59.1228 276.798 59.0646C261.421 58.4139 247.436 60.1094 243.283 67.0554C243.073 67.3705 242.891 67.7041 242.741 68.0521C240.66 72.7748 242.614 79.5315 250.791 89.1818Z" fill="#437E14"/>
<path d="M242.709 68.0877C242.757 68.2054 242.831 68.3105 242.926 68.3944C243.022 68.4783 243.135 68.5387 243.258 68.5709C249.449 70.3675 255.698 72.2618 262.002 74.2537C262.593 74.4375 263.165 74.6252 263.732 74.7851C270.585 76.957 277.478 79.2299 284.413 81.6038L286.203 82.19C289.032 83.1548 291.88 84.164 294.737 85.2101L296.675 85.9004C304.931 88.8442 313.228 91.915 321.564 95.1129L323.775 95.9481C331.209 98.848 338.657 101.842 346.118 104.929L348.306 105.837C355.088 108.65 361.875 111.556 368.665 114.554C369.442 114.882 370.196 115.196 370.976 115.542C383.085 120.872 395.114 126.448 407.062 132.27C407.831 132.106 408.591 131.857 409.34 131.649L409.236 131.477C401.981 127.933 394.694 124.482 387.376 121.125L385.314 120.171C380.266 117.84 375.199 115.552 370.131 113.351C369.67 113.14 369.181 112.934 368.724 112.741C365.454 111.299 362.169 109.88 358.907 108.475L356.775 107.555C349.555 104.48 342.34 101.501 335.129 98.6185C334.446 98.3189 333.75 98.0512 333.074 97.7887C327.053 95.3685 321.069 93.0338 315.123 90.7847C314.427 90.5169 313.731 90.2491 313.02 90.0037C309.465 88.6774 305.93 87.3824 302.414 86.1187C301.809 85.8702 301.208 85.6402 300.595 85.4419C295.637 83.6531 290.695 81.9061 285.769 80.2011L285.722 80.211C282.339 79.0546 278.957 77.9204 275.577 76.8085L273.713 76.238C268.007 74.3573 262.33 72.5542 256.683 70.8287C256.049 70.6251 255.411 70.4512 254.8 70.2622C251.161 69.1795 247.552 68.1133 243.972 67.0634C243.754 66.9998 243.521 67.012 243.311 67.0978C243.083 67.1873 242.898 67.362 242.796 67.5852C242.707 67.7365 242.676 67.9153 242.709 68.0877V68.0877Z" fill="#BFD352"/>
<path d="M368.33 113.706C368.439 113.993 368.539 114.281 368.675 114.601C371.515 122.195 374.505 129.815 377.62 137.34C378.251 137.302 378.88 137.255 379.524 137.186C376.592 130.066 373.718 122.809 371.046 115.595C370.755 114.864 370.476 114.149 370.203 113.413C370.185 113.33 370.168 113.246 370.15 113.163C370.046 112.962 369.873 112.805 369.664 112.72C369.454 112.635 369.22 112.628 369.006 112.7C368.941 112.717 368.881 112.749 368.832 112.796C368.648 112.854 368.493 112.982 368.4 113.151C368.306 113.32 368.281 113.519 368.33 113.706Z" fill="#BFD352"/>
<path d="M346.11 104.892L346.128 104.976C349.618 116.072 353.665 126.986 358.253 137.676L360.282 137.747C355.757 127.335 351.763 116.7 348.316 105.884C348.146 105.407 348.007 104.981 347.856 104.452C347.777 104.243 347.622 104.072 347.42 103.974C347.219 103.876 346.989 103.86 346.776 103.928C346.562 103.973 346.374 104.098 346.251 104.277C346.127 104.457 346.077 104.677 346.11 104.892V104.892Z" fill="#BFD352"/>
<path d="M321.569 95.1314L321.586 95.2147L335.46 135.161C336.127 135.29 336.81 135.406 337.476 135.535L323.752 95.9726L323.301 94.6748C323.21 94.4688 323.044 94.3054 322.836 94.2182C322.628 94.1311 322.395 94.1267 322.184 94.2062V94.2062C321.984 94.2537 321.808 94.3757 321.694 94.5474C321.58 94.7192 321.535 94.9279 321.569 95.1314V95.1314Z" fill="#BFD352"/>
<path d="M303.741 126.195C304.368 126.458 305.023 126.716 305.665 126.956C305.722 126.826 305.732 126.68 305.693 126.544C302.219 113.16 299.148 99.4877 296.642 85.8785C296.574 85.5636 296.511 85.2673 296.444 84.9525C296.419 84.8443 296.372 84.7424 296.305 84.6531C296.239 84.5638 296.155 84.489 296.059 84.4334C295.963 84.3777 295.856 84.3424 295.746 84.3295C295.635 84.3166 295.524 84.3264 295.417 84.3584C295.213 84.3838 295.025 84.4841 294.89 84.6398C294.755 84.7955 294.683 84.9955 294.687 85.2015C294.684 85.2304 294.69 85.2596 294.705 85.2849C297.222 98.9497 300.278 112.732 303.741 126.195Z" fill="#BFD352"/>
<path d="M285.81 117.657C286.461 118.031 287.101 118.35 287.761 118.722C286.275 106.608 285.755 94.3955 286.205 82.1992C286.207 81.8017 286.214 81.4229 286.235 81.0215C286.242 80.8608 286.197 80.702 286.105 80.5694C286.014 80.4368 285.882 80.3377 285.729 80.287L285.683 80.2969C285.579 80.2705 285.472 80.2576 285.365 80.2583C285.138 80.2604 284.919 80.3441 284.748 80.4943C284.578 80.6444 284.467 80.8509 284.436 81.076L284.413 81.6036C283.93 93.6395 284.397 105.695 285.81 117.657Z" fill="#BFD352"/>
<path d="M260.861 99.6771C261.442 100.221 262.058 100.748 262.657 101.288C262.646 96.2469 262.9 91.2168 263.149 86.2556L263.728 74.7667L263.749 74.3653C263.748 74.2564 263.725 74.1489 263.68 74.0495C263.636 73.95 263.572 73.8607 263.492 73.787C263.412 73.7134 263.317 73.657 263.214 73.6213C263.112 73.5856 263.003 73.5714 262.894 73.5795C262.695 73.5806 262.501 73.6446 262.34 73.7624C262.179 73.8801 262.059 74.0457 261.998 74.2354C261.952 74.2453 261.973 74.3471 261.965 74.3973L261.358 86.2598C261.131 90.6842 260.894 95.1587 260.861 99.6771Z" fill="#BFD352"/>
<path d="M254.771 71.217C254.894 71.3367 255.047 71.4207 255.214 71.4601C255.381 71.4995 255.556 71.4929 255.719 71.4408C255.835 71.4055 255.944 71.3527 256.044 71.2843C256.231 71.1292 256.427 70.9842 256.629 70.8498C263.738 65.5095 272.478 62.0964 281.02 59.345C279.6 59.222 278.191 59.1546 276.785 59.0964C269.056 61.713 261.334 65.1316 254.926 70.0804C254.867 70.131 254.815 70.1877 254.768 70.2495C254.646 70.3813 254.579 70.5544 254.58 70.7339C254.58 70.9134 254.649 71.086 254.771 71.217V71.217Z" fill="#BFD352"/>
<path d="M273.701 76.7729C273.799 76.9574 273.959 77.1012 274.153 77.1786C274.347 77.2561 274.562 77.2623 274.76 77.1959C274.795 77.1994 274.831 77.1918 274.862 77.1741L275.512 76.9096C286.931 72.1699 298.609 67.6459 310.267 63.4361C309.257 63.2355 308.248 63.044 307.237 62.8434C296.117 66.8996 285.018 71.2323 274.161 75.7068C274.04 75.7528 273.93 75.8247 273.84 75.9176C273.749 76.0105 273.68 76.122 273.637 76.2445C273.59 76.4224 273.613 76.6115 273.701 76.7729Z" fill="#BFD352"/>
<path d="M300.584 86.0733C300.68 86.2585 300.84 86.4025 301.035 86.4785C301.229 86.5546 301.444 86.5575 301.641 86.4869C301.679 86.4865 301.717 86.4785 301.752 86.4632C301.965 86.4177 302.151 86.291 302.36 86.227C314.202 81.2906 326.282 76.5648 338.359 72.1398C337.625 71.8316 336.893 71.4845 336.157 71.2543C324.374 75.6069 312.598 80.2192 301.052 85.0441C300.934 85.0848 300.827 85.1516 300.739 85.2391C300.65 85.3267 300.583 85.4329 300.54 85.5502C300.51 85.6354 300.498 85.7263 300.506 85.8165C300.513 85.9067 300.54 85.9943 300.584 86.0733V86.0733Z" fill="#BFD352"/>
<path d="M312.875 90.7317C312.965 90.9405 313.13 91.1073 313.339 91.1978C313.547 91.2884 313.782 91.2959 313.996 91.2188C314.348 91.1437 314.723 90.996 315.065 90.8746C326.746 87.2829 338.064 82.6 348.869 76.8878C348.274 76.5982 347.674 76.2809 347.065 76.0138C336.319 81.6262 325.069 86.2169 313.464 89.7251C313.257 89.7925 313.078 89.926 312.955 90.1049C312.89 90.1945 312.849 90.2988 312.836 90.4082C312.822 90.5177 312.835 90.6289 312.875 90.7317Z" fill="#BFD352"/>
<path d="M332.912 98.5688C333.003 98.7749 333.169 98.9383 333.377 99.0254C333.584 99.1126 333.818 99.1169 334.028 99.0374L335.062 98.7104L367.869 87.9469L366.196 86.8225L333.467 97.5404C333.282 97.6036 333.122 97.7224 333.007 97.8805C332.937 97.9789 332.891 98.093 332.875 98.2129C332.858 98.3328 332.871 98.455 332.912 98.5688V98.5688Z" fill="#BFD352"/>
<path d="M355.938 108.76C356.05 108.952 356.226 109.099 356.435 109.175C356.644 109.25 356.873 109.25 357.082 109.174L358.88 108.529C367.422 105.525 376.19 103.211 385.101 101.61C384.631 101.161 384.139 100.715 383.625 100.269C374.467 101.977 365.466 104.435 356.711 107.617C356.621 107.632 356.531 107.651 356.442 107.674C356.335 107.709 356.237 107.765 356.152 107.839C356.068 107.913 356 108.005 355.953 108.107C355.905 108.208 355.88 108.319 355.877 108.431C355.875 108.544 355.895 108.656 355.938 108.76Z" fill="#BFD352"/>
<path d="M385.057 121.01C385.137 121.217 385.294 121.386 385.494 121.482C385.694 121.577 385.924 121.593 386.135 121.525L387.34 121.181L399.887 117.692C399.547 117.232 399.179 116.778 398.821 116.322L385.672 119.988C385.524 120.037 385.39 120.119 385.278 120.227C385.171 120.324 385.094 120.449 385.055 120.587C385.016 120.725 385.017 120.872 385.057 121.01V121.01Z" fill="#BFD352"/>
<path d="M-1 49.4547C23.6667 43.788 82.7 37.6547 121.5 58.4547C170 84.4547 225 129.955 272 134.455C319 138.955 361.5 79.9547 400 72.4547C430.8 66.4547 442.5 80.6214 444.5 88.4547" stroke="#FEFFB5" stroke-width="2"/>
<path d="M131.28 169.643L131.278 169.638L130.318 169.916C131.278 169.638 131.278 169.638 131.278 169.637L131.277 169.634L131.274 169.622L131.26 169.575L131.205 169.386C131.157 169.219 131.086 168.971 130.993 168.648C130.808 168.001 130.536 167.052 130.193 165.842C129.507 163.423 128.533 159.962 127.383 155.797C125.084 147.466 122.085 136.322 119.281 125.064C116.475 113.801 113.87 102.443 112.356 93.6786C111.598 89.2907 111.119 85.5883 111.02 82.8849C110.969 81.5282 111.017 80.4716 111.153 79.7243C111.221 79.3512 111.305 79.0931 111.386 78.9263C111.447 78.8013 111.49 78.7588 111.499 78.7515C111.592 78.6973 111.835 78.5917 112.293 78.4438C112.739 78.3004 113.324 78.1365 114.047 77.9539C115.492 77.5891 117.445 77.1599 119.841 76.679C124.629 75.7177 131.145 74.5578 138.815 73.3021C154.155 70.7911 174.087 67.9018 193.999 65.4587C213.916 63.015 233.794 61.0201 249.032 60.2942C256.657 59.9311 263.087 59.8874 267.77 60.257C270.116 60.4422 271.979 60.7281 273.32 61.1119C273.99 61.3037 274.495 61.5106 274.854 61.72C275.217 61.9325 275.368 62.1114 275.426 62.2189C276.05 63.393 276.672 65.5611 277.252 68.5831C277.826 71.5713 278.342 75.292 278.794 79.497C279.697 87.9047 280.34 98.1938 280.69 108.319C281.041 118.444 281.099 128.387 280.837 136.101C280.706 139.96 280.495 143.245 280.204 145.708C280.058 146.942 279.894 147.95 279.716 148.712C279.527 149.519 279.351 149.914 279.253 150.044C279.261 150.034 279.193 150.115 278.932 150.264C278.69 150.401 278.352 150.558 277.908 150.732C277.02 151.079 275.795 151.46 274.262 151.87C271.2 152.69 267.005 153.603 262.039 154.584C253.352 156.298 242.368 158.205 231.081 160.165C229.468 160.445 227.848 160.726 226.228 161.008C213.286 163.26 200.321 165.554 190.357 167.676C185.377 168.736 181.123 169.758 177.986 170.715C176.42 171.193 175.104 171.663 174.106 172.125C173.608 172.356 173.166 172.595 172.804 172.844C172.455 173.085 172.111 173.382 171.888 173.753C169.966 176.947 167.764 182.206 166.058 186.606C165.37 188.381 164.758 190.03 164.272 191.369C163.813 189.367 163.172 186.713 162.435 184.056C161.69 181.376 160.838 178.657 159.964 176.594C159.529 175.568 159.069 174.655 158.587 173.983C158.346 173.647 158.074 173.333 157.764 173.095C157.455 172.857 157.045 172.648 156.556 172.648C155.996 172.648 154.91 172.746 153.537 172.87C152.864 172.931 152.123 172.998 151.34 173.063C148.902 173.265 145.943 173.459 143.029 173.435C140.101 173.411 137.287 173.166 135.111 172.524C132.893 171.87 131.637 170.899 131.28 169.643Z" fill="#625ABB" stroke="white" stroke-width="2"/>
<path d="M144.065 158.397C144.065 158.397 123.844 88.034 128.775 85.0601C133.706 82.0861 255.061 63.7804 259.5 72.1911C263.938 80.6019 265.421 139.064 262.46 143.038C259.5 147.012 191 156 178.5 160L164.812 161.371C162.344 161.371 145.657 164.035 144.065 158.397Z" fill="#544DA1"/>
<path d="M149.813 142.663C149.813 142.663 155.152 133.678 162.553 137.235C169.954 140.793 171.821 136.757 177.58 135.385C183.34 134.013 184.705 137.834 187.618 135.989C190.532 134.144 191.268 130.43 196.004 129.766C200.741 129.103 208.677 130.281 212.07 129.428" stroke="white" stroke-width="1.63" stroke-linecap="round" stroke-linejoin="round"/>
<path d="M152.555 152.296C152.555 152.296 154.419 147.783 161.34 147.699C168.26 147.614 171.636 150.572 176.15 148.131C180.664 145.689 183.522 146.169 189.238 145.82C192.461 145.668 195.651 145.105 198.731 144.144" stroke="white" stroke-width="1.63" stroke-linecap="round" stroke-linejoin="round"/>
<path d="M225.154 127.86C229.668 125.418 232.526 125.898 238.242 125.549C241.465 125.397 244.655 124.834 247.735 123.874" stroke="white" stroke-width="1.63" stroke-linecap="round" stroke-linejoin="round"/>
<path d="M306.949 23.1591C299.402 16.5393 289.696 12.2119 279.688 12.0085C261.154 11.6286 248.529 24.0951 239.363 38.7863C223.594 64.0517 219.129 88.0555 248.893 105.521C262.82 113.701 279.526 113.816 293.656 107.739L303.34 116L301.513 103.54C309.457 98.442 315.778 91.1555 319.723 82.548C328.659 62.7969 323.21 37.4366 306.949 23.1591Z" fill="#FFFCF7" stroke="#C12E66" stroke-width="2" stroke-linejoin="round"/>
<path d="M285.759 56.5726C291.134 50.231 297.843 44.8976 305.574 41.8256C313.305 38.7536 322.078 38.0247 330 40.545C324.909 42.9289 320.36 46.3324 316.636 50.5445C312.978 54.6995 310.206 59.5357 307.1 64.1062C303.994 68.6768 300.377 73.0975 295.588 75.8834C292.519 77.711 288.989 78.6189 285.419 78.4992C282.694 78.3561 277.926 77.2866 276.795 74.3645C275.951 72.1507 278.062 69.1127 278.941 67.1714C280.714 63.3411 283.009 59.7743 285.759 56.5726V56.5726Z" fill="#BFD352"/>
<path d="M325.185 40.9536C317.283 42.4045 304.185 51.4367 301.664 53.126C298.991 54.9958 296.447 57.0439 294.049 59.2564C288.763 63.9495 283.15 69.1467 281.788 76.0877" stroke="#5F9C2F" stroke-width="1.31" stroke-linecap="round" stroke-linejoin="round"/>
<path d="M311.936 42.9153C311.561 44.4002 311.18 45.892 310.798 47.3769C310.758 47.5008 310.758 47.6345 310.798 47.7584C310.887 47.9491 311.139 47.9832 311.343 47.99L316.009 48.1671" stroke="#5F9C2F" stroke-width="1.31" stroke-linecap="round" stroke-linejoin="round"/>
<path d="M305.519 43.9031C304.865 46.4824 304.214 49.0684 303.564 51.6614L310.151 52.8602" stroke="#5F9C2F" stroke-width="1.31" stroke-linecap="round" stroke-linejoin="round"/>
<path d="M299.478 48.1604C298.384 50.9489 297.518 53.8213 296.889 56.7497C300.891 57.2873 304.857 58.0584 308.769 59.0589" stroke="#5F9C2F" stroke-width="1.31" stroke-linecap="round" stroke-linejoin="round"/>
<path d="M290.997 54.209C290.123 57.1019 289.499 60.0644 289.131 63.064C290.136 63.353 291.194 63.4065 292.223 63.2207C294.572 63.0251 296.936 63.1236 299.26 63.5137" stroke="#5F9C2F" stroke-width="1.31" stroke-linecap="round" stroke-linejoin="round"/>
<path d="M283.007 63.3842C282.721 65.6882 282.918 68.0266 283.586 70.2503C283.633 70.4749 283.744 70.6808 283.906 70.8428C284.158 70.9929 284.456 71.0464 284.744 70.9928L291.889 70.4887" stroke="#5F9C2F" stroke-width="1.31" stroke-linecap="round" stroke-linejoin="round"/>
<path d="M267.029 58.616C261.655 52.2745 254.945 46.9411 247.214 43.8691C239.483 40.7971 230.71 40.0681 222.788 42.5884C227.88 44.9724 232.428 48.3758 236.152 52.5879C239.81 56.743 242.582 61.5791 245.688 66.1497C248.794 70.7202 252.411 75.141 257.2 77.9269C260.269 79.7544 263.799 80.6623 267.369 80.5426C270.094 80.3996 274.862 79.3301 275.993 76.4079C276.838 74.1942 274.726 71.1562 273.847 69.2149C272.074 65.3845 269.779 61.8178 267.029 58.616V58.616Z" fill="#437E14"/>
<path d="M227.603 42.9971C235.505 44.4479 248.604 53.4801 251.124 55.1694C253.797 57.0392 256.342 59.0873 258.739 61.2998C264.025 65.993 269.638 71.1902 271 78.1312" stroke="#5F9C2F" stroke-width="1.31" stroke-linecap="round" stroke-linejoin="round"/>
<path d="M240.852 44.9587C241.227 46.4437 241.608 47.9354 241.99 49.4203C242.03 49.5443 242.03 49.6779 241.99 49.8018C241.901 49.9926 241.649 50.0267 241.445 50.0335L236.779 50.2106" stroke="#5F9C2F" stroke-width="1.31" stroke-linecap="round" stroke-linejoin="round"/>
<path d="M247.269 45.9465C247.923 48.5258 248.574 51.1119 249.224 53.7048L242.637 54.9037" stroke="#5F9C2F" stroke-width="1.31" stroke-linecap="round" stroke-linejoin="round"/>
<path d="M253.311 50.2039C254.404 52.9924 255.27 55.8648 255.899 58.7931C251.898 59.3307 247.931 60.1019 244.02 61.1024" stroke="#5F9C2F" stroke-width="1.31" stroke-linecap="round" stroke-linejoin="round"/>
<path d="M261.791 56.2524C262.665 59.1454 263.289 62.1079 263.657 65.1075C262.652 65.3964 261.594 65.45 260.565 65.2641C258.216 65.0686 255.853 65.1671 253.528 65.5571" stroke="#5F9C2F" stroke-width="1.31" stroke-linecap="round" stroke-linejoin="round"/>
<path d="M269.781 65.4276C270.067 67.7317 269.87 70.0701 269.202 72.2937C269.156 72.5183 269.044 72.7243 268.882 72.8862C268.63 73.0364 268.332 73.0898 268.044 73.0362L260.899 72.5322" stroke="#5F9C2F" stroke-width="1.31" stroke-linecap="round" stroke-linejoin="round"/>
<path d="M263.863 40.5621C258.414 45.8956 256.615 63.1152 261.486 72.665C264.374 78.3323 268.808 82.2557 275.109 83.0936C307.661 87.378 304.18 62.6589 303.329 58.6537C292.533 56.726 283.283 49.7986 275.613 42.0198" fill="#544DA1"/>
<path d="M265.279 38.7912C263.445 40.8408 262.113 43.2896 261.39 45.9433C260.205 49.9439 260.064 54.1814 260.981 58.2518C261.894 61.8947 263.431 65.3517 265.525 68.4692C267.078 70.8873 272.057 82.9165 290.727 79.2927C294.351 78.6116 299.153 75.342 301.537 72.6106C305.427 68.1354 304.718 60.4179 303.37 54.9005C302.17 50.262 299.91 45.9649 296.769 42.3468C292.641 37.7013 290.407 35.6374 284.399 33.7506C278.548 31.9047 270.088 33.6689 265.279 38.7912Z" fill="#625ABB"/>
<path d="M267.596 40.2557C265.931 42.1261 264.73 44.3613 264.087 46.7811C263.017 50.437 262.898 54.3053 263.74 58.0202C264.573 61.3461 265.974 64.5031 267.882 67.3521C269.298 69.5658 273.835 80.5597 290.762 77.2901C294.045 76.6567 298.397 73.7005 300.55 71.2074C304.071 67.1205 303.411 60.0773 302.178 55.0436C301.078 50.8057 299.02 46.8767 296.163 43.5593C292.41 39.3157 290.38 37.4289 284.931 35.6851C279.618 33.9958 271.948 35.5829 267.596 40.2557Z" fill="#FFF1EA"/>
<path d="M268.787 54.3284C268.93 55.8415 269.614 57.252 270.715 58.2996C271.144 58.6742 271.819 58.9807 272.241 58.572C272.376 58.4259 272.476 58.2513 272.534 58.0612C273.575 55.2704 273.625 52.2068 272.677 49.3832C272.077 47.6258 269.618 46.6927 268.651 48.7021C268.127 49.8396 268.638 53.15 268.787 54.3284Z" fill="#FFCA00"/>
<path d="M270.204 53.0342C270.27 53.946 270.631 54.8116 271.233 55.5C271.464 55.7248 271.825 55.9019 272.05 55.6635C272.127 55.5724 272.183 55.4654 272.214 55.3502C272.766 53.6027 272.792 51.7312 272.288 49.969C271.968 48.8792 270.647 48.3002 270.136 49.5603C269.85 50.2483 270.122 52.3054 270.204 53.0342Z" fill="#3E5936"/>
<path d="M286.708 56.0652C286.796 56.7102 287.011 57.3311 287.342 57.8915C287.673 58.4519 288.113 58.9403 288.636 59.328C289.058 59.6345 289.739 59.8661 290.155 59.5528C290.291 59.4418 290.395 59.2958 290.455 59.1304C290.969 58.0158 291.247 56.8068 291.272 55.5795C291.296 54.3522 291.067 53.1331 290.598 51.9987C289.998 50.5479 287.539 49.785 286.572 51.4538C286.048 52.3666 286.558 55.0912 286.708 56.0652Z" fill="#FFCA00"/>
<path d="M288.146 54.9959C288.221 55.7818 288.588 56.511 289.175 57.0394C289.406 57.2301 289.767 57.3732 289.992 57.1756C290.067 57.1052 290.121 57.0157 290.149 56.9168C290.707 55.4984 290.734 53.9258 290.224 52.4893C289.903 51.5901 288.589 51.127 288.078 52.1555C287.771 52.7072 288.044 54.3965 288.146 54.9959Z" fill="#3E5936"/>
<path d="M282.847 59.4575C282.911 59.9288 283.069 60.3825 283.311 60.7919C283.553 61.2013 283.875 61.5582 284.257 61.8416C284.57 62.0663 285.067 62.2366 285.374 62.005C285.471 61.9227 285.546 61.8173 285.592 61.6985C285.965 60.8821 286.166 59.9978 286.184 59.1003C286.202 58.2028 286.035 57.3113 285.694 56.4809C285.251 55.4251 283.453 54.8597 282.751 56.0858C282.363 56.7533 282.738 58.7491 282.847 59.4575Z" fill="#FFCA00"/>
<path d="M283.889 58.6809C283.946 59.2495 284.213 59.7764 284.638 60.159C284.808 60.2953 285.067 60.4042 285.237 60.2612C285.289 60.2062 285.328 60.1413 285.353 60.0705C285.755 59.0328 285.775 57.8856 285.408 56.835C285.169 56.1538 284.209 55.8269 283.834 56.5898C283.623 57.0053 283.827 58.2722 283.889 58.6809Z" fill="#3E5936"/>
<path d="M294.555 48.8451C294.192 48.5373 293.769 48.3062 293.314 48.1657C292.859 48.0253 292.38 47.9783 291.906 48.0277C291.524 48.0686 291.041 48.2797 290.972 48.6544C290.953 48.7812 290.969 48.9111 291.02 49.029C291.288 49.8828 291.728 50.6723 292.314 51.3485C292.9 52.0246 293.619 52.5729 294.426 52.9593C295.461 53.4429 297.151 52.6527 296.865 51.27C296.728 50.5139 295.114 49.2946 294.555 48.8451Z" fill="#FFCA00"/>
<path d="M294.311 50.0984C293.885 49.7132 293.331 49.5017 292.757 49.5058C292.54 49.5058 292.274 49.6216 292.247 49.8327C292.246 49.9103 292.262 49.987 292.294 50.0575C292.688 51.0973 293.445 51.959 294.426 52.4824C295.039 52.8094 295.986 52.4211 295.789 51.6106C295.639 51.1814 294.651 50.4049 294.311 50.0984Z" fill="#3E5936"/>
<path d="M277.493 51.774C276.968 52.1003 276.515 52.5312 276.164 53.0397C275.812 53.5483 275.569 54.1237 275.449 54.7302C275.371 54.99 275.367 55.2664 275.436 55.5286C275.506 55.7908 275.647 56.0285 275.844 56.2151C275.99 56.2976 276.154 56.34 276.321 56.3377C277.471 56.4114 278.622 56.2304 279.694 55.8077C280.765 55.385 281.73 54.731 282.52 53.8924C283.535 52.8162 283.242 50.2686 281.43 49.9825C280.415 49.8259 278.269 51.2836 277.493 51.774Z" fill="#FFCA00"/>
<path d="M278.957 52.7004C278.302 53.0607 277.814 53.6617 277.595 54.3761C277.52 54.6553 277.533 55.0572 277.785 55.1798C277.877 55.2213 277.978 55.24 278.078 55.2343C279.506 55.2363 280.88 54.6873 281.913 53.7017C282.56 53.0819 282.465 51.6991 281.368 51.5969C280.789 51.5425 279.44 52.4075 278.957 52.7004Z" fill="#3E5936"/>
<path d="M286.961 67.4271C287.578 67.3687 288.177 67.1823 288.719 66.8798C289.261 66.5772 289.734 66.1651 290.107 65.6697C290.289 65.4678 290.412 65.2204 290.463 64.9541C290.515 64.6878 290.493 64.4125 290.4 64.1575C290.303 64.021 290.172 63.9128 290.019 63.8442C289.017 63.2771 287.902 62.9385 286.754 62.8525C285.606 62.7665 284.453 62.9354 283.378 63.347C282.015 63.8714 281.15 66.2895 282.656 67.3385C283.48 67.9107 286.048 67.5361 286.961 67.4271Z" fill="#FFCA00"/>
<path d="M286.048 65.9625C286.79 65.9132 287.484 65.5817 287.989 65.0362C288.18 64.8182 288.33 64.464 288.159 64.2256C288.097 64.1515 288.017 64.0931 287.928 64.0553C286.653 63.4394 285.191 63.3346 283.841 63.7624C282.983 64.0349 282.479 65.3223 283.412 65.8944C283.889 66.201 285.482 66.017 286.048 65.9625Z" fill="#3E5936"/>
<path d="M278.739 72.2496C279.304 72.5056 279.915 72.642 280.535 72.6502C281.156 72.6584 281.771 72.5383 282.342 72.2972C282.819 72.0929 283.371 71.6161 283.35 71.1325C283.335 70.9658 283.276 70.8061 283.18 70.6693C282.594 69.6772 281.797 68.8268 280.844 68.1792C279.891 67.5315 278.807 67.1025 277.669 66.9229C276.212 66.6913 274.264 68.367 275.054 70.0222C275.483 70.9349 277.928 71.8954 278.739 72.2496Z" fill="#FFCA00"/>
<path d="M278.678 70.5331C279.344 70.8649 280.113 70.9259 280.823 70.7034C281.096 70.608 281.409 70.3764 281.375 70.0903C281.361 69.9909 281.321 69.897 281.259 69.8179C280.459 68.6428 279.241 67.817 277.854 67.5088C276.975 67.3248 275.885 68.1899 276.416 69.1435C276.689 69.6544 278.16 70.2879 278.678 70.5331Z" fill="#3E5936"/>
<path d="M276.015 43.6205C275.486 43.2956 274.897 43.0831 274.283 42.9963C273.668 42.9096 273.043 42.9505 272.445 43.1165C271.948 43.2527 271.349 43.6341 271.301 44.1382C271.291 44.3057 271.326 44.4727 271.403 44.6218C271.858 45.6802 272.542 46.6247 273.405 47.3878C274.269 48.1509 275.29 48.7137 276.396 49.0357C277.813 49.458 279.952 48.0412 279.386 46.3111C279.073 45.3302 276.805 44.0905 276.015 43.6205Z" fill="#FFCA00"/>
<path d="M275.885 45.3303C275.264 44.9168 274.508 44.7583 273.774 44.8876C273.494 44.9489 273.154 45.1396 273.147 45.4257C273.153 45.5259 273.181 45.6236 273.229 45.7118C273.876 46.9853 274.988 47.961 276.335 48.4364C277.179 48.7361 278.378 48.0209 277.963 46.9991C277.718 46.4542 276.335 45.6436 275.885 45.3303Z" fill="#3E5936"/>
<path d="M279.148 62.6248C280.168 61.504 280.748 60.0527 280.783 58.5379C280.783 57.9725 280.524 57.2846 279.959 57.2301C279.756 57.2265 279.555 57.2708 279.373 57.3595C276.613 58.4722 274.318 60.4994 272.875 63.1016C271.982 64.7296 272.95 67.1886 275.102 66.5074C276.28 66.1464 278.378 63.5308 279.148 62.6248Z" fill="#FFCA00"/>
<path d="M277.247 62.4546C277.878 61.7908 278.275 60.9394 278.378 60.0297C278.378 59.7095 278.276 59.3485 277.949 59.3145C277.83 59.3228 277.714 59.3553 277.608 59.4098C275.943 60.179 274.543 61.4232 273.583 62.9859C272.997 63.9599 273.453 65.3154 274.734 64.8523C275.422 64.5934 276.75 63.0404 277.247 62.4546Z" fill="#3E5936"/>
<path d="M288.766 67.8085C287.29 68.1643 285.993 69.0427 285.115 70.2811C284.808 70.7579 284.624 71.4663 285.06 71.8273C285.225 71.9434 285.413 72.0204 285.612 72.0521C288.521 72.6847 291.56 72.295 294.215 70.9486C295.87 70.1108 296.449 67.5428 294.297 66.8617C293.118 66.5211 289.917 67.4951 288.766 67.8085Z" fill="#FFCA00"/>
<path d="M290.251 69.0346C289.359 69.2243 288.554 69.7032 287.962 70.3969C287.764 70.6557 287.642 71.0372 287.907 71.2279C288.011 71.2915 288.127 71.3311 288.248 71.3437C290.054 71.6489 291.91 71.4119 293.581 70.6625C294.617 70.1925 295.005 68.803 293.684 68.476C292.955 68.2853 290.966 68.8507 290.251 69.0346Z" fill="#3E5936"/>
<path d="M284.059 47.4827C284.744 47.8839 285.504 48.1426 286.291 48.2432C287.079 48.3439 287.879 48.2845 288.643 48.0685C289.263 47.8846 290.005 47.3874 290.005 46.7607C290 46.5467 289.939 46.3377 289.828 46.1545C289.154 44.8215 288.208 43.6444 287.051 42.6988C285.894 41.7533 284.553 41.0603 283.112 40.6643C281.273 40.1535 278.664 41.9653 279.529 44.1519C280.013 45.3303 283.003 46.9037 284.059 47.4827Z" fill="#FFCA00"/>
<path d="M284.114 45.3302C284.923 45.8421 285.896 46.0295 286.838 45.8547C287.192 45.773 287.608 45.5345 287.587 45.1735C287.579 45.0475 287.534 44.9266 287.458 44.8261C286.531 43.22 285.048 42.0086 283.289 41.4204C282.186 41.0593 280.728 41.9721 281.328 43.2527C281.648 43.9679 283.473 44.9351 284.114 45.3302Z" fill="#3E5936"/>
<path d="M292.784 60.7993C292.757 61.5306 292.885 62.2593 293.161 62.937C293.437 63.6147 293.854 64.2258 294.385 64.7296C294.605 64.978 294.886 65.1654 295.2 65.274C295.514 65.3826 295.85 65.4085 296.177 65.3495C296.357 65.267 296.512 65.1377 296.626 64.9748C297.482 63.9492 298.086 62.7369 298.387 61.4354C298.689 60.1339 298.681 58.7798 298.363 57.4821C297.961 55.7996 295.162 54.3692 293.629 55.895C292.791 56.726 292.812 59.7299 292.784 60.7993Z" fill="#FFCA00"/>
<path d="M294.726 60.0296C294.663 60.9029 294.95 61.7652 295.523 62.4273C295.754 62.6861 296.163 62.9245 296.476 62.7747C296.578 62.7216 296.663 62.6415 296.722 62.5431C297.207 61.8797 297.552 61.1245 297.736 60.3235C297.919 59.5225 297.938 58.6925 297.791 57.884C297.6 56.8554 296.115 56.0176 295.264 56.9849C294.801 57.5162 294.76 59.3689 294.726 60.0296Z" fill="#3E5936"/>
</g>
<path d="M105.389 221.262L96.546 218.735L1.00028 191.435C17.4136 193.022 35.0074 195.806 63.4487 202.502C100.069 211.124 94.4569 205.96 79.7709 200.778C66.3087 196.027 59.5147 195.264 54.1986 184.978" stroke="#BFD352" stroke-linecap="round"/>
<path d="M186.733 125.01C193.282 123.164 199.191 119.567 203.804 114.617C213.677 103.43 213.108 86.3602 207.845 72.4952C207.69 71.8598 207.4 71.2645 206.994 70.7487C206.588 70.233 206.075 69.8086 205.49 69.5037C204.82 69.377 204.13 69.3918 203.466 69.5469C202.802 69.702 202.179 69.994 201.636 70.4037L166.719 90.0733L150.397 99.1899C146.831 101.198 136.754 104.618 135.348 108.646C132.565 116.666 149.798 123.106 155.196 124.788C165.447 127.942 176.423 128.019 186.733 125.01V125.01Z" fill="#FFB300"/>
<path d="M185.453 120.914C191.617 119.232 197.2 115.889 201.592 111.249C210.893 100.811 210.239 84.6986 205.161 71.6307C205.009 71.0169 204.728 70.4426 204.336 69.9459C203.945 69.4492 203.452 69.0415 202.891 68.7499C202.261 68.6288 201.613 68.6408 200.988 68.785C200.363 68.9293 199.775 69.2026 199.262 69.5875L166.16 87.9251L150.793 96.4469C147.43 98.3398 137.881 101.463 136.592 105.24C134.011 112.778 150.378 118.94 155.581 120.543C165.294 123.548 175.669 123.677 185.453 120.914V120.914Z" fill="#FFF3D3"/>
<mask id="mask1_1006_1435" style="mask-type:alpha" maskUnits="userSpaceOnUse" x="136" y="68" width="73" height="55">
<path d="M185.453 120.914C191.617 119.232 197.2 115.889 201.592 111.249C210.893 100.811 210.239 84.6986 205.161 71.6307C205.009 71.0169 204.728 70.4426 204.336 69.9459C203.945 69.4492 203.452 69.0415 202.891 68.7499C202.261 68.6288 201.613 68.6408 200.988 68.785C200.363 68.9293 199.775 69.2026 199.262 69.5875L166.16 87.9251L150.793 96.4469C147.43 98.3398 137.881 101.463 136.592 105.24C134.011 112.778 150.378 118.94 155.581 120.543C165.294 123.548 175.669 123.677 185.453 120.914V120.914Z" fill="#FFF3D3"/>
</mask>
<g mask="url(#mask1_1006_1435)">
<path d="M142.459 111.469C145.55 113.218 147.214 114.059 150.452 112.402C153.691 110.745 156.185 105.804 158.612 102.929C162.445 98.3556 165.689 93.3201 168.268 87.94C168.485 87.5251 168.531 87.0421 168.396 86.5939C168.145 85.9073 167.313 85.7686 166.621 85.7627C158.667 85.6788 150.993 88.9174 143.667 92.2713C140.571 93.7073 136.179 95.2207 135.886 99.3638C135.643 102.779 138.437 109.186 142.459 111.469Z" fill="#FFCA00"/>
<path d="M158.274 91.8894C156.663 91.7212 155.034 91.8862 153.489 92.3742C152.753 92.6133 151.949 93.1801 152.014 93.9468C152.078 94.7135 152.872 94.7751 153.472 94.837C155.499 95.0197 156.944 93.4658 158.258 91.8907" fill="#FFF3D3"/>
<path d="M151.065 99.8505C149.416 99.9515 147.809 100.405 146.351 101.182C145.658 101.546 144.913 102.253 145.231 102.966C145.549 103.679 146.205 103.64 146.892 103.581C148.92 103.41 150.088 101.622 151.096 99.8478" fill="#FFF3D3"/>
<path d="M146.162 108.453C147.884 108.073 149.478 107.251 150.786 106.068" stroke="#FF9100" stroke-width="0.61" stroke-linecap="round" stroke-linejoin="round"/>
<path d="M154.266 103.28C155.008 102.478 155.646 101.587 156.166 100.626" stroke="#FF9100" stroke-width="0.61" stroke-linecap="round" stroke-linejoin="round"/>
<path d="M150.739 103.61L152.674 101.951" stroke="#FF9100" stroke-width="0.61" stroke-linecap="round" stroke-linejoin="round"/>
<path d="M146.699 96.5355C147.26 96.1341 147.824 95.7648 148.405 95.41" stroke="#FF9100" stroke-width="0.61" stroke-linecap="round" stroke-linejoin="round"/>
<path d="M154.706 90.3893C156.307 89.2414 158.117 88.4163 160.034 87.9602" stroke="#FF9100" stroke-width="0.61" stroke-linecap="round" stroke-linejoin="round"/>
<path d="M160.13 90.4296C160.839 90.0498 161.593 89.7592 162.373 89.5643" stroke="#FF9100" stroke-width="0.61" stroke-linecap="round" stroke-linejoin="round"/>
<path d="M163.465 91.6278L165.013 90.9177" stroke="#FF9100" stroke-width="0.61" stroke-linecap="round" stroke-linejoin="round"/>
<path d="M164.632 89.0678L165.991 88.4059" stroke="#FF9100" stroke-width="0.61" stroke-linecap="round" stroke-linejoin="round"/>
<path d="M199.815 65.6638C197.499 63.7682 196.246 62.8285 193.315 63.7518C190.385 64.6751 187.61 68.3844 185.192 70.4227C181.355 73.6586 177.939 77.363 175.024 81.4491C174.788 81.7664 174.678 82.1595 174.715 82.553C174.804 82.8409 174.987 83.0907 175.235 83.2622C175.483 83.4338 175.781 83.5172 176.082 83.4992C179.568 83.4458 192.401 83.3909 198.947 81.6633C201.733 80.9292 202.673 80.0615 203.523 76.6113C203.789 74.6242 203.593 72.6027 202.949 70.7039C202.306 68.8051 201.234 67.0804 199.815 65.6638V65.6638Z" fill="#FFCA00"/>
<path d="M183.876 79.5909C185.198 79.9818 186.589 80.0837 187.955 79.8897C188.594 79.8357 189.397 79.446 189.342 78.7911C189.287 78.1362 188.759 77.9878 188.265 77.8526C186.619 77.4125 185.182 78.4832 183.876 79.5909Z" fill="#FFF3D3"/>
<path d="M190.999 74.0341C192.366 74.208 193.754 74.0907 195.072 73.6898C195.698 73.4761 196.413 72.9974 196.247 72.368C196.081 71.7385 195.545 71.6712 195.026 71.6186C193.324 71.4728 192.1 72.7828 191.004 74.098" fill="#FFF3D3"/>
<path d="M196.312 67.6167C194.844 67.696 193.421 68.1485 192.177 68.9315" stroke="#FF9100" stroke-width="0.52" stroke-linecap="round" stroke-linejoin="round"/>
<path d="M188.854 70.7405C188.12 71.2926 187.461 71.9377 186.893 72.6597" stroke="#FF9100" stroke-width="0.52" stroke-linecap="round" stroke-linejoin="round"/>
<path d="M191.818 70.9727L189.981 72.077" stroke="#FF9100" stroke-width="0.52" stroke-linecap="round" stroke-linejoin="round"/>
<path d="M194.149 77.4197C193.623 77.6732 193.095 77.8948 192.597 78.0978" stroke="#FF9100" stroke-width="0.52" stroke-linecap="round" stroke-linejoin="round"/>
<path d="M186.614 81.3543C185.135 82.07 183.533 82.4949 181.894 82.6058" stroke="#FF9100" stroke-width="0.52" stroke-linecap="round" stroke-linejoin="round"/>
<path d="M182.121 80.5275C181.482 80.7454 180.817 80.8774 180.143 80.9199" stroke="#FF9100" stroke-width="0.52" stroke-linecap="round" stroke-linejoin="round"/>
<path d="M179.541 79.1368L178.124 79.4979" stroke="#FF9100" stroke-width="0.52" stroke-linecap="round" stroke-linejoin="round"/>
<path d="M178.205 81.0193L176.981 81.3802" stroke="#FF9100" stroke-width="0.52" stroke-linecap="round" stroke-linejoin="round"/>
</g>
<path d="M207.72 88.9653C207.204 86.0972 206.855 84.6306 204.041 83.501C201.227 82.3715 181.209 83.822 177.665 84.9097C176.805 85.0282 175.964 85.2616 175.166 85.6035C174.408 86.7293 191.302 94.9378 197.295 97.713C199.857 98.8961 201.686 100.559 204.521 98.5019C205.819 97.3143 206.795 95.8158 207.354 94.1475C207.914 92.4791 208.04 90.6958 207.72 88.9653V88.9653Z" fill="#FFCA00"/>
<path d="M187.18 89.7522C187.938 90.9003 188.936 91.8698 190.106 92.5936C190.651 92.9497 191.492 93.1843 191.881 92.6527C192.27 92.1211 191.942 91.6662 191.665 91.2392C190.678 89.8426 188.884 89.7369 187.18 89.7522Z" fill="#FFF3D3"/>
<path d="M196.195 90.0199C197.162 91.0084 198.323 91.7865 199.605 92.3056C200.22 92.5432 201.082 92.6473 201.37 92.0599C201.437 91.8123 201.428 91.5504 201.344 91.308C201.261 91.0656 201.107 90.8538 200.901 90.7C199.69 89.4993 197.922 89.7131 196.227 90.0172" fill="#FFF3D3"/>
<path d="M204.385 88.5233C203.215 87.6391 201.837 87.0689 200.384 86.8666" stroke="#FF9100" stroke-width="0.52" stroke-linecap="round" stroke-linejoin="round"/>
<path d="M196.668 86.1029C195.751 86.0597 194.833 86.1374 193.937 86.3337" stroke="#FF9100" stroke-width="0.52" stroke-linecap="round" stroke-linejoin="round"/>
<path d="M198.791 88.1918L196.671 87.8561" stroke="#FF9100" stroke-width="0.52" stroke-linecap="round" stroke-linejoin="round"/>
<path d="M196.424 94.6336C195.864 94.4878 195.318 94.3087 194.772 94.1296" stroke="#FF9100" stroke-width="0.52" stroke-linecap="round" stroke-linejoin="round"/>
<path d="M185.224 89.2739C184.596 89.0217 184.002 88.6938 183.453 88.2975" stroke="#FF9100" stroke-width="0.52" stroke-linecap="round" stroke-linejoin="round"/>
<path d="M184.185 86.4982L182.876 85.8528" stroke="#FF9100" stroke-width="0.52" stroke-linecap="round" stroke-linejoin="round"/>
<path d="M181.906 87.1253L180.737 86.6128" stroke="#FF9100" stroke-width="0.52" stroke-linecap="round" stroke-linejoin="round"/>
<path d="M167.508 121.578C170.584 121.431 171.964 120.622 173.039 117.169C173.926 113.599 174.201 109.904 173.853 106.242C173.618 100.422 173.305 94.4318 171.204 89.1719C171.09 88.761 170.838 88.4017 170.491 88.1544C169.936 87.8795 169.301 88.3515 168.942 88.8644C164.163 95.6139 160.153 102.876 156.985 110.515C155.854 113.699 154.646 114.815 156.934 117.903C158.702 120.36 164.8 121.71 167.508 121.578Z" fill="#FFCA00"/>
<path d="M167.193 99.0023C166.033 100.062 165.092 101.338 164.422 102.76C164.078 103.448 163.87 104.415 164.436 104.834C165.002 105.252 165.459 104.747 165.88 104.406C167.264 103.082 167.28 100.99 167.193 99.0023Z" fill="#FFF3D3"/>
<path d="M167.28 109.548C166.293 110.8 165.552 112.227 165.094 113.754C164.867 114.498 164.808 115.516 165.424 115.77C166.041 116.023 166.433 115.523 166.796 115.058C167.983 113.494 167.666 111.462 167.28 109.548Z" fill="#FFF3D3"/>
<path d="M169.21 118.876C170.069 117.358 170.575 115.666 170.69 113.925" stroke="#FF9100" stroke-width="0.57" stroke-linecap="round" stroke-linejoin="round"/>
<path d="M171.305 109.594C171.346 108.522 171.256 107.449 171.035 106.399" stroke="#FF9100" stroke-width="0.57" stroke-linecap="round" stroke-linejoin="round"/>
<path d="M169.268 112.324L169.523 109.825" stroke="#FF9100" stroke-width="0.57" stroke-linecap="round" stroke-linejoin="round"/>
<path d="M162.557 110.398C162.694 109.727 162.832 109.071 163.001 108.414" stroke="#FF9100" stroke-width="0.57" stroke-linecap="round" stroke-linejoin="round"/>
<path d="M164.054 100.506C164.39 98.5943 165.051 96.7538 166.007 95.0646" stroke="#FF9100" stroke-width="0.57" stroke-linecap="round" stroke-linejoin="round"/>
<path d="M167.512 96.6908C167.738 95.9331 168.043 95.201 168.422 94.5066" stroke="#FF9100" stroke-width="0.57" stroke-linecap="round" stroke-linejoin="round"/>
<path d="M170.323 95.118L170.923 93.4587" stroke="#FF9100" stroke-width="0.57" stroke-linecap="round" stroke-linejoin="round"/>
<path d="M169.575 92.543L170.051 91.1353" stroke="#FF9100" stroke-width="0.57" stroke-linecap="round" stroke-linejoin="round"/>
<path d="M197.912 110.917C200.198 108.262 200.622 106.618 198.643 103.567C196.375 100.558 193.561 98.0014 190.348 96.0318C185.424 92.587 180.287 89.0959 174.349 87.5547C173.904 87.3906 173.417 87.3752 172.962 87.511C172.294 87.7927 172.988 90.2919 173.078 90.976C174.502 99.6337 176.557 108.176 179.227 116.533C180.306 119.772 180.778 120.038 183.424 119.75C186.835 119.365 195.913 113.145 197.912 110.917Z" fill="#FFCA00"/>
<path d="M179.22 97.0366C179.181 98.6352 179.491 100.223 180.129 101.689C180.43 102.404 181.078 103.218 181.846 102.976C182.614 102.734 182.609 102.107 182.623 101.511C182.632 99.5314 180.944 98.2101 179.231 96.9714" fill="#FFF3D3"/>
<path d="M187.897 103.575C188.152 105.165 188.74 106.684 189.625 108.03C190.049 108.669 190.848 109.358 191.542 109.01C192.237 108.661 192.133 108.011 192.014 107.361C191.671 105.395 189.763 104.334 187.892 103.511" fill="#FFF3D3"/>
<path d="M197.024 107.823C196.474 106.175 195.513 104.694 194.231 103.522" stroke="#FF9100" stroke-width="0.61" stroke-linecap="round" stroke-linejoin="round"/>
<path d="M191.091 100.248C190.219 99.5644 189.263 98.9963 188.246 98.5582" stroke="#FF9100" stroke-width="0.61" stroke-linecap="round" stroke-linejoin="round"/>
<path d="M191.732 103.653L189.877 101.879" stroke="#FF9100" stroke-width="0.61" stroke-linecap="round" stroke-linejoin="round"/>
<path d="M184.894 108.011C184.447 107.486 184.033 106.958 183.617 106.414" stroke="#FF9100" stroke-width="0.61" stroke-linecap="round" stroke-linejoin="round"/>
<path d="M177.992 100.583C176.71 99.1081 175.724 97.3999 175.089 95.5518" stroke="#FF9100" stroke-width="0.61" stroke-linecap="round" stroke-linejoin="round"/>
<path d="M177.602 95.3878C177.155 94.7275 176.797 94.0114 176.537 93.2578" stroke="#FF9100" stroke-width="0.61" stroke-linecap="round" stroke-linejoin="round"/>
<path d="M178.529 92.0919L177.675 90.5554" stroke="#FF9100" stroke-width="0.61" stroke-linecap="round" stroke-linejoin="round"/>
<path d="M175.816 91.0182L175.032 89.7332" stroke="#FF9100" stroke-width="0.61" stroke-linecap="round" stroke-linejoin="round"/>
<path d="M356.68 44.1112C359.173 44.4141 365.238 41.938 368.855 40.3341C371.322 39.4417 373.562 37.9976 375.409 36.1097C376.302 35.1357 376.848 33.8875 376.958 32.5667C377.068 31.2459 376.735 29.9296 376.014 28.8307C375.243 28.036 374.26 27.4863 373.183 27.2481C372.107 27.0099 370.983 27.0935 369.947 27.4885C367.883 28.3117 366.003 29.5536 364.425 31.1378C360.522 34.5834 356.408 38.8831 356.68 44.1112Z" fill="#3E5936"/>
<path d="M99.6957 151.552C97.2559 150.955 90.9394 152.691 87.1569 153.853C84.6016 154.446 82.2054 155.613 80.1467 157.267C79.1439 158.128 78.4534 159.302 78.1872 160.601C77.921 161.899 78.0946 163.246 78.6796 164.423C79.3504 165.303 80.2612 165.966 81.3018 166.331C82.3424 166.696 83.468 166.746 84.5435 166.477C86.6911 165.906 88.7052 164.896 90.461 163.511C94.7465 160.555 99.3429 156.776 99.6957 151.552Z" fill="#3E5936"/>
<path d="M114.896 151.099C113.495 151.83 111.232 155.275 109.928 157.395C108.966 158.737 108.319 160.284 108.034 161.921C107.918 162.744 108.079 163.586 108.493 164.31C108.907 165.034 109.548 165.598 110.314 165.911C110.996 166.049 111.702 165.984 112.345 165.724C112.989 165.464 113.541 165.02 113.938 164.446C114.715 163.284 115.247 161.97 115.502 160.586C116.298 157.409 116.9 153.713 114.896 151.099Z" fill="#90A22F"/>
<path d="M100.412 144.536C99.8808 143.563 97.4355 142.022 95.9315 141.135C94.9781 140.479 93.8849 140.045 92.7332 139.867C92.1544 139.796 91.5663 139.921 91.064 140.22C90.5617 140.52 90.1747 140.977 89.9653 141.518C89.8778 141.998 89.9329 142.492 90.1237 142.94C90.3145 143.388 90.6329 143.769 91.0405 144.04C91.8658 144.57 92.7939 144.925 93.7676 145.085C96.0061 145.602 98.6052 145.975 100.412 144.536Z" fill="#90A22F"/>
<path d="M343.773 43.3445C345.114 42.4745 347.065 38.7895 348.176 36.5296C349.017 35.0869 349.521 33.4672 349.652 31.7913C349.691 30.9511 349.448 30.1188 348.962 29.429C348.476 28.7393 347.777 28.2324 346.976 27.9901C346.275 27.9167 345.571 28.0497 344.948 28.3729C344.325 28.6961 343.81 29.1957 343.466 29.8114C342.794 31.0561 342.383 32.4298 342.259 33.8478C341.76 37.1236 341.506 40.9025 343.773 43.3445Z" fill="#90A22F"/>
<path d="M345.289 60.8689C347.003 61.9757 352.313 62.3203 355.525 62.433C357.644 62.6569 359.793 62.3975 361.813 61.6742C362.811 61.2798 363.653 60.5617 364.203 59.6358C364.752 58.7098 364.976 57.6301 364.84 56.5713C364.559 55.717 364.036 54.9663 363.334 54.41C362.632 53.8537 361.781 53.5157 360.884 53.4365C359.084 53.3049 357.27 53.5447 355.554 54.1416C351.479 55.2728 346.947 56.9532 345.289 60.8689Z" fill="#90A22F"/>
<path d="M337.745 157.758C334.047 158.971 334.533 163.897 335.239 166.208C336.981 173.666 345.09 170.024 345.066 165.66C345.043 161.296 342.368 156.241 337.745 157.758Z" fill="white"/>
<path d="M339.084 157.302C335.385 158.515 335.872 163.441 336.578 165.752C338.32 173.209 346.429 169.567 346.405 165.204C346.381 160.84 343.707 155.785 339.084 157.302Z" fill="#C12E66"/>
<path d="M67.2194 41.4064L97.8206 30.4804C99.3143 29.9471 100.958 30.7257 101.491 32.2194L112.417 62.8206C112.95 64.3144 112.172 65.9577 110.678 66.491L80.0768 77.417C78.5831 77.9503 76.9398 77.1718 76.4064 75.678L65.4804 45.0769C64.9471 43.5831 65.7256 41.9398 67.2194 41.4064Z" fill="white" stroke="#437E14" stroke-width="3"/>
<circle cx="80" cy="57" r="3" fill="#BFD352"/>
<circle cx="90" cy="54" r="3" fill="#BFD352"/>
<circle cx="100" cy="51" r="3" fill="#BFD352"/>
<path d="M173.407 43.5761C170.623 46.2965 173.232 50.5023 174.885 52.2651C179.737 58.1898 185.409 51.3447 183.463 47.4389C181.517 43.5331 176.887 40.1756 173.407 43.5761Z" fill="white"/>
<path d="M174.407 42.5761C171.623 45.2965 174.232 49.5023 175.885 51.2651C180.737 57.1898 186.409 50.3447 184.463 46.4389C182.517 42.5331 177.887 39.1756 174.407 42.5761Z" fill="#C12E66"/>
<path d="M195.761 28.5756C193.657 34.8909 200.916 39.2435 204.809 40.6304C216.824 45.841 220.09 30.9946 214.074 26.5789C208.059 22.1632 198.391 20.6814 195.761 28.5756Z" fill="white"/>
<path d="M196.499 26.2725C194.395 32.5878 201.654 36.9404 205.546 38.3273C217.562 43.5379 220.828 28.6915 214.812 24.2758C208.796 19.8601 199.129 18.3783 196.499 26.2725Z" fill="#C12E66"/>
</svg>
