<svg width="1440" height="662" viewBox="0 0 1440 662" fill="none" xmlns="http://www.w3.org/2000/svg">
<rect y="85" width="1440" height="543" fill="#BFD352"/>
<rect x="788" y="158" width="255" height="259" rx="127.5" fill="#5F9C2F"/>
<path d="M587.06 234.289C586.848 238.405 587.06 243.06 590.073 245.861C592.124 247.742 595.194 250.967 597.967 251.321C601.602 251.774 622.85 257.418 623.699 235.944C623.802 233.754 623.365 231.573 622.426 229.592C621.526 227.792 620.368 226.134 618.988 224.669C609.397 215.318 587.824 219.987 587.06 234.289Z" fill="#C12E66"/>
<g style="mix-blend-mode:multiply" opacity="0.38">
<path d="M617.715 226.338C618.373 228.551 618.561 230.877 618.269 233.166C617.977 235.456 617.21 237.66 616.018 239.636C614.8 241.596 613.13 243.236 611.149 244.42C609.168 245.604 606.933 246.296 604.63 246.44C602.739 246.422 600.85 246.304 598.971 246.087C597.223 245.995 595.471 245.995 593.723 246.087C592.749 246.06 591.782 246.253 590.894 246.653C592.874 248.52 595.491 250.897 597.882 251.264C601.517 251.717 622.765 257.362 623.614 235.887C623.717 233.698 623.28 231.516 622.341 229.535C621.441 227.736 620.283 226.077 618.903 224.612C617.694 223.452 616.304 222.497 614.787 221.783H614.603C616.186 222.847 617.3 224.477 617.715 226.338Z" fill="#C12E66"/>
</g>
<g style="mix-blend-mode:multiply" opacity="0.38">
<path d="M605.634 222.109C607.474 222.264 609.321 222.307 611.165 222.236C611.588 222.19 612.015 222.224 612.425 222.335C612.632 222.385 612.822 222.493 612.972 222.645C613.122 222.798 613.226 222.989 613.273 223.198C613.292 223.431 613.245 223.665 613.138 223.872C613.03 224.08 612.866 224.253 612.665 224.372C611.889 224.822 611 225.038 610.104 224.995L608.393 225.079C607.266 225.194 606.129 225.123 605.026 224.867C604.475 224.732 603.965 224.464 603.541 224.087C603.116 223.71 602.791 223.235 602.593 222.703C601.857 220.454 604.686 222.024 605.634 222.109Z" fill="#C12E66"/>
</g>
<path d="M594.84 232.662C594.671 233.963 594.175 235.194 593.906 236.467C593.662 237.663 593.586 238.886 593.68 240.103C593.845 240.88 593.703 241.691 593.284 242.366C592.975 242.649 592.579 242.82 592.161 242.851C591.742 242.882 591.326 242.771 590.978 242.536C590.321 242.024 589.829 241.331 589.563 240.541C588.46 237.995 587.456 232.662 589.563 230.328C590.54 229.488 591.73 228.935 593.001 228.729C594.699 228.8 594.996 231.332 594.84 232.662Z" fill="#FFE4E1"/>
<path d="M625.51 227.626C626.67 231.573 628.339 235.902 632.201 237.528C634.762 238.618 638.737 240.641 641.453 240.046C645.046 239.268 666.917 237.5 660.593 216.959C659.957 214.865 658.821 212.957 657.283 211.4C655.837 210.005 654.192 208.832 652.402 207.92C640.236 202.289 621.464 213.89 625.51 227.626Z" fill="#C12E66"/>
<g style="mix-blend-mode:multiply" opacity="0.38">
<path d="M651.752 209.914C653.105 211.783 654.055 213.912 654.542 216.167C655.029 218.422 655.043 220.753 654.581 223.014C654.08 225.268 653.048 227.371 651.572 229.147C650.096 230.924 648.218 232.322 646.093 233.228C644.339 233.921 642.472 234.246 640.647 234.77C638.822 235.293 637.351 235.915 635.724 236.566C634.825 236.858 634 237.341 633.305 237.981C635.809 239.084 639.076 240.513 641.425 240.004C645.018 239.226 666.888 237.457 660.565 216.917C659.929 214.822 658.793 212.914 657.255 211.357C655.808 209.963 654.164 208.79 652.374 207.877C650.843 207.175 649.21 206.722 647.536 206.533H647.366C649.207 207.057 650.777 208.267 651.752 209.914Z" fill="#C12E66"/>
</g>
<g style="mix-blend-mode:multiply" opacity="0.38">
<path d="M638.906 209.957C640.691 209.5 642.444 208.928 644.155 208.245C644.543 208.063 644.959 207.949 645.386 207.906C645.599 207.889 645.812 207.93 646.004 208.025C646.196 208.119 646.359 208.264 646.475 208.443C646.565 208.66 646.594 208.897 646.559 209.129C646.524 209.36 646.426 209.578 646.277 209.759C645.691 210.425 644.932 210.914 644.084 211.173L642.486 211.81C641.465 212.3 640.37 212.616 639.246 212.744C638.681 212.801 638.111 212.719 637.586 212.504C637.06 212.289 636.596 211.949 636.233 211.513C634.846 209.646 638.029 210.183 638.906 209.957Z" fill="#C12E66"/>
</g>
<path d="M632.286 223.495C632.569 224.768 632.512 226.098 632.682 227.399C632.86 228.603 633.198 229.778 633.686 230.894C634.105 231.569 634.242 232.382 634.068 233.157C633.874 233.531 633.557 233.827 633.171 233.997C632.786 234.166 632.354 234.199 631.946 234.091C631.139 233.83 630.425 233.338 629.895 232.676C628.013 230.639 625.283 225.942 626.514 223.042C627.16 221.924 628.099 221.005 629.23 220.383C630.871 219.902 632.003 222.193 632.286 223.495Z" fill="#FFE4E1"/>
<path d="M606.553 223.792C606.687 212.906 609.788 202.263 615.522 193.009C616.95 190.942 618.222 188.772 619.328 186.516C620.747 183.271 621.189 179.682 620.601 176.189C623.614 183.149 629.513 188.398 633.63 194.764C637.145 200.086 639.203 206.236 639.6 212.602" stroke="#5F9C2F" stroke-width="2" stroke-linecap="round" stroke-linejoin="round"/>
<path d="M642.825 177.406C651.143 179.231 659.334 183.743 663.38 191.241C660.762 188.228 656.49 187.252 652.501 187.195C648.511 187.138 644.536 187.86 640.561 187.52C633.007 186.884 624.265 182.173 619.087 176.698C621.025 174.972 628.098 176.033 630.772 176.104C634.822 176.155 638.857 176.591 642.825 177.406Z" fill="#5F9C2F"/>
<path d="M635.158 167.503C638.623 166.231 642.331 165.757 646.005 166.117C649.68 166.477 653.225 167.662 656.378 169.583C654.802 169.065 653.124 168.939 651.49 169.218C649.855 169.496 648.313 170.17 646.998 171.181C644.367 172.935 642.175 175.326 639.402 176.84C634.111 179.669 625.736 179.797 619.243 177.632C619.526 175.34 624.732 173.006 626.514 171.86C629.216 170.077 632.117 168.615 635.158 167.503Z" fill="#3E5936"/>
<path d="M688.953 359.536C679.47 344.235 666.802 330.697 651.261 321.655C635.721 312.612 617.156 308.269 599.395 311.127C609.532 317.849 618.178 326.583 624.798 336.786C631.304 346.84 635.693 358.078 640.919 368.854C646.146 379.631 652.455 390.223 661.797 397.707C667.782 402.599 675.045 405.671 682.724 406.557C688.602 407.123 699.181 406.352 702.479 400.419C704.949 395.974 701.442 388.77 700.174 384.335C697.6 375.589 693.824 367.243 688.953 359.536Z" fill="#5F9C2F"/>
<path d="M609.563 313.534C626.031 319.16 651.167 342.686 656.023 347.088C661.145 351.955 665.928 357.167 670.339 362.687C680.164 374.416 690.463 387.323 691.19 402.595" stroke="#BFD352" stroke-width="1.31" stroke-linecap="round" stroke-linejoin="round"/>
<path d="M637.308 321.957L638.319 331.87C638.378 332.145 638.341 332.432 638.217 332.684C637.963 333.061 637.405 333.025 636.963 333.005L626.939 331.894" stroke="#BFD352" stroke-width="1.31" stroke-linecap="round" stroke-linejoin="round"/>
<path d="M650.708 326.118L652.415 343.333L637.939 343.812" stroke="#BFD352" stroke-width="1.31" stroke-linecap="round" stroke-linejoin="round"/>
<path d="M662.318 337.139C663.764 343.453 664.698 349.874 665.109 356.339C656.378 356.215 647.646 356.598 638.959 357.485" stroke="#BFD352" stroke-width="1.31" stroke-linecap="round" stroke-linejoin="round"/>
<path d="M678.486 352.807C679.439 359.263 679.835 365.789 679.67 372.313C677.477 372.824 675.198 372.176 672.995 371.66C668.036 370.486 662.949 369.943 657.854 370.043" stroke="#BFD352" stroke-width="1.31" stroke-linecap="round" stroke-linejoin="round"/>
<path d="M384 325.25C143.518 174.025 -4.5 386.584 -26 458.25L2 628.25H1465.5L1525 596.75C1524.5 566.917 1508.7 500.95 1449.5 475.75C1375.5 444.25 1359.5 523.5 1195 485C1030.5 446.5 1004.95 224.063 840.5 325.25C641 448 595.5 458.25 384 325.25Z" fill="#91A22F"/>
<path d="M522.808 460.778C524.479 466.519 526.884 472.815 532.449 475.182C536.138 476.766 541.865 479.708 545.779 478.844C550.956 477.713 582.468 475.14 573.357 445.263C572.441 442.217 570.804 439.441 568.587 437.177C566.503 435.148 564.134 433.442 561.555 432.115C544.026 423.925 516.978 440.798 522.808 460.778Z" fill="#C12E66"/>
<path d="M768.808 177.778C770.479 183.519 772.884 189.815 778.449 192.182C782.138 193.766 787.865 196.708 791.779 195.844C796.956 194.713 828.468 192.14 819.357 162.263C818.441 159.217 816.804 156.441 814.587 154.177C812.503 152.148 810.134 150.442 807.555 149.115C790.026 140.925 762.978 157.798 768.808 177.778Z" fill="#C12E66"/>
<rect x="204" y="195" width="255" height="259" rx="127.5" fill="#9DB12C"/>
<path d="M185.283 346.044C188.511 343.939 192.611 343.007 195.056 340.05C196.811 337.904 197.403 335.076 198.267 332.446C201.656 322.102 202.91 314.565 211.424 307.662C224.497 297.075 233.526 288.825 248.84 281.857C262.278 275.754 289.206 269.891 303.941 271.051C318.676 272.211 332.54 279.638 344.788 288.187C352.982 293.926 367.112 318.794 373.793 326.234C383.509 337.035 384.33 331.375 391.365 344.094C393.068 347.151 394.629 351.302 392.169 353.78C389.832 356.122 384.921 361.697 382.41 363.728C381.436 364.621 376.71 368.099 376.119 369.29C362.895 395.885 341.458 418.751 312.686 426.124C283.915 433.497 251.714 425.946 226.092 410.799C218.225 406.15 206.927 384.985 206.927 384.985C202.408 381.325 197.337 379.852 192.266 377.325C181.005 371.884 171.831 354.872 185.283 346.044Z" fill="#FFCA00"/>
<path d="M219.247 319.211C231.367 307.166 250.588 307.13 266.531 300.997C276.359 297.216 285.112 290.99 295.025 287.4C298.081 286.15 301.369 285.568 304.669 285.693C309.573 286.154 313.95 289.048 317.926 292.017C326.329 298.005 333.941 305.032 340.581 312.931C354.905 330.695 361.534 353.76 374.488 372.353C374.987 371.381 375.498 370.397 375.986 369.413C376.473 368.428 381.201 364.634 382.277 363.851C384.848 361.764 389.747 356.2 392.035 353.902C394.495 351.425 392.934 347.274 391.231 344.217C384.196 331.497 383.375 337.158 373.659 326.357C367.034 318.978 352.848 294.049 344.654 288.31C332.37 279.794 318.705 272.364 303.807 271.174C288.91 269.984 262.157 275.866 248.706 281.98C233.393 288.948 224.364 297.197 211.29 307.785C202.825 314.643 201.571 322.18 198.133 332.569C197.269 335.198 196.677 338.027 194.922 340.173C192.477 343.13 188.377 344.062 185.15 346.167C183.72 347.12 182.446 348.287 181.372 349.628C198.612 355.284 209.72 328.678 219.247 319.211Z" fill="#FFB400"/>
<path d="M241.077 322.635C245.018 320.22 249.461 318.741 254.064 318.314" stroke="#FF9100" stroke-width="1.63" stroke-linecap="round" stroke-linejoin="round"/>
<path d="M231.522 319.912C234.142 318.588 236.763 317.24 239.395 315.905" stroke="#FF9100" stroke-width="1.63" stroke-linecap="round" stroke-linejoin="round"/>
<path d="M215.44 315.862C217.905 313.615 220.724 311.79 223.783 310.46" stroke="#FF9100" stroke-width="1.63" stroke-linecap="round" stroke-linejoin="round"/>
<path d="M245.111 304.235C247.277 303.125 249.431 302.026 251.596 300.94" stroke="#FF9100" stroke-width="1.63" stroke-linecap="round" stroke-linejoin="round"/>
<path d="M233.549 300.863L239.228 297.275" stroke="#FF9100" stroke-width="1.63" stroke-linecap="round" stroke-linejoin="round"/>
<path d="M264.38 291.626C267.497 289.708 270.813 288.136 274.271 286.936" stroke="#FF9100" stroke-width="1.63" stroke-linecap="round" stroke-linejoin="round"/>
<path d="M267.455 303.4C270.875 301.321 274.498 299.595 278.267 298.247" stroke="#FF9100" stroke-width="1.63" stroke-linecap="round" stroke-linejoin="round"/>
<path d="M295.678 291.195C299.207 290.457 302.881 290.893 306.14 292.437" stroke="#FF9100" stroke-width="1.63" stroke-linecap="round" stroke-linejoin="round"/>
<path d="M286.691 280.578C290.423 278.662 294.737 278.213 298.783 279.318" stroke="#FF9100" stroke-width="1.63" stroke-linecap="round" stroke-linejoin="round"/>
<path d="M245.483 291.209C248.873 289.478 252.267 287.751 255.664 286.028" stroke="#FF9100" stroke-width="1.63" stroke-linecap="round" stroke-linejoin="round"/>
<path d="M282.383 309.786C283.183 309.132 284.121 308.667 285.126 308.425C286.131 308.184 287.177 308.172 288.187 308.391" stroke="#FF9100" stroke-width="1.63" stroke-linecap="round" stroke-linejoin="round"/>
<path d="M357.315 311.183L351.8 304.625" stroke="#FF9100" stroke-width="1.63" stroke-linecap="round" stroke-linejoin="round"/>
<path d="M336.943 301.179C334.543 297.68 331.034 295.091 326.983 293.829" stroke="#FF9100" stroke-width="1.63" stroke-linecap="round" stroke-linejoin="round"/>
<path d="M349.726 315.132L346.944 311.876" stroke="#FF9100" stroke-width="1.63" stroke-linecap="round" stroke-linejoin="round"/>
<path d="M336.388 318.385C334.562 315.192 331.992 312.487 328.896 310.5" stroke="#FF9100" stroke-width="1.63" stroke-linecap="round" stroke-linejoin="round"/>
<path d="M326.86 285.94L320.792 283.206" stroke="#FF9100" stroke-width="1.63" stroke-linecap="round" stroke-linejoin="round"/>
<path d="M377.234 342.493C375.947 339.611 374.198 336.958 372.057 334.639" stroke="#FF9100" stroke-width="1.63" stroke-linecap="round" stroke-linejoin="round"/>
<path d="M375.713 362.534L372.98 355.758" stroke="#FF9100" stroke-width="1.63" stroke-linecap="round" stroke-linejoin="round"/>
<path d="M367.239 342.347L362.984 334.008" stroke="#FF9100" stroke-width="1.63" stroke-linecap="round" stroke-linejoin="round"/>
<path d="M281.3 408.256C281.437 408.248 281.575 408.267 281.705 408.312C281.835 408.357 281.954 408.427 282.057 408.519C282.159 408.61 282.243 408.721 282.302 408.845C282.362 408.969 282.396 409.103 282.404 409.24C282.414 409.446 282.364 409.65 282.259 409.827C282.155 410.003 282 410.145 281.815 410.234C281.629 410.323 281.422 410.355 281.218 410.327C281.015 410.298 280.824 410.21 280.671 410.073C280.517 409.936 280.408 409.757 280.356 409.558C280.304 409.359 280.313 409.149 280.38 408.955C280.447 408.76 280.571 408.59 280.734 408.466C280.898 408.342 281.095 408.269 281.3 408.256Z" fill="#FFD6BA"/>
<path d="M264.504 402.596C264.938 402.578 265.367 402.688 265.738 402.913C266.11 403.138 266.406 403.468 266.59 403.861C266.774 404.255 266.837 404.693 266.772 405.122C266.706 405.552 266.515 405.952 266.223 406.273C265.931 406.594 265.55 406.821 265.129 406.925C264.707 407.03 264.265 407.008 263.856 406.861C263.448 406.715 263.091 406.45 262.833 406.102C262.574 405.753 262.425 405.336 262.403 404.902C262.388 404.613 262.432 404.323 262.529 404.05C262.627 403.777 262.778 403.526 262.974 403.312C263.169 403.097 263.405 402.924 263.667 402.801C263.93 402.678 264.215 402.609 264.504 402.596Z" fill="#FFD6BA"/>
<path d="M277.37 398.094C277.569 398.084 277.764 398.154 277.911 398.288C278.059 398.421 278.148 398.608 278.158 398.807C278.167 399.006 278.098 399.201 277.964 399.349C277.83 399.496 277.644 399.585 277.445 399.595C277.246 399.605 277.051 399.535 276.903 399.401C276.755 399.268 276.667 399.081 276.657 398.882C276.647 398.683 276.717 398.488 276.85 398.34C276.984 398.193 277.171 398.104 277.37 398.094Z" fill="#FFD6BA"/>
<path d="M263.52 382.854C264.09 382.852 264.639 383.07 265.052 383.462C265.466 383.855 265.712 384.391 265.74 384.961C265.768 385.53 265.575 386.088 265.202 386.519C264.829 386.95 264.304 387.22 263.736 387.274C263.166 387.276 262.617 387.058 262.204 386.665C261.79 386.273 261.544 385.736 261.516 385.167C261.488 384.598 261.681 384.04 262.054 383.609C262.428 383.178 262.953 382.908 263.52 382.854Z" fill="#FFD6BA"/>
<path d="M245.588 396.481C246.051 396.457 246.511 396.572 246.91 396.81C247.308 397.048 247.627 397.398 247.826 397.817C248.025 398.237 248.096 398.705 248.028 399.165C247.961 399.624 247.759 400.053 247.448 400.397C247.137 400.742 246.731 400.986 246.281 401.1C245.831 401.214 245.357 401.191 244.92 401.036C244.483 400.88 244.102 400.599 243.824 400.227C243.547 399.854 243.386 399.408 243.363 398.945C243.335 398.324 243.553 397.717 243.969 397.256C244.386 396.795 244.967 396.516 245.588 396.481Z" fill="#FFD6BA"/>
<path d="M270.114 414.469C270.444 414.441 270.775 414.513 271.064 414.676C271.353 414.838 271.587 415.084 271.734 415.381C271.882 415.678 271.936 416.012 271.891 416.341C271.846 416.669 271.703 416.977 271.481 417.223C271.259 417.469 270.968 417.643 270.646 417.722C270.324 417.8 269.986 417.78 269.675 417.664C269.365 417.548 269.096 417.341 268.905 417.07C268.713 416.799 268.608 416.478 268.602 416.146C268.594 415.727 268.746 415.32 269.027 415.009C269.307 414.698 269.696 414.505 270.114 414.469Z" fill="#FFD6BA"/>
<path d="M303.711 411.507C303.839 411.499 303.967 411.529 304.077 411.593C304.188 411.658 304.278 411.754 304.333 411.87C304.389 411.986 304.409 412.115 304.391 412.242C304.372 412.369 304.316 412.488 304.23 412.583C304.144 412.678 304.031 412.745 303.906 412.776C303.782 412.807 303.651 412.799 303.53 412.755C303.41 412.711 303.305 412.631 303.23 412.527C303.155 412.423 303.113 412.299 303.109 412.171C303.103 412.003 303.163 411.841 303.275 411.717C303.388 411.593 303.544 411.518 303.711 411.507Z" fill="#FFD6BA"/>
<path d="M319.061 402.084C319.486 402.063 319.907 402.168 320.272 402.387C320.636 402.605 320.928 402.927 321.109 403.311C321.291 403.695 321.355 404.125 321.292 404.545C321.23 404.965 321.044 405.358 320.759 405.673C320.473 405.988 320.101 406.211 319.688 406.314C319.276 406.417 318.843 406.396 318.442 406.252C318.042 406.109 317.694 405.85 317.441 405.509C317.188 405.167 317.042 404.758 317.021 404.334C316.993 403.765 317.193 403.208 317.575 402.786C317.958 402.364 318.492 402.112 319.061 402.084Z" fill="#FFD6BA"/>
<path d="M303.948 399.948C304.232 399.936 304.512 400.009 304.755 400.156C304.998 400.304 305.191 400.52 305.311 400.777C305.431 401.035 305.472 401.322 305.429 401.602C305.386 401.883 305.261 402.145 305.07 402.354C304.878 402.564 304.629 402.712 304.353 402.78C304.078 402.849 303.788 402.834 303.521 402.738C303.254 402.642 303.021 402.469 302.852 402.24C302.683 402.012 302.586 401.739 302.572 401.455C302.562 401.266 302.591 401.077 302.655 400.898C302.719 400.719 302.818 400.555 302.946 400.415C303.074 400.275 303.228 400.162 303.4 400.082C303.572 400.002 303.758 399.956 303.948 399.948Z" fill="#FFD6BA"/>
<path d="M288.589 394.339C288.898 394.328 289.199 394.439 289.426 394.649C289.653 394.858 289.789 395.149 289.803 395.458C289.817 395.767 289.709 396.069 289.502 396.298C289.295 396.528 289.005 396.666 288.697 396.684C288.542 396.693 288.387 396.671 288.242 396.62C288.096 396.568 287.962 396.488 287.847 396.384C287.733 396.279 287.641 396.153 287.576 396.013C287.511 395.872 287.475 395.72 287.471 395.565C287.456 395.254 287.566 394.951 287.776 394.721C287.986 394.491 288.278 394.354 288.589 394.339Z" fill="#FFD6BA"/>
<path d="M322.873 384.493C323.376 384.465 323.876 384.586 324.311 384.843C324.745 385.099 325.093 385.478 325.311 385.933C325.529 386.387 325.608 386.896 325.536 387.396C325.465 387.895 325.247 388.361 324.91 388.736C324.572 389.111 324.132 389.377 323.643 389.501C323.154 389.626 322.64 389.602 322.165 389.433C321.69 389.264 321.276 388.958 320.975 388.554C320.674 388.149 320.5 387.664 320.475 387.161C320.441 386.49 320.675 385.833 321.124 385.333C321.573 384.833 322.202 384.532 322.873 384.493Z" fill="#FFD6BA"/>
<path d="M344.438 385.964C344.605 385.958 344.773 385.984 344.93 386.042C345.088 386.101 345.232 386.189 345.355 386.303C345.479 386.417 345.578 386.554 345.648 386.707C345.718 386.859 345.758 387.024 345.764 387.192C345.771 387.36 345.744 387.527 345.686 387.684C345.628 387.842 345.539 387.986 345.425 388.109C345.311 388.233 345.174 388.332 345.022 388.402C344.869 388.472 344.704 388.512 344.536 388.518C344.369 388.525 344.201 388.498 344.044 388.44C343.887 388.382 343.742 388.293 343.619 388.179C343.496 388.065 343.396 387.928 343.326 387.775C343.256 387.623 343.216 387.458 343.21 387.291C343.203 387.123 343.23 386.955 343.288 386.798C343.347 386.641 343.435 386.496 343.549 386.373C343.663 386.25 343.8 386.15 343.953 386.08C344.105 386.01 344.27 385.971 344.438 385.964Z" fill="#FFD6BA"/>
<path d="M230.268 376.357C230.689 376.334 231.108 376.438 231.471 376.653C231.834 376.869 232.125 377.188 232.306 377.569C232.488 377.951 232.552 378.377 232.491 378.795C232.43 379.213 232.246 379.603 231.962 379.916C231.679 380.229 231.309 380.451 230.899 380.554C230.49 380.656 230.059 380.635 229.661 380.492C229.264 380.35 228.918 380.092 228.667 379.753C228.416 379.413 228.271 379.007 228.252 378.585C228.237 378.306 228.277 378.027 228.37 377.763C228.463 377.5 228.608 377.258 228.795 377.051C228.983 376.843 229.209 376.676 229.462 376.556C229.715 376.437 229.989 376.369 230.268 376.357Z" fill="#FFD6BA"/>
<path d="M1099.15 350.307C1096.14 355.003 1093.28 360.616 1094.94 365.927C1096.09 369.513 1097.54 375.361 1100.56 377.634C1104.53 380.602 1125.72 401.473 1141.11 376.8C1142.7 374.295 1143.64 371.439 1143.87 368.481C1144.02 365.763 1143.77 363.038 1143.13 360.392C1138.12 342.975 1109.63 334.008 1099.15 350.307Z" fill="#C12E66"/>
<g style="mix-blend-mode:multiply" opacity="0.38">
<path d="M1140.51 361.501C1139.8 364.542 1138.46 367.402 1136.59 369.897C1134.71 372.393 1132.33 374.469 1129.61 375.994C1126.86 377.481 1123.8 378.291 1120.68 378.355C1117.56 378.419 1114.47 377.735 1111.66 376.362C1109.45 375.073 1107.31 373.668 1105.25 372.155C1103.25 370.875 1101.2 369.702 1099.08 368.638C1097.95 367.954 1096.69 367.534 1095.37 367.408C1096.45 370.93 1097.93 375.477 1100.5 377.511C1104.47 380.479 1125.66 401.349 1141.05 376.677C1142.63 374.172 1143.58 371.315 1143.81 368.358C1143.95 365.64 1143.7 362.914 1143.06 360.268C1142.42 358.094 1141.43 356.039 1140.12 354.185L1139.9 354.061C1141.05 356.372 1141.27 359.035 1140.51 361.501Z" fill="#C12E66"/>
</g>
<g style="mix-blend-mode:multiply" opacity="0.38">
<path d="M1129.14 348.435C1131.2 349.85 1133.35 351.138 1135.56 352.29C1136.09 352.52 1136.57 352.845 1136.97 353.25C1137.19 353.449 1137.34 353.702 1137.41 353.982C1137.48 354.262 1137.48 354.557 1137.39 354.833C1137.26 355.12 1137.05 355.363 1136.78 355.535C1136.52 355.707 1136.21 355.801 1135.89 355.806C1134.68 355.815 1133.49 355.473 1132.47 354.822L1130.4 353.775C1129 353.155 1127.71 352.309 1126.58 351.27C1126.02 350.742 1125.6 350.085 1125.36 349.358C1125.11 348.63 1125.05 347.854 1125.17 347.096C1125.81 343.959 1128.09 347.7 1129.14 348.435Z" fill="#C12E66"/>
</g>
<path d="M1109.39 353.608C1108.32 355.024 1106.91 356.138 1105.74 357.455C1104.65 358.696 1103.74 360.083 1103.04 361.576C1102.71 362.6 1102 363.458 1101.06 363.971C1100.5 364.097 1099.92 364.033 1099.41 363.788C1098.9 363.544 1098.48 363.135 1098.23 362.626C1097.8 361.584 1097.69 360.439 1097.91 359.334C1098.31 355.601 1100.71 348.66 1104.75 347.328C1106.46 346.996 1108.23 347.143 1109.86 347.753C1111.81 348.973 1110.46 352.149 1109.39 353.608Z" fill="#FFE4E1"/>
<path d="M1148.81 368.236C1147.53 373.653 1146.59 379.859 1150.04 384.359C1152.32 387.355 1155.64 392.396 1159.23 393.517C1163.97 395.01 1190.86 407.585 1197.19 379.205C1197.85 376.317 1197.79 373.313 1197.03 370.452C1196.26 367.844 1195.11 365.363 1193.62 363.092C1183.09 348.323 1153.26 349.38 1148.81 368.236Z" fill="#C12E66"/>
<g style="mix-blend-mode:multiply" opacity="0.38">
<path d="M1191.52 365C1191.86 368.103 1191.55 371.242 1190.61 374.219C1189.67 377.196 1188.13 379.945 1186.07 382.293C1183.97 384.607 1181.35 386.387 1178.42 387.486C1175.5 388.585 1172.35 388.971 1169.25 388.611C1166.72 388.251 1164.31 387.382 1161.82 386.775C1159.32 386.167 1157.17 385.913 1154.83 385.588C1153.57 385.329 1152.28 385.343 1151.03 385.63C1153.24 388.605 1156.12 392.473 1159.22 393.448C1163.97 394.941 1190.86 407.516 1197.19 379.135C1197.84 376.248 1197.79 373.244 1197.02 370.383C1196.26 367.775 1195.11 365.294 1193.62 363.022C1192.29 361.172 1190.67 359.545 1188.83 358.201L1188.63 358.088C1190.45 359.936 1191.48 362.411 1191.52 365Z" fill="#C12E66"/>
</g>
<g style="mix-blend-mode:multiply" opacity="0.38">
<path d="M1176.39 356.444C1178.8 357.102 1181.24 357.604 1183.71 357.948C1184.29 357.995 1184.85 358.139 1185.38 358.374C1185.65 358.497 1185.87 358.688 1186.03 358.928C1186.19 359.167 1186.29 359.447 1186.3 359.735C1186.27 360.05 1186.14 360.348 1185.94 360.597C1185.75 360.846 1185.49 361.037 1185.19 361.149C1184.06 361.539 1182.84 361.606 1181.67 361.343L1179.36 361.02C1177.83 360.912 1176.33 360.55 1174.93 359.947C1174.22 359.636 1173.61 359.157 1173.14 358.553C1172.66 357.949 1172.34 357.237 1172.21 356.481C1171.83 353.358 1175.21 356.122 1176.39 356.444Z" fill="#C12E66"/>
</g>
<path d="M1159.54 367.921C1159.02 369.607 1158.06 371.132 1157.39 372.776C1156.79 374.31 1156.4 375.918 1156.23 377.556C1156.27 378.63 1155.89 379.677 1155.16 380.472C1154.68 380.781 1154.11 380.917 1153.55 380.858C1152.98 380.799 1152.45 380.548 1152.04 380.148C1151.27 379.301 1150.76 378.244 1150.58 377.11C1149.73 373.455 1149.67 366.106 1153.06 363.522C1154.57 362.641 1156.29 362.189 1158.04 362.215C1160.29 362.749 1160.08 366.202 1159.54 367.921Z" fill="#FFE4E1"/>
<path d="M1129.1 351.029C1136.55 338.324 1147.32 327.892 1160.26 320.857C1163.33 319.384 1166.28 317.685 1169.09 315.774C1172.93 312.91 1175.85 308.989 1177.5 304.489C1176.38 314.688 1179.8 324.81 1180.37 335.05C1180.94 343.661 1179.24 352.27 1175.44 360.018" stroke="#5F9C2F" stroke-width="2" stroke-linecap="round" stroke-linejoin="round"/>
<path d="M1202.81 320.809C1211.36 328.527 1217.97 339.319 1217.7 350.842C1216.64 345.547 1212.28 341.537 1207.62 338.798C1202.97 336.058 1197.82 334.243 1193.37 331.181C1184.92 325.371 1177.8 313.977 1175.38 304.073C1178.82 303.343 1186.42 309.329 1189.51 311.203C1194.24 313.976 1198.69 317.193 1202.81 320.809Z" fill="#5F9C2F"/>
<path d="M1200.43 304.032C1205.36 304.858 1210.03 306.786 1214.11 309.671C1218.19 312.555 1221.56 316.323 1223.98 320.694C1222.48 319.029 1220.59 317.757 1218.48 316.99C1216.37 316.222 1214.11 315.981 1211.88 316.288C1207.62 316.587 1203.44 317.929 1199.16 317.85C1191.05 317.631 1181.12 312.169 1174.94 305.275C1176.81 302.771 1184.49 303.515 1187.35 303.362C1191.72 303.076 1196.11 303.301 1200.43 304.032Z" fill="#3E5936"/>
<rect x="671" y="212" width="308" height="205" fill="#625ABB" stroke="white" stroke-width="16"/>
<path d="M701 260.676C701 260.676 707.82 252.756 714.49 257.546C721.16 262.336 723.7 258.686 729.61 258.336C735.52 257.986 736.2 261.986 739.39 260.676C742.58 259.366 743.95 255.836 748.73 256.006C753.51 256.176 761.12 258.716 764.61 258.466" stroke="white" stroke-width="1.63" stroke-linecap="round" stroke-linejoin="round"/>
<path d="M701 274.426C701 274.426 703.62 270.306 710.45 271.426C717.28 272.546 720.09 276.046 724.96 274.426C729.83 272.806 732.56 273.776 738.25 274.426C741.45 274.837 744.69 274.837 747.89 274.426" stroke="white" stroke-width="1.63" stroke-linecap="round" stroke-linejoin="round"/>
<path d="M547.501 490.077C550.642 500.66 555.258 512.264 565.418 516.598C572.279 519.535 582.91 524.936 590.212 523.335C599.79 521.262 658.469 516.52 641.432 461.546C639.862 456.584 636.486 450.052 632.576 446.644C628.693 442.923 624.293 439.782 619.512 437.317C586.93 422.259 536.667 453.365 547.501 490.077Z" fill="#625ABB"/>
<g style="mix-blend-mode:multiply" opacity="0.38">
<path d="M617.754 442.656C621.39 447.65 623.945 453.348 625.256 459.385C626.567 465.422 626.606 471.666 625.369 477.719C624.038 483.756 621.285 489.387 617.339 494.145C613.392 498.903 608.366 502.649 602.679 505.073C597.901 506.707 593.043 508.095 588.123 509.234C583.644 510.593 579.241 512.192 574.933 514.023C572.514 514.841 570.301 516.175 568.448 517.933C575.153 520.885 583.915 524.716 590.212 523.334C599.79 521.262 658.47 516.519 641.433 461.546C639.862 456.584 636.486 450.052 632.576 446.644C628.693 442.923 624.293 439.781 619.512 437.317C615.414 435.437 611.04 434.228 606.558 433.737L606.102 433.925C611.064 434.867 614.849 438.62 617.754 442.656Z" fill="#554E79"/>
</g>
<path d="M580.382 430.707C580.925 431.667 581.064 432.803 580.77 433.866C580.475 434.929 579.771 435.831 578.811 436.375C576.84 437.399 574.545 437.607 572.421 436.956C574.462 438.165 574.069 441.51 572.248 443.049C570.268 444.387 567.916 445.068 565.527 444.996C568.041 445.545 570.256 447.018 571.733 449.124C573.211 451.23 573.843 453.814 573.504 456.364C574.463 454.936 575.806 453.81 577.379 453.115C578.953 452.42 580.691 452.185 582.392 452.439C584.087 452.734 585.689 453.424 587.069 454.452C588.449 455.481 589.568 456.819 590.337 458.358C590.705 456.82 591.484 455.41 592.59 454.279C593.696 453.148 595.088 452.338 596.618 451.936C599.698 451.169 602.899 451.015 606.039 451.481C605.129 449.22 606.714 446.566 608.881 445.435C611.148 444.488 613.61 444.106 616.057 444.32C613.716 442.825 611.881 440.659 610.791 438.104C609.702 435.549 609.408 432.724 609.949 430C609.054 434.177 599.162 433.14 596.602 432.277C598 442.138 582.973 434.805 580.382 430.707Z" fill="#BCB7F7"/>
<path d="M583.365 442.798C588.167 441.558 592.887 440.022 597.497 438.197C598.53 437.706 599.641 437.403 600.779 437.302C601.347 437.254 601.918 437.361 602.43 437.613C602.942 437.865 603.375 438.251 603.684 438.731C603.928 439.307 604.011 439.939 603.922 440.559C603.834 441.179 603.578 441.763 603.182 442.248C601.621 444.068 599.572 445.402 597.278 446.095L593.022 447.838C590.285 449.139 587.35 449.977 584.339 450.319C582.828 450.476 581.301 450.259 579.893 449.686C578.486 449.114 577.241 448.204 576.268 447.037C572.499 441.95 581.026 443.394 583.365 442.798Z" fill="#625ABB"/>
<path d="M565.653 479.022C566.407 482.445 566.265 486.01 566.721 489.48C567.172 492.729 568.07 495.899 569.39 498.902C570.207 500.833 571.196 503 570.411 504.963C569.888 505.958 569.042 506.746 568.011 507.194C566.98 507.642 565.826 507.725 564.742 507.428C562.569 506.737 560.653 505.407 559.246 503.612C554.206 498.179 546.873 485.602 550.202 477.829C551.128 475.693 555.384 471.344 557.456 470.7C561.869 469.397 564.899 475.536 565.653 479.022Z" fill="white"/>
<path d="M331.067 191.687C333.298 199.207 336.578 207.453 343.797 210.532C348.673 212.618 356.226 216.456 361.414 215.318C368.22 213.846 409.915 210.476 397.809 171.415C396.693 167.889 394.295 163.248 391.516 160.827C388.757 158.182 385.631 155.95 382.234 154.199C359.082 143.5 323.368 165.602 331.067 191.687Z" fill="#625ABB"/>
<g style="mix-blend-mode:multiply" opacity="0.38">
<path d="M380.984 157.993C383.567 161.541 385.383 165.59 386.315 169.879C387.246 174.169 387.274 178.606 386.395 182.907C385.449 187.196 383.493 191.197 380.689 194.578C377.885 197.959 374.314 200.621 370.273 202.342C366.878 203.503 363.426 204.49 359.93 205.299C356.748 206.265 353.619 207.401 350.558 208.702C348.839 209.283 347.267 210.231 345.95 211.48C350.714 213.578 356.94 216.3 361.414 215.318C368.22 213.846 409.914 210.476 397.809 171.415C396.693 167.889 394.294 163.248 391.516 160.826C388.757 158.182 385.63 155.95 382.233 154.199C379.321 152.863 376.213 152.004 373.029 151.655L372.705 151.789C376.231 152.459 378.92 155.125 380.984 157.993Z" fill="#554E79"/>
</g>
<path d="M354.43 149.502C354.815 150.184 354.915 150.992 354.705 151.747C354.496 152.502 353.996 153.143 353.314 153.53C351.913 154.257 350.282 154.405 348.773 153.943C350.223 154.802 349.945 157.178 348.65 158.272C347.243 159.223 345.573 159.707 343.875 159.655C345.661 160.045 347.235 161.092 348.285 162.588C349.335 164.085 349.784 165.921 349.543 167.733C350.224 166.718 351.179 165.918 352.296 165.424C353.414 164.93 354.649 164.764 355.858 164.944C357.062 165.154 358.201 165.644 359.181 166.375C360.162 167.105 360.957 168.056 361.503 169.15C361.765 168.057 362.318 167.055 363.104 166.252C363.89 165.448 364.879 164.873 365.966 164.587C368.155 164.042 370.429 163.932 372.661 164.263C372.013 162.656 373.14 160.771 374.68 159.967C376.29 159.294 378.04 159.023 379.779 159.175C378.116 158.113 376.811 156.573 376.037 154.758C375.263 152.943 375.054 150.936 375.439 149C374.803 151.968 367.774 151.231 365.955 150.618C366.948 157.624 356.271 152.414 354.43 149.502Z" fill="#BCB7F7"/>
<path d="M356.55 158.093C359.961 157.213 363.315 156.121 366.591 154.824C367.325 154.476 368.114 154.26 368.923 154.188C369.327 154.154 369.732 154.231 370.096 154.41C370.46 154.588 370.768 154.863 370.987 155.204C371.161 155.613 371.219 156.062 371.156 156.503C371.093 156.943 370.911 157.358 370.63 157.703C369.521 158.996 368.065 159.944 366.435 160.436L363.411 161.675C361.466 162.599 359.381 163.195 357.241 163.438C356.168 163.549 355.083 163.395 354.083 162.988C353.083 162.581 352.198 161.935 351.507 161.106C348.829 157.491 354.887 158.517 356.55 158.093Z" fill="#625ABB"/>
<path d="M343.964 183.833C344.5 186.265 344.4 188.798 344.723 191.263C345.044 193.572 345.682 195.824 346.62 197.958C347.2 199.33 347.903 200.87 347.345 202.264C346.974 202.972 346.372 203.531 345.64 203.85C344.907 204.168 344.088 204.227 343.317 204.016C341.773 203.525 340.412 202.58 339.412 201.305C335.831 197.444 330.62 188.507 332.986 182.985C333.644 181.467 336.668 178.377 338.14 177.919C341.276 176.993 343.429 181.356 343.964 183.833Z" fill="white"/>
<path d="M751 275.498C751 275.498 759.41 274.378 764.49 275.498" stroke="white" stroke-width="1.63" stroke-linecap="round" stroke-linejoin="round"/>
<path d="M723.385 445.237C722.302 450.247 720.905 455.185 719.204 460.02C718.933 460.816 718.62 461.613 718.33 462.414C714.81 471.784 710.296 480.749 704.864 489.156C704.443 489.828 704.005 490.443 703.574 491.117C700.148 496.304 696.411 501.279 692.385 506.015C691.93 506.572 691.447 507.137 690.968 507.68C683.789 515.867 675.857 523.363 667.279 530.07C666.721 530.521 666.142 530.968 665.585 531.419C659.734 535.886 653.614 539.988 647.258 543.701L645.402 544.774C640.093 547.799 634.63 550.545 629.035 553C628.428 553.277 627.818 553.546 627.184 553.8C618.107 557.694 608.701 560.768 599.077 562.987C598.279 563.215 597.446 563.36 596.644 563.538L596.656 563.326C596.852 557.449 597.458 551.592 598.469 545.799C598.558 545.201 598.676 544.596 598.784 543.993C600.094 537.02 601.933 530.158 604.283 523.464C604.499 522.813 604.736 522.152 604.995 521.481C607.409 514.86 610.27 508.41 613.559 502.176L614.56 500.298C617.935 494.113 621.689 488.142 625.801 482.421C626.212 481.856 626.614 481.262 627.049 480.711C629.045 478.058 631.109 475.387 633.25 472.766C633.782 472.114 634.292 471.427 634.864 470.847C638.606 466.405 642.586 462.144 646.806 458.064C648.932 456.009 651.747 453.527 655.1 450.705C655.943 450.016 656.788 449.337 657.631 448.648C664.879 442.784 672.471 437.358 680.365 432.399C681.628 431.579 682.908 430.817 684.19 430.065C698.203 421.827 712.084 416.467 719.403 420.882C719.756 421.071 720.091 421.292 720.403 421.542C724.687 424.912 726.219 432.182 723.385 445.237Z" fill="#5F9C2F"/>
<path d="M720.45 421.56C720.464 421.693 720.447 421.828 720.4 421.953C720.353 422.079 720.277 422.191 720.179 422.282C715.297 427.03 710.412 431.897 705.523 436.883C705.063 437.348 704.623 437.807 704.174 438.237C698.863 443.663 693.564 449.204 688.277 454.858L686.898 456.293C684.739 458.597 682.585 460.952 680.441 463.345L678.976 464.95C672.739 471.792 666.528 478.773 660.343 485.892L658.696 487.768C653.204 494.161 647.747 500.648 642.323 507.23L640.734 509.162C635.806 515.151 630.921 521.228 626.078 527.394C625.517 528.085 624.969 528.752 624.413 529.462C615.769 540.441 607.322 551.609 599.071 562.967C598.273 563.196 597.441 563.341 596.639 563.519L596.651 563.307C601.656 556.402 606.737 549.568 611.894 542.806L613.343 540.893C616.892 536.215 620.481 531.567 624.114 526.999C624.439 526.573 624.793 526.139 625.124 525.732C627.457 522.765 629.814 519.811 632.158 516.883L633.69 514.967C638.895 508.517 644.144 502.159 649.436 495.892C649.924 495.274 650.44 494.679 650.94 494.099C655.353 488.854 659.773 483.708 664.201 478.66C664.717 478.064 665.233 477.469 665.773 476.888C668.43 473.887 671.083 470.925 673.734 468.002C674.175 467.47 674.621 466.957 675.094 466.468C678.828 462.34 682.569 458.258 686.316 454.224L686.364 454.21C688.944 451.453 691.534 448.717 694.134 446.003L695.589 444.546C699.976 439.96 704.374 435.462 708.783 431.05C709.273 430.546 709.78 430.067 710.257 429.587C713.112 426.772 715.948 423.987 718.764 421.231C718.936 421.064 719.159 420.96 719.397 420.936C719.655 420.906 719.914 420.977 720.12 421.134C720.278 421.231 720.396 421.382 720.45 421.56Z" fill="#BFD352"/>
<path d="M625.97 526.436C626.01 526.758 626.06 527.076 626.092 527.442C627.213 535.931 628.207 544.52 629.038 553.082C628.431 553.36 627.821 553.628 627.186 553.883C626.387 545.79 625.465 537.597 624.375 529.546C624.284 528.719 624.189 527.914 624.078 527.093C624.053 527.006 624.028 526.92 624.004 526.833C624.001 526.594 624.083 526.362 624.237 526.178C624.391 525.995 624.605 525.873 624.841 525.834C624.91 525.817 624.981 525.818 625.05 525.837C625.251 525.8 625.458 525.842 625.629 525.953C625.8 526.065 625.923 526.238 625.97 526.436Z" fill="#BFD352"/>
<path d="M642.312 507.191L642.337 507.278C644.59 519.356 646.233 531.54 647.261 543.784L645.405 544.856C644.456 532.903 642.902 521.006 640.748 509.21C640.669 508.682 640.588 508.216 640.466 507.647C640.435 507.413 640.496 507.176 640.635 506.986C640.774 506.795 640.981 506.665 641.213 506.622C641.434 506.558 641.671 506.582 641.876 506.688C642.08 506.794 642.236 506.974 642.312 507.191Z" fill="#BFD352"/>
<path d="M660.349 485.911L660.374 485.997L667.264 530.126C666.706 530.577 666.127 531.024 665.57 531.475L658.731 487.779L658.507 486.345C658.49 486.108 658.564 485.873 658.714 485.688C658.864 485.504 659.08 485.384 659.316 485.354C659.526 485.299 659.75 485.325 659.942 485.429C660.134 485.532 660.279 485.704 660.349 485.911Z" fill="#BFD352"/>
<path d="M692.387 506.025C691.933 506.582 691.45 507.147 690.971 507.689C690.853 507.597 690.771 507.466 690.74 507.319C687.337 493.117 683.415 478.845 678.997 464.913C678.903 464.586 678.815 464.278 678.721 463.952C678.691 463.838 678.685 463.72 678.702 463.604C678.72 463.487 678.761 463.376 678.823 463.276C678.885 463.177 678.967 463.091 679.063 463.024C679.16 462.957 679.269 462.911 679.384 462.888C679.587 462.81 679.812 462.811 680.015 462.889C680.218 462.967 680.385 463.118 680.483 463.312C680.5 463.337 680.509 463.367 680.508 463.398C684.943 477.388 688.934 491.754 692.387 506.025Z" fill="#BFD352"/>
<path d="M704.867 489.166C704.445 489.838 704.008 490.452 703.577 491.127C698.95 479.095 693.374 467.451 686.901 456.303C686.702 455.934 686.508 455.584 686.289 455.22C686.202 455.073 686.166 454.903 686.185 454.734C686.204 454.565 686.278 454.407 686.396 454.284L686.444 454.27C686.527 454.194 686.621 454.129 686.721 454.077C686.934 453.966 687.179 453.935 687.413 453.991C687.647 454.046 687.853 454.183 687.993 454.378L688.276 454.858C694.7 465.84 700.248 477.312 704.867 489.166Z" fill="#BFD352"/>
<path d="M719.204 460.02C718.933 460.816 718.62 461.613 718.33 462.414C715.837 457.708 713.105 453.144 710.411 448.642L704.168 438.218L703.95 437.854C703.897 437.752 703.865 437.64 703.857 437.526C703.849 437.411 703.864 437.296 703.902 437.188C703.941 437.079 704.001 436.98 704.079 436.895C704.157 436.811 704.252 436.744 704.357 436.697C704.543 436.599 704.756 436.563 704.964 436.593C705.173 436.623 705.366 436.718 705.518 436.864C705.566 436.85 705.596 436.956 705.629 436.999L712.082 447.758C714.49 451.77 716.931 455.824 719.204 460.02Z" fill="#BFD352"/>
<path d="M710.758 430.463C710.702 430.636 710.601 430.79 710.465 430.91C710.329 431.03 710.163 431.11 709.985 431.143C709.859 431.167 709.731 431.172 709.604 431.158C709.353 431.106 709.099 431.068 708.843 431.043C699.565 429.592 689.722 430.748 680.393 432.422C681.656 431.602 682.935 430.841 684.218 430.088C692.722 428.692 701.619 428.047 710.049 429.48C710.129 429.499 710.206 429.525 710.28 429.56C710.459 429.622 710.608 429.75 710.697 429.918C710.785 430.085 710.807 430.28 710.758 430.463Z" fill="#BFD352"/>
<path d="M695.866 445.038C695.866 445.259 695.788 445.472 695.646 445.641C695.504 445.809 695.306 445.922 695.089 445.958C695.058 445.979 695.021 445.989 694.983 445.988L694.246 446.064C681.247 447.313 668.113 448.891 655.155 450.752C655.998 450.063 656.843 449.384 657.686 448.695C670.067 446.958 682.565 445.489 694.908 444.273C695.044 444.255 695.182 444.268 695.312 444.31C695.443 444.351 695.563 444.421 695.663 444.514C695.795 444.656 695.868 444.844 695.866 445.038Z" fill="#BFD352"/>
<path d="M675.417 467.051C675.42 467.272 675.342 467.485 675.199 467.653C675.055 467.82 674.856 467.93 674.638 467.961C674.602 467.98 674.563 467.991 674.523 467.994C674.301 468.058 674.065 468.032 673.839 468.076C660.348 469.351 646.739 470.94 633.283 472.808C633.815 472.157 634.325 471.47 634.897 470.89C648.043 469.1 661.311 467.556 674.471 466.324C674.6 466.304 674.733 466.313 674.859 466.35C674.985 466.388 675.101 466.454 675.199 466.542C675.269 466.606 675.326 466.685 675.363 466.773C675.401 466.861 675.42 466.956 675.417 467.051Z" fill="#BFD352"/>
<path d="M666.27 477.495C666.29 477.734 666.219 477.972 666.069 478.159C665.92 478.347 665.705 478.471 665.467 478.505C665.102 478.61 664.679 478.658 664.3 478.715C651.626 481.163 638.75 482.414 625.841 482.451C626.252 481.886 626.654 481.292 627.089 480.741C639.894 480.64 652.66 479.337 665.221 476.848C665.448 476.809 665.681 476.844 665.885 476.95C665.989 477.001 666.079 477.078 666.147 477.173C666.214 477.269 666.256 477.379 666.27 477.495Z" fill="#BFD352"/>
<path d="M651.479 494.745C651.496 494.983 651.422 495.218 651.272 495.402C651.122 495.586 650.906 495.706 650.67 495.736L649.544 495.945L613.615 502.191L614.617 500.313L650.451 494.062C650.654 494.029 650.863 494.06 651.048 494.151C651.163 494.208 651.262 494.292 651.337 494.395C651.412 494.499 651.461 494.619 651.479 494.745Z" fill="#BFD352"/>
<path d="M635.068 515.674C635.06 515.909 634.969 516.133 634.811 516.308C634.654 516.482 634.44 516.596 634.208 516.628L632.211 516.92C622.756 518.358 613.433 520.552 604.33 523.482C604.545 522.831 604.782 522.17 605.041 521.499C614.427 518.547 624.039 516.371 633.781 514.993C633.872 514.961 633.965 514.935 634.059 514.913C634.176 514.892 634.296 514.895 634.412 514.922C634.527 514.95 634.636 515.001 634.73 515.073C634.825 515.144 634.904 515.235 634.962 515.338C635.02 515.442 635.056 515.556 635.068 515.674Z" fill="#BFD352"/>
<path d="M613.999 541.548C614.027 541.781 613.965 542.015 613.826 542.204C613.687 542.393 613.481 542.521 613.25 542.563L611.956 542.84L598.526 545.814C598.615 545.217 598.732 544.611 598.84 544.008L612.919 540.9C613.081 540.873 613.247 540.882 613.405 540.927C613.552 540.965 613.686 541.043 613.791 541.152C613.896 541.262 613.968 541.399 613.999 541.548Z" fill="#BFD352"/>
<path d="M892.785 458.561C892.785 458.561 896.972 473.134 897.674 476.793C898.058 478.79 896.639 486.601 894.912 493.754C893.517 499.611 891.906 505.017 890.937 506.426C890.297 507.258 889.59 508.036 888.824 508.754C882.246 515.014 875.235 520.804 867.845 526.08C864.55 528.479 861.116 530.679 857.56 532.67C854.915 534.062 852.142 535.195 849.279 536.052C840.728 538.599 831.884 540.032 822.966 540.315C815.88 540.617 808.782 540.34 801.742 539.488C793.342 538.505 785.061 536.685 777.022 534.056C776.546 533.896 776.069 533.736 775.594 533.558C768.437 531.133 761.457 528.216 754.703 524.827C746.693 520.842 739.065 516.129 731.917 510.748C726.883 506.955 722.156 502.771 717.78 498.235C712.46 492.773 707.879 486.637 704.153 479.985C703.383 478.582 702.677 477.157 702.017 475.687C700.156 471.6 698.641 467.363 697.486 463.023C695.243 454.342 693.86 445.462 693.358 436.51C693.131 432.832 693.04 429.481 692.98 426.494C692.925 422.871 692.956 419.913 692.93 417.895C692.964 411.73 694.032 405.613 696.09 399.801L717.486 406.2L888.293 457.284L892.785 458.561Z" fill="#BFD352"/>
<path d="M888.824 508.753C882.246 515.014 875.236 520.804 867.845 526.08L854.806 500.915L878.435 488.676L888.824 508.753Z" fill="#5F9C2F"/>
<path d="M892.785 458.561C892.785 458.561 896.972 473.134 897.674 476.793C898.058 478.79 896.639 486.601 894.912 493.754L873.103 475.218L888.38 457.253L892.785 458.561Z" fill="#5F9C2F"/>
<path d="M843.331 509.369L849.314 536.075C840.763 538.622 831.919 540.055 823.001 540.338L817.351 515.163L843.331 509.369Z" fill="#5F9C2F"/>
<path d="M804.298 511.119L801.745 539.496C793.344 538.51 785.062 536.688 777.022 534.056C776.546 533.896 776.069 533.736 775.594 533.558L777.816 508.772L804.298 511.119Z" fill="#5F9C2F"/>
<path d="M766.493 499.833L754.721 524.776C746.71 520.791 739.083 516.078 731.935 510.697L742.473 488.445L766.493 499.833Z" fill="#5F9C2F"/>
<path d="M735.852 476.876L717.766 498.195C712.446 492.733 707.865 486.597 704.139 479.946C703.369 478.542 702.662 477.117 702.003 475.647L715.561 459.663L735.852 476.876Z" fill="#5F9C2F"/>
<path d="M713.751 430.473L721.259 456L697.509 462.988C695.266 454.307 693.883 445.426 693.381 436.475L713.751 430.473Z" fill="#5F9C2F"/>
<path d="M717.538 406.145L718.174 425.64L693.035 426.447C692.98 422.824 693.011 419.867 692.985 417.849C693.019 411.683 694.087 405.567 696.146 399.755L717.538 406.145Z" fill="#5F9C2F"/>
<path d="M696.15 399.744C696.15 399.744 692.449 432.023 696.119 450.441C699.789 468.86 706.576 479.672 706.576 479.672C706.576 479.672 724.203 497.597 731.018 503.444C737.833 509.292 771.606 526.601 774.034 527.75C776.463 528.899 800.115 535.463 803.187 535.266C806.259 535.069 846.859 528.838 849.051 528.054C851.244 527.269 867.636 519.833 868.941 518.465C870.246 517.096 888.177 502.655 890.309 499.829C892.441 497.004 894.604 476.097 894.993 469.672C895.382 463.248 888.112 445.448 888.112 445.448C888.112 445.448 776.317 395.027 774.047 394.946C771.777 394.865 696.15 399.744 696.15 399.744Z" fill="#FFFCF7"/>
<path d="M774.134 398.308C774.134 398.308 702.868 401.599 702.139 402.083C701.411 402.567 698.735 423.265 699.736 435.469C700.736 447.673 706.51 467.58 706.51 467.58L712.828 478.328C712.828 478.328 728.259 497.03 736.448 501.725C744.636 506.42 775.864 523.506 775.864 523.506C775.864 523.506 798.165 529.438 801.644 529.756C805.124 530.073 840.183 524.003 845.112 522.731C850.04 521.459 862.123 515.752 862.123 515.752C862.123 515.752 884.033 499.878 886.956 496.77C889.88 493.662 891.234 472.365 891.099 469.494C890.965 466.623 885.198 449.856 885.198 449.856C885.198 449.856 776.754 398.192 774.134 398.308Z" fill="#C12E66"/>
<path d="M798.314 439.914C798.314 439.914 792.813 443.98 792.107 446.599C791.402 449.218 794.066 450.827 796.307 450.4C798.547 449.974 799.187 440.084 799.286 439.513C799.452 438.829 798.314 439.914 798.314 439.914Z" fill="#FFFCF7"/>
<path d="M803.875 475.772C803.875 475.772 798.372 479.83 797.668 482.457C796.965 485.083 799.63 486.692 801.885 486.305C804.139 485.918 804.765 475.989 804.864 475.418C805.01 474.678 803.875 475.772 803.875 475.772Z" fill="#FFFCF7"/>
<path d="M836.871 488.02C836.871 488.02 832.995 493.656 833.201 496.377C833.406 499.098 836.438 499.737 838.455 498.587C840.472 497.436 837.802 487.901 837.729 487.347C837.59 486.611 836.871 488.02 836.871 488.02Z" fill="#FFFCF7"/>
<path d="M764.961 429.991C764.961 429.991 758.278 431.426 756.553 433.543C754.829 435.66 756.599 438.214 758.815 438.743C761.031 439.271 765.698 430.53 766.018 430.077C766.452 429.466 764.961 429.991 764.961 429.991Z" fill="#FFFCF7"/>
<path d="M773.132 462.762C773.132 462.762 766.997 465.779 765.839 468.255C764.68 470.732 767.017 472.771 769.303 472.748C771.589 472.725 773.961 463.109 774.176 462.585C774.453 461.888 773.132 462.762 773.132 462.762Z" fill="#FFFCF7"/>
<path d="M734.218 440.989C734.218 440.989 727.536 442.424 725.811 444.541C724.086 446.658 725.857 449.212 728.073 449.741C730.289 450.27 734.956 441.529 735.276 441.075C735.709 440.465 734.218 440.989 734.218 440.989Z" fill="#FFFCF7"/>
<path d="M827.268 455.912C827.268 455.912 823.357 461.525 823.547 464.252C823.737 466.978 826.764 467.628 828.747 466.507C830.73 465.387 828.162 455.815 828.097 455.258C828.001 454.516 827.268 455.912 827.268 455.912Z" fill="#FFFCF7"/>
<path d="M778.197 491.021C778.197 491.021 772.262 494.394 771.246 496.945C770.23 499.496 772.696 501.373 774.971 501.219C777.247 501.066 779.055 491.321 779.263 490.755C779.466 490.076 778.197 491.021 778.197 491.021Z" fill="#FFFCF7"/>
<path d="M859.157 474.02C859.157 474.02 857.619 480.677 858.845 483.132C860.071 485.586 863.107 485.062 864.507 483.284C865.907 481.507 859.982 473.582 859.708 473.091C859.317 472.472 859.157 474.02 859.157 474.02Z" fill="#FFFCF7"/>
<path d="M923.859 346.82C922.652 349.285 920.482 351.35 920.064 354.052C919.772 356.005 920.441 357.952 920.871 359.876C922.568 367.443 924.548 372.513 921.854 379.842C917.713 391.089 915.194 399.43 908.363 409.278C902.363 417.913 888.02 431.319 878.578 435.981C869.137 440.644 857.944 441.153 847.331 440.386C840.223 439.861 822.508 429.793 815.706 427.675C805.822 424.607 807.383 428.371 798.44 423.151C796.283 421.9 793.814 419.929 794.416 417.516C794.992 415.23 795.966 410.027 796.762 407.869C797.033 406.967 798.657 403.115 798.584 402.171C796.982 381.072 801.765 359.261 816.686 344.259C831.608 329.256 854.069 322.137 875.273 322.066C881.783 322.043 896.414 330.878 896.414 330.878C900.515 331.47 904.156 330.524 908.181 330.221C917.056 329.445 928.874 336.513 923.859 346.82Z" fill="#FFCA00"/>
<path d="M912.856 375.626C909.829 387.417 898.078 394.447 890.556 404.013C885.92 409.911 882.832 416.913 878.074 422.724C876.66 424.604 874.859 426.159 872.794 427.285C869.625 428.791 865.891 428.616 862.375 428.248C855.048 427.647 847.827 426.121 840.884 423.708C825.64 418.058 813.173 406.358 798.466 399.701C798.515 400.478 798.561 401.267 798.621 402.047C798.682 402.828 797.171 406.873 796.799 407.745C795.986 409.959 795.016 415.151 794.453 417.392C793.851 419.805 796.32 421.776 798.477 423.027C807.42 428.246 805.859 424.482 815.743 427.551C822.489 429.651 840.26 439.737 847.368 440.262C857.991 440.995 869.064 440.56 878.615 435.857C888.167 431.154 902.396 417.8 908.4 409.154C915.232 399.306 917.75 390.965 921.892 379.718C924.572 372.434 922.592 367.364 920.908 359.752C920.478 357.828 919.809 355.881 920.101 353.928C920.519 351.226 922.689 349.161 923.897 346.696C924.424 345.592 924.778 344.413 924.947 343.201C912.333 346.025 915.235 366.358 912.856 375.626Z" fill="#FFB400"/>
<path d="M898.246 381.49C896.715 384.405 894.534 386.929 891.874 388.869" stroke="#FF9100" stroke-width="1.63" stroke-linecap="round" stroke-linejoin="round"/>
<path d="M905.087 379.673C903.966 381.438 902.854 383.218 901.73 384.995" stroke="#FF9100" stroke-width="1.63" stroke-linecap="round" stroke-linejoin="round"/>
<path d="M916.407 376.287C915.718 378.561 914.658 380.706 913.27 382.635" stroke="#FF9100" stroke-width="1.63" stroke-linecap="round" stroke-linejoin="round"/>
<path d="M902.486 394.222C901.565 395.691 900.647 397.149 899.719 398.603" stroke="#FF9100" stroke-width="1.63" stroke-linecap="round" stroke-linejoin="round"/>
<path d="M910.791 392.07L908.624 396.337" stroke="#FF9100" stroke-width="1.63" stroke-linecap="round" stroke-linejoin="round"/>
<path d="M895.29 408.964C894.082 411.274 892.625 413.446 890.947 415.441" stroke="#FF9100" stroke-width="1.63" stroke-linecap="round" stroke-linejoin="round"/>
<path d="M889.115 402.879C887.779 405.399 886.192 407.776 884.376 409.975" stroke="#FF9100" stroke-width="1.63" stroke-linecap="round" stroke-linejoin="round"/>
<path d="M876.291 420.639C874.4 422.378 871.993 423.451 869.435 423.694" stroke="#FF9100" stroke-width="1.63" stroke-linecap="round" stroke-linejoin="round"/>
<path d="M885.663 423.861C884.077 426.394 881.601 428.242 878.721 429.041" stroke="#FF9100" stroke-width="1.63" stroke-linecap="round" stroke-linejoin="round"/>
<path d="M907.008 402.33C905.564 404.626 904.117 406.92 902.665 409.213" stroke="#FF9100" stroke-width="1.63" stroke-linecap="round" stroke-linejoin="round"/>
<path d="M877.651 404.414C877.399 405.106 876.995 405.732 876.468 406.246C875.941 406.761 875.305 407.15 874.607 407.384" stroke="#FF9100" stroke-width="1.63" stroke-linecap="round" stroke-linejoin="round"/>
<path d="M831.279 430.879L837.045 432.882" stroke="#FF9100" stroke-width="1.63" stroke-linecap="round" stroke-linejoin="round"/>
<path d="M847.395 429.574C850.14 430.841 853.232 431.146 856.171 430.441" stroke="#FF9100" stroke-width="1.63" stroke-linecap="round" stroke-linejoin="round"/>
<path d="M834.484 425.695L837.374 426.674" stroke="#FF9100" stroke-width="1.63" stroke-linecap="round" stroke-linejoin="round"/>
<path d="M841.461 418.841C843.743 420.13 846.303 420.848 848.922 420.935" stroke="#FF9100" stroke-width="1.63" stroke-linecap="round" stroke-linejoin="round"/>
<path d="M859.123 435.225L863.834 434.686" stroke="#FF9100" stroke-width="1.63" stroke-linecap="round" stroke-linejoin="round"/>
<path d="M807.672 418.979C809.511 420.273 811.549 421.259 813.705 421.898" stroke="#FF9100" stroke-width="1.63" stroke-linecap="round" stroke-linejoin="round"/>
<path d="M801.296 406.158L805.439 409.308" stroke="#FF9100" stroke-width="1.63" stroke-linecap="round" stroke-linejoin="round"/>
<path d="M813.843 415.423L819.488 418.976" stroke="#FF9100" stroke-width="1.63" stroke-linecap="round" stroke-linejoin="round"/>
<path d="M842.411 343.751C842.33 343.806 842.239 343.845 842.143 343.864C842.047 343.884 841.948 343.885 841.852 343.866C841.756 343.848 841.664 343.81 841.583 343.756C841.501 343.702 841.431 343.632 841.377 343.551C841.295 343.429 841.252 343.286 841.251 343.14C841.251 342.993 841.294 342.85 841.375 342.728C841.456 342.606 841.571 342.511 841.706 342.454C841.841 342.397 841.99 342.382 842.134 342.41C842.278 342.437 842.41 342.507 842.514 342.61C842.618 342.713 842.69 342.845 842.719 342.988C842.749 343.131 842.736 343.28 842.681 343.416C842.626 343.552 842.532 343.668 842.411 343.751Z" fill="#FFD6BA"/>
<path d="M854.754 341.091C854.495 341.261 854.192 341.35 853.883 341.347C853.574 341.345 853.272 341.251 853.016 341.077C852.761 340.904 852.562 340.658 852.445 340.372C852.329 340.085 852.3 339.771 852.362 339.468C852.424 339.165 852.574 338.887 852.793 338.669C853.013 338.452 853.292 338.304 853.596 338.245C853.899 338.185 854.214 338.217 854.499 338.336C854.784 338.456 855.028 338.656 855.199 338.914C855.314 339.086 855.393 339.279 855.433 339.482C855.472 339.684 855.471 339.893 855.43 340.095C855.389 340.298 855.308 340.49 855.192 340.661C855.075 340.832 854.927 340.978 854.754 341.091Z" fill="#FFD6BA"/>
<path d="M848.521 348.538C848.403 348.616 848.258 348.645 848.119 348.617C847.98 348.589 847.858 348.506 847.779 348.388C847.701 348.27 847.672 348.126 847.7 347.986C847.728 347.847 847.81 347.725 847.928 347.646C848.047 347.568 848.191 347.539 848.33 347.567C848.469 347.595 848.592 347.677 848.67 347.796C848.749 347.914 848.777 348.058 848.749 348.197C848.721 348.336 848.639 348.459 848.521 348.538Z" fill="#FFD6BA"/>
<path d="M862.554 352.815C862.206 353.025 861.791 353.091 861.395 353.002C860.999 352.913 860.652 352.674 860.428 352.336C860.203 351.997 860.117 351.585 860.189 351.186C860.26 350.786 860.483 350.429 860.811 350.189C861.159 349.98 861.574 349.914 861.97 350.003C862.366 350.092 862.713 350.331 862.937 350.669C863.162 351.008 863.248 351.419 863.176 351.819C863.105 352.219 862.882 352.576 862.554 352.815Z" fill="#FFD6BA"/>
<path d="M868.561 337.937C868.286 338.121 867.963 338.218 867.632 338.218C867.302 338.218 866.979 338.119 866.704 337.935C866.429 337.751 866.215 337.49 866.089 337.185C865.963 336.879 865.93 336.543 865.995 336.219C866.059 335.894 866.219 335.597 866.453 335.363C866.687 335.129 866.985 334.97 867.309 334.906C867.633 334.842 867.969 334.875 868.275 335.002C868.58 335.128 868.841 335.343 869.025 335.618C869.268 335.988 869.356 336.439 869.269 336.873C869.182 337.307 868.928 337.689 868.561 337.937Z" fill="#FFD6BA"/>
<path d="M846.992 335.87C846.8 336.008 846.571 336.084 846.335 336.09C846.099 336.096 845.866 336.031 845.667 335.903C845.469 335.775 845.313 335.59 845.221 335.373C845.129 335.155 845.105 334.915 845.151 334.683C845.197 334.451 845.312 334.239 845.48 334.073C845.649 333.908 845.863 333.797 846.095 333.755C846.328 333.713 846.568 333.741 846.783 333.837C846.999 333.933 847.181 334.092 847.306 334.292C847.463 334.546 847.519 334.85 847.46 335.143C847.402 335.436 847.234 335.696 846.992 335.87Z" fill="#FFD6BA"/>
<path d="M827.509 349.932C827.434 349.984 827.345 350.012 827.253 350.013C827.162 350.014 827.072 349.987 826.996 349.937C826.92 349.887 826.86 349.815 826.825 349.73C826.79 349.646 826.781 349.553 826.799 349.463C826.817 349.373 826.862 349.291 826.927 349.227C826.992 349.163 827.075 349.119 827.165 349.103C827.255 349.086 827.347 349.096 827.431 349.133C827.515 349.169 827.587 349.229 827.636 349.307C827.7 349.407 827.723 349.528 827.699 349.645C827.675 349.762 827.607 349.865 827.509 349.932Z" fill="#FFD6BA"/>
<path d="M821.55 361.296C821.298 361.464 821.001 361.553 820.699 361.552C820.396 361.551 820.1 361.461 819.849 361.292C819.598 361.123 819.402 360.883 819.287 360.603C819.172 360.323 819.142 360.015 819.202 359.718C819.262 359.422 819.409 359.149 819.624 358.936C819.838 358.722 820.112 358.577 820.409 358.519C820.706 358.461 821.014 358.492 821.293 358.609C821.572 358.726 821.811 358.923 821.978 359.175C822.203 359.513 822.283 359.927 822.203 360.324C822.123 360.722 821.888 361.072 821.55 361.296Z" fill="#FFD6BA"/>
<path d="M831.579 357.093C831.409 357.204 831.211 357.262 831.009 357.26C830.807 357.258 830.609 357.197 830.442 357.083C830.275 356.969 830.145 356.808 830.069 356.621C829.993 356.433 829.974 356.228 830.015 356.03C830.056 355.832 830.154 355.65 830.298 355.508C830.442 355.365 830.624 355.269 830.823 355.23C831.021 355.192 831.227 355.213 831.414 355.291C831.6 355.369 831.76 355.501 831.871 355.669C831.946 355.782 831.998 355.908 832.024 356.04C832.05 356.173 832.049 356.31 832.022 356.442C831.994 356.574 831.941 356.7 831.865 356.812C831.789 356.924 831.692 357.019 831.579 357.093Z" fill="#FFD6BA"/>
<path d="M843.024 354.926C842.839 355.046 842.614 355.087 842.399 355.042C842.183 354.997 841.994 354.868 841.873 354.684C841.752 354.5 841.708 354.276 841.751 354.06C841.794 353.844 841.921 353.654 842.103 353.531C842.195 353.469 842.297 353.426 842.405 353.404C842.513 353.382 842.625 353.383 842.733 353.405C842.841 353.427 842.943 353.47 843.034 353.533C843.125 353.595 843.202 353.675 843.262 353.768C843.384 353.953 843.427 354.179 843.383 354.396C843.338 354.614 843.209 354.804 843.024 354.926Z" fill="#FFD6BA"/>
<path d="M825.63 373.452C825.333 373.653 824.982 373.761 824.623 373.762C824.264 373.764 823.912 373.659 823.613 373.46C823.314 373.261 823.08 372.978 822.942 372.647C822.804 372.315 822.767 371.95 822.837 371.598C822.906 371.246 823.079 370.922 823.333 370.668C823.587 370.414 823.91 370.241 824.263 370.171C824.615 370.101 824.98 370.137 825.312 370.275C825.643 370.413 825.927 370.646 826.125 370.945C826.391 371.344 826.487 371.831 826.394 372.301C826.302 372.77 826.027 373.184 825.63 373.452Z" fill="#FFD6BA"/>
<path d="M811.896 380.415C811.795 380.48 811.683 380.524 811.565 380.546C811.448 380.568 811.327 380.566 811.21 380.541C811.093 380.517 810.982 380.469 810.884 380.401C810.785 380.333 810.701 380.247 810.636 380.147C810.571 380.046 810.526 379.934 810.504 379.817C810.483 379.699 810.484 379.578 810.509 379.462C810.534 379.345 810.582 379.234 810.649 379.135C810.717 379.037 810.803 378.952 810.904 378.887C811.004 378.822 811.116 378.777 811.234 378.756C811.351 378.734 811.472 378.735 811.589 378.76C811.706 378.785 811.817 378.833 811.915 378.901C812.014 378.968 812.098 379.055 812.163 379.155C812.228 379.255 812.273 379.367 812.295 379.485C812.317 379.603 812.315 379.723 812.29 379.84C812.265 379.957 812.218 380.068 812.15 380.167C812.082 380.265 811.996 380.349 811.896 380.415Z" fill="#FFD6BA"/>
<path d="M885.276 344.668C885.026 344.836 884.732 344.925 884.431 344.926C884.13 344.926 883.836 344.837 883.586 344.67C883.335 344.502 883.141 344.265 883.026 343.987C882.911 343.709 882.881 343.403 882.941 343.108C883 342.813 883.145 342.542 883.359 342.33C883.572 342.118 883.844 341.974 884.139 341.916C884.434 341.858 884.74 341.89 885.017 342.006C885.295 342.123 885.531 342.319 885.697 342.57C885.808 342.735 885.885 342.92 885.924 343.116C885.963 343.311 885.963 343.512 885.924 343.707C885.884 343.902 885.807 344.087 885.696 344.252C885.584 344.417 885.442 344.559 885.276 344.668Z" fill="#FFD6BA"/>
<path d="M80.9526 25.4156C124.504 11.4541 238.576 -0.581637 346.458 62.9671C481.31 142.403 505.719 324.738 636.577 360.754C767.435 396.77 855.596 261.564 966.926 304.99C1078.26 348.416 1066 409.008 1119.5 497.5C1162.3 568.293 1311 616.5 1453 537" stroke="#FEFFB5" stroke-width="2" stroke-linecap="round"/>
<path d="M797.293 318.835H719.408C713.025 318.835 707.851 324.074 707.851 330.537V345.133C707.851 351.596 713.025 356.835 719.408 356.835H797.293C803.676 356.835 808.851 351.596 808.851 345.133V330.537C808.851 324.074 803.676 318.835 797.293 318.835Z" fill="#3E5936"/>
<path d="M797.293 313.835H719.408C713.025 313.835 707.851 319.074 707.851 325.537V340.133C707.851 346.596 713.025 351.835 719.408 351.835H797.293C803.676 351.835 808.851 346.596 808.851 340.133V325.537C808.851 319.074 803.676 313.835 797.293 313.835Z" fill="#5F9C2F"/>
<path d="M761.464 329.835H726.237C724.367 329.835 722.851 331.402 722.851 333.335C722.851 335.268 724.367 336.835 726.237 336.835H761.464C763.334 336.835 764.851 335.268 764.851 333.335C764.851 331.402 763.334 329.835 761.464 329.835Z" fill="white"/>
<path d="M801.135 396.677C801.135 396.677 788.459 340.59 790.121 340.086C791.783 339.582 841.303 369.332 842.381 371.713C843.459 374.093 827.399 382.155 827.399 382.155L844.629 405.78C844.629 405.78 833.648 411.381 832.476 410.758C831.303 410.135 814.988 390.094 814.988 390.094L801.135 396.677Z" fill="white"/>
<path d="M793.856 333.811L807.732 321.025" stroke="white" stroke-width="1.63" stroke-linecap="round" stroke-linejoin="round"/>
<path d="M789.034 332.488L789.408 316" stroke="white" stroke-width="1.63" stroke-linecap="round" stroke-linejoin="round"/>
<path d="M784.196 342.568L775.329 348.431" stroke="white" stroke-width="1.63" stroke-linecap="round" stroke-linejoin="round"/>
<path d="M735.621 180.546L783.196 169.442C785.656 168.868 788.115 170.396 788.689 172.856L799.793 220.431C800.367 222.89 798.839 225.35 796.379 225.924L748.804 237.028C746.345 237.602 743.885 236.073 743.311 233.614L732.207 186.039C731.633 183.579 733.162 181.12 735.621 180.546Z" fill="white" stroke="#5F9C2F" stroke-width="4"/>
<path d="M761.382 215.595C761.382 215.595 754.4 195.376 755.248 194.713C756.097 194.05 774.259 196.243 776.517 199.587C776.517 203.243 763.05 215.609 761.382 215.595Z" fill="#BFD352"/>
</svg>
