<svg width="12" height="12" viewBox="0 0 12 12" fill="none" xmlns="http://www.w3.org/2000/svg">
<path d="M6.78923 9.01489L3.8471 11.2565C3.7537 11.3499 3.6603 11.3966 3.56689 11.4433C4.78111 12.0037 6.18212 12.1438 7.53643 11.7702C8.93745 11.3966 10.0583 10.6027 10.8055 9.5286C10.7121 9.5286 10.6187 9.5286 10.4786 9.5286L6.78923 9.01489Z" fill="#BFD352"/>
<path d="M2.95982 5.74583L4.03393 6.35294L3.42682 10.2758L6.46235 7.89405C6.46235 7.89405 6.50905 7.89405 6.50905 7.84735H6.55575L10.3852 8.40776L7.95677 5.32553L8.56387 4.25142L11.3659 7.98745C11.4593 8.08086 11.506 8.17426 11.5527 8.26766C12.0197 7.10015 12.1598 5.79253 11.7862 4.43822C10.9923 1.49609 8.14357 -0.325226 5.20144 0.0483778C5.24814 0.0950782 5.29484 0.188479 5.38824 0.23518L8.23697 3.92452L7.06946 4.25142L4.73443 1.07579L4.26743 4.99863L3.05322 5.32553L3.70703 0.702184C3.70703 0.608783 3.75373 0.515382 3.75373 0.421981C0.998398 1.54279 -0.589417 4.53162 0.20449 7.52045C0.531393 8.82806 1.3253 9.94887 2.30601 10.6961C2.30601 10.6027 2.30601 10.5093 2.30601 10.3692L2.95982 5.74583Z" fill="#BFD352"/>
</svg>
