<svg width="245" height="106" viewBox="0 0 245 106" fill="none" xmlns="http://www.w3.org/2000/svg">
<path d="M30.5406 87.6754C124.272 89.5442 271.286 46.8402 228.286 31.3928C174.536 12.0836 30.3785 51.3483 12.2564 60.9484C-5.86565 70.5485 -3.8037 99.0096 135.86 71.3826C308.593 37.2144 227.39 16.9487 167.609 20.245C113.614 24.0607 16.6567 46.4756 67.5661 48.4125" stroke="#BFD352" stroke-linecap="round"/>
<rect x="9.23535" y="24.4807" width="215" height="53" rx="12" fill="#BFD352"/>
<path d="M48.1045 48.2434C47.3193 49.0403 46.9268 50.0217 46.9268 51.1877C46.9268 52.3479 47.3193 53.3264 48.1045 54.1233C48.8896 54.9202 49.8447 55.3186 50.9697 55.3186C52.1006 55.3186 53.0586 54.9202 53.8438 54.1233C54.6289 53.3264 55.0215 52.3479 55.0215 51.1877C55.0215 50.0217 54.6289 49.0403 53.8438 48.2434C53.0586 47.4407 52.1006 47.0393 50.9697 47.0393C49.8447 47.0393 48.8896 47.4407 48.1045 48.2434ZM46.1094 55.8284C44.791 54.5393 44.1318 52.9895 44.1318 51.179C44.1318 49.3684 44.791 47.8215 46.1094 46.5383C47.4336 45.2551 49.0537 44.6135 50.9697 44.6135C52.8916 44.6135 54.5117 45.2551 55.8301 46.5383C57.1543 47.8215 57.8164 49.3684 57.8164 51.179C57.8164 52.9895 57.1543 54.5393 55.8301 55.8284C54.5117 57.1116 52.8916 57.7532 50.9697 57.7532C49.0537 57.7532 47.4336 57.1116 46.1094 55.8284ZM68.7148 53.2532C68.7148 54.4895 68.2988 55.5325 67.4668 56.3821C66.6406 57.2317 65.5859 57.6565 64.3027 57.6565C62.8613 57.6565 61.7041 57.1555 60.8311 56.1536C59.9639 55.1516 59.5303 53.7336 59.5303 51.8997C59.5303 49.8489 59.9199 48.2991 60.6992 47.2502C61.4785 46.2014 62.5889 45.5305 64.0303 45.2375C64.6689 45.1028 65.252 44.9563 65.7793 44.7981C66.3066 44.6399 66.6729 44.511 66.8779 44.4114L67.1855 44.2532L68.2578 46.0549C68.2109 46.1018 68.126 46.1633 68.0029 46.2395C67.8857 46.3157 67.5254 46.4651 66.9219 46.6877C66.3242 46.9104 65.6006 47.1184 64.751 47.3118C63.9834 47.4817 63.3594 47.8098 62.8789 48.2961C62.3984 48.7766 62.0938 49.3772 61.9648 50.0979C61.9883 50.0627 62.0264 50.0188 62.0791 49.9661C62.1318 49.9133 62.2432 49.8167 62.4131 49.676C62.583 49.5295 62.7617 49.4006 62.9492 49.2893C63.1426 49.1721 63.3857 49.0696 63.6787 48.9817C63.9717 48.8879 64.2705 48.8411 64.5752 48.8411C65.665 48.8411 66.626 49.2776 67.458 50.1506C68.2959 51.0178 68.7148 52.052 68.7148 53.2532ZM62.8262 51.636C62.4277 52.052 62.2285 52.5911 62.2285 53.2532C62.2285 53.9094 62.4277 54.4485 62.8262 54.8704C63.2246 55.2922 63.7168 55.5032 64.3027 55.5032C64.8535 55.5032 65.3193 55.2922 65.7002 54.8704C66.0869 54.4485 66.2803 53.9094 66.2803 53.2532C66.2803 52.5911 66.0869 52.052 65.7002 51.636C65.3193 51.2141 64.8535 51.0032 64.3027 51.0032C63.7168 51.0032 63.2246 51.2141 62.8262 51.636ZM71.5713 56.2854C70.6279 55.3655 70.1562 54.2932 70.1562 53.0686C70.1562 51.844 70.6279 50.7747 71.5713 49.8606C72.5146 48.9407 73.6338 48.4807 74.9287 48.4807C75.3857 48.4807 75.8193 48.5452 76.2295 48.6741C76.6455 48.7971 76.9854 48.9465 77.249 49.1223C77.5127 49.2922 77.7471 49.4651 77.9521 49.6409C78.1572 49.8167 78.3066 49.969 78.4004 50.0979L78.5322 50.2825L77.0029 51.8118C76.9561 51.7297 76.877 51.6213 76.7656 51.4866C76.6602 51.3518 76.4258 51.179 76.0625 50.968C75.7051 50.7512 75.3271 50.6428 74.9287 50.6428C74.29 50.6428 73.7393 50.8801 73.2764 51.3547C72.8193 51.8293 72.5908 52.4036 72.5908 53.0774C72.5908 53.7454 72.8223 54.3167 73.2852 54.7913C73.748 55.2659 74.2959 55.5032 74.9287 55.5032C75.3271 55.5032 75.7051 55.4065 76.0625 55.2131C76.4258 55.0198 76.6895 54.8264 76.8535 54.6331L77.0908 54.3342L78.5322 55.8635C78.4971 55.9104 78.4473 55.9778 78.3828 56.0657C78.3242 56.1477 78.1836 56.2913 77.9609 56.4963C77.7383 56.6956 77.498 56.8743 77.2402 57.0325C76.9824 57.1848 76.6455 57.3284 76.2295 57.4631C75.8193 57.592 75.3857 57.6565 74.9287 57.6565C73.6338 57.6565 72.5146 57.1995 71.5713 56.2854ZM82.2236 58.0168L82.4961 57.3928L79.0771 48.6565H81.5996L83.665 54.51L85.7393 48.6565H88.2529L84.7461 58.0168C83.9434 60.179 82.8037 61.26 81.3271 61.26C81.0635 61.26 80.8027 61.2366 80.5449 61.1897C80.2871 61.1428 80.0967 61.0959 79.9736 61.0491L79.7979 60.9875V58.8342C80.0381 58.9514 80.3369 59.01 80.6943 59.01C81.4268 59.01 81.9365 58.679 82.2236 58.0168ZM88.3408 55.3186H88.877C88.9121 55.2834 88.9619 55.2336 89.0264 55.1692C89.0967 55.1047 89.2139 54.9465 89.3779 54.6946C89.5479 54.4426 89.6943 54.1672 89.8174 53.8684C89.9463 53.5637 90.0605 53.1624 90.1602 52.6643C90.2656 52.1663 90.3184 51.6418 90.3184 51.0911V48.6565H97.0684V55.3186H98.2373V59.5549H95.8115V57.4807H90.7666V59.5549H88.3408V55.3186ZM92.5684 50.8186V51.3635C92.5684 52.0608 92.4717 52.7405 92.2783 53.4026C92.0908 54.0588 91.9004 54.5422 91.707 54.8528L91.3994 55.3186H94.6426V50.8186H92.5684ZM106.112 48.6565H108.23V57.4807H105.805V52.5325L101.964 57.4807H99.8633V48.6565H102.289V53.6135L106.112 48.6565ZM109.663 51.0032V48.6565H117.679V51.0032H114.884V57.4807H112.458V51.0032H109.663ZM121.537 55.5032H123.066C123.377 55.5032 123.635 55.4006 123.84 55.1956C124.045 54.9905 124.147 54.7327 124.147 54.4221C124.147 54.1116 124.045 53.8538 123.84 53.6487C123.641 53.4436 123.383 53.3411 123.066 53.3411H121.537V55.5032ZM125.668 52.2073C126.277 52.7698 126.582 53.5081 126.582 54.4221C126.582 55.3303 126.277 56.0686 125.668 56.637C125.064 57.1995 124.229 57.4807 123.163 57.4807H119.111V48.6565H121.537V51.3635H123.163C124.229 51.3635 125.064 51.6448 125.668 52.2073ZM138.184 51.0911C138.184 51.3547 138.137 51.5979 138.043 51.8206C137.949 52.0432 137.829 52.219 137.683 52.3479C137.542 52.4709 137.398 52.5793 137.252 52.6731C137.105 52.761 136.985 52.8167 136.892 52.8401L136.751 52.8928C136.798 52.9045 136.862 52.925 136.944 52.9543C137.026 52.9836 137.17 53.054 137.375 53.1653C137.58 53.2708 137.759 53.3997 137.911 53.552C138.069 53.6985 138.213 53.9036 138.342 54.1672C138.477 54.4309 138.544 54.7268 138.544 55.0549C138.544 55.7756 138.213 56.3909 137.551 56.9006C136.895 57.4045 135.966 57.6565 134.765 57.6565C134.296 57.6565 133.848 57.6008 133.42 57.4895C132.998 57.3782 132.649 57.2434 132.374 57.0852C132.099 56.927 131.858 56.7717 131.653 56.6194C131.448 56.4612 131.305 56.3293 131.223 56.2239L131.073 56.0393L132.427 54.6946C132.474 54.7649 132.55 54.8557 132.655 54.967C132.767 55.0725 133.001 55.219 133.358 55.4065C133.722 55.5881 134.103 55.679 134.501 55.679C134.97 55.679 135.324 55.5881 135.564 55.4065C135.811 55.219 135.934 54.9817 135.934 54.6946C135.934 54.0969 135.456 53.7952 134.501 53.7893H133.596V52.1721H134.501C134.888 52.1721 135.178 52.0989 135.371 51.9524C135.57 51.8 135.67 51.6038 135.67 51.3635C135.67 50.7659 135.28 50.4641 134.501 50.4583C134.214 50.4583 133.918 50.5256 133.613 50.6604C133.314 50.7893 133.086 50.927 132.928 51.0735L132.699 51.2668L131.346 49.9221C131.369 49.887 131.41 49.8372 131.469 49.7727C131.533 49.7024 131.668 49.5852 131.873 49.4211C132.084 49.2512 132.31 49.1047 132.55 48.9817C132.79 48.8528 133.112 48.7385 133.517 48.6389C133.921 48.5334 134.337 48.4807 134.765 48.4807C135.796 48.4807 136.622 48.7385 137.243 49.2542C137.87 49.7698 138.184 50.3821 138.184 51.0911ZM145.206 57.4807V56.5842C145.136 56.6663 145.036 56.7688 144.907 56.8918C144.784 57.009 144.512 57.1672 144.09 57.3665C143.668 57.5598 143.229 57.6565 142.771 57.6565C141.893 57.6565 141.178 57.4133 140.627 56.927C140.076 56.4348 139.801 55.8401 139.801 55.1428C139.801 54.4221 140.032 53.8215 140.495 53.3411C140.958 52.8606 141.597 52.5471 142.411 52.4006L145.206 51.8997C145.206 51.5305 145.071 51.2288 144.802 50.9944C144.532 50.76 144.157 50.6428 143.677 50.6428C143.278 50.6428 142.915 50.719 142.587 50.8713C142.259 51.0178 142.027 51.1702 141.893 51.3284L141.69 51.5393L140.346 50.1946C140.381 50.1477 140.428 50.0862 140.486 50.01C140.551 49.928 140.688 49.7903 140.899 49.5969C141.116 49.4036 141.351 49.2336 141.603 49.0872C141.854 48.9348 142.186 48.7971 142.596 48.6741C143.006 48.5452 143.425 48.4807 143.853 48.4807C144.966 48.4807 145.874 48.8147 146.577 49.4827C147.28 50.1448 147.632 50.9797 147.632 51.9875V57.4807H145.206ZM143.404 55.679C143.955 55.679 144.392 55.5061 144.714 55.1604C145.042 54.8088 145.206 54.3225 145.206 53.7014V53.429L143.229 53.7893C142.566 53.8948 142.235 54.2258 142.235 54.7825C142.235 55.3801 142.625 55.679 143.404 55.679ZM148.81 55.3186H149.346C149.381 55.2834 149.431 55.2336 149.495 55.1692C149.565 55.1047 149.683 54.9465 149.847 54.6946C150.017 54.4426 150.163 54.1672 150.286 53.8684C150.415 53.5637 150.529 53.1624 150.629 52.6643C150.734 52.1663 150.787 51.6418 150.787 51.0911V48.6565H157.537V55.3186H158.706V59.5549H156.28V57.4807H151.235V59.5549H148.81V55.3186ZM153.037 50.8186V51.3635C153.037 52.0608 152.94 52.7405 152.747 53.4026C152.56 54.0588 152.369 54.5422 152.176 54.8528L151.868 55.3186H155.111V50.8186H153.037ZM165.192 57.4807V56.5842C165.122 56.6663 165.022 56.7688 164.894 56.8918C164.771 57.009 164.498 57.1672 164.076 57.3665C163.654 57.5598 163.215 57.6565 162.758 57.6565C161.879 57.6565 161.164 57.4133 160.613 56.927C160.062 56.4348 159.787 55.8401 159.787 55.1428C159.787 54.4221 160.019 53.8215 160.481 53.3411C160.944 52.8606 161.583 52.5471 162.397 52.4006L165.192 51.8997C165.192 51.5305 165.058 51.2288 164.788 50.9944C164.519 50.76 164.144 50.6428 163.663 50.6428C163.265 50.6428 162.901 50.719 162.573 50.8713C162.245 51.0178 162.014 51.1702 161.879 51.3284L161.677 51.5393L160.332 50.1946C160.367 50.1477 160.414 50.0862 160.473 50.01C160.537 49.928 160.675 49.7903 160.886 49.5969C161.103 49.4036 161.337 49.2336 161.589 49.0872C161.841 48.9348 162.172 48.7971 162.582 48.6741C162.992 48.5452 163.411 48.4807 163.839 48.4807C164.952 48.4807 165.86 48.8147 166.563 49.4827C167.267 50.1448 167.618 50.9797 167.618 51.9875V57.4807H165.192ZM163.391 55.679C163.941 55.679 164.378 55.5061 164.7 55.1604C165.028 54.8088 165.192 54.3225 165.192 53.7014V53.429L163.215 53.7893C162.553 53.8948 162.222 54.2258 162.222 54.7825C162.222 55.3801 162.611 55.679 163.391 55.679ZM175.186 57.4807V54.51C174.588 54.9319 173.896 55.1428 173.111 55.1428C172.104 55.1428 171.295 54.8235 170.686 54.1848C170.082 53.5403 169.78 52.6584 169.78 51.5393V48.6565H172.215V51.3635C172.215 51.8088 172.353 52.175 172.628 52.4622C172.903 52.7493 173.246 52.8928 173.656 52.8928C173.943 52.8928 174.216 52.8489 174.474 52.761C174.731 52.6672 174.913 52.5735 175.019 52.4797L175.186 52.3479V48.6565H177.611V57.4807H175.186ZM186.198 48.6565H188.316V57.4807H185.891V52.5325L182.05 57.4807H179.949V48.6565H182.375V53.6135L186.198 48.6565Z" fill="#BFD352"/>
</svg>
