<svg width="111" height="41" viewBox="0 0 111 41" fill="none" xmlns="http://www.w3.org/2000/svg">
<g clip-path="url(#clip0_537_922)">
<path d="M13.9 36.4999H9.8C9.8 36.9999 10 37.3999 10.4 37.6999C10.7 37.9999 11.2 38.1999 11.6 38.1999C11.9 38.1999 12.2 38.0999 12.5 37.9999C12.8 37.8999 13 37.6999 13.1 37.5999L13.3 37.3999L13.8 37.8999L13.7 37.9999C13.7 38.0999 13.6 38.0999 13.4 38.2999C13.3 38.3999 13.1 38.4999 13 38.5999C12.8 38.6999 12.6 38.7999 12.4 38.8999C12.2 38.9999 11.9 38.9999 11.7 38.9999C11 38.9999 10.4 38.6999 9.9 38.1999C9.3 37.5999 9 36.9999 9 36.2999C9 35.5999 9.2 34.8999 9.7 34.3999C10.2 33.8999 10.8 33.5999 11.4 33.5999C12.1 33.5999 12.7 33.7999 13.1 34.2999C13.6 34.7999 13.8 35.3999 13.8 36.0999L13.9 36.4999ZM12.7 34.7999C12.4 34.4999 12 34.3999 11.6 34.3999C11.2 34.3999 10.8 34.5999 10.4 34.8999C10.1 35.1999 9.9 35.5999 9.8 35.9999H13.2C13.2 35.3999 13 35.0999 12.7 34.7999Z" fill="#273A3B"/>
<path d="M19.2998 35.2998V35.9998H15.7998V35.2998H19.2998Z" fill="#273A3B"/>
<path d="M22.2 31.3999V38.7999H21.5V31.3999H22.2Z" fill="#273A3B"/>
<path d="M29.2 36.4999H25.1C25.1 36.9999 25.3 37.3999 25.7 37.6999C26 37.9999 26.5 38.1999 26.9 38.1999C27.2 38.1999 27.5 38.0999 27.8 37.9999C28.1 37.8999 28.3 37.6999 28.4 37.5999L28.6 37.3999L29.1 37.8999L29 37.9999C29 38.0999 28.9 38.0999 28.7 38.2999C28.6 38.3999 28.4 38.4999 28.3 38.5999C28.1 38.6999 27.9 38.7999 27.7 38.8999C27.5 38.9999 27.2 38.9999 27 38.9999C26.3 38.9999 25.7 38.6999 25.2 38.1999C24.7 37.6999 24.5 37.0999 24.5 36.2999C24.5 35.4999 24.7 34.8999 25.2 34.3999C25.7 33.8999 26.3 33.5999 26.9 33.5999C27.6 33.5999 28.2 33.7999 28.6 34.2999C29.1 34.7999 29.3 35.3999 29.3 36.0999L29.2 36.4999ZM28 34.7999C27.7 34.4999 27.3 34.3999 26.9 34.3999C26.5 34.3999 26.1 34.5999 25.7 34.8999C25.4 35.1999 25.2 35.5999 25.1 35.9999H28.5C28.5 35.3999 28.3 35.0999 28 34.7999Z" fill="#273A3B"/>
<path d="M32.4999 35.8999L34.4999 35.5999C34.4999 35.1999 34.3999 34.8999 34.0999 34.6999C33.8999 34.4999 33.5999 34.2999 33.1999 34.2999C32.8999 34.2999 32.6999 34.3999 32.3999 34.4999C32.1999 34.5999 31.9999 34.6999 31.8999 34.8999L31.6999 34.9999L31.1999 34.4999C31.1999 34.4999 31.1999 34.3999 31.2999 34.3999C31.2999 34.3999 31.3999 34.2999 31.4999 34.1999C31.5999 34.0999 31.7999 33.9999 31.8999 33.8999C31.9999 33.7999 32.1999 33.6999 32.3999 33.6999C32.5999 33.5999 32.7999 33.5999 33.0999 33.5999C33.6999 33.5999 34.1999 33.7999 34.4999 34.1999C34.8999 34.5999 35.0999 34.9999 35.0999 35.5999V38.7999H34.3999V38.0999C34.3999 38.0999 34.3999 38.0999 34.2999 38.1999C34.2999 38.1999 34.1999 38.2999 34.0999 38.3999C33.9999 38.4999 33.8999 38.5999 33.7999 38.5999C33.6999 38.6999 33.4999 38.6999 33.2999 38.7999C33.0999 38.8999 32.8999 38.8999 32.6999 38.8999C32.1999 38.8999 31.7999 38.7999 31.3999 38.4999C31.0999 38.1999 30.8999 37.8999 30.8999 37.4999C30.8999 37.0999 30.9999 36.6999 31.2999 36.4999C31.5999 36.0999 31.9999 35.9999 32.4999 35.8999ZM32.7999 38.1999C33.2999 38.1999 33.6999 37.9999 33.9999 37.6999C34.2999 37.3999 34.4999 36.9999 34.4999 36.4999V36.1999L32.7999 36.4999C32.1999 36.5999 31.7999 36.8999 31.7999 37.3999C31.7999 37.5999 31.8999 37.7999 32.0999 37.9999C32.1999 38.0999 32.4999 38.1999 32.7999 38.1999Z" fill="#273A3B"/>
<path d="M40.3002 33.5999V34.2999H40.0002C39.6002 34.2999 39.2002 34.4999 38.9002 34.7999C38.6002 35.0999 38.4002 35.4999 38.4002 35.9999V38.7999H37.7002V33.6999H38.4002V34.3999C38.4002 34.3999 38.4002 34.3999 38.5002 34.2999C38.5002 34.2999 38.6002 34.1999 38.7002 34.0999C38.8002 33.9999 38.9002 33.8999 39.0002 33.8999C39.1002 33.7999 39.3002 33.7999 39.5002 33.6999C39.7002 33.5999 39.9002 33.5999 40.1002 33.5999H40.3002Z" fill="#273A3B"/>
<path d="M42.8998 33.7V34.4C42.8998 34.4 42.8998 34.3 42.9998 34.3C42.9998 34.3 43.0998 34.2 43.1998 34.1C43.2998 34 43.3998 33.9 43.4998 33.8C43.5998 33.7 43.7998 33.7 43.9998 33.6C44.1998 33.5 44.3998 33.5 44.5998 33.5C45.1998 33.5 45.6998 33.7 46.0998 34.1C46.4998 34.5 46.6998 35 46.6998 35.7V38.7H45.9998V35.7C45.9998 35.3 45.8998 34.9 45.5998 34.6C45.2998 34.3 44.9998 34.2 44.5998 34.2C44.0998 34.2 43.7998 34.4 43.4998 34.7C43.1998 35 42.9998 35.4 42.9998 35.9V38.7H42.2998V33.6H42.8998V33.7Z" fill="#273A3B"/>
<path d="M49.1 32.4C49 32.3 49 32.1999 49 32.0999C49 31.9999 49 31.8999 49.1 31.7999C49.2 31.6999 49.3 31.7 49.4 31.7C49.5 31.7 49.6 31.6999 49.7 31.7999C49.8 31.8999 49.8 31.9999 49.8 32.0999C49.8 32.1999 49.8 32.3 49.7 32.4C49.6 32.5 49.5 32.5 49.4 32.5C49.3 32.5 49.2 32.5 49.1 32.4ZM49.1 38.7999V33.7H49.8V38.7999H49.1Z" fill="#273A3B"/>
<path d="M52.9998 33.7V34.4C52.9998 34.4 52.9998 34.3 53.0998 34.3C53.0998 34.3 53.1998 34.2 53.2998 34.1C53.3998 34 53.4998 33.9 53.5998 33.8C53.6998 33.7 53.8998 33.7 54.0998 33.6C54.2998 33.5 54.4998 33.5 54.6998 33.5C55.2998 33.5 55.7998 33.7 56.1998 34.1C56.5998 34.5 56.7998 35 56.7998 35.7V38.7H55.9998V35.7C55.9998 35.3 55.8998 34.9 55.5998 34.6C55.2998 34.3 54.9998 34.2 54.5998 34.2C54.0998 34.2 53.7998 34.4 53.4998 34.7C53.1998 35.1 52.9998 35.5 52.9998 36V38.8H52.2998V33.7H52.9998Z" fill="#273A3B"/>
<path d="M62.8998 38.4998V37.8998C62.8998 37.8998 62.8998 37.9998 62.7998 37.9998C62.7998 37.9998 62.6998 38.0998 62.5998 38.1998C62.4998 38.2998 62.3998 38.3998 62.2998 38.4998C62.1998 38.5998 61.9998 38.5998 61.7998 38.6998C61.5998 38.7998 61.3998 38.7998 61.1998 38.7998C60.5998 38.7998 59.9998 38.5998 59.4998 38.0998C58.9998 37.5998 58.7998 36.9998 58.7998 36.2998C58.7998 35.5998 58.9998 34.9998 59.4998 34.4998C59.9998 33.9998 60.4998 33.7998 61.1998 33.7998C61.3998 33.7998 61.5998 33.7998 61.7998 33.8998C61.9998 33.9998 62.1998 33.9998 62.2998 34.0998C62.3998 34.1998 62.4998 34.2998 62.5998 34.3998C62.6998 34.4998 62.7998 34.5998 62.7998 34.5998L62.8998 34.6998V33.9998H63.5998V38.7998C63.5998 39.4998 63.3998 40.0998 62.8998 40.5998C62.3998 41.0998 61.7998 41.2998 61.0998 41.2998C60.7998 41.2998 60.5998 41.2998 60.2998 41.1998C60.0998 41.0998 59.8998 40.9998 59.6998 40.8998C59.4998 40.7998 59.3998 40.6998 59.2998 40.5998C59.1998 40.4998 59.0998 40.3998 58.9998 40.2998L59.0998 39.9998L59.5998 39.4998C59.5998 39.4998 59.5998 39.5998 59.6998 39.5998C59.6998 39.5998 59.7998 39.6998 59.8998 39.7998C59.9998 39.8998 60.0998 39.9998 60.1998 40.0998C60.2998 40.1998 60.4998 40.1998 60.6998 40.2998C60.8998 40.3998 61.0998 40.3998 61.2998 40.3998C61.7998 40.3998 62.1998 40.1998 62.4998 39.8998C62.6998 39.3998 62.8998 38.9998 62.8998 38.4998ZM60.0998 34.7998C59.7998 35.1998 59.5998 35.5998 59.5998 36.0998C59.5998 36.5998 59.7998 37.0998 60.0998 37.3998C60.3998 37.7998 60.7998 37.8998 61.1998 37.8998C61.6998 37.8998 62.0998 37.6998 62.3998 37.3998C62.6998 36.9998 62.8998 36.5998 62.8998 36.0998C62.8998 35.5998 62.6998 35.0998 62.3998 34.7998C62.0998 34.3998 61.6998 34.2998 61.1998 34.2998C60.7998 34.2998 60.3998 34.4998 60.0998 34.7998Z" fill="#273A3B"/>
<path d="M72 34.2998L71.5 34.7998L71.4 34.6998C71.3 34.5998 71.2 34.5998 71 34.4998C70.8 34.3998 70.6 34.3998 70.4 34.3998C70.1 34.3998 69.9 34.4998 69.7 34.5998C69.5 34.6998 69.4 34.8998 69.4 35.0998C69.4 35.2998 69.5 35.4998 69.7 35.5998C69.9 35.6998 70.1 35.7998 70.4 35.8998C70.7 35.9998 70.9 36.0998 71.2 36.1998C71.5 36.2998 71.7 36.3998 71.9 36.6998C72.1 36.8998 72.2 37.1998 72.2 37.4998C72.2 37.8998 72 38.2998 71.7 38.5998C71.4 38.8998 70.9 38.9998 70.4 38.9998C70.2 38.9998 69.9 38.9998 69.7 38.8998C69.5 38.7998 69.3 38.7998 69.2 38.6998C69.1 38.5998 68.9 38.4998 68.8 38.3998C68.7 38.2998 68.6 38.1998 68.6 38.1998L68.5 37.9998L69 37.4998C69 37.4998 69 37.4998 69.1 37.5998C69.1 37.5998 69.2 37.6998 69.3 37.7998C69.4 37.8998 69.5 37.9998 69.6 37.9998C69.7 38.0998 69.8 38.0998 70 38.1998C70.2 38.2998 70.3 38.2998 70.5 38.2998C70.9 38.2998 71.1 38.1998 71.3 38.0998C71.5 37.8998 71.6 37.6998 71.6 37.4998C71.6 37.2998 71.5 37.0998 71.3 36.9998C71.1 36.8998 70.9 36.7998 70.6 36.6998C70.3 36.5998 70.1 36.4998 69.8 36.3998C69.5 36.2998 69.3 36.1998 69.1 35.9998C68.9 35.7998 68.8 35.4998 68.8 35.1998C68.8 34.7998 69 34.4998 69.3 34.1998C69.6 33.8998 70 33.7998 70.5 33.7998C70.7 33.7998 70.9 33.7998 71.1 33.8998C71.3 33.8998 71.4 33.9998 71.6 34.0998C71.7 34.1998 71.8 34.1998 71.9 34.2998C71.8 34.0998 71.9 34.1998 72 34.2998Z" fill="#273A3B"/>
<path d="M74.7998 33.2V32H75.4998V33.7H76.5998V34.4H75.4998V37.4C75.4998 37.9 75.6998 38.2 76.1998 38.2C76.2998 38.2 76.3998 38.2 76.4998 38.2C76.5998 38.2 76.6998 38.1 76.7998 38.1H76.8998V38.8C76.6998 38.9 76.4998 39 76.1998 39C75.7998 39 75.3998 38.9 75.1998 38.6C74.9998 38.3 74.7998 38 74.7998 37.5V34.5H73.7998V33.8H74.3998C74.5998 33.7 74.7998 33.5 74.7998 33.2Z" fill="#273A3B"/>
<path d="M82.5998 38.7999V38.0999C82.5998 38.0999 82.5998 38.1 82.4998 38.2C82.4998 38.2 82.3998 38.3 82.2998 38.4C82.1998 38.5 82.0998 38.5999 81.9998 38.5999C81.8998 38.6999 81.6998 38.6999 81.4998 38.7999C81.2998 38.8999 81.0998 38.9 80.8998 38.9C80.2998 38.9 79.7998 38.6999 79.3998 38.2999C78.9998 37.8999 78.7998 37.4 78.7998 36.7V33.7H79.4998V36.7C79.4998 37.1 79.5998 37.4999 79.8998 37.7999C80.1998 38.0999 80.4998 38.2 80.8998 38.2C81.2998 38.2 81.6998 38 81.9998 37.7C82.2998 37.4 82.3998 37 82.3998 36.5V33.7H83.0998V38.7999H82.5998Z" fill="#273A3B"/>
<path d="M89.8001 34.4999V31.3999H90.5001V38.7999H89.8001V37.9999C89.8001 37.9999 89.8001 38.0999 89.7001 38.0999C89.7001 38.0999 89.6001 38.1999 89.5001 38.2999C89.4001 38.3999 89.3001 38.4999 89.1001 38.5999C89.0001 38.6999 88.8001 38.7999 88.6001 38.7999C88.4001 38.8999 88.2001 38.8999 88.0001 38.8999C87.4001 38.8999 86.8001 38.5999 86.3001 38.0999C85.8001 37.5999 85.6001 36.9999 85.6001 36.1999C85.6001 35.4999 85.8001 34.8999 86.3001 34.2999C86.8001 33.7999 87.4001 33.4999 88.0001 33.4999C88.2001 33.4999 88.4001 33.4999 88.6001 33.5999C88.8001 33.6999 89.0001 33.6999 89.1001 33.7999C89.2001 33.8999 89.4001 33.9999 89.5001 34.0999C89.6001 34.2999 89.6001 34.3999 89.8001 34.4999ZM89.2001 37.5999C89.6001 37.1999 89.8001 36.7999 89.8001 36.1999C89.8001 35.6999 89.6001 35.1999 89.2001 34.7999C88.8001 34.3999 88.4001 34.1999 88.0001 34.1999C87.6001 34.1999 87.2001 34.3999 86.8001 34.7999C86.4001 35.1999 86.3001 35.5999 86.3001 36.1999C86.3001 36.6999 86.5001 37.1999 86.8001 37.5999C87.1001 37.9999 87.5001 38.1999 88.0001 38.1999C88.4001 38.1999 88.8001 37.9999 89.2001 37.5999Z" fill="#273A3B"/>
<path d="M93.1 32.4C93 32.3 93 32.1999 93 32.0999C93 31.9999 93 31.8999 93.1 31.7999C93.2 31.6999 93.3 31.7 93.4 31.7C93.5 31.7 93.6 31.6999 93.7 31.7999C93.8 31.8999 93.8 31.9999 93.8 32.0999C93.8 32.1999 93.8 32.3 93.7 32.4C93.6 32.5 93.5 32.5 93.4 32.5C93.3 32.5 93.2 32.5 93.1 32.4ZM93 38.7999V33.7H93.7V38.7999H93Z" fill="#273A3B"/>
<path d="M96.6999 38.1C96.1999 37.6 95.8999 37 95.8999 36.2C95.8999 35.5 96.1999 34.8 96.6999 34.3C97.1999 33.8 97.7999 33.5 98.4999 33.5C99.1999 33.5 99.7999 33.8 100.3 34.3C100.8 34.8 101.1 35.4 101.1 36.2C101.1 36.9 100.8 37.6 100.3 38.1C99.7999 38.6 99.1999 38.9 98.4999 38.9C97.7999 38.9 97.1999 38.6 96.6999 38.1ZM99.7999 37.7C100.2 37.3 100.3 36.9 100.3 36.3C100.3 35.8 100.1 35.3 99.7999 34.9C99.3999 34.5 98.9999 34.3 98.4999 34.3C97.9999 34.3 97.5999 34.5 97.1999 34.9C96.7999 35.3 96.6999 35.7 96.6999 36.3C96.6999 36.8 96.8999 37.3 97.1999 37.7C97.5999 38.1 97.9999 38.3 98.4999 38.3C98.9999 38.2 99.3999 38 99.7999 37.7Z" fill="#273A3B"/>
<path d="M41.9996 19.3L35.6996 24.1C35.4996 24.3 35.2996 24.4 35.0996 24.5C37.6996 25.7 40.6996 26.0001 43.5996 25.2001C46.5996 24.4001 48.9996 22.7 50.5996 20.4C50.3996 20.4 50.1996 20.4 49.8996 20.4L41.9996 19.3Z" fill="#BFD352"/>
<path d="M33.7998 12.2999L36.0998 13.5999L34.7998 21.9999L41.2998 16.8999C41.2998 16.8999 41.3998 16.8999 41.3998 16.7999H41.4998L49.6998 17.9999L44.4998 11.3999L45.7998 9.09993L51.7998 17.0999C51.9998 17.2999 52.0998 17.4999 52.1998 17.6999C53.1998 15.1999 53.4998 12.3999 52.6998 9.49993C50.9998 3.19993 44.8998 -0.70007 38.5998 0.0999296C38.6998 0.19993 38.7998 0.39993 38.9998 0.49993L45.0998 8.39993L42.5998 9.09993L37.5998 2.29993L36.5998 10.6999L33.9998 11.3999L35.3998 1.49993C35.3998 1.29993 35.4998 1.09993 35.4998 0.89993C29.5998 3.29993 26.1998 9.69993 27.8998 16.0999C28.5998 18.8999 30.2998 21.2999 32.3998 22.8999C32.3998 22.6999 32.3998 22.4999 32.3998 22.1999L33.7998 12.2999Z" fill="#BFD352"/>
<path d="M52.1 17.6999C52 17.4999 51.9 17.2999 51.7 17.0999L45.7 9.09985L44.4 11.3999L49.6 17.9999L41.4 16.7999H41.3C41.3 16.7999 41.2 16.7999 41.2 16.8999L34.8 21.9999L36.1 13.6999L33.8 12.3999L32.5 22.2999C32.5 22.4999 32.5 22.7999 32.5 22.9999C33.3 23.5999 34.2 24.1999 35.1 24.5999C35.3 24.4999 35.5 24.3999 35.7 24.1999L42 19.3999L49.9 20.3999C50.2 20.3999 50.4 20.3999 50.6 20.3999C51.3 19.4999 51.8 18.5999 52.1 17.6999Z" fill="#96AD3C"/>
<path d="M34 11.3999L36.5 10.6999L37.5 2.29985L42.5 9.09985L45 8.39985L39 0.499854C38.9 0.299854 38.8 0.199854 38.6 0.0998535C38.1 0.199854 37.5 0.299854 37 0.399854C36.5 0.499854 36 0.699853 35.5 0.899853C35.4 1.09985 35.4 1.29985 35.4 1.49985L34 11.3999Z" fill="#96AD3C"/>
<path d="M17.9 0.599854V19.3999L3.4 0.599854H0V25.0999H3.7V6.39985L18.2 25.0999H21.6V0.599854H17.9Z" fill="#273A3B"/>
<path d="M76.9 0.599854L69.1 20.2999H67.7L59.9 0.599854H55.5L64.6 22.3999C65 23.4999 65.5 24.1999 66.1 24.5999C66.6 24.9999 67.4 25.1999 68.3 25.1999C69.2 25.1999 70 24.9999 70.5 24.5999C71 24.1999 71.6 23.3999 72 22.2999L81.1 0.599854H76.9Z" fill="#273A3B"/>
<path d="M106.1 0.6V3.4C105.4 2.7 104.6 2.1 103.7 1.7C101.7 0.6 99.2999 0 96.7999 0C94.1999 0 91.7999 0.6 89.7999 1.7C87.7999 2.8 86.1999 4.3 85.0999 6.3C83.9999 8.2 83.3999 10.5 83.3999 12.9C83.3999 15.3 83.9999 17.5 85.0999 19.4C86.1999 21.3 87.7999 22.8 89.6999 23.9C91.6999 25 93.8999 25.5 96.2999 25.5C98.2999 25.5 100.3 25.1 102.2 24.4C103.1 24.1 103.9 23.6 104.6 23.1L106.1 22V24.9H110.1V15V13.2V0.6H106.1ZM104.8 17.8C104 19.2 102.8 20.3 101.4 21.1C99.9999 21.9 98.3999 22.2 96.6999 22.2C94.8999 22.2 93.2999 21.8 91.8999 21.1C90.4999 20.3 89.3999 19.2 88.5999 17.8C87.7999 16.4 87.3999 14.8 87.3999 12.9C87.3999 11.1 87.7999 9.5 88.5999 8.1C89.3999 6.7 90.4999 5.5 91.8999 4.7C93.2999 3.9 94.8999 3.5 96.6999 3.5C98.3999 3.5 99.9999 3.9 101.5 4.7C102.9 5.5 104.1 6.6 104.9 8.1C105.7 9.5 106.1 11.2 106.1 13C106.1 14.8 105.7 16.4 104.8 17.8Z" fill="#273A3B"/>
</g>
<defs>
<clipPath id="clip0_537_922">
<rect width="110.1" height="41" fill="white"/>
</clipPath>
</defs>
</svg>
