<svg width="75" height="77" viewBox="0 0 75 77" fill="none" xmlns="http://www.w3.org/2000/svg">
<path d="M6.11689 40.4229C4.60303 42.7869 3.15889 45.612 3.99701 48.2854C4.57609 50.0903 5.30462 53.0339 6.82581 54.1783C8.82415 55.6722 19.4918 66.1774 27.2361 53.7585C28.0353 52.4977 28.5124 51.0597 28.625 49.5712C28.6996 48.2029 28.5736 46.831 28.2512 45.4992C25.7301 36.7322 11.3921 32.2188 6.11689 40.4229Z" fill="#C12E66"/>
<g style="mix-blend-mode:multiply" opacity="0.38">
<path d="M26.9347 46.0574C26.5775 47.5882 25.9047 49.0277 24.9596 50.2838C24.0145 51.5399 22.8178 52.5851 21.4458 53.3524C20.0641 54.1012 18.5234 54.5087 16.9521 54.5409C15.3809 54.5732 13.8247 54.2292 12.4134 53.5377C11.3009 52.8889 10.2232 52.182 9.18485 51.4201C8.18152 50.7761 7.14507 50.1853 6.07973 49.6502C5.51274 49.3059 4.87528 49.0941 4.21496 49.0308C4.75697 50.8035 5.50381 53.0922 6.79425 54.1161C8.79259 55.61 19.4602 66.1152 27.2045 53.6963C28.0038 52.4355 28.4808 50.9975 28.5934 49.509C28.6681 48.1407 28.542 46.7688 28.2197 45.437C27.8954 44.3425 27.3952 43.3083 26.7383 42.3747L26.6296 42.3128C27.2074 43.4758 27.3166 44.8162 26.9347 46.0574V46.0574Z" fill="#C12E66"/>
</g>
<g style="mix-blend-mode:multiply" opacity="0.38">
<path d="M21.2137 39.4807C22.2496 40.193 23.3281 40.8411 24.4433 41.4214C24.7085 41.5367 24.9499 41.7006 25.1549 41.9046C25.261 42.0045 25.3368 42.132 25.3741 42.2728C25.4115 42.4136 25.4086 42.5621 25.3659 42.7013C25.2986 42.8457 25.192 42.9682 25.0584 43.0548C24.9247 43.1413 24.7694 43.1885 24.6101 43.1909C23.9995 43.1954 23.4005 43.0234 22.8852 42.6956L21.8439 42.1686C21.1388 41.8567 20.4901 41.4307 19.9236 40.9076C19.6429 40.6419 19.4315 40.3114 19.3078 39.9452C19.1841 39.579 19.1519 39.1881 19.214 38.8065C19.5373 37.2277 20.6816 39.1108 21.2137 39.4807Z" fill="#C12E66"/>
</g>
<path d="M11.2686 42.0843C10.7292 42.797 10.0211 43.3581 9.43269 44.0208C8.88484 44.6455 8.42715 45.3439 8.07276 46.0954C7.90792 46.6108 7.55049 47.0427 7.07505 47.301C6.79648 47.3642 6.50476 47.3317 6.24688 47.2089C5.98901 47.086 5.77989 46.8799 5.65344 46.6237C5.43727 46.0994 5.38014 45.5231 5.48916 44.9665C5.69507 43.0879 6.8994 39.5938 8.93367 38.9236C9.79461 38.7564 10.6852 38.8304 11.5068 39.1373C12.4873 39.7516 11.8091 41.35 11.2686 42.0843Z" fill="#FFE4E1"/>
<path d="M31.1125 49.4477C30.4678 52.1741 29.9955 55.2982 31.7318 57.5631C32.8794 59.0711 34.549 61.6086 36.3564 62.173C38.7447 62.9245 52.2806 69.254 55.4666 54.9686C55.7968 53.5151 55.768 52.0029 55.3829 50.5629C54.9977 49.2501 54.4202 48.0016 53.669 46.8581C48.3699 39.424 33.3513 39.9563 31.1125 49.4477Z" fill="#C12E66"/>
<g style="mix-blend-mode:multiply" opacity="0.38">
<path d="M52.6113 47.8187C52.7819 49.3805 52.626 50.9607 52.1537 52.4591C51.6813 53.9575 50.9029 55.3415 49.8674 56.5232C48.8106 57.6881 47.4912 58.5841 46.0188 59.1372C44.5464 59.6904 42.9635 59.8846 41.4011 59.7036C40.1295 59.5221 38.9149 59.0848 37.6587 58.7791C36.4025 58.4733 35.3221 58.3454 34.1402 58.1818C33.5099 58.0514 32.859 58.0586 32.2319 58.2029C33.3412 59.7002 34.7927 61.6476 36.3538 62.1383C38.7421 62.8897 52.278 69.2192 55.464 54.9339C55.7942 53.4803 55.7654 51.9682 55.3804 50.5282C54.9951 49.2154 54.4176 47.9669 53.6665 46.8233C52.9971 45.8918 52.184 45.0727 51.2573 44.3966L51.1568 44.3393C52.0695 45.2699 52.5902 46.5154 52.6113 47.8187V47.8187Z" fill="#C12E66"/>
</g>
<g style="mix-blend-mode:multiply" opacity="0.38">
<path d="M44.9973 43.5119C46.2073 43.8431 47.4373 44.096 48.6797 44.2691C48.9707 44.2925 49.2557 44.365 49.5225 44.4833C49.6542 44.5454 49.7666 44.6416 49.8481 44.7623C49.9296 44.8829 49.9773 45.0234 49.9857 45.1688C49.9658 45.3272 49.903 45.4771 49.8042 45.6025C49.7053 45.7279 49.5741 45.824 49.4247 45.8803C48.8537 46.0767 48.2393 46.1104 47.6503 45.9777L46.4899 45.8153C45.7211 45.7612 44.9668 45.5786 44.2584 45.2752C43.905 45.1186 43.5954 44.8776 43.3569 44.5735C43.1184 44.2694 42.9583 43.9113 42.8906 43.5308C42.7001 41.9584 44.4021 43.35 44.9973 43.5119Z" fill="#C12E66"/>
</g>
<path d="M36.5148 49.2889C36.2528 50.1376 35.7709 50.9053 35.4324 51.7325C35.1319 52.5051 34.9354 53.3142 34.8482 54.1385C34.8677 54.6793 34.6749 55.2062 34.3109 55.6065C34.0696 55.7619 33.7826 55.8305 33.4971 55.8008C33.2116 55.7711 32.9448 55.645 32.7406 55.4433C32.3506 55.0169 32.0943 54.4852 32.0039 53.9144C31.5777 52.0747 31.5464 48.3752 33.2526 47.0745C34.0116 46.631 34.8774 46.4036 35.7564 46.417C36.8895 46.6858 36.7863 48.4235 36.5148 49.2889Z" fill="#FFE4E1"/>
<path d="M21.1899 40.7865C24.9402 34.3912 30.3642 29.1402 36.8776 25.5989C38.4195 24.8575 39.904 24.0024 41.3188 23.0405C43.2529 21.599 44.7251 19.625 45.5549 17.3601C44.9904 22.4941 46.7105 27.5887 46.9992 32.7434C47.284 37.0776 46.4275 41.4108 44.5152 45.3108" stroke="#5F9C2F" stroke-width="2" stroke-linecap="round" stroke-linejoin="round"/>
<path d="M58.2932 25.5747C62.5992 29.4596 65.9233 34.8919 65.7885 40.6923C65.2563 38.0269 63.0577 36.0085 60.7166 34.6297C58.3754 33.2508 55.7802 32.3371 53.5429 30.7956C49.2881 27.8714 45.7044 22.136 44.4874 17.1508C46.2161 16.7833 50.0431 19.7964 51.6012 20.7399C53.9801 22.1358 56.2208 23.7546 58.2932 25.5747V25.5747Z" fill="#5F9C2F"/>
<path d="M57.0964 17.1304C59.5759 17.5462 61.9294 18.5163 63.9818 19.9684C66.0341 21.4205 67.7323 23.3172 68.9496 25.5169C68.1925 24.679 67.2419 24.0389 66.1807 23.6525C65.1196 23.266 63.98 23.1448 62.8613 23.2996C60.713 23.45 58.6095 24.1251 56.4586 24.0856C52.3742 23.9752 47.3764 21.2262 44.2646 17.7559C45.2049 16.4954 49.072 16.87 50.513 16.7932C52.7131 16.6492 54.9226 16.7624 57.0964 17.1304V17.1304Z" fill="#3E5936"/>
</svg>
