<svg width="87" height="104" viewBox="0 0 87 104" fill="none" xmlns="http://www.w3.org/2000/svg">
<path d="M28.5629 2.6996C27.6103 2.74946 26.6933 3.07796 25.9258 3.64433C25.1583 4.21069 24.574 4.98998 24.2454 5.88547C22.657 9.50827 21.5297 13.3161 20.8898 17.2197C22.5482 16.5486 24.0443 16.4599 25.1751 15.0736C26.0754 15.7657 27.0853 15.2575 28.196 15.4936C29.3067 15.7297 30.4562 15.7141 31.5601 15.448L35.2936 3.87129C33.0859 3.26938 31.0226 1.8418 28.5629 2.6996Z" fill="#6EB735"/>
<path d="M20.89 17.2196C22.9829 13.695 27.1826 13.62 31.5603 15.4479C31.1752 17.7939 30.4397 18.557 29.7903 18.7716C28.6457 19.1534 27.7288 17.8261 25.9499 17.6772C25.1438 17.6815 24.3471 17.8506 23.6087 18.1742C22.8704 18.4977 22.206 18.9688 21.6564 19.5585C21.0271 19.9824 20.2807 20.3998 19.9905 20.1529C19.7003 19.9061 20.2467 18.3103 20.89 17.2196Z" fill="#4C7D26"/>
<path d="M10.7897 61.0125C9.00089 61.1473 7.9159 62.3733 6.83092 63.5992C5.16409 67.1577 4.00383 70.9322 3.38395 74.8126C4.47248 73.066 6.21639 72.3348 8.08222 71.7878C10.2029 71.6008 12.0787 72.6089 14.0722 73.0532C15.1741 69.3712 16.2788 65.6928 17.3862 62.018C15.2566 61.2794 13.1302 60.3053 10.7897 61.0125Z" fill="#6EB735"/>
<path d="M24.0193 17.9105C23.1869 18.0674 22.3939 18.3879 21.686 18.8533C20.9782 19.3186 20.3697 19.9197 19.8956 20.6217C18.4049 23.7476 17.3699 27.0711 16.8224 30.4907C17.4018 29.5987 18.1735 28.8479 19.0811 28.2934C19.9886 27.7389 21.0089 27.3947 22.0669 27.2861C23.9485 27.4445 25.7936 27.8967 27.5351 28.6265C28.5276 25.4013 29.51 22.1779 30.4823 18.9564C28.3779 18.3197 26.3163 17.3742 24.0193 17.9105Z" fill="#6EB735"/>
<path d="M27.5337 28.6362C12.8376 74.8583 22.3564 57.7429 6.72492 62.9453C10.4241 51.4031 12.8447 40.1454 17.6917 28.6939C19.8528 26.0934 25.7224 25.7489 27.5337 28.6362Z" fill="#4C7D26"/>
<path d="M14.0722 73.0532L61.6614 87.5361C62.6759 87.6857 63.6143 88.1613 64.3347 88.8911L63.8805 90.4605C63.5395 90.8119 63.091 91.0397 62.606 91.1076C62.121 91.1756 61.6272 91.0798 61.2027 90.8356L11.1133 75.5921C9.77418 75.1797 8.47073 74.7232 7.2156 75.7583C6.70116 76.2553 6.23932 76.8041 5.83738 77.3958C5.5425 77.8833 5.36508 78.4326 5.31916 79.0005C5.27324 79.5684 5.36007 80.1391 5.57279 80.6676C5.78551 81.1961 6.11829 81.6679 6.5448 82.0456C6.97131 82.4233 7.47985 82.6966 8.0302 82.8438C8.88287 83.0098 9.69816 83.3297 10.4361 83.788C11.1606 84.8721 12.3147 84.4228 13.2874 84.499C14.3669 84.7197 15.4216 85.0475 16.436 85.4776C17.3173 85.787 17.5398 87.4405 18.9407 86.701C30.5063 90.02 41.9547 93.6865 53.4655 97.1158C54.5846 97.2714 55.6086 97.7579 56.7073 97.9893C57.4325 98.1491 58.2026 98.5512 58.8957 97.8805C59.0774 97.7715 59.2817 97.7057 59.4928 97.6882C60.4524 98.2838 60.5158 99.3841 60.9324 100.278C60.7299 101.735 60.0082 102.116 58.5161 101.673C41.1766 96.3121 23.7951 91.1128 6.45163 85.7811C2.00127 84.4052 0.712594 79.4565 3.4349 74.8C4.03206 72.0607 6.34487 71.6938 8.51085 71.1099C10.5484 71.1669 12.5889 71.2736 14.0722 73.0532Z" fill="#4C7D26"/>
<path d="M61.7379 90.379L63.8802 90.4604C62.8806 93.7371 61.8809 97.0138 60.8812 100.291C59.8656 99.815 59.0012 99.2424 59.4934 97.8948C59.3046 97.74 59.1666 97.5322 59.0975 97.2981C59.0283 97.064 59.0311 96.8146 59.1055 96.5821C59.1715 96.1144 59.2914 95.6559 59.4626 95.2156C59.7264 94.3407 59.9922 93.4664 60.2599 92.5926C60.3375 92.2517 60.4432 91.9177 60.5758 91.5942C60.6424 91.3058 60.7855 91.0408 60.99 90.827C61.1945 90.6131 61.4529 90.4584 61.7379 90.379Z" fill="#5F9C2F"/>
<path d="M12.4353 78.5295C14.9071 78.2929 17.0195 79.5798 19.2823 80.209C20.231 80.4589 19.7849 81.2623 19.6219 81.869C19.1642 83.605 18.6666 85.3453 18.18 87.0772C16.6893 88.4631 17.1612 86.1292 16.4036 86.1321C15.3607 85.0037 14.1859 84.329 12.6318 84.9685C12.0077 84.5769 10.6312 87.0505 10.5924 84.4293C10.3693 84.0102 10.291 83.5291 10.3696 83.0609C10.4435 82.6008 10.5655 82.1497 10.7337 81.7151C10.8389 81.27 10.972 80.8319 11.1324 80.4036C11.2389 79.9531 11.4084 79.5198 11.6359 79.1165C11.72 78.9676 11.8347 78.8383 11.9726 78.7371C12.1104 78.6359 12.2681 78.5651 12.4353 78.5295Z" fill="#C12E66"/>
<path d="M12.651 84.9712C15.073 83.6066 15.073 83.6066 16.4228 86.1347L12.651 84.9712Z" fill="#FEFFB5"/>
<path d="M61.7379 90.379L10.1547 74.6328C8.66396 74.1797 7.25244 74.2884 6.28802 75.7081C3.26816 78.8973 4.16174 82.4437 8.31008 83.7285L10.5732 84.4266L10.9662 83.0848C11.0928 82.6697 11.229 82.256 11.3555 81.8409L11.7185 80.5736C11.8547 80.1598 11.9813 79.7447 12.1188 79.3213C12.1376 79.1863 12.2252 79.0509 12.2826 78.9212C13.5488 79.3628 14.8721 79.6057 16.1533 80.01C18.8923 80.8923 18.8814 80.9006 18.1947 83.6472C17.9123 84.7585 17.0889 85.9421 18.1897 87.0786L20.705 87.8019L53.8205 97.8142C55.0631 98.2131 56.3207 98.5748 57.5856 99.026C58.8504 99.4772 59.2262 99.0377 59.3612 97.9256L59.5512 97.9028L59.8217 96.5932C59.951 96.1588 60.0692 95.7327 60.1888 95.297C60.3084 94.8612 60.4488 94.4874 60.5837 94.0833C60.7185 93.6792 60.8312 93.2228 60.959 92.798C61.0869 92.3733 61.1057 92.2382 61.1832 91.9638C61.3368 91.4246 61.5373 90.9018 61.7379 90.379Z" fill="#FEFFB5"/>
<path d="M35.2938 3.87123C51.3434 8.72478 67.3865 13.5774 83.4232 18.4292C85.0464 18.9204 85.3955 19.8048 84.9124 21.3701C78.0159 43.8621 71.1447 66.3609 64.2988 88.8664C63.4302 88.9721 62.5491 88.8496 61.7422 88.511C46.8436 83.9617 31.95 79.4229 17.0615 74.8947C15.8907 74.5451 14.6486 74.2839 13.8429 73.218C13.5161 72.4801 13.4912 71.6435 13.7735 70.8875C14.6984 67.7709 15.4924 64.6066 16.7097 61.5797C18.3262 55.1862 20.4337 48.9396 22.2943 42.6292C23.7461 37.8452 25.009 33.0054 26.7794 28.3345C27.569 25.0834 28.5749 21.8887 29.7904 18.7717C29.9965 17.55 30.3635 16.361 30.8818 15.2356C31.538 12.0718 32.6286 9.03723 33.5867 5.96456C33.6967 5.51022 33.9071 5.08631 34.2026 4.72404C34.498 4.36176 34.8709 4.07034 35.2938 3.87123Z" fill="#5F9C2F"/>
<path d="M33.3064 48.6543C34.682 44.135 36.037 39.6228 37.4306 35.1158C38.2105 32.6183 39.1796 32.0843 41.6825 32.8256C49.044 35.0487 56.4027 37.2911 63.7588 39.5528C66.8039 40.4973 67.2896 41.4598 66.344 44.5833C63.8353 52.9147 61.3004 61.2457 58.7393 69.5763C58.4862 70.4065 58.1021 71.189 57.7828 72.0002C57.7017 72.2824 57.561 72.5439 57.3702 72.7672C57.1795 72.9904 56.9432 73.1702 56.6771 73.2944C56.411 73.4186 56.1214 73.4844 55.8278 73.4873C55.5342 73.4902 55.2434 73.4301 54.9749 73.3111C46.8504 70.8705 38.7304 68.3977 30.6149 65.8927C28.7283 65.3158 28.6792 63.9715 29.1333 62.4022C30.528 57.8168 31.913 53.23 33.3064 48.6543Z" fill="#FEFFB5"/>
<path d="M43.0615 46.4995C43.0615 46.4995 39.2192 47.2706 38.2117 48.4753C37.2041 49.68 38.2017 51.1526 39.4704 51.4731C40.7392 51.7936 43.4814 46.7732 43.6697 46.5473C43.858 46.3214 43.0615 46.4995 43.0615 46.4995Z" fill="#4C7D26"/>
<path d="M47.5595 56.2475C47.5595 56.2475 44.1295 58.143 43.5328 59.5957C42.9361 61.0484 44.3318 62.1511 45.6381 62.0734C46.9445 61.9958 48.0424 56.3817 48.1537 56.1094C48.265 55.8372 47.5595 56.2475 47.5595 56.2475Z" fill="#4C7D26"/>
<path d="M56.6551 47.2386C56.6551 47.2386 54.171 50.2697 54.1548 51.8401C54.1385 53.4105 55.8434 53.9178 57.0281 53.3619C58.2127 52.806 57.1534 47.1844 57.1559 46.8903C57.1585 46.5962 56.6551 47.2386 56.6551 47.2386Z" fill="#4C7D26"/>
<path d="M55.9428 26.6654C51.7725 25.3973 47.6049 24.1099 43.4319 22.8611C42.2045 22.4937 41.1361 21.9027 41.5522 20.4658C41.9683 19.0289 43.1059 18.9805 44.3981 19.3765C52.7361 21.932 61.0735 24.4678 69.4104 26.9839C70.675 27.3662 71.5684 27.9428 71.0355 29.4421C70.5025 30.9415 69.3765 30.7652 68.1973 30.4046L55.9428 26.6654Z" fill="#FEFFB5"/>
</svg>
