<svg width="67" height="85" viewBox="0 0 67 85" fill="none" xmlns="http://www.w3.org/2000/svg">
<path d="M51.2614 17.3223C55.177 20.1385 56.2862 25.8465 54.5991 30.3597C53.8561 32.3638 52.6714 34.1364 52.0677 36.161C50.4642 41.4799 53.0981 47.025 54.1065 52.4834C54.7929 56.3322 54.6764 60.2815 53.7644 64.0832C52.8525 67.885 51.1646 71.4572 48.8068 74.5758C46.4161 77.6866 43.1944 80.3953 39.3376 81.2131C33.9249 82.3526 28.5167 79.6482 23.6714 77.0344C19.0443 74.55 14.3551 72.0174 10.6029 68.3443C6.85072 64.6711 4.08911 59.6601 4.32953 54.4143C4.44491 49.7386 6.00441 45.2131 8.7939 41.4589C12.5801 36.2731 18.7239 30.7386 25.0638 29.6976C27.1261 29.3907 29.2717 29.4948 31.3131 29.0403C39.348 27.2319 40.709 9.72107 51.2614 17.3223Z" fill="#FFCA00"/>
<path d="M63.5101 10.1621C64.1308 9.97801 64.7867 9.94617 65.4223 10.0692C65.7393 10.1393 66.0244 10.3114 66.2342 10.5591C66.4441 10.8069 66.567 11.1166 66.584 11.4408C66.5552 11.7538 66.447 12.0544 66.2698 12.314C66.0926 12.5737 65.8524 12.784 65.5714 12.925C65.0256 13.1893 64.4343 13.3467 63.8293 13.3888C62.3858 13.5424 60.9531 13.7843 59.5392 14.1133C57.4077 14.6822 55.4051 15.6546 53.6398 16.9778C52.6031 17.7542 50.6357 20.6479 49.3923 20.3001C47.2477 19.6869 50.1509 17.4241 50.8677 16.7777C52.5776 15.2442 54.4597 13.9145 56.4763 12.8152C58.6842 11.604 61.0523 10.7108 63.5101 10.1621V10.1621Z" fill="#90A22F"/>
<path d="M43.2711 48.9359C42.7904 50.6889 42.1693 52.4004 41.4136 54.0536" stroke="#FF9100" stroke-width="1.63" stroke-linecap="round" stroke-linejoin="round"/>
<path d="M46.7563 46.0571C47.2184 48.4591 47.2143 50.9276 46.7442 53.328" stroke="#FF9100" stroke-width="1.63" stroke-linecap="round" stroke-linejoin="round"/>
<path d="M50.7471 51.0187C50.812 52.9965 50.699 54.9761 50.4093 56.9337" stroke="#FF9100" stroke-width="1.63" stroke-linecap="round" stroke-linejoin="round"/>
<path d="M46.7108 57.3884C46.5128 58.4933 46.1899 59.5721 45.7483 60.604" stroke="#FF9100" stroke-width="1.63" stroke-linecap="round" stroke-linejoin="round"/>
<path d="M40.4045 60.1721C39.8922 61.0528 39.3797 61.9335 38.8742 62.8156" stroke="#FF9100" stroke-width="1.63" stroke-linecap="round" stroke-linejoin="round"/>
<path d="M40.2583 65.8095C39.644 66.8062 39.0241 67.8067 38.3987 68.8108" stroke="#FF9100" stroke-width="1.63" stroke-linecap="round" stroke-linejoin="round"/>
<path d="M47.6545 64.2183C47.2181 65.2817 46.6631 66.2926 46.0004 67.2318" stroke="#FF9100" stroke-width="1.63" stroke-linecap="round" stroke-linejoin="round"/>
<path d="M51.7189 61.455C51.669 62.5601 51.3515 63.6366 50.7936 64.5919" stroke="#FF9100" stroke-width="1.63" stroke-linecap="round" stroke-linejoin="round"/>
<path d="M46.6872 71.1342C46.0803 72.2309 45.4183 73.2962 44.7037 74.326C44.5744 74.5622 44.3623 74.7423 44.1082 74.8315" stroke="#FF9100" stroke-width="1.63" stroke-linecap="round" stroke-linejoin="round"/>
<path d="M42.8251 70.5379C41.9408 72.0958 40.8862 73.5507 39.6808 74.8759" stroke="#FF9100" stroke-width="1.63" stroke-linecap="round" stroke-linejoin="round"/>
<path d="M35.5733 73.5638C34.9813 74.4886 34.0829 75.1757 33.0353 75.5048" stroke="#FF9100" stroke-width="1.63" stroke-linecap="round" stroke-linejoin="round"/>
<path d="M33.5067 68.0167C33.0548 68.5917 32.5125 69.0895 31.9009 69.4904" stroke="#FF9100" stroke-width="1.63" stroke-linecap="round" stroke-linejoin="round"/>
<path d="M39.8636 25.1825C39.3649 25.9943 38.8594 26.8046 38.3539 27.615" stroke="#FF9100" stroke-width="1.63" stroke-linecap="round" stroke-linejoin="round"/>
<path d="M34.31 30.3466C33.7001 30.9178 32.9654 31.339 32.1643 31.5766" stroke="#FF9100" stroke-width="1.63" stroke-linecap="round" stroke-linejoin="round"/>
<path d="M39.6299 31.5128C39.4619 31.7806 39.2938 32.0484 39.1313 32.3245" stroke="#FF9100" stroke-width="1.63" stroke-linecap="round" stroke-linejoin="round"/>
<path d="M36.3448 33.2764C35.7038 34.2222 34.9079 35.0533 33.9906 35.7345" stroke="#FF9100" stroke-width="1.63" stroke-linecap="round" stroke-linejoin="round"/>
<path d="M31.2215 34.0431C30.9499 34.5224 30.5185 34.891 30.0028 35.0845" stroke="#FF9100" stroke-width="1.63" stroke-linecap="round" stroke-linejoin="round"/>
<path d="M28.3748 32.2716L27.5015 32.4063" stroke="#FF9100" stroke-width="1.63" stroke-linecap="round" stroke-linejoin="round"/>
<g style="mix-blend-mode:multiply" opacity="0.54">
<path d="M48.9778 38.028C48.656 40.4745 49.5083 42.8963 49.8611 45.3408C50.6821 51.0201 48.7521 56.8263 45.6719 61.672C42.5917 66.5177 38.4113 70.5491 34.2831 74.5336C33.3894 75.502 32.3265 76.2993 31.1466 76.8862C29.7964 77.3519 28.3633 77.5286 26.9404 77.405C26.0049 77.3838 25.0736 77.342 24.1368 77.2919C28.8826 79.8286 34.1044 82.3165 39.3378 81.2131C43.1946 80.3953 46.4136 77.7004 48.807 74.5758C51.1648 71.4572 52.8526 67.8849 53.7646 64.0832C54.6766 60.2814 54.7931 56.3322 54.1066 52.4833C53.0982 47.0249 50.4644 41.4799 52.0679 36.161C52.6729 34.1295 53.8618 32.3361 54.5993 30.3597C55.2648 28.539 55.4959 26.5881 55.274 24.6624L55.2378 24.483C54.9586 29.4915 49.6351 33.0301 48.9778 38.028Z" fill="#FFCA00"/>
</g>
<path d="M13.3114 44.4953C13.2988 44.5362 13.2782 44.5742 13.2508 44.6071C13.2234 44.64 13.1897 44.6671 13.1518 44.6869C13.1138 44.7067 13.0723 44.7188 13.0296 44.7225C12.987 44.7261 12.944 44.7212 12.9033 44.7081C12.8204 44.6809 12.7517 44.6219 12.7121 44.5442C12.6725 44.4664 12.6652 44.3762 12.6918 44.2931C12.7045 44.2515 12.7253 44.2129 12.7533 44.1795C12.7812 44.1462 12.8156 44.1189 12.8544 44.0991C12.8931 44.0794 12.9354 44.0677 12.9788 44.0646C13.0221 44.0616 13.0658 44.0674 13.1069 44.0816C13.1477 44.095 13.1854 44.1164 13.2178 44.1445C13.2503 44.1727 13.2768 44.207 13.2958 44.2455C13.3149 44.284 13.326 44.3259 13.3287 44.3688C13.3314 44.4117 13.3255 44.4547 13.3114 44.4953Z" fill="#FAFFBA"/>
<path d="M18.9692 37.2575C18.9096 37.431 18.7846 37.5744 18.6208 37.6571C18.4569 37.7397 18.2673 37.7551 18.0923 37.6998C17.9188 37.6402 17.7753 37.5152 17.6927 37.3513C17.61 37.1875 17.5947 36.9978 17.6499 36.8228C17.7095 36.6493 17.8347 36.5059 17.9985 36.4232C18.1624 36.3406 18.352 36.3252 18.527 36.3805C18.7005 36.4401 18.844 36.5651 18.9266 36.729C19.0092 36.8928 19.0245 37.0825 18.9692 37.2575V37.2575Z" fill="#FAFFBA"/>
<path d="M16.7497 44.4835C16.7401 44.5137 16.7247 44.5418 16.7042 44.5659C16.6837 44.5901 16.6587 44.61 16.6304 44.6244C16.6022 44.6388 16.5713 44.6474 16.5397 44.6498C16.5081 44.6522 16.4763 44.6483 16.4462 44.6383C16.3868 44.6176 16.338 44.5743 16.3103 44.5177C16.2827 44.4612 16.2784 44.396 16.2985 44.3363C16.307 44.3065 16.3215 44.2787 16.3413 44.2547C16.3611 44.2308 16.3855 44.2111 16.4132 44.1971C16.4409 44.1831 16.4713 44.175 16.5024 44.1732C16.5334 44.1715 16.5644 44.1762 16.5935 44.187C16.6531 44.2062 16.7029 44.2479 16.7321 44.3033C16.7613 44.3588 16.7677 44.4235 16.7497 44.4835V44.4835Z" fill="#FAFFBA"/>
<path d="M18.3796 51.9019C18.32 52.0755 18.1948 52.2188 18.0309 52.3015C17.8671 52.3841 17.6775 52.3995 17.5025 52.3443C17.3289 52.2847 17.1855 52.1596 17.1028 51.9957C17.0202 51.8319 17.0048 51.6422 17.06 51.4672C17.1196 51.2937 17.2448 51.1503 17.4087 51.0676C17.5725 50.985 17.7621 50.9696 17.9371 51.0249C18.1107 51.0845 18.2541 51.2096 18.3368 51.3734C18.4194 51.5372 18.4348 51.7269 18.3796 51.9019V51.9019Z" fill="#FAFFBA"/>
<path d="M13.8377 39.6865C13.8172 39.7495 13.7845 39.8079 13.7412 39.8581C13.698 39.9083 13.6451 39.9494 13.5859 39.979C13.5266 40.0086 13.4619 40.026 13.3958 40.0304C13.3296 40.0348 13.2634 40.026 13.2008 40.0045C13.1379 39.9849 13.0794 39.9529 13.0291 39.9104C12.9788 39.8678 12.9376 39.8157 12.9078 39.7569C12.8781 39.6981 12.8604 39.634 12.8559 39.5683C12.8513 39.5026 12.8599 39.4366 12.8814 39.3743C12.9011 39.3105 12.9335 39.2513 12.9766 39.2002C13.0196 39.1492 13.0724 39.1072 13.1319 39.077C13.1914 39.0467 13.2564 39.0286 13.323 39.0239C13.3897 39.0192 13.4566 39.0279 13.5199 39.0495C13.646 39.0925 13.7502 39.1835 13.8097 39.3027C13.8692 39.422 13.8792 39.5599 13.8377 39.6865V39.6865Z" fill="#FAFFBA"/>
<path d="M9.80463 50.7624C9.79692 50.788 9.78394 50.8117 9.76676 50.8322C9.74957 50.8526 9.72846 50.8694 9.7046 50.8814C9.68073 50.8934 9.65465 50.9005 9.62798 50.9021C9.6013 50.9038 9.57463 50.9 9.54947 50.8909C9.49891 50.8737 9.45708 50.8373 9.43304 50.7896C9.409 50.7419 9.40468 50.6867 9.42091 50.6358C9.43958 50.5863 9.4762 50.5456 9.52345 50.5218C9.5707 50.498 9.62518 50.4928 9.67607 50.5073C9.70166 50.515 9.72533 50.5278 9.74579 50.545C9.76626 50.5622 9.78303 50.5833 9.79506 50.6072C9.80708 50.6311 9.81408 50.6571 9.81572 50.6838C9.81735 50.7105 9.81366 50.7372 9.80463 50.7624V50.7624Z" fill="#FAFFBA"/>
<path d="M10.8507 56.3215C10.7892 56.488 10.667 56.6251 10.5087 56.7054C10.3504 56.7856 10.1677 56.803 9.99706 56.7542C9.83214 56.6914 9.69676 56.569 9.61789 56.4111C9.53902 56.2533 9.52238 56.0716 9.57122 55.902C9.63269 55.7355 9.75478 55.5984 9.91308 55.5181C10.0714 55.4379 10.2542 55.4205 10.4249 55.4693C10.5898 55.5321 10.7252 55.6545 10.804 55.8124C10.8829 55.9702 10.8995 56.152 10.8507 56.3215Z" fill="#FAFFBA"/>
<path d="M13.2306 52.1112C13.1917 52.2253 13.1099 52.3198 13.0026 52.3748C12.8953 52.4297 12.7709 52.4408 12.6555 52.4056C12.5414 52.3668 12.4469 52.285 12.392 52.1777C12.337 52.0704 12.3259 51.9459 12.3611 51.8306C12.3999 51.7164 12.4817 51.6219 12.589 51.5669C12.6963 51.512 12.8208 51.5009 12.9361 51.5361C13.0513 51.5734 13.1471 51.655 13.2023 51.7628C13.2575 51.8706 13.2676 51.9959 13.2306 52.1112V52.1112Z" fill="#FAFFBA"/>
<path d="M16.5891 48.2102C16.5579 48.3038 16.4908 48.3812 16.4027 48.4255C16.3145 48.4698 16.2125 48.4774 16.1188 48.4466C16.072 48.4329 16.0285 48.4098 15.991 48.3788C15.9534 48.3478 15.9225 48.3094 15.9003 48.266C15.878 48.2227 15.8649 48.1753 15.8616 48.1266C15.8583 48.078 15.8649 48.0292 15.8811 47.9832C15.8957 47.9364 15.9195 47.8929 15.9513 47.8554C15.9831 47.818 16.0221 47.7873 16.0659 47.7652C16.1098 47.7432 16.1578 47.7302 16.2068 47.727C16.2558 47.7239 16.3048 47.7306 16.3512 47.7468C16.4434 47.7778 16.52 47.8436 16.5644 47.9301C16.6089 48.0167 16.6178 48.1172 16.5891 48.2102V48.2102Z" fill="#FAFFBA"/>
<path d="M15.6041 59.4334C15.5726 59.5339 15.5213 59.627 15.4535 59.7075C15.3856 59.788 15.3024 59.8542 15.2087 59.9023C15.1151 59.9504 15.0129 59.9794 14.9079 59.9877C14.8029 59.9959 14.6975 59.9833 14.5975 59.9504C14.4969 59.918 14.4036 59.8659 14.3232 59.7973C14.2428 59.7288 14.1768 59.645 14.1289 59.5508C14.0809 59.4566 14.0521 59.3539 14.044 59.2485C14.0359 59.1432 14.0489 59.0372 14.0819 58.9368C14.149 58.7348 14.293 58.5674 14.4828 58.4709C14.6725 58.3744 14.8926 58.3566 15.0954 58.4212C15.297 58.4882 15.4637 58.6324 15.559 58.8222C15.6544 59.0119 15.6706 59.2317 15.6041 59.4334V59.4334Z" fill="#FAFFBA"/>
<path d="M12.7363 65.627C12.702 65.7276 12.6291 65.8106 12.5337 65.8575C12.4382 65.9044 12.328 65.9115 12.2273 65.8772C12.1776 65.8611 12.1316 65.8353 12.092 65.8013C12.0524 65.7672 12.0198 65.7256 11.9964 65.6789C11.973 65.6322 11.9592 65.5813 11.9556 65.5292C11.9521 65.477 11.9589 65.4247 11.9757 65.3752C12.0084 65.2744 12.0798 65.1905 12.1741 65.1421C12.2684 65.0936 12.3781 65.0845 12.4791 65.1168C12.5803 65.1512 12.6638 65.224 12.7118 65.3194C12.7599 65.4148 12.7687 65.5252 12.7363 65.627V65.627Z" fill="#FAFFBA"/>
<g style="mix-blend-mode:multiply" opacity="0.54">
<path d="M50.6772 19.3579C50.9914 19.5468 51.2612 19.8011 51.4683 20.1035C51.9727 20.9212 51.4579 21.9951 50.8792 22.7766C49.9421 22.3783 49.0382 21.9058 48.1763 21.3637C47.5834 21.0518 47.0819 20.5911 46.7209 20.0268C46.3574 19.3663 46.3609 17.4734 47.3513 17.2185C48.1375 17.0163 50.0683 18.9212 50.6772 19.3579Z" fill="#FFCA00"/>
</g>
</svg>
