<svg width="316" height="126" viewBox="0 0 316 126" fill="none" xmlns="http://www.w3.org/2000/svg">
<rect y="126" width="126" height="316" rx="12" transform="rotate(-90 0 126)" fill="#BFD352"/>
<mask id="mask0_757_13407" style="mask-type:alpha" maskUnits="userSpaceOnUse" x="0" y="0" width="316" height="126">
<rect y="126" width="126" height="316" rx="12" transform="rotate(-90 0 126)" fill="#BFD352"/>
</mask>
<g mask="url(#mask0_757_13407)">
<path d="M61.5 89C4.7 85 -24.5 68 -32 60V132.5L326 138.5V84.5C319.667 67.8333 294.7 35.4 245.5 39C184 43.5 132.5 94 61.5 89Z" fill="#90A22F"/>
<path d="M-2 68.3049C-2 68.3049 65.979 97.173 133.744 64.1992C201.508 31.2254 259.447 -13.7982 320 11.3064" stroke="#FEFFB5" stroke-width="2" stroke-miterlimit="10"/>
<path d="M325.93 49.9845C325.016 51.4437 323.528 52.591 323.09 54.2495C322.781 55.4492 323.072 56.7074 323.215 57.9359C323.781 62.7676 324.687 66.06 322.528 70.4576C319.212 77.2049 317.097 82.245 312.193 87.9446C307.887 92.9415 298.065 100.372 291.871 102.666C285.676 104.96 278.659 104.549 272.088 103.38C267.687 102.589 257.29 95.1533 253.184 93.3892C247.216 90.831 247.945 93.2812 242.705 89.442C241.441 88.5213 240.029 87.1306 240.562 85.6641C241.07 84.2755 242.016 81.0925 242.654 79.7978C242.881 79.2526 244.146 76.9552 244.162 76.3615C244.536 63.0929 248.941 49.7958 259.228 41.4068C269.515 33.0177 283.993 30.0388 297.227 31.3755C301.291 31.7851 309.844 38.2501 309.844 38.2501C312.364 38.8869 314.697 38.5332 317.228 38.6065C322.817 38.7007 329.73 43.8798 325.93 49.9845Z" fill="#FFCA00"/>
<path d="M317.188 67.2409C314.532 74.4003 306.743 78.0212 301.427 83.5005C298.15 86.878 295.767 91.0458 292.42 94.3619C291.415 95.4425 290.19 96.2955 288.829 96.8636C286.753 97.5971 284.435 97.2445 282.265 96.7859C277.733 95.9337 273.327 94.5117 269.151 92.5539C260.008 88.036 252.992 79.9239 244.249 74.8127C244.229 75.3008 244.206 75.7956 244.193 76.2865C244.18 76.7774 242.974 79.2032 242.685 79.7228C242.034 81.0516 241.09 84.2278 240.593 85.5891C240.06 87.0555 241.473 88.4463 242.737 89.3669C247.977 93.2061 247.248 90.756 253.215 93.3142C257.287 95.0641 267.718 102.514 272.119 103.305C278.699 104.454 285.636 104.904 291.902 102.591C298.168 100.279 307.916 92.8733 312.225 87.8696C317.129 82.17 319.243 77.1299 322.56 70.3826C324.707 66.0123 323.801 62.7199 323.246 57.8609C323.103 56.6324 322.813 55.3741 323.122 54.1745C323.559 52.5159 325.047 51.3687 325.961 49.9095C326.362 49.2548 326.66 48.5423 326.844 47.7969C318.79 48.7375 319.276 61.6133 317.188 67.2409Z" fill="#FFB400"/>
<path d="M307.691 69.948C306.546 71.667 305.021 73.1002 303.234 74.1373" stroke="#FF9100" stroke-width="1.63" stroke-linecap="round" stroke-linejoin="round"/>
<path d="M312.078 69.2597C311.263 70.2884 310.453 71.3266 309.636 72.362" stroke="#FF9100" stroke-width="1.63" stroke-linecap="round" stroke-linejoin="round"/>
<path d="M319.361 67.8847C318.782 69.2587 317.982 70.5278 316.99 71.641" stroke="#FF9100" stroke-width="1.63" stroke-linecap="round" stroke-linejoin="round"/>
<path d="M309.507 78.168C308.837 79.0246 308.17 79.8744 307.495 80.7214" stroke="#FF9100" stroke-width="1.63" stroke-linecap="round" stroke-linejoin="round"/>
<path d="M314.83 77.3664L313.2 79.8873" stroke="#FF9100" stroke-width="1.63" stroke-linecap="round" stroke-linejoin="round"/>
<path d="M304.057 86.8975C303.153 88.2602 302.103 89.5204 300.926 90.6558" stroke="#FF9100" stroke-width="1.63" stroke-linecap="round" stroke-linejoin="round"/>
<path d="M300.601 82.6989C299.603 84.184 298.458 85.5641 297.182 86.8178" stroke="#FF9100" stroke-width="1.63" stroke-linecap="round" stroke-linejoin="round"/>
<path d="M291.443 92.9448C290.15 93.9066 288.578 94.419 286.966 94.404" stroke="#FF9100" stroke-width="1.63" stroke-linecap="round" stroke-linejoin="round"/>
<path d="M297.08 95.5652C295.926 97.0424 294.261 98.0342 292.412 98.3452" stroke="#FF9100" stroke-width="1.63" stroke-linecap="round" stroke-linejoin="round"/>
<path d="M311.801 83.5214C310.75 84.8596 309.698 86.1969 308.643 87.5332" stroke="#FF9100" stroke-width="1.63" stroke-linecap="round" stroke-linejoin="round"/>
<path d="M293.348 82.9097C293.146 83.3251 292.853 83.6896 292.491 83.9762C292.128 84.2627 291.706 84.464 291.255 84.5648" stroke="#FF9100" stroke-width="1.63" stroke-linecap="round" stroke-linejoin="round"/>
<path d="M262.691 96.4023L266.159 98.0277" stroke="#FF9100" stroke-width="1.63" stroke-linecap="round" stroke-linejoin="round"/>
<path d="M272.832 96.6379C274.462 97.6068 276.371 97.9986 278.251 97.7501" stroke="#FF9100" stroke-width="1.63" stroke-linecap="round" stroke-linejoin="round"/>
<path d="M265.029 93.3766L266.768 94.1756" stroke="#FF9100" stroke-width="1.63" stroke-linecap="round" stroke-linejoin="round"/>
<path d="M269.829 89.5547C271.168 90.5073 272.719 91.1222 274.347 91.3471" stroke="#FF9100" stroke-width="1.63" stroke-linecap="round" stroke-linejoin="round"/>
<path d="M279.781 100.927L282.755 100.898" stroke="#FF9100" stroke-width="1.63" stroke-linecap="round" stroke-linejoin="round"/>
<path d="M248.737 87.4401C249.8 88.3673 251.007 89.1152 252.311 89.6542" stroke="#FF9100" stroke-width="1.63" stroke-linecap="round" stroke-linejoin="round"/>
<path d="M245.594 79.0254L247.974 81.2609" stroke="#FF9100" stroke-width="1.63" stroke-linecap="round" stroke-linejoin="round"/>
<path d="M252.819 85.6235L256.11 88.2078" stroke="#FF9100" stroke-width="1.63" stroke-linecap="round" stroke-linejoin="round"/>
<path d="M275.311 42.7653C275.257 42.7944 275.198 42.8125 275.137 42.8186C275.075 42.8247 275.014 42.8187 274.955 42.8008C274.896 42.783 274.841 42.7537 274.794 42.7146C274.747 42.6755 274.708 42.6274 274.679 42.5731C274.636 42.4919 274.618 42.3997 274.627 42.3083C274.637 42.2169 274.673 42.1304 274.731 42.0595C274.79 41.9886 274.868 41.9367 274.956 41.9101C275.044 41.8836 275.138 41.8837 275.226 41.9104C275.313 41.9371 275.391 41.9893 275.45 42.0603C275.508 42.1313 275.544 42.2179 275.553 42.3093C275.562 42.4008 275.544 42.4929 275.501 42.574C275.458 42.6551 275.392 42.7217 275.311 42.7653V42.7653Z" fill="#FFD6BA"/>
<path d="M283.186 41.9098C283.013 41.9987 282.818 42.0345 282.626 42.0128C282.433 41.9911 282.251 41.9129 282.103 41.7879C281.954 41.6629 281.846 41.4968 281.792 41.3105C281.738 41.1242 281.74 40.926 281.799 40.741C281.857 40.556 281.969 40.3924 282.12 40.2709C282.271 40.1494 282.455 40.0754 282.648 40.0582C282.842 40.041 283.036 40.0814 283.206 40.1743C283.376 40.2672 283.515 40.4084 283.605 40.5802C283.666 40.6949 283.703 40.8205 283.714 40.9496C283.726 41.0787 283.711 41.2087 283.672 41.3323C283.633 41.4559 283.57 41.5706 283.487 41.6697C283.403 41.7688 283.301 41.8504 283.186 41.9098Z" fill="#FFD6BA"/>
<path d="M278.812 46.1498C278.733 46.1911 278.641 46.1994 278.556 46.1729C278.471 46.1464 278.4 46.0872 278.359 46.0083C278.317 45.9295 278.309 45.8374 278.335 45.7524C278.362 45.6674 278.421 45.5964 278.5 45.5551C278.579 45.5137 278.671 45.5054 278.756 45.5319C278.841 45.5585 278.912 45.6177 278.953 45.6965C278.995 45.7754 279.003 45.8674 278.976 45.9524C278.95 46.0374 278.891 46.1084 278.812 46.1498V46.1498Z" fill="#FFD6BA"/>
<path d="M287.289 49.7328C287.058 49.8406 286.795 49.8552 286.553 49.7736C286.312 49.6921 286.111 49.5206 285.993 49.2949C285.875 49.0692 285.849 48.8066 285.919 48.5619C285.99 48.3171 286.152 48.1089 286.372 47.9807C286.603 47.873 286.866 47.8583 287.108 47.9399C287.349 48.0215 287.55 48.193 287.668 48.4187C287.786 48.6444 287.812 48.9069 287.742 49.1517C287.671 49.3965 287.509 49.6046 287.289 49.7328V49.7328Z" fill="#FFD6BA"/>
<path d="M292.006 40.8411C291.823 40.9376 291.614 40.9774 291.408 40.9557C291.202 40.9339 291.007 40.8515 290.847 40.7188C290.688 40.5861 290.571 40.4092 290.513 40.2103C290.454 40.0114 290.455 39.7995 290.517 39.6014C290.578 39.4034 290.697 39.228 290.858 39.0975C291.019 38.9669 291.216 38.8871 291.422 38.8681C291.629 38.8491 291.836 38.8918 292.019 38.9907C292.201 39.0897 292.35 39.2405 292.446 39.424C292.574 39.6706 292.599 39.9576 292.517 40.2228C292.435 40.488 292.251 40.7102 292.006 40.8411Z" fill="#FFD6BA"/>
<path d="M278.682 38.1464C278.554 38.2198 278.406 38.2528 278.258 38.241C278.11 38.2293 277.97 38.1734 277.854 38.0807C277.739 37.9879 277.654 37.8625 277.61 37.7208C277.567 37.5791 277.567 37.4276 277.611 37.286C277.655 37.1445 277.74 37.0194 277.856 36.9271C277.972 36.8347 278.113 36.7794 278.261 36.7683C278.409 36.7571 278.556 36.7906 278.685 36.8645C278.813 36.9384 278.917 37.0492 278.981 37.1826C279.063 37.3512 279.078 37.5445 279.022 37.7234C278.967 37.9024 278.845 38.0536 278.682 38.1464V38.1464Z" fill="#FFD6BA"/>
<path d="M265.611 45.6516C265.56 45.679 265.503 45.6907 265.446 45.6853C265.389 45.6799 265.334 45.6576 265.29 45.6211C265.246 45.5847 265.213 45.5359 265.197 45.4809C265.181 45.4259 265.181 45.3673 265.198 45.3125C265.215 45.2577 265.248 45.2093 265.293 45.1735C265.338 45.1377 265.393 45.1161 265.45 45.1115C265.507 45.1069 265.564 45.1194 265.614 45.1475C265.664 45.1756 265.705 45.2181 265.73 45.2694C265.764 45.3362 265.77 45.4134 265.748 45.4847C265.726 45.5561 265.676 45.6158 265.611 45.6516V45.6516Z" fill="#FFD6BA"/>
<path d="M261.153 52.3539C260.984 52.442 260.794 52.4782 260.605 52.458C260.416 52.4378 260.237 52.362 260.092 52.2403C259.946 52.1185 259.839 51.9563 259.786 51.7741C259.732 51.5918 259.734 51.3978 259.791 51.2165C259.847 51.0353 259.957 50.8749 260.105 50.7557C260.252 50.6365 260.432 50.5638 260.621 50.5469C260.811 50.5299 261.001 50.5695 261.167 50.6606C261.334 50.7516 261.47 50.89 261.558 51.0583C261.676 51.2839 261.699 51.5471 261.623 51.79C261.547 52.033 261.378 52.2358 261.153 52.3539Z" fill="#FFD6BA"/>
<path d="M267.683 50.3846C267.571 50.4426 267.443 50.4659 267.317 50.4516C267.191 50.4372 267.072 50.3859 266.975 50.304C266.878 50.2222 266.807 50.1134 266.772 49.9915C266.737 49.8696 266.739 49.7401 266.777 49.6191C266.815 49.4981 266.888 49.3912 266.987 49.3118C267.086 49.2324 267.207 49.1841 267.333 49.173C267.46 49.1618 267.586 49.1884 267.698 49.2493C267.809 49.3101 267.9 49.4026 267.959 49.515C267.998 49.5901 268.022 49.6722 268.03 49.7567C268.037 49.8412 268.028 49.9262 268.002 50.0071C267.977 50.0879 267.935 50.1628 267.881 50.2276C267.826 50.2924 267.759 50.3458 267.683 50.3846V50.3846Z" fill="#FFD6BA"/>
<path d="M274.966 49.7778C274.843 49.8403 274.7 49.8516 274.568 49.8093C274.437 49.767 274.327 49.6745 274.263 49.5519C274.2 49.4293 274.187 49.2865 274.228 49.1545C274.269 49.0226 274.36 48.9121 274.482 48.8471C274.543 48.8144 274.61 48.7942 274.679 48.7877C274.748 48.7812 274.817 48.7887 274.883 48.8095C274.949 48.8303 275.01 48.8642 275.063 48.909C275.115 48.9539 275.158 49.0088 275.189 49.0706C275.254 49.1941 275.266 49.3379 275.224 49.4705C275.182 49.6032 275.089 49.7136 274.966 49.7778V49.7778Z" fill="#FFD6BA"/>
<path d="M262.907 60.2041C262.708 60.3101 262.482 60.3547 262.258 60.3322C262.034 60.3097 261.821 60.2211 261.648 60.0777C261.474 59.9343 261.347 59.7425 261.282 59.5267C261.217 59.3108 261.218 59.0806 261.285 58.8653C261.351 58.65 261.48 58.4593 261.655 58.3173C261.83 58.1753 262.043 58.0884 262.267 58.0677C262.491 58.0471 262.717 58.0935 262.915 58.2011C263.113 58.3087 263.274 58.4727 263.379 58.6722C263.518 58.9382 263.547 59.2485 263.459 59.5354C263.37 59.8224 263.172 60.0627 262.907 60.2041V60.2041Z" fill="#FFD6BA"/>
<path d="M253.884 63.6536C253.818 63.6877 253.745 63.7083 253.67 63.7143C253.595 63.7202 253.52 63.7114 253.449 63.6882C253.377 63.6651 253.311 63.6281 253.254 63.5794C253.197 63.5308 253.15 63.4714 253.116 63.4045C253.082 63.3377 253.061 63.2648 253.055 63.19C253.049 63.1153 253.058 63.0401 253.081 62.9687C253.104 62.8974 253.141 62.8313 253.19 62.7742C253.239 62.7171 253.298 62.6701 253.365 62.636C253.432 62.6019 253.505 62.5814 253.579 62.5755C253.654 62.5695 253.729 62.5784 253.801 62.6015C253.872 62.6247 253.938 62.6616 253.995 62.7103C254.052 62.759 254.099 62.8184 254.133 62.8852C254.168 62.952 254.188 63.0249 254.194 63.0997C254.2 63.1745 254.191 63.2497 254.168 63.321C254.145 63.3924 254.108 63.4585 254.059 63.5156C254.011 63.5726 253.951 63.6195 253.884 63.6536Z" fill="#FFD6BA"/>
<path d="M301.996 46.1292C301.829 46.2175 301.64 46.2541 301.452 46.2346C301.264 46.2152 301.087 46.1405 300.941 46.0199C300.796 45.8993 300.69 45.7383 300.637 45.5573C300.583 45.3763 300.584 45.1835 300.641 45.0033C300.697 44.8231 300.805 44.6637 300.952 44.5452C301.099 44.4268 301.278 44.3546 301.466 44.3379C301.654 44.3212 301.843 44.3607 302.008 44.4513C302.174 44.542 302.308 44.6798 302.396 44.8472C302.454 44.9575 302.49 45.0783 302.502 45.2026C302.513 45.3269 302.5 45.4523 302.463 45.5715C302.426 45.6907 302.365 45.8013 302.285 45.897C302.205 45.9927 302.107 46.0717 301.996 46.1292V46.1292Z" fill="#FFD6BA"/>
<path d="M122.97 74.2524C119.142 74.6358 115.294 74.7787 111.448 74.6803C110.818 74.6701 110.176 74.6309 109.537 74.6083C102.033 74.2582 94.5889 73.1045 87.3311 71.1668C86.754 71.0211 86.2142 70.8504 85.6329 70.6985C81.1379 69.4491 76.7225 67.9293 72.4108 66.1474C71.9084 65.9516 71.3935 65.737 70.8952 65.5203C63.391 62.2835 56.2068 58.3504 49.4367 53.7727C48.986 53.4788 48.5332 53.1682 48.0825 52.8743C43.5419 49.7279 39.1996 46.3043 35.0806 42.6232L33.8859 41.5452C30.4997 38.4528 27.2776 35.1854 24.2328 31.7563C23.8942 31.387 23.5619 31.0136 23.2336 30.6193C18.3576 25.0366 13.9905 19.0292 10.1844 12.6687C9.83697 12.1517 9.5414 11.5908 9.22928 11.0591L9.38312 11.019C13.6254 9.80155 17.9475 8.882 22.318 8.26703C22.7652 8.19251 23.225 8.13669 23.6807 8.07463C28.9621 7.40053 34.2871 7.12886 39.6097 7.26194C40.1245 7.26558 40.6513 7.28231 41.1898 7.31223C46.4758 7.50764 51.7423 8.06185 56.9532 8.97096L58.5258 9.25234C63.7219 10.2343 68.8522 11.5368 73.8874 13.1523C74.3855 13.3149 74.9023 13.4649 75.3963 13.6483C77.7515 14.4618 80.1359 15.3189 82.5019 16.2426C83.0897 16.4715 83.6983 16.6773 84.2447 16.9522C88.2807 18.5982 92.2425 20.4569 96.1302 22.5281C98.0886 23.572 100.511 25.0097 103.3 26.752C103.987 27.1949 104.667 27.642 105.353 28.0848C111.214 31.907 116.842 36.0753 122.206 40.5676V40.5676C123.083 41.2804 123.922 42.0184 124.756 42.7605C133.874 50.8654 140.906 59.5401 139.443 65.786C139.39 66.0816 139.309 66.3717 139.203 66.6528C137.785 70.4902 132.947 73.262 122.97 74.2524Z" fill="#5F9C2F"/>
<path d="M139.201 66.6902C139.109 66.7311 139.009 66.75 138.908 66.7453C138.808 66.7407 138.71 66.7125 138.622 66.6632C134.105 64.2737 129.501 61.9089 124.812 59.5686C124.374 59.3475 123.944 59.1389 123.533 58.9177C118.433 56.3778 113.253 53.8728 107.994 51.4028L106.651 50.75C104.507 49.7401 102.329 48.7449 100.125 47.7664L98.6401 47.0913C92.3141 44.2173 85.8952 41.3936 79.3836 38.6202L77.6636 37.8773C71.8304 35.4316 65.9376 33.032 59.9854 30.6784L58.2385 29.9896C52.8242 27.8533 47.3566 25.7678 41.8357 23.7331C41.2124 23.4919 40.61 23.2548 39.9742 23.0219C30.1386 19.3838 20.2129 15.93 10.1968 12.6603C9.84939 12.1433 9.55383 11.5824 9.2417 11.0507L9.39555 11.0106C15.4824 12.9904 21.5355 15.0411 27.5548 17.1627L29.2555 17.7559C33.4157 19.21 37.5635 20.6996 41.6636 22.2392C42.0429 22.3731 42.4348 22.5257 42.8017 22.6679C45.4593 23.6489 48.1128 24.6507 50.7455 25.6484L52.4673 26.2997C58.2747 28.5276 64.0269 30.8077 69.7237 33.1401C70.2781 33.3461 70.8222 33.5773 71.3518 33.8001C76.116 35.7404 80.8116 37.7087 85.4387 39.7051C85.9828 39.9362 86.527 40.1673 87.067 40.4192C89.8233 41.6232 92.5511 42.8343 95.2505 44.0524C95.7321 44.2442 96.2011 44.4443 96.6599 44.6695C100.47 46.383 104.248 48.1119 107.994 49.8562L108.015 49.8873C110.58 51.0934 113.132 52.3114 115.67 53.5411L117.047 54.2437C121.334 56.3177 125.562 58.4196 129.73 60.5495C130.203 60.7829 130.662 61.0352 131.115 61.2646C133.784 62.6534 136.428 64.0355 139.046 65.4107C139.205 65.4945 139.331 65.6298 139.404 65.7944C139.484 65.9714 139.493 66.1728 139.429 66.3563C139.396 66.4917 139.315 66.6104 139.201 66.6902V66.6902Z" fill="#BFD352"/>
<path d="M42.4944 23.4351C42.2741 23.5379 42.058 23.6469 41.8045 23.754C36.001 26.5149 30.0974 29.2074 24.1746 31.7772C23.836 31.408 23.5036 31.0345 23.1754 30.6403C28.7698 28.2007 34.4075 25.6508 39.9054 23.0138C40.4748 22.7578 41.0276 22.5038 41.5886 22.2353C41.6447 22.1976 41.7008 22.16 41.7568 22.1223C41.9269 22.0649 42.1119 22.0704 42.2783 22.1378C42.4447 22.2051 42.5814 22.3299 42.6636 22.4894C42.6917 22.5345 42.7077 22.5861 42.71 22.6392C42.7824 22.7743 42.8005 22.932 42.7604 23.08C42.7203 23.228 42.6252 23.355 42.4944 23.4351Z" fill="#BFD352"/>
<path d="M60.0104 30.6616L59.9544 30.6993C51.8494 35.0966 43.5281 39.0833 35.0224 42.6442L33.8277 41.5663C42.1445 38.1291 50.2815 34.2723 58.2075 30.0106C58.5669 29.8323 58.8806 29.6667 59.2586 29.4488C59.4186 29.3728 59.6017 29.3611 59.7701 29.4163C59.9384 29.4714 60.0792 29.5892 60.1631 29.7452C60.2597 29.8885 60.2978 30.0633 60.2694 30.2338C60.241 30.4043 60.1483 30.5574 60.0104 30.6616V30.6616Z" fill="#BFD352"/>
<path d="M79.3712 38.6286L79.3151 38.6663L49.393 53.775C48.9422 53.4811 48.4894 53.1705 48.0387 52.8766L77.6637 37.9043L78.636 37.4137C78.8014 37.3464 78.9862 37.345 79.1525 37.4098C79.3189 37.4746 79.4541 37.6007 79.5304 37.7621V37.7621C79.6185 37.8998 79.6511 38.0659 79.6216 38.2268C79.592 38.3876 79.5025 38.5312 79.3712 38.6286V38.6286Z" fill="#BFD352"/>
<path d="M72.4046 66.1516C71.9022 65.9557 71.3873 65.7411 70.889 65.5244C70.9279 65.4187 71.0027 65.33 71.1004 65.2738C80.4565 59.5648 89.7425 53.4689 98.6715 47.0974C98.8833 46.9551 99.0826 46.8211 99.2944 46.6788C99.3685 46.6311 99.4516 46.5991 99.5385 46.5848C99.6254 46.5704 99.7144 46.574 99.7999 46.5953C99.8854 46.6167 99.9656 46.6553 100.036 46.7088C100.106 46.7623 100.164 46.8296 100.207 46.9065C100.309 47.0336 100.361 47.1942 100.352 47.3572C100.343 47.5203 100.274 47.6741 100.158 47.7892C100.144 47.8072 100.124 47.8204 100.102 47.8269C91.1357 54.2235 81.798 60.3904 72.4046 66.1516Z" fill="#BFD352"/>
<path d="M87.3251 71.1709C86.748 71.0253 86.2082 70.8545 85.6269 70.7026C93.1505 64.6207 100.179 57.9502 106.645 50.7542C106.863 50.5265 107.068 50.3072 107.277 50.067C107.362 49.9714 107.475 49.906 107.6 49.8807C107.725 49.8555 107.855 49.8718 107.97 49.9271L107.991 49.9582C108.065 50.0005 108.133 50.052 108.193 50.1115C108.322 50.238 108.4 50.4063 108.415 50.5859C108.429 50.7654 108.378 50.9442 108.272 51.0895L107.994 51.4028C101.635 58.5255 94.724 65.1355 87.3251 71.1709Z" fill="#BFD352"/>
<path d="M111.449 74.6803C110.818 74.6702 110.176 74.631 109.537 74.6083C112.322 71.7421 114.95 68.737 117.543 65.7737L123.546 58.9094L123.755 58.6692C123.816 58.6078 123.889 58.5594 123.969 58.5271C124.049 58.4948 124.134 58.4793 124.221 58.4815C124.307 58.4838 124.392 58.5037 124.47 58.54C124.548 58.5764 124.618 58.6284 124.676 58.6929C124.789 58.8033 124.864 58.9467 124.89 59.1025C124.917 59.2583 124.894 59.4185 124.824 59.5603C124.845 59.5915 124.777 59.6375 124.754 59.6709L118.561 66.7628C116.252 69.4087 113.92 72.088 111.449 74.6803Z" fill="#BFD352"/>
<path d="M130.605 61.8244C130.469 61.8248 130.335 61.7883 130.219 61.7187C130.102 61.6491 130.006 61.5491 129.942 61.4293C129.895 61.3455 129.862 61.255 129.843 61.1611C129.822 60.9696 129.79 60.7793 129.749 60.5911C128.643 53.6304 125.545 46.8686 122.196 40.5927C123.073 41.3055 123.912 42.0435 124.745 42.7856C127.706 48.5363 130.221 54.7403 131.143 61.0918C131.149 61.1528 131.148 61.2142 131.14 61.2749C131.137 61.4172 131.08 61.5529 130.981 61.6549C130.881 61.7568 130.747 61.8173 130.605 61.8244V61.8244Z" fill="#BFD352"/>
<path d="M116.758 54.5551C116.601 54.6063 116.431 54.6 116.278 54.5373C116.124 54.4746 115.999 54.3595 115.922 54.2126C115.9 54.1952 115.884 54.1712 115.876 54.1441L115.652 53.635C111.759 44.6406 107.6 35.6263 103.279 26.8021C103.966 27.245 104.646 27.6921 105.333 28.135C109.431 36.5749 113.366 45.1612 117.084 53.6942C117.128 53.7872 117.151 53.8888 117.151 53.9916C117.151 54.0944 117.129 54.1961 117.086 54.2895C117.015 54.4166 116.898 54.5117 116.758 54.5551Z" fill="#BFD352"/>
<path d="M96.3178 45.035C96.1609 45.0875 95.9904 45.0813 95.8378 45.0175C95.6852 44.9538 95.561 44.8368 95.4881 44.6883C95.4665 44.6671 95.4494 44.6416 95.4378 44.6136C95.3416 44.4703 95.3055 44.2956 95.2217 44.144C91.1967 34.8045 86.9198 25.4535 82.4791 16.2758C83.0669 16.5047 83.6754 16.7106 84.2218 16.9855C88.5348 25.9596 92.7006 35.0778 96.6186 44.1908C96.6632 44.2789 96.6874 44.3759 96.6895 44.4746C96.6917 44.5733 96.6718 44.6712 96.6311 44.7611C96.6014 44.8265 96.5581 44.8848 96.5041 44.932C96.45 44.9792 96.3865 45.0143 96.3178 45.035V45.035Z" fill="#BFD352"/>
<path d="M86.7485 40.9138C86.5825 40.9835 86.3961 40.9871 86.2275 40.9239C86.059 40.8606 85.921 40.7354 85.8418 40.5737C85.6827 40.337 85.5505 40.046 85.4225 39.7884C80.7476 31.3033 76.8815 22.3971 73.8753 13.1877C74.3733 13.3503 74.8901 13.5003 75.3841 13.6837C78.4124 22.8044 82.2907 31.6205 86.9679 40.0158C87.0485 40.1682 87.077 40.3429 87.0488 40.513C87.0361 40.5995 87.0019 40.6815 86.9495 40.7515C86.897 40.8214 86.828 40.8772 86.7485 40.9138Z" fill="#BFD352"/>
<path d="M71.0142 34.3343C70.8489 34.4016 70.664 34.4029 70.4977 34.3381C70.3314 34.2733 70.1962 34.1472 70.12 33.9858L69.7112 33.2296L56.9551 9.01465L58.5278 9.29605L71.2649 33.4424C71.3352 33.5802 71.3613 33.7365 71.3394 33.8897C71.3252 33.9845 71.2882 34.0746 71.2316 34.152C71.175 34.2294 71.1003 34.292 71.0142 34.3343V34.3343Z" fill="#BFD352"/>
<path d="M52.28 27.4474C52.1104 27.4955 51.9292 27.4823 51.7683 27.4102C51.6074 27.3381 51.4771 27.2116 51.4001 27.053L50.7311 25.6942C47.5212 19.275 43.8015 13.1236 39.6077 7.29936C40.1226 7.303 40.6492 7.3198 41.1878 7.34971C45.463 13.3703 49.2363 19.7319 52.4696 26.3705C52.513 26.4287 52.5535 26.489 52.591 26.5512C52.633 26.6297 52.6584 26.7161 52.6654 26.805C52.6724 26.8938 52.6609 26.9832 52.6317 27.0674C52.6025 27.1515 52.5562 27.2287 52.4957 27.2941C52.4351 27.3595 52.3617 27.4117 52.28 27.4474Z" fill="#BFD352"/>
<path d="M28.9396 18.3753C28.7798 18.4492 28.5978 18.4592 28.4308 18.4033C28.2638 18.3475 28.1245 18.2299 28.0413 18.0747L27.5448 17.2148L22.3204 8.31068C22.7677 8.23616 23.2274 8.18037 23.683 8.11831L29.1526 17.4545C29.2096 17.5639 29.2414 17.6847 29.2456 17.808C29.2529 17.9217 29.2281 18.0352 29.174 18.1355C29.1199 18.2358 29.0386 18.3189 28.9396 18.3753V18.3753Z" fill="#BFD352"/>
<path d="M144.007 67.1922C141.499 70.1096 138.811 72.8669 135.958 75.4477C135.494 75.8753 135.003 76.2892 134.524 76.7135C128.849 81.6348 122.662 85.9333 116.07 89.5352C115.552 89.8277 115.043 90.0763 114.517 90.3672C110.401 92.5623 106.155 94.5067 101.804 96.1897C101.305 96.3943 100.784 96.594 100.274 96.7807C92.6074 99.6118 84.6924 101.718 76.6329 103.072C76.1038 103.17 75.5617 103.257 75.0326 103.355C69.5746 104.208 64.0691 104.723 58.5477 104.898L56.9391 104.941C52.3543 105.037 47.7677 104.893 43.198 104.509C42.6981 104.475 42.1999 104.434 41.6903 104.375C34.3093 103.695 27.0039 102.356 19.8614 100.375C19.2532 100.24 18.6523 100.038 18.0596 99.8679L18.1434 99.7328C20.3759 95.9256 22.8717 92.2791 25.6126 88.8198C25.8851 88.4574 26.1795 88.0998 26.4667 87.7407C29.8265 83.6103 33.4953 79.7413 37.4416 76.1671C37.8169 75.8147 38.2099 75.4636 38.6205 75.1138C42.5832 71.61 46.7793 68.3794 51.1797 65.4443L52.5126 64.5635C56.9526 61.6913 61.5661 59.0965 66.3265 56.794C66.7994 56.5682 67.277 56.3205 67.7613 56.1126C70.0278 55.0775 72.3456 54.0539 74.696 53.0912C75.2795 52.8515 75.8622 52.5809 76.4474 52.4031C80.5053 50.8119 84.6561 49.4257 88.8998 48.2446C91.038 47.65 93.7833 47.0208 97.0049 46.3588C97.8075 46.2061 98.6084 46.0607 99.411 45.9081C106.291 44.6342 113.241 43.7719 120.224 43.3257V43.3257C121.35 43.2372 122.467 43.1926 123.582 43.1554C135.775 42.7367 146.85 44.1689 150.097 49.7008C150.262 49.9519 150.404 50.2175 150.521 50.4943C152.141 54.251 150.549 59.5944 144.007 67.1922Z" fill="#437E14"/>
<path d="M150.545 50.5227C150.507 50.6157 150.447 50.6986 150.371 50.7645C150.295 50.8304 150.205 50.8775 150.108 50.9023C145.188 52.2873 140.224 53.7493 135.214 55.2885C134.744 55.4304 134.289 55.5756 133.839 55.6988C128.394 57.3771 122.915 59.1352 117.404 60.9731L115.981 61.4265C113.732 62.1734 111.468 62.9554 109.197 63.7666L107.657 64.3015C101.094 66.5828 94.4979 68.9646 87.8698 71.4467L86.1118 72.0949C80.201 74.3465 74.2788 76.6726 68.3453 79.073L66.6053 79.7789C61.2111 81.9657 55.8135 84.226 50.4123 86.5599C49.7946 86.815 49.1948 87.0588 48.5738 87.3286C38.9423 91.4768 29.3725 95.8207 19.8644 100.36C19.2562 100.225 18.6554 100.023 18.0626 99.8532L18.1464 99.7181C23.9196 96.9542 29.7173 94.2649 35.5394 91.6502L37.1801 90.907C41.1955 89.091 45.2265 87.3093 49.2574 85.5968C49.6245 85.4321 50.0135 85.2723 50.3773 85.1223C52.9783 83.9999 55.5907 82.8955 58.1853 81.8024L59.8813 81.0867C65.6233 78.6951 71.3612 76.3795 77.0951 74.1399C77.6388 73.9068 78.1921 73.6989 78.7293 73.4951C83.5175 71.6147 88.2753 69.8019 93.0028 68.0567C93.5562 67.8488 94.1097 67.6409 94.6745 67.4509C97.5008 66.422 100.311 65.4178 103.106 64.4383C103.587 64.2451 104.065 64.0666 104.552 63.9133C108.493 62.5267 112.422 61.1732 116.337 59.8528L116.374 59.8609C119.063 58.9656 121.751 58.0879 124.437 57.2279L125.919 56.7875C130.454 55.3327 134.965 53.9393 139.452 52.6072C139.956 52.4498 140.462 52.316 140.948 52.17C143.839 51.3348 146.707 50.5124 149.551 49.7028C149.724 49.6538 149.908 49.6649 150.074 49.7343C150.255 49.8067 150.4 49.9463 150.48 50.1239C150.55 50.2444 150.573 50.3862 150.545 50.5227V50.5227Z" fill="#BFD352"/>
<path d="M50.6839 85.8898C50.5953 86.1162 50.5141 86.3441 50.4043 86.5966C48.1056 92.5981 45.6872 98.6192 43.1703 104.565C42.6704 104.531 42.1722 104.49 41.6626 104.43C44.0315 98.8057 46.3557 93.0712 48.5186 87.3702C48.7544 86.7921 48.9795 86.227 49.2006 85.6456C49.2153 85.5797 49.2299 85.5137 49.2445 85.4478C49.3281 85.2889 49.4659 85.1653 49.6328 85.0994C49.7997 85.0334 49.9848 85.0295 50.1544 85.0883C50.2058 85.1015 50.2529 85.1279 50.2912 85.1648C50.4368 85.2126 50.5587 85.3144 50.6317 85.4492C50.7048 85.584 50.7234 85.7417 50.6839 85.8898Z" fill="#BFD352"/>
<path d="M68.3522 79.0437L68.3376 79.1096C65.5007 87.8835 62.2241 96.509 58.5201 104.953L56.9116 104.997C60.5641 96.7722 63.7969 88.3677 66.5976 79.8156C66.735 79.4386 66.8479 79.1024 66.9714 78.6839C67.0348 78.5185 67.1594 78.3838 67.3194 78.3076C67.4793 78.2314 67.6624 78.2197 67.8308 78.2748C67.9996 78.3119 68.1478 78.4123 68.2448 78.5553C68.3417 78.6983 68.3802 78.8732 68.3522 79.0437V79.0437Z" fill="#BFD352"/>
<path d="M87.8669 71.4614L87.8523 71.5274L76.6029 103.104C76.0738 103.202 75.5317 103.289 75.0026 103.387L86.1309 72.1144L86.4966 71.0886C86.57 70.9258 86.7029 70.7974 86.868 70.7296C87.0332 70.6618 87.2181 70.6598 87.3846 70.7241V70.7241C87.5434 70.7631 87.6815 70.8609 87.7711 70.9978C87.8606 71.1346 87.8949 71.3003 87.8669 71.4614V71.4614Z" fill="#BFD352"/>
<path d="M101.802 96.1971C101.303 96.4017 100.783 96.6014 100.272 96.7881C100.228 96.6847 100.221 96.5689 100.253 96.4609C103.091 85.8744 105.612 75.0561 107.684 64.2844C107.739 64.0353 107.791 63.8008 107.846 63.5517C107.867 63.4661 107.905 63.3856 107.958 63.3153C108.011 63.2449 108.078 63.1861 108.155 63.1426C108.231 63.0991 108.316 63.0718 108.404 63.0623C108.491 63.0528 108.58 63.0612 108.664 63.0873C108.826 63.1087 108.974 63.1894 109.08 63.3136C109.186 63.4379 109.242 63.5969 109.238 63.7601C109.24 63.7831 109.234 63.8062 109.223 63.8261C107.141 74.6417 104.632 85.5472 101.802 96.1971Z" fill="#BFD352"/>
<path d="M116.069 89.5425C115.55 89.835 115.042 90.0836 114.516 90.3745C115.77 80.7817 116.259 71.1043 115.98 61.4339C115.98 61.1188 115.978 60.8185 115.964 60.5002C115.959 60.3727 115.996 60.2472 116.069 60.1427C116.142 60.0382 116.247 59.9604 116.369 59.9212L116.405 59.9293C116.488 59.9091 116.573 59.8995 116.658 59.9007C116.838 59.9038 117.011 59.9716 117.145 60.0917C117.279 60.2118 117.366 60.3761 117.389 60.5548L117.404 60.9731C117.711 70.5165 117.264 80.0693 116.069 89.5425Z" fill="#BFD352"/>
<path d="M135.958 75.4478C135.494 75.8754 135.003 76.2892 134.524 76.7136C134.564 72.7175 134.395 68.7288 134.229 64.7946L133.843 55.6842L133.829 55.3659C133.83 55.2796 133.849 55.1946 133.885 55.116C133.921 55.0374 133.972 54.9671 134.036 54.9092C134.1 54.8513 134.175 54.8072 134.257 54.7796C134.339 54.7519 134.425 54.7413 134.511 54.7485C134.669 54.7506 134.823 54.8025 134.949 54.8969C135.076 54.9913 135.17 55.1232 135.217 55.274C135.254 55.2821 135.236 55.3627 135.243 55.4026L135.648 64.8093C135.801 68.3177 135.96 71.866 135.958 75.4478Z" fill="#BFD352"/>
<path d="M140.965 52.9271C140.867 53.0212 140.745 53.0869 140.612 53.117C140.48 53.1472 140.341 53.1409 140.212 53.0985C140.121 53.0699 140.034 53.0273 139.956 52.9724C139.808 52.8483 139.654 52.7321 139.495 52.6243C133.893 48.3464 126.987 45.5858 120.234 43.351C121.36 43.2625 122.477 43.2179 123.592 43.1807C129.702 45.3035 135.801 48.0621 140.85 52.0252C140.896 52.0657 140.937 52.111 140.974 52.1603C141.069 52.2655 141.122 52.4031 141.12 52.5454C141.118 52.6877 141.063 52.824 140.965 52.9271V52.9271Z" fill="#BFD352"/>
<path d="M125.925 57.2116C125.846 57.3572 125.718 57.4701 125.564 57.5303C125.41 57.5905 125.24 57.594 125.083 57.5401C125.055 57.5427 125.027 57.5365 125.003 57.5223L124.489 57.3084C115.467 53.4794 106.239 49.8198 97.0245 46.4092C97.8271 46.2565 98.628 46.1112 99.4306 45.9585C108.219 49.2439 116.99 52.7483 125.567 56.3635C125.663 56.4008 125.749 56.4585 125.821 56.5327C125.892 56.6069 125.946 56.6958 125.979 56.7931C126.015 56.9344 125.996 57.0841 125.925 57.2116Z" fill="#BFD352"/>
<path d="M104.557 64.4139C104.479 64.5601 104.352 64.6732 104.197 64.7323C104.043 64.7914 103.872 64.7923 103.717 64.7351C103.687 64.7346 103.657 64.7279 103.629 64.7156C103.461 64.6782 103.314 64.5766 103.149 64.5246C93.7932 60.537 84.2473 56.7147 74.7023 53.131C75.2859 52.8913 75.8685 52.6208 76.4537 52.443C85.7658 55.9675 95.0707 59.6978 104.193 63.5952C104.286 63.6282 104.37 63.6818 104.44 63.7517C104.509 63.8217 104.562 63.9064 104.595 63.9995C104.618 64.0673 104.627 64.1394 104.621 64.2109C104.614 64.2823 104.592 64.3516 104.557 64.4139V64.4139Z" fill="#BFD352"/>
<path d="M94.7851 68.0289C94.7129 68.1938 94.5804 68.325 94.4148 68.3954C94.2491 68.4659 94.0627 68.4704 93.8939 68.4079C93.6155 68.3462 93.3191 68.2267 93.0488 68.1283C83.8118 65.2076 74.8702 61.4242 66.3421 56.8282C66.8149 56.6024 67.2926 56.3547 67.7769 56.1468C76.2597 60.6634 85.148 64.3732 94.3247 67.2273C94.4882 67.282 94.6292 67.3889 94.7262 67.5315C94.7766 67.603 94.8084 67.6859 94.8187 67.7727C94.829 67.8596 94.8174 67.9476 94.7851 68.0289Z" fill="#BFD352"/>
<path d="M78.8536 74.1145C78.7803 74.2773 78.6474 74.4058 78.4822 74.4736C78.3171 74.5413 78.1322 74.5432 77.9657 74.4789L77.1483 74.2132L51.2115 65.4744L52.5444 64.5936L78.4201 73.2958C78.5661 73.3471 78.6927 73.4423 78.7825 73.5683C78.8377 73.6468 78.8729 73.7375 78.8853 73.8326C78.8977 73.9278 78.8868 74.0245 78.8536 74.1145V74.1145Z" fill="#BFD352"/>
<path d="M60.5374 82.047C60.4478 82.1988 60.3075 82.3142 60.1413 82.3729C59.9751 82.4316 59.7935 82.4299 59.6284 82.3682L58.2068 81.8455C51.4554 79.4105 44.5196 77.5211 37.466 76.1955C37.8414 75.8431 38.2344 75.4921 38.645 75.1423C45.8929 76.5539 53.0125 78.5587 59.9321 81.1364C60.0037 81.1486 60.0746 81.1643 60.1446 81.1835C60.2292 81.2114 60.3072 81.2565 60.3735 81.316C60.4399 81.3755 60.4932 81.4481 60.5301 81.5292C60.567 81.6103 60.5867 81.6982 60.588 81.7873C60.5892 81.8764 60.572 81.9648 60.5374 82.047Z" fill="#BFD352"/>
<path d="M37.3784 91.5735C37.3136 91.7372 37.1887 91.87 37.0293 91.9447C36.8698 92.0194 36.6878 92.0304 36.5206 91.9753L35.568 91.6951L25.6442 88.8498C25.9167 88.4874 26.2111 88.1299 26.4983 87.7708L36.8976 90.7598C37.0144 90.7997 37.1207 90.8653 37.2087 90.9517C37.2924 91.029 37.3527 91.1283 37.3827 91.2383C37.4127 91.3482 37.4112 91.4644 37.3784 91.5735V91.5735Z" fill="#BFD352"/>
<path d="M87.2846 104.633H78.1646C76.3883 104.572 74.6848 103.913 73.3305 102.762C71.9763 101.611 71.0508 100.036 70.7045 98.2932L57.1346 21.3533C56.9546 20.5792 56.9551 19.7741 57.1362 19.0003C57.3172 18.2265 57.6739 17.5048 58.1785 16.8909C58.6831 16.277 59.3223 15.7873 60.0464 15.46C60.7706 15.1327 61.5603 14.9764 62.3546 15.0032H71.4746C73.2529 15.0657 74.958 15.7267 76.3138 16.8792C77.6696 18.0317 78.5965 19.6082 78.9446 21.3533L92.5046 98.2932C92.6848 99.0668 92.6844 99.8714 92.5034 100.645C92.3223 101.418 91.9656 102.14 91.4607 102.753C90.9558 103.366 90.3164 103.855 89.5922 104.181C88.868 104.507 88.0783 104.661 87.2846 104.633V104.633Z" fill="#FF9100"/>
<path d="M216.875 104.633H78.7847C77.6005 104.597 76.463 104.163 75.5558 103.401C74.6486 102.639 74.0247 101.593 73.7847 100.433L59.2947 19.203C59.1774 18.6873 59.1805 18.1517 59.304 17.6374C59.4274 17.1231 59.6677 16.644 60.0063 16.2377C60.3449 15.8314 60.7726 15.5087 61.2562 15.2946C61.7398 15.0805 62.2663 14.9807 62.7947 15.0031H200.895C202.079 15.0375 203.218 15.471 204.125 16.2333C205.033 16.9956 205.656 18.042 205.895 19.203L220.385 100.433C220.504 100.95 220.503 101.487 220.38 102.003C220.256 102.519 220.015 103 219.675 103.407C219.335 103.814 218.905 104.136 218.419 104.349C217.933 104.562 217.405 104.659 216.875 104.633V104.633Z" fill="#FFCA00"/>
<path d="M201.754 19.6831L215.934 99.1931H77.7845L63.6045 19.6831H201.754Z" fill="#625ABB"/>
<path d="M174.133 39L184 95H87.8673L78 39H174.133Z" fill="#4D44AF"/>
<path d="M65.5645 19.6831H63.6045L77.7845 99.1931H79.7445L65.5645 19.6831Z" fill="#FF9100"/>
<path d="M201.754 19.6831H199.794L213.974 99.1931H215.934L201.754 19.6831Z" fill="#FF9100"/>
<path d="M63.6045 19.6831L63.9545 21.6231H202.094L201.754 19.6831H63.6045Z" fill="#FF9100"/>
<path d="M135 104.633H258.8C258.8 106.397 258.099 108.088 256.852 109.335C255.605 110.583 253.914 111.283 252.15 111.283H135V104.633Z" fill="#FFCA00"/>
<path d="M78.4346 104.633H141.948C141.948 106.397 141.247 108.088 140 109.335C138.753 110.583 137.061 111.283 135.298 111.283H85.0846C83.3209 111.283 81.6294 110.583 80.3823 109.335C79.1352 108.088 78.4346 106.397 78.4346 104.633Z" fill="#FFD533"/>
<path d="M206.27 104.633H191.68L192.76 106.043C192.913 106.239 193.109 106.397 193.333 106.506C193.556 106.615 193.801 106.672 194.05 106.673H214.44C214.688 106.672 214.933 106.615 215.157 106.506C215.38 106.397 215.576 106.239 215.73 106.043L216.82 104.633H206.27Z" fill="#FFDB52"/>
<path d="M87.9744 102.903L252.27 102.903C252.729 102.903 253.169 103.085 253.493 103.41C253.818 103.734 254 104.174 254 104.633L86.2344 104.633C86.2344 104.405 86.2794 104.179 86.367 103.969C86.4546 103.758 86.5829 103.567 86.7446 103.406C86.9063 103.245 87.0982 103.118 87.3093 103.032C87.5203 102.946 87.7463 102.902 87.9744 102.903Z" fill="white"/>
<path d="M200.135 21.6232H65.9146L66.6246 25.6232H200.855L200.135 21.6232Z" fill="white"/>
<path d="M71.4795 24.3777C71.845 23.9785 71.7548 23.3011 71.2783 22.8647C70.8017 22.4283 70.1191 22.3982 69.7536 22.7974C69.3881 23.1965 69.4781 23.8738 69.9546 24.3102C70.4312 24.7466 71.114 24.7769 71.4795 24.3777Z" fill="#625ABB"/>
<path d="M75.6157 24.3945C75.9812 23.9953 75.8911 23.3178 75.4145 22.8814C74.9379 22.4451 74.2554 22.4149 73.8898 22.8141C73.5243 23.2133 73.6143 23.8906 74.0909 24.327C74.5674 24.7633 75.2502 24.7936 75.6157 24.3945Z" fill="#625ABB"/>
<path d="M79.7514 24.391C80.117 23.9918 80.0268 23.3144 79.5503 22.878C79.0737 22.4416 78.3911 22.4115 78.0256 22.8107C77.6601 23.2098 77.75 23.8872 78.2266 24.3235C78.7032 24.7599 79.3859 24.7902 79.7514 24.391Z" fill="#625ABB"/>
<path d="M128.187 90.1931L126.574 92.8697L123.94 93.4792L117.997 94.8553L111.262 96.4238L107.013 97.4115C107.013 97.4115 106.179 96.1773 105.253 94.7736C104.352 93.5034 103.572 92.152 102.922 90.737C102.911 90.6577 102.875 90.3702 102.886 89.905C102.852 88.6995 102.783 86.349 102.712 83.6664C102.657 82.3728 102.622 80.9962 102.58 79.6505C102.518 77.4305 102.453 75.2714 102.406 73.5636L102.313 70.0872L103.19 67.9585L108.424 72.6112L114.327 77.8539L119.527 82.4808L123.053 85.608L128.187 90.1931Z" fill="#BFD352"/>
<path d="M115.637 71.5463L116.534 77.5308L102.577 79.6209C102.514 77.4009 102.449 75.2416 102.402 73.5337L115.637 71.5463Z" fill="#5F9C2F"/>
<path d="M116.586 86.0432L115.524 86.3303L108.946 88.181L102.894 89.8938C102.861 88.6883 102.792 86.3381 102.721 83.6554L114.95 80.1936L116.586 86.0432Z" fill="#5F9C2F"/>
<path d="M116.558 86.9241L111.262 96.4238L107.013 97.4115C107.013 97.4115 106.179 96.1774 105.253 94.7736L108.937 88.1922L111.291 83.9792L115.514 86.3316L116.558 86.9241Z" fill="#5F9C2F"/>
<path d="M122.671 82.1488L123.056 85.628L123.939 93.4693L118.007 94.8542L116.667 82.8169L119.53 82.5006L122.671 82.1488Z" fill="#5F9C2F"/>
<path d="M103.204 67.987L105.075 88.4955L107.009 93.3692L128.197 90.1918L128.544 87.3851L124.718 64.7578L103.204 67.987Z" fill="white"/>
<path d="M124.022 66.0568L104.352 69.0099L107.74 91.5768L127.41 88.6237L124.022 66.0568Z" fill="#C12E66"/>
<path d="M115.122 81.2201C115.122 81.2201 112.461 84.0612 112.287 85.6158C112.283 85.9433 112.363 86.2663 112.52 86.5538C112.676 86.8414 112.904 87.0836 113.182 87.2577C113.459 87.4317 113.777 87.5315 114.104 87.5474C114.431 87.5634 114.757 87.4952 115.05 87.349C116.27 86.8802 115.646 81.2235 115.656 80.9097C115.667 80.5958 115.122 81.2201 115.122 81.2201Z" fill="#FFFCF7"/>
<path d="M120.745 75.8521C120.745 75.8521 119.309 79.5143 119.784 81.0161C120.258 82.518 121.987 82.4781 122.996 81.613C124.004 80.7479 121.233 75.7193 121.124 75.4207C121.015 75.1221 120.745 75.8521 120.745 75.8521Z" fill="#FFFCF7"/>
<path d="M114.873 71.6441C114.873 71.6441 111.26 73.1858 110.52 74.571C109.78 75.9562 111.067 77.1926 112.376 77.2568C113.685 77.3211 115.332 71.8375 115.47 71.5778C115.608 71.3182 114.873 71.6441 114.873 71.6441Z" fill="#FFFCF7"/>
<path d="M155.269 91.22L154.629 93.31L152.809 93.44L146.749 93.85L143.579 94.07L137.519 94.49L132.929 94.8H132.899L131.069 88.6L130.459 60.3L132.099 54.87L132.989 51.9L134.019 53.7L136.999 58.96L139.149 62.77L142.219 68.18L149.969 81.87L152.919 87.06L155.269 91.22Z" fill="#BFD352"/>
<path d="M152.99 81.9201L152.92 87.0601L152.81 93.4401L146.75 93.8501L146.94 81.8301L149.97 81.8701L152.99 81.9201Z" fill="#5F9C2F"/>
<path d="M143.76 82.12L143.58 94.07L137.52 94.49L137.61 88.45L137.72 82.03L138.32 82.04L143.76 82.12Z" fill="#5F9C2F"/>
<path d="M140.93 83.9601L137.61 88.4501L132.93 94.8001H132.9L131.07 88.6001L131.04 87.1601L136.06 80.3601L138.32 82.0401L140.93 83.9601Z" fill="#5F9C2F"/>
<path d="M143.97 77.47L130.91 81.17L130.77 74.93L142.32 71.65L143.97 77.47Z" fill="#5F9C2F"/>
<path d="M143.35 67.86L142.22 68.18L130.7 71.45L130.56 65.19L139.15 62.77L141.7 62.04L143.35 67.86Z" fill="#5F9C2F"/>
<path d="M140.279 56.9801L136.999 58.9601L130.509 62.9001L130.459 60.3001L132.099 54.8701L134.019 53.7001L137.139 51.8101L140.279 56.9801Z" fill="#5F9C2F"/>
<path d="M133 51.9001L132.62 81.6801L133.86 91.6801L155.27 91.2201L155.97 88.4801L154.75 51.4301L133 51.9001Z" fill="white"/>
<path d="M153.802 52.3202L133.917 52.7506L134.723 90.0019L154.608 89.5715L153.802 52.3202Z" fill="#C12E66"/>
<path d="M141.58 78.8799C141.58 78.8799 138.58 81.3599 138.21 82.8799C137.84 84.3999 139.45 85.25 140.72 84.94C141.99 84.63 142.09 78.9399 142.14 78.6299C142.19 78.3199 141.58 78.8799 141.58 78.8799Z" fill="#FFFCF7"/>
<path d="M148.389 72.6199C148.389 72.6199 146.499 76.0599 146.779 77.6199C147.059 79.1799 148.779 79.3499 149.879 78.6199C150.979 77.8899 148.879 72.56 148.819 72.24C148.759 71.92 148.389 72.6199 148.389 72.6199Z" fill="#FFFCF7"/>
<path d="M142.739 65.1399C142.739 65.1399 138.959 66.21 138.049 67.49C137.139 68.77 138.259 70.1599 139.549 70.3799C140.839 70.5999 143.169 65.3799 143.339 65.1399C143.509 64.8999 142.739 65.1399 142.739 65.1399Z" fill="#FFFCF7"/>
<path d="M182.665 91.4255L179.291 92.103C176.999 92.5446 174.363 93.0392 174.152 93.0327L173.15 93.0241C172.527 93.0353 171.694 93.0499 170.701 93.0421L164.627 93.106L158.485 93.1544L158.566 83.832L158.629 76.9157L158.679 71.6836L158.758 70.6867L159.155 65.6322L159.634 59.541L159.956 55.4537L160.43 49.4223L160.79 44.8464L161.266 38.7952L161.507 35.7346L164.144 30.6557L166.637 38.8766L168.474 44.9694L169.858 49.572L171.695 55.6651L179.197 80.55L179.945 83.0262L182.665 91.4255Z" fill="#BFD352"/>
<path d="M180.371 80.6725L180.183 83.065L179.331 92.1061C177.039 92.5477 174.403 93.0423 174.192 93.0358L173.19 93.0272L174.419 80.0837L179.467 80.5612L180.371 80.6725Z" fill="#5F9C2F"/>
<path d="M171.774 81.4506L170.671 93.0397L164.598 93.1036L165.302 85.1745L165.685 81.1923L165.711 80.8632L171.774 81.4506Z" fill="#5F9C2F"/>
<path d="M167.489 82.7485L165.338 85.2175L158.455 93.1521L158.445 93.1513L158.526 83.829L162.916 78.7777L165.723 81.2154L167.489 82.7485Z" fill="#5F9C2F"/>
<path d="M171.277 74.37L158.6 76.9035L158.649 71.6813L158.726 70.7043L158.727 70.6944L170.09 68.4285L171.277 74.37Z" fill="#5F9C2F"/>
<path d="M172.003 64.7573L159.165 65.6331L159.684 59.5451L171.586 58.7159L172.003 64.7573Z" fill="#5F9C2F"/>
<path d="M171.943 55.7047L171.903 55.7015L160.036 55.4601L160.541 49.4211L170.056 49.6079L172.069 49.6459L171.943 55.7047Z" fill="#5F9C2F"/>
<path d="M172.869 45.0845L168.672 45.0051L160.94 44.8582L161.456 38.8101L166.834 38.9122L172.994 39.0356L172.869 45.0845Z" fill="#5F9C2F"/>
<path d="M164.343 30.6714L161.453 67.9195L160.955 90.189L182.675 91.4262L183.598 88.7503L186.403 31.9253L164.343 30.6714Z" fill="white"/>
<path d="M185.294 33.0043L165.437 31.8739L162.208 88.5921L182.066 89.7225L185.294 33.0043Z" fill="#C12E66"/>
<path d="M172.7 54.8813C172.7 54.8813 169.515 57.1184 169.027 58.6047C168.539 60.091 170.087 61.0655 171.377 60.8561C172.668 60.6466 173.214 54.9819 173.278 54.676C173.342 54.3701 172.7 54.8813 172.7 54.8813Z" fill="#FFFCF7"/>
<path d="M170.435 73.6015C170.435 73.6015 167.25 75.8386 166.762 77.3249C166.274 78.8112 167.812 79.7847 169.102 79.5852C170.391 79.3858 170.938 73.7113 171.013 73.3962C171.088 73.0811 170.435 73.6015 170.435 73.6015Z" fill="#FFFCF7"/>
<path d="M180.057 49.2209C180.057 49.2209 177.913 52.5029 178.059 54.0793C178.11 54.4037 178.244 54.7097 178.447 54.9674C178.651 55.2252 178.917 55.4259 179.221 55.5506C179.525 55.6754 179.856 55.7197 180.181 55.6793C180.507 55.6389 180.817 55.5152 181.081 55.3201C182.198 54.6456 180.56 49.2005 180.515 48.876C180.47 48.5515 180.057 49.2209 180.057 49.2209Z" fill="#FFFCF7"/>
<path d="M177.324 66.9913C177.324 66.9913 175.18 70.2733 175.327 71.8497C175.474 73.426 177.235 73.7351 178.349 73.0905C179.463 72.4459 177.828 66.9609 177.793 66.6471C177.757 66.3334 177.324 66.9913 177.324 66.9913Z" fill="#FFFCF7"/>
<path d="M175.014 41.2809C175.014 41.2809 171.171 42.0521 170.164 43.2568C169.156 44.4615 170.154 45.9341 171.423 46.2546C172.691 46.5751 175.434 41.5547 175.622 41.3288C175.81 41.1029 175.014 41.2809 175.014 41.2809Z" fill="#FFFCF7"/>
<path d="M99 59.7599C116.908 53.2097 133.491 43.4891 147.955 31.0629" stroke="white" stroke-width="1.63" stroke-linecap="round" stroke-linejoin="round"/>
<path d="M142.477 31.8532L149.045 30L146.928 36.1682" stroke="white" stroke-width="1.63" stroke-linecap="round" stroke-linejoin="round"/>
</g>
<path d="M204.279 67.7738L236.699 65.605C238.282 65.4991 239.651 66.6962 239.757 68.2788L241.926 100.7C242.031 102.282 240.834 103.651 239.252 103.757L206.831 105.926C205.248 106.031 203.88 104.834 203.774 103.252L201.605 70.831C201.499 69.2484 202.696 67.8797 204.279 67.7738Z" fill="white" stroke="#C12E66" stroke-width="3"/>
<path d="M215.303 83.3673C214.908 83.3026 213.003 84.0036 212.1 84.3622C211.857 85.8424 220.431 95.3549 220.924 95.4358C221.418 95.5167 222.898 95.7593 224.047 94.9343C225.195 94.1093 229.749 75.6022 229.911 74.6154C230.073 73.6286 225.964 73.9683 225.47 73.8874C224.977 73.8065 222.388 89.5957 221.814 90.0082C221.24 90.4207 215.796 83.4482 215.303 83.3673Z" fill="#FFCA00"/>
</svg>
