<svg width="316" height="126" viewBox="0 0 316 126" fill="none" xmlns="http://www.w3.org/2000/svg">
<mask id="mask0_1002_1408" style="mask-type:alpha" maskUnits="userSpaceOnUse" x="0" y="0" width="316" height="126">
<rect y="126" width="126" height="316" rx="12" transform="rotate(-90 0 126)" fill="#BFD352"/>
</mask>
<g mask="url(#mask0_1002_1408)">
<rect y="126" width="126" height="316" rx="12" transform="rotate(-90 0 126)" fill="#BFD352"/>
<path d="M57.5 60.5C37.1 74.9 8.66667 71.1666 -3 67.5L-7.5 139.5H327C328.833 125 331.4 93.7 327 84.5C321.5 73 303.5 67.5 275 77C246.5 86.5 228.5 67.5 172.5 44.5C116.5 21.5 83 42.5 57.5 60.5Z" fill="#90A22F"/>
<path d="M-6.5 52C-1.66667 57 12.3 66.2 29.5 63C51 59 61.5 15.5 114 8C166.5 0.500003 193 34 227 58C261 82 275 70 288.5 66.5C302 63 320.5 67 325 76.5" stroke="#FEFFB5" stroke-width="2"/>
<rect x="150.282" y="17" width="128.365" height="87.8574" transform="rotate(4.1004 150.282 17)" fill="#625ABB" stroke="white" stroke-width="8"/>
<path d="M172 44.676C172 44.676 178.82 36.756 185.49 41.546C192.16 46.336 194.7 42.6859 200.61 42.3359C206.52 41.9859 207.2 45.986 210.39 44.676C213.58 43.366 214.95 39.8359 219.73 40.0059C224.51 40.1759 232.12 42.7159 235.61 42.4659" stroke="white" stroke-width="1.63" stroke-linecap="round" stroke-linejoin="round"/>
<path d="M172 58.4262C172 58.4262 174.62 54.3062 181.45 55.4262C188.28 56.5462 191.09 60.0462 195.96 58.4262C200.83 56.8062 203.56 57.7762 209.25 58.4262C212.45 58.8366 215.69 58.8366 218.89 58.4262" stroke="white" stroke-width="1.63" stroke-linecap="round" stroke-linejoin="round"/>
<path d="M274 91.2558C274.19 92.6058 276.309 95.4359 277.639 97.1059C278.443 98.2731 279.499 99.2437 280.729 99.9457C281.356 100.277 282.076 100.387 282.773 100.258C283.47 100.129 284.103 99.7688 284.569 99.2358C284.873 98.7195 285.02 98.1265 284.993 97.5285C284.966 96.9305 284.767 96.3532 284.419 95.8659C283.708 94.8998 282.806 94.0897 281.77 93.4858C279.45 91.9258 276.66 90.3758 274 91.2558Z" fill="#3E5936"/>
<path d="M286 82.1638C286.11 82.9938 287.43 84.7537 288.26 85.7937C288.759 86.517 289.416 87.1185 290.18 87.5537C290.571 87.753 291.017 87.8178 291.449 87.7383C291.881 87.6588 292.275 87.4394 292.57 87.1138C292.757 86.7931 292.847 86.4249 292.829 86.054C292.811 85.683 292.687 85.3251 292.47 85.0237C292.033 84.4204 291.474 83.9161 290.83 83.5437C289.38 82.5437 287.65 81.6138 286 82.1638Z" fill="#3E5936"/>
<path d="M32.9995 46.1638C33.1095 46.9938 34.4295 48.7537 35.2595 49.7937C35.7594 50.517 36.4156 51.1185 37.1795 51.5537C37.5709 51.753 38.017 51.8178 38.449 51.7383C38.881 51.6588 39.2747 51.4394 39.5695 51.1138C39.7568 50.7931 39.847 50.4249 39.8292 50.054C39.8115 49.683 39.6865 49.3251 39.4695 49.0237C39.0331 48.4204 38.4743 47.9161 37.8295 47.5437C36.3795 46.5437 34.6495 45.6138 32.9995 46.1638Z" fill="#90A22F"/>
<path d="M38.3102 26C37.3102 26.2 38.9902 30.38 39.6102 32.27C39.931 33.5474 40.5399 34.7343 41.3902 35.74C41.8312 36.2295 42.4238 36.5568 43.073 36.6692C43.7222 36.7816 44.3903 36.6728 44.9702 36.3601C45.3995 36.0037 45.7173 35.5314 45.8857 34.9995C46.0541 34.4676 46.0661 33.8986 45.9202 33.3601C45.6103 32.2904 45.0826 31.2963 44.3702 30.4402C42.8502 28.3302 40.9102 26.08 38.3102 26Z" fill="#90A22F"/>
<path d="M287.769 36.0623L279.179 24.5675L209.001 77.0132L217.591 88.508L287.769 36.0623Z" fill="#C12E66"/>
<g style="mix-blend-mode:multiply" opacity="0.54">
<path d="M285.111 32.5058L281.837 28.1241L211.659 80.5699L214.933 84.9515L285.111 32.5058Z" fill="#C12E66"/>
</g>
<path d="M217.591 88.5081L206.911 91.2217L199.419 93.1249L203.367 86.4797L209.001 77.0133L217.591 88.5081Z" fill="#FEFFB5"/>
<path d="M206.911 91.2217L199.419 93.1249L203.367 86.4796L206.911 91.2217Z" fill="#C12E66"/>
<path d="M289.219 20.9967L294.038 27.445C294.286 27.7764 294.466 28.1533 294.568 28.5542C294.67 28.9551 294.692 29.3721 294.632 29.7815C294.573 30.1909 294.434 30.5847 294.223 30.9402C294.011 31.2958 293.732 31.6063 293.401 31.8539L287.793 36.0443L279.203 24.5496L284.81 20.3592C285.479 19.8591 286.32 19.6453 287.147 19.7649C287.974 19.8844 288.719 20.3275 289.219 20.9967V20.9967Z" fill="#5F9C2F"/>
<path d="M288.803 35.29L280.212 23.7953L277.657 25.7049L286.247 37.1997L288.803 35.29Z" fill="#FEFFB5"/>
<path d="M170 91.5341C170 91.5341 171.732 86.974 176.248 88.2136C180.763 89.4533 182.621 93.3271 185.84 91.5341C189.06 89.741 190.865 90.8146 194.627 91.5341C196.743 91.9884 198.884 91.9884 201 91.5341" stroke="white" stroke-width="1.63" stroke-linecap="round" stroke-linejoin="round"/>
<path d="M40.262 130.739C45.0724 133.949 50.4715 136.021 55.6129 138.652C62.2342 142.025 68.9176 145.229 75.5128 148.614C77.4338 149.602 78.6314 149.622 79.7144 147.487C90.4101 126.453 101.145 105.44 111.92 84.4472C112.54 83.1625 112.718 82.1449 111.691 81.0892C109.089 78.2339 105.383 77.2155 102.103 75.5774C93.9761 71.523 85.8924 67.3995 77.6878 63.5009C76.6775 63.0226 75.7111 62.3311 74.4831 62.7025C73.4567 63.4813 73.3208 64.8195 72.6257 65.7772C62.5577 85.1065 52.7929 104.719 42.734 124.167C41.6493 126.201 40.2346 128.229 40.262 130.739Z" fill="#FFCA00"/>
<path d="M40.262 130.739C44.7905 121.983 49.3299 113.253 53.8438 104.463C60.393 91.6447 66.9063 78.8144 73.3838 65.9719C73.599 64.6517 72.6089 64.1238 71.7201 63.6663C69.3323 62.2373 66.8726 60.9321 64.3509 59.7557C60.3592 58.1802 56.7119 56.2041 54.2236 52.5429C50.4446 58.6372 47.489 65.155 44.2873 71.5505C41.8044 76.507 39.0594 81.3273 36.6334 86.3214C33.4024 92.9649 29.9327 99.5035 26.5584 106.074C25.1025 108.909 23.56 111.708 22.1936 114.536C19.9261 119.248 20.6425 121.592 25.4023 123.655C29.8209 125.564 33.9396 128.029 38.2676 130.089C38.9148 130.356 39.5816 130.573 40.262 130.739Z" fill="#FFB400"/>
<path d="M74.6346 62.9668C86.1395 68.6659 97.6606 74.3547 109.198 80.0333C110.014 80.4394 110.903 80.702 111.751 81.0128L115.442 73.6331C115.458 71.8633 113.909 71.5905 112.801 71.0505C101.677 65.5746 90.5722 60.0972 79.4876 54.6183C77.6576 54.0429 76.1103 52.7237 74.1285 52.5195C73.8697 52.5341 73.6167 52.6017 73.3852 52.7181C73.1537 52.8346 72.9486 52.9974 72.7827 53.1965C71.7056 54.7346 70.5201 54.9139 68.8268 54.0044C67.1336 53.095 66.0527 52.2772 66.9155 50.2038C67.0104 49.9043 67.019 49.5841 66.9404 49.2799C66.8618 48.9757 66.6992 48.6997 66.471 48.4837C65.6916 47.8073 64.7807 47.2994 63.7956 46.9919C60.6643 45.8551 58.6085 46.6966 57.2386 49.6386C55.8688 52.5807 56.4491 54.869 59.3129 56.3946C63.5557 58.7155 67.9613 60.6914 72.3039 62.7859C72.6512 62.996 73.043 63.1218 73.4478 63.1532C73.8525 63.1846 74.259 63.1208 74.6346 62.9668Z" fill="#FEFFB5"/>
<path d="M79.0653 55.2976C89.1018 60.314 99.1384 65.3304 109.175 70.3468C111.278 71.4022 113.332 72.5603 115.409 73.6775C116.304 73.661 117.457 73.9158 117.618 72.6386C117.78 71.3615 116.704 71.1669 115.879 70.7644L80.2604 53.259C78.9498 53.4088 78.7363 54.1953 79.0653 55.2976Z" fill="#FFCA00"/>
<path d="M74.6346 62.9668C69.6644 60.5 64.6947 58.0261 59.7254 55.5452C56.8683 54.109 56.6114 53.0073 58.1122 49.8155C59.2816 47.2753 60.8923 46.3745 63.5 47.8025C64.4936 48.3391 65.5503 48.757 66.5744 49.2193C67.7647 48.9047 68.3814 48.2976 67.7074 47.0325C66.5245 46.4113 65.372 45.7159 64.1522 45.2024C60.3269 43.6084 57.8954 44.5561 56.0824 48.299C55.4137 49.6863 54.8352 51.1178 54.2109 52.5378C54.5484 56.4962 57.8261 57.7867 60.7572 59.1304C65.1654 61.0203 69.3931 63.306 73.3885 65.9595C74.1567 65.1484 74.6001 64.0834 74.6346 62.9668Z" fill="#FF9100"/>
<path d="M67.7048 47.0747C67.5897 47.9122 67.1896 48.6845 66.5718 49.2615C66.4116 49.8416 66.1765 50.3985 65.8724 50.9179C64.6471 52.5181 65.0914 53.4798 66.8966 54.0451C67.1958 54.1295 67.4767 54.2689 67.725 54.4562C70.4828 56.6823 72.5861 56.2719 73.9492 52.9227C74.8794 52.3789 75.6699 51.7707 75.2453 50.5138C77.2172 47.8831 75.6041 45.7715 74.2868 43.6077C73.5994 42.4815 72.9294 41.3479 72.0412 39.8652L67.7048 47.0747Z" fill="#C12E66"/>
<path d="M75.2851 50.4868L73.989 52.8957L79.0913 55.2866L80.2828 53.2394C78.5808 52.3336 76.9137 51.4131 75.2851 50.4868Z" fill="#FF9100"/>
</g>
</svg>
