<svg width="316" height="127" viewBox="0 0 316 127" fill="none" xmlns="http://www.w3.org/2000/svg">
<rect y="127" width="126" height="316" rx="12" transform="rotate(-90 0 127)" fill="#BFD352"/>
<mask id="mask0_1002_1416" style="mask-type:alpha" maskUnits="userSpaceOnUse" x="0" y="1" width="316" height="126">
<rect y="127" width="126" height="316" rx="12" transform="rotate(-90 0 127)" fill="#BFD352"/>
</mask>
<g mask="url(#mask0_1002_1416)">
<path d="M259.5 47C288.7 30.6 322.667 34.5 336 38.5L347.5 139.5L-9.00005 131C-11.3334 108.667 -13.7001 66.4 -4.50005 76C6.99995 88 51.1169 75.9331 71.9999 64C96.5 50 129.478 51.2189 150 76C176.5 108 223 67.5 259.5 47Z" fill="#90A22F"/>
<path d="M-4 72.5001C2.66667 74.6668 19.2 77.7001 32 72.5001C48 66.0001 71 50 89.5 45.5C108 41 132.982 40.2012 157 61.5C183.5 85 216.5 64.5001 232 49.5001C250 32.0808 286.5 -1.49991 326.5 15.0001" stroke="#FEFFB5" stroke-width="2"/>
</g>
<path d="M193.787 92.4174C197.145 92.8386 200.515 93.0545 203.878 93.064C204.429 93.0707 204.989 93.0528 205.548 93.0491C212.104 92.9326 218.589 92.1275 224.892 90.6477C225.393 90.5372 225.861 90.4044 226.366 90.2887C230.268 89.33 234.094 88.1382 237.823 86.7198C238.258 86.5645 238.703 86.3936 239.133 86.2205C245.62 83.6359 251.809 80.4482 257.621 76.6993C258.008 76.459 258.396 76.2045 258.784 75.9642C262.679 73.3846 266.395 70.5633 269.909 67.5163L270.928 66.6238C273.815 64.0623 276.554 61.3472 279.135 58.4895C279.422 58.182 279.703 57.8709 279.981 57.5418C284.111 52.8874 287.785 47.8575 290.96 42.5121C291.251 42.0785 291.496 41.6061 291.756 41.1591L291.621 41.1211C287.88 39.9768 284.076 39.0853 280.237 38.453C279.844 38.3784 279.441 38.3194 279.041 38.2553C274.404 37.5502 269.738 37.1882 265.085 37.1723C264.634 37.1628 264.174 37.1643 263.704 37.1768C259.084 37.215 254.49 37.5605 249.953 38.2108L248.584 38.4131C244.062 39.1261 239.605 40.1147 235.239 41.3732C234.808 41.5001 234.359 41.6157 233.931 41.7605C231.891 42.3986 229.826 43.0733 227.778 43.8055C227.269 43.9868 226.742 44.148 226.271 44.3697C222.78 45.6787 219.359 47.1713 216.008 48.8475C214.32 49.6923 212.236 50.8625 209.838 52.2841C209.249 52.6461 208.664 53.0117 208.075 53.3737C203.04 56.4988 198.218 59.9255 193.635 63.6358V63.6358C192.885 64.2238 192.168 64.8343 191.457 65.4485C183.678 72.156 177.737 79.4014 179.169 84.7773C179.223 85.0313 179.3 85.2814 179.4 85.5242C180.734 88.8397 185.034 91.3275 193.787 92.4174Z" fill="#5F9C2F"/>
<path d="M179.403 85.5562C179.484 85.5934 179.572 85.6121 179.66 85.6105C179.748 85.6089 179.833 85.5873 179.908 85.5473C183.803 83.6143 187.772 81.7046 191.818 79.8179C192.196 79.6396 192.566 79.4717 192.921 79.2926C197.321 77.2452 201.792 75.2297 206.333 73.246L207.492 72.7206C209.342 71.9094 211.224 71.1116 213.129 70.3287L214.411 69.7877C219.875 67.4846 225.422 65.2267 231.052 63.0142L232.538 62.4209C237.582 60.472 242.679 58.5639 247.829 56.6967L249.341 56.1503C254.026 54.4557 258.758 52.8058 263.539 51.2007C264.078 51.0097 264.599 50.8216 265.15 50.638C273.666 47.7672 282.266 45.056 290.949 42.5046C291.24 42.071 291.485 41.5986 291.745 41.1516L291.61 41.1135C286.333 42.658 281.087 44.2638 275.873 45.9311L274.399 46.3968C270.795 47.5387 267.202 48.7112 263.653 49.9277C263.324 50.0329 262.985 50.1538 262.668 50.2665C260.366 51.0404 258.069 51.8323 255.79 52.6211L254.3 53.1361C249.273 54.8994 244.297 56.7087 239.369 58.564C238.889 58.7267 238.419 58.9111 237.961 59.0887C233.84 60.6316 229.78 62.2001 225.781 63.7942C225.31 63.9785 224.84 64.1628 224.373 64.3651C221.991 65.3273 219.634 66.2963 217.302 67.272C216.886 67.4242 216.48 67.5839 216.084 67.7653C212.793 69.1375 209.53 70.5236 206.294 71.9237L206.277 71.9498C204.062 72.9185 201.86 73.8976 199.669 74.8872L198.482 75.4544C194.781 77.1231 191.134 78.8173 187.539 80.5367C187.131 80.7248 186.735 80.9293 186.345 81.1144C184.043 82.2368 181.764 83.354 179.507 84.466C179.37 84.5338 179.263 84.6464 179.204 84.7854C179.137 84.9348 179.134 85.1067 179.195 85.2652C179.227 85.3817 179.301 85.4852 179.403 85.5562V85.5562Z" fill="#BFD352"/>
<path d="M262.955 50.9299C263.15 51.0232 263.342 51.1217 263.567 51.2194C268.711 53.7214 273.942 56.1673 279.186 58.5088C279.473 58.2013 279.755 57.8902 280.033 57.5611C275.079 55.3389 270.084 53.0213 265.21 50.6328C264.706 50.4 264.216 50.1694 263.718 49.9262C263.668 49.8926 263.618 49.859 263.568 49.8254C263.418 49.7722 263.257 49.7724 263.113 49.826C262.969 49.8795 262.852 49.9828 262.784 50.1172C262.761 50.1551 262.748 50.1988 262.747 50.2441C262.687 50.3579 262.675 50.4923 262.714 50.6198C262.752 50.7473 262.839 50.8583 262.955 50.9299Z" fill="#BFD352"/>
<path d="M247.807 56.6817L247.857 56.7153C255.055 60.6725 262.432 64.2839 269.96 67.5357L270.979 66.6431C263.619 63.5018 256.406 60.0059 249.368 56.169C249.049 56.0078 248.771 55.8586 248.435 55.6631C248.293 55.5941 248.133 55.5797 247.987 55.6228C247.841 55.6658 247.72 55.7631 247.651 55.8944C247.57 56.0146 247.541 56.1632 247.57 56.3096C247.599 56.4561 247.683 56.5892 247.807 56.6817V56.6817Z" fill="#BFD352"/>
<path d="M231.063 63.0217L231.113 63.0553L257.659 76.7023C258.046 76.462 258.435 76.2075 258.822 75.9672L232.539 62.4441L231.676 62.0009C231.53 61.9393 231.368 61.9336 231.224 61.985C231.08 62.0363 230.965 62.1408 230.902 62.277V62.277C230.829 62.3926 230.804 62.5338 230.834 62.672C230.864 62.8103 230.945 62.9353 231.063 63.0217V63.0217Z" fill="#BFD352"/>
<path d="M237.828 86.7235C238.263 86.5682 238.708 86.3973 239.139 86.2242C239.102 86.1328 239.034 86.0551 238.948 86.0048C230.623 80.8956 222.35 75.4573 214.383 69.7922C214.195 69.6653 214.017 69.5459 213.828 69.4191C213.762 69.3765 213.689 69.3471 213.612 69.3327C213.536 69.3183 213.458 69.3192 213.384 69.3354C213.31 69.3515 213.24 69.3826 213.181 69.4267C213.121 69.4707 213.071 69.5268 213.035 69.5915C212.949 69.6977 212.908 69.8337 212.919 69.9733C212.931 70.1129 212.995 70.2462 213.1 70.3474C213.113 70.3631 213.13 70.3749 213.15 70.381C221.15 76.0685 229.47 81.5688 237.828 86.7235Z" fill="#BFD352"/>
<path d="M224.897 90.6514C225.399 90.5409 225.867 90.4081 226.372 90.2924C219.641 84.9091 213.33 79.0345 207.497 72.7244C207.301 72.5244 207.116 72.3319 206.927 72.1215C206.851 72.0377 206.75 71.979 206.64 71.9543C206.53 71.9297 206.417 71.9405 206.318 71.9849L206.3 72.0111C206.237 72.0454 206.178 72.0878 206.127 72.1372C206.018 72.2422 205.953 72.3842 205.945 72.5374C205.937 72.6906 205.985 72.8447 206.082 72.9715L206.333 73.2461C212.069 79.491 218.277 85.3108 224.897 90.6514Z" fill="#BFD352"/>
<path d="M203.877 93.0641C204.429 93.0708 204.989 93.0529 205.548 93.0491C203.041 90.5307 200.669 87.8973 198.328 85.3004L192.909 79.2852L192.72 79.0748C192.666 79.0208 192.601 78.9776 192.53 78.9481C192.459 78.9185 192.384 78.9032 192.308 78.903C192.233 78.9028 192.159 78.9177 192.092 78.9469C192.024 78.9761 191.964 79.0188 191.916 79.0726C191.819 79.1643 191.757 79.285 191.738 79.4176C191.718 79.5501 191.742 79.6877 191.806 79.8106C191.789 79.8368 191.85 79.8778 191.871 79.9069L197.462 86.1213C199.546 88.4398 201.652 90.7874 203.877 93.0641Z" fill="#BFD352"/>
<path d="M186.804 81.6055C186.923 81.6092 187.039 81.5812 187.14 81.5245C187.24 81.4679 187.322 81.3847 187.375 81.2839C187.414 81.2133 187.441 81.1368 187.455 81.057C187.469 80.8937 187.492 80.7318 187.523 80.5719C188.321 74.6475 190.866 68.9417 193.644 63.6575C192.894 64.2455 192.178 64.856 191.467 65.4702C189.017 70.3149 186.968 75.558 186.315 80.966C186.312 81.018 186.315 81.0705 186.323 81.1227C186.329 81.2444 186.382 81.3618 186.472 81.4514C186.561 81.541 186.68 81.596 186.804 81.6055V81.6055Z" fill="#BFD352"/>
<path d="M198.741 75.7276C198.88 75.7753 199.029 75.7741 199.162 75.7242C199.294 75.6743 199.401 75.579 199.464 75.4552C199.483 75.4408 199.497 75.4207 199.503 75.3978L199.687 74.9679C202.873 67.3726 206.293 59.7668 209.858 52.3274C209.268 52.6894 208.684 53.055 208.094 53.417C204.714 60.5332 201.48 67.7786 198.435 74.9836C198.399 75.0621 198.382 75.1484 198.384 75.2363C198.386 75.3242 198.408 75.4117 198.448 75.4926C198.513 75.603 198.618 75.6872 198.741 75.7276Z" fill="#BFD352"/>
<path d="M216.393 68.0861C216.531 68.1348 216.68 68.1337 216.812 68.0829C216.944 68.0321 217.05 67.9351 217.11 67.81C217.129 67.7923 217.143 67.771 217.152 67.7473C217.233 67.6271 217.26 67.4786 217.33 67.351C220.624 59.4639 224.138 51.5731 227.799 43.8344C227.29 44.0158 226.763 44.177 226.292 44.3987C222.737 51.9664 219.315 59.661 216.109 67.357C216.072 67.4313 216.053 67.5136 216.054 67.5979C216.054 67.6823 216.074 67.7664 216.112 67.8443C216.14 67.9009 216.179 67.9518 216.227 67.9935C216.276 68.0352 216.332 68.0668 216.393 68.0861V68.0861Z" fill="#BFD352"/>
<path d="M224.664 64.7957C224.811 64.8594 224.974 64.867 225.12 64.8171C225.266 64.7671 225.384 64.6634 225.449 64.527C225.583 64.3285 225.691 64.083 225.797 63.8659C229.68 56.7251 232.845 49.2046 235.251 41.4037C234.819 41.5306 234.371 41.6463 233.943 41.7911C231.516 49.5154 228.338 56.9587 224.45 64.0226C224.383 64.151 224.363 64.2996 224.392 64.4458C224.405 64.52 224.437 64.5909 224.484 64.6521C224.532 64.7132 224.594 64.7626 224.664 64.7957Z" fill="#BFD352"/>
<path d="M238.269 59.5536C238.416 59.6152 238.578 59.6209 238.721 59.5695C238.865 59.5182 238.981 59.4137 239.043 59.2775L239.382 58.641L249.952 38.2481L248.583 38.4504L238.028 58.785C237.97 58.9011 237.951 59.0341 237.974 59.1656C237.989 59.2471 238.023 59.3249 238.075 59.3925C238.126 59.4601 238.193 59.5154 238.269 59.5536V59.5536Z" fill="#BFD352"/>
<path d="M254.492 54.1219C254.641 54.1672 254.799 54.1604 254.938 54.1026C255.077 54.0449 255.188 53.94 255.252 53.8062L255.804 52.6607C258.456 47.2505 261.56 42.0818 265.087 37.2043C264.637 37.1948 264.177 37.1964 263.706 37.2088C260.113 42.2522 256.967 47.5994 254.3 53.1966C254.263 53.2453 254.229 53.2958 254.198 53.3481C254.163 53.4142 254.143 53.4875 254.139 53.5633C254.135 53.6391 254.147 53.7158 254.175 53.7884C254.202 53.8611 254.245 53.9283 254.299 53.9857C254.354 54.0431 254.419 54.0895 254.492 54.1219Z" fill="#BFD352"/>
<path d="M274.691 46.9341C274.832 47.0012 274.992 47.0142 275.136 46.9705C275.281 46.9268 275.4 46.8297 275.469 46.699L275.883 45.9759L280.236 38.4902C279.843 38.4156 279.44 38.3567 279.039 38.2925L274.482 46.1416C274.435 46.2338 274.41 46.3363 274.409 46.4416C274.405 46.5387 274.43 46.6363 274.48 46.7234C274.529 46.8105 274.603 46.8835 274.691 46.9341V46.9341Z" fill="#BFD352"/>
<path d="M174.79 76.4571C177.072 78.9264 179.523 81.255 182.131 83.4293C182.555 83.7897 183.004 84.1378 183.442 84.4952C188.633 88.6375 194.308 92.2359 200.371 95.2288C200.848 95.4722 201.316 95.6779 201.799 95.9197C205.587 97.7421 209.497 99.3468 213.51 100.725C213.97 100.893 214.451 101.057 214.921 101.209C221.994 103.522 229.309 105.207 236.77 106.243C237.26 106.319 237.762 106.386 238.251 106.461C243.305 107.108 248.408 107.463 253.532 107.526L255.025 107.537C259.28 107.547 263.541 107.35 267.789 106.947C268.254 106.91 268.717 106.866 269.191 106.807C276.055 106.105 282.859 104.837 289.522 103.019C290.088 102.894 290.649 102.71 291.202 102.554L291.127 102.44C289.115 99.2007 286.856 96.1041 284.366 93.1725C284.119 92.8651 283.851 92.5623 283.59 92.258C280.537 88.759 277.192 85.4898 273.585 82.4786C273.242 82.1815 272.883 81.8857 272.507 81.5915C268.884 78.641 265.04 75.9293 261.001 73.4749L259.778 72.7386C255.701 70.339 251.459 68.1808 247.076 66.2763C246.641 66.0896 246.201 65.8841 245.755 65.7131C243.667 64.8589 241.532 64.0154 239.365 63.2249C238.827 63.028 238.29 62.8046 237.75 62.661C234.007 61.357 230.176 60.2309 226.255 59.2827C224.279 58.8053 221.74 58.3079 218.76 57.7898C218.017 57.6713 217.276 57.559 216.533 57.4405C210.166 56.4545 203.727 55.8235 197.251 55.551V55.551C196.207 55.4928 195.17 55.4723 194.136 55.458C182.822 55.2921 172.517 56.7004 169.414 61.5101C169.257 61.7287 169.121 61.9594 169.008 62.1993C167.444 65.4562 168.837 70.0266 174.79 76.4571Z" fill="#437E14"/>
<path d="M168.985 62.2241C169.019 62.3035 169.073 62.3738 169.142 62.4293C169.212 62.4847 169.295 62.5239 169.385 62.5436C173.93 63.6565 178.516 64.8349 183.143 66.0789C183.577 66.1934 183.997 66.3111 184.413 66.4098C189.442 67.7666 194.5 69.1914 199.588 70.6844L200.902 71.0517C202.978 71.6582 205.067 72.2947 207.163 72.9563L208.585 73.3917C214.642 75.2493 220.727 77.1928 226.841 79.2221L228.463 79.7515C233.915 81.5939 239.376 83.5002 244.847 85.4702L246.451 86.0496C251.425 87.8445 256.4 89.7026 261.377 91.6239C261.947 91.8335 262.5 92.0336 263.072 92.2557C271.948 95.6701 280.764 99.2538 289.519 103.007C290.086 102.881 290.647 102.697 291.2 102.542L291.124 102.427C285.808 100.142 280.468 97.9212 275.105 95.7651L273.593 95.1519C269.894 93.6541 266.18 92.1858 262.465 90.7771C262.127 90.6414 261.768 90.5101 261.433 90.3869C259.036 89.463 256.628 88.5547 254.236 87.6559L252.673 87.0674C247.38 85.1019 242.09 83.2017 236.802 81.3667C236.301 81.1749 235.791 81.0049 235.295 80.8382C230.88 79.2972 226.491 77.8138 222.13 76.3881C221.619 76.2181 221.109 76.0481 220.587 75.8937C217.98 75.0538 215.386 74.2349 212.807 73.437C212.364 73.2785 211.923 73.1325 211.473 73.0084C207.836 71.8786 204.21 70.777 200.596 69.7038L200.562 69.7114C198.079 68.9841 195.598 68.2721 193.118 67.5752L191.749 67.22C187.562 66.041 183.396 64.9144 179.251 63.8402C178.786 63.7129 178.318 63.6059 177.869 63.488C175.198 62.8158 172.549 62.1541 169.921 61.5031C169.761 61.4637 169.59 61.4762 169.435 61.5385C169.266 61.6036 169.129 61.7261 169.052 61.88C168.985 61.9848 168.961 62.1072 168.985 62.2241V62.2241Z" fill="#BFD352"/>
<path d="M261.136 91.0519C261.214 91.2451 261.286 91.4399 261.384 91.6553C263.423 96.7805 265.572 101.921 267.814 106.994C268.279 106.957 268.742 106.914 269.216 106.855C267.106 102.055 265.04 97.1595 263.122 92.2906C262.913 91.7971 262.713 91.3147 262.517 90.8182C262.504 90.7617 262.492 90.7052 262.479 90.6487C262.404 90.5135 262.278 90.4093 262.124 90.3553C261.97 90.3012 261.799 90.3008 261.64 90.354C261.592 90.3662 261.548 90.3897 261.512 90.422C261.376 90.4655 261.261 90.555 261.191 90.6721C261.121 90.7892 261.101 90.9251 261.136 91.0519Z" fill="#BFD352"/>
<path d="M244.841 85.4451L244.854 85.5016C247.348 93.0026 250.252 100.369 253.557 107.573L255.049 107.585C251.789 100.569 248.922 93.392 246.458 86.0811C246.336 85.759 246.237 85.4716 246.129 85.1137C246.072 84.9724 245.959 84.8585 245.812 84.7956C245.664 84.7326 245.495 84.7254 245.337 84.7755C245.18 84.8101 245.041 84.8988 244.949 85.0234C244.856 85.1479 244.818 85.2989 244.841 85.4451V85.4451Z" fill="#BFD352"/>
<path d="M226.844 79.2347L226.856 79.2911L236.797 106.27C237.287 106.346 237.789 106.412 238.279 106.488L228.445 79.7686L228.122 78.8922C228.056 78.7533 227.935 78.645 227.783 78.5893C227.63 78.5336 227.459 78.5349 227.303 78.5928V78.5928C227.155 78.6289 227.025 78.7152 226.94 78.8343C226.855 78.9535 226.82 79.0965 226.844 79.2347V79.2347Z" fill="#BFD352"/>
<path d="M213.511 100.731C213.971 100.899 214.452 101.063 214.923 101.215C214.966 101.126 214.974 101.026 214.946 100.934C212.48 91.8735 210.312 82.609 208.559 73.3775C208.512 73.1641 208.468 72.9633 208.42 72.7499C208.402 72.6766 208.368 72.608 208.32 72.5483C208.272 72.4886 208.211 72.4392 208.14 72.403C208.07 72.3668 207.992 72.3446 207.91 72.3378C207.829 72.331 207.747 72.3397 207.668 72.3634C207.518 72.3845 207.379 72.4562 207.279 72.5648C207.178 72.6733 207.124 72.811 207.125 72.9513C207.123 72.9711 207.127 72.9908 207.138 73.0078C208.898 82.277 211.054 91.6166 213.511 100.731Z" fill="#BFD352"/>
<path d="M200.373 95.2351C200.849 95.4784 201.318 95.6841 201.801 95.926C200.789 87.6953 200.489 79.3798 200.903 71.058C200.908 70.787 200.915 70.5286 200.933 70.2547C200.939 70.145 200.907 70.0376 200.841 69.9488C200.775 69.8601 200.678 69.7949 200.566 69.7631L200.532 69.7707C200.456 69.7546 200.377 69.7477 200.298 69.7501C200.131 69.7556 199.969 69.8167 199.843 69.9221C199.716 70.0275 199.633 70.1703 199.609 70.3243L199.588 70.6844C199.151 78.8974 199.413 87.1065 200.373 95.2351Z" fill="#BFD352"/>
<path d="M182.131 83.4294C182.555 83.7898 183.004 84.1379 183.442 84.4953C183.468 81.0589 183.689 77.6256 183.905 74.2393L184.41 66.3974L184.428 66.1234C184.428 66.0492 184.411 65.9764 184.38 65.9094C184.348 65.8424 184.301 65.7826 184.243 65.7339C184.184 65.6851 184.115 65.6484 184.039 65.6259C183.964 65.6035 183.884 65.5957 183.804 65.6032C183.657 65.6075 183.514 65.6547 183.395 65.7379C183.276 65.821 183.186 65.9361 183.14 66.0665C183.106 66.0741 183.121 66.143 183.114 66.1775L182.588 74.2745C182.39 77.2945 182.186 80.3488 182.131 83.4294Z" fill="#BFD352"/>
<path d="M177.841 64.1395C177.931 64.2189 178.043 64.2734 178.166 64.2972C178.288 64.3211 178.417 64.3134 178.538 64.2749C178.623 64.2488 178.704 64.2108 178.778 64.1624C178.917 64.0533 179.061 63.9509 179.211 63.8556C184.48 60.0871 190.936 57.6027 197.242 55.573C196.197 55.5148 195.161 55.4943 194.126 55.48C188.42 57.4031 182.713 59.8729 177.963 63.362C177.919 63.3975 177.88 63.4371 177.846 63.4801C177.755 63.5721 177.704 63.6913 177.704 63.8137C177.703 63.936 177.752 64.0524 177.841 64.1395V64.1395Z" fill="#BFD352"/>
<path d="M191.737 67.5848C191.807 67.7088 191.924 67.8039 192.066 67.8532C192.208 67.9025 192.367 67.9028 192.513 67.854C192.539 67.8558 192.565 67.85 192.588 67.8374L193.068 67.6453C201.505 64.2083 210.131 60.9137 218.741 57.8335C217.998 57.715 217.257 57.6027 216.514 57.4842C208.302 60.4499 200.103 63.6037 192.082 66.8498C191.993 66.8833 191.911 66.9344 191.844 66.9993C191.777 67.0643 191.725 67.1415 191.693 67.2258C191.657 67.3479 191.673 67.4764 191.737 67.5848Z" fill="#BFD352"/>
<path d="M211.461 73.4391C211.53 73.5636 211.647 73.6588 211.79 73.7072C211.932 73.7555 212.09 73.7536 212.235 73.7019C212.264 73.701 212.291 73.6948 212.317 73.6838C212.474 73.649 212.612 73.5592 212.766 73.5118C221.516 69.9331 230.439 66.4936 239.358 63.2592C238.82 63.0624 238.284 62.839 237.743 62.6954C229.041 65.8751 220.343 69.2317 211.812 72.7291C211.725 72.759 211.646 72.8064 211.58 72.8677C211.514 72.929 211.464 73.0026 211.432 73.0833C211.409 73.142 211.4 73.2041 211.405 73.2655C211.41 73.3268 211.429 73.386 211.461 73.4391V73.4391Z" fill="#BFD352"/>
<path d="M220.475 76.3925C220.54 76.5333 220.661 76.644 220.813 76.7019C220.966 76.7599 221.139 76.7608 221.297 76.7043C221.556 76.6468 221.833 76.5393 222.086 76.4504C230.708 73.7912 239.07 70.3948 247.061 66.3059C246.626 66.1193 246.186 65.9138 245.74 65.7427C237.792 69.7625 229.481 73.0948 220.916 75.6958C220.763 75.7455 220.63 75.8397 220.538 75.9639C220.49 76.0261 220.459 76.0979 220.448 76.1728C220.437 76.2476 220.447 76.3232 220.475 76.3925Z" fill="#BFD352"/>
<path d="M235.17 81.3729C235.235 81.5117 235.357 81.6201 235.509 81.6758C235.661 81.7314 235.833 81.7301 235.988 81.6722L236.751 81.4306L260.971 73.5013L259.748 72.765L235.585 80.6618C235.449 80.7083 235.33 80.7922 235.244 80.902C235.192 80.9704 235.158 81.049 235.145 81.131C235.132 81.213 235.14 81.296 235.17 81.3729V81.3729Z" fill="#BFD352"/>
<path d="M252.049 87.9037C252.129 88.0328 252.258 88.1298 252.411 88.1777C252.565 88.2256 252.733 88.2212 252.888 88.1655L254.216 87.6933C260.523 85.4914 266.992 83.7559 273.562 82.5034C273.219 82.2063 272.86 81.9106 272.484 81.6164C265.733 82.9459 259.091 84.7836 252.625 87.1109C252.559 87.1225 252.492 87.1372 252.427 87.1548C252.348 87.1801 252.275 87.2201 252.212 87.2724C252.15 87.3246 252.099 87.3879 252.064 87.4583C252.028 87.5286 252.008 87.6045 252.006 87.6811C252.003 87.7578 252.018 87.8336 252.049 87.9037Z" fill="#BFD352"/>
<path d="M273.399 95.7284C273.456 95.8682 273.57 95.9804 273.717 96.0421C273.864 96.1038 274.032 96.1103 274.189 96.0603L275.078 95.8041L284.336 93.1988C284.089 92.8915 283.822 92.5887 283.561 92.2844L273.858 95.0209C273.749 95.0571 273.649 95.1151 273.566 95.1909C273.487 95.2587 273.43 95.3451 273.4 95.4401C273.37 95.5352 273.37 95.6351 273.399 95.7284V95.7284Z" fill="#BFD352"/>
<path d="M97.4847 117.227C95.967 117.459 94.4164 117.144 93.1083 116.341C91.8002 115.537 90.8192 114.296 90.3394 112.838V112.838L90.3123 112.713C90.2095 112.39 90.1296 112.06 90.0731 111.726L77.7989 40.7425C77.7443 40.4098 77.7107 40.074 77.6985 39.7371L77.7079 39.6076C77.6777 38.0773 78.1892 36.5855 79.1519 35.3957C80.1146 34.2058 81.4667 33.3943 82.9696 33.1044L211.711 11.1885C213.425 10.9352 215.169 11.3713 216.563 12.4013C217.956 13.4313 218.884 14.9712 219.145 16.6842L231.411 87.6673C231.578 88.5082 231.576 89.3736 231.406 90.2137C231.236 91.0539 230.901 91.8522 230.421 92.5623C229.941 93.2725 229.325 93.8805 228.609 94.3514C227.893 94.8223 227.09 95.1467 226.248 95.3059L203.632 99.1504" fill="#3E5936"/>
<path d="M225.526 91.3185L202.964 95.2174L96.8568 113.536C95.3755 113.791 93.8515 113.517 92.5522 112.761C91.2528 112.006 90.261 110.816 89.7508 109.402L89.7591 109.287C89.6576 108.979 89.579 108.664 89.524 108.344L77.7156 40.3025C77.6613 39.9825 77.6317 39.6586 77.627 39.334L77.5994 39.2163C77.6013 37.7111 78.1344 36.2549 79.1046 35.1042C80.0749 33.9535 81.4202 33.1821 82.9034 32.926L211.582 10.68C212.409 10.5368 213.256 10.5579 214.074 10.7423C214.893 10.9267 215.667 11.2707 216.353 11.7545C217.039 12.2384 217.622 12.8527 218.07 13.5623C218.518 14.2719 218.822 15.0628 218.964 15.8899L230.728 83.943C231.014 85.6106 230.626 87.3233 229.651 88.7058C228.676 90.0884 227.193 91.0279 225.526 91.3185Z" fill="white"/>
<path d="M109.584 106.621C108.837 106.745 108.071 106.569 107.452 106.133C106.833 105.697 106.41 105.035 106.275 104.29L98.5845 59.7738L94.9038 38.4862C94.7824 37.7402 94.9586 36.9764 95.3944 36.3588C95.8302 35.7413 96.491 35.3194 97.2345 35.1838L110.479 32.8926L127.086 30.0214L132.829 29.0288L138.536 28.0409L150.029 26.0563L210.991 15.5194C211.737 15.398 212.501 15.5742 213.118 16.01C213.736 16.4458 214.158 17.1065 214.293 17.8501L224.845 78.9071L225.664 83.6541C225.786 84.4001 225.609 85.1639 225.174 85.7815C224.738 86.399 224.077 86.8208 223.333 86.9563L222.213 87.1497L216.506 88.1377L210.76 89.1662L194.161 92.0378L154.028 98.9331L109.584 106.621Z" fill="#C12E66"/>
<path d="M139.496 83.3798C139.146 83.4386 138.789 83.356 138.5 83.1498C138.211 82.9437 138.014 82.6305 137.951 82.2779L134.379 61.2113L132.67 51.1373C132.613 50.7842 132.696 50.4226 132.9 50.1301C133.103 49.8376 133.412 49.6376 133.76 49.5731L139.947 48.4826L147.705 47.1161L150.388 46.6437L153.054 46.1735L158.423 45.2289L186.903 40.2139C187.252 40.1561 187.608 40.2391 187.896 40.4451C188.185 40.6511 188.381 40.9637 188.444 41.3155L193.345 70.2098L193.726 72.4563C193.782 72.8093 193.699 73.1709 193.496 73.4634C193.292 73.7559 192.983 73.9558 192.635 74.0203L192.112 74.1124L189.446 74.5826L186.762 75.072L179.007 76.4387L160.258 79.7206L139.496 83.3798Z" fill="white"/>
<path d="M94.8582 84.0454C94.4991 84.1048 94.1311 84.0204 93.8337 83.8106C93.5363 83.6009 93.3334 83.2824 93.2689 82.9242L90.0989 64.5598C90.0607 64.2112 90.1569 63.8611 90.3678 63.5809C90.5787 63.3008 90.8885 63.1117 91.234 63.052C91.5796 62.9923 91.9349 63.0666 92.2276 63.2598C92.5203 63.4529 92.7283 63.7503 92.8093 64.0915L95.9793 82.456C96.0107 82.634 96.0065 82.8164 95.9671 82.9929C95.9276 83.1693 95.8536 83.3363 95.7495 83.484C95.6453 83.6317 95.5129 83.7574 95.3599 83.8537C95.207 83.9501 95.0365 84.0152 94.8582 84.0454V84.0454Z" fill="#625ABB"/>
<path d="M94.7719 35.9234C95.0507 35.5232 95.406 35.1823 95.8174 34.9204C96.2289 34.6586 96.6881 34.481 97.1686 34.3979L210.918 14.7329C211.851 14.5814 212.807 14.8024 213.579 15.3483C214.35 15.8942 214.877 16.7213 215.045 17.6517L226.417 83.4484C226.581 84.4184 226.355 85.4137 225.788 86.2178C225.222 87.0219 224.36 87.5697 223.392 87.7419L109.65 107.407C108.717 107.559 107.761 107.338 106.989 106.792C106.217 106.246 105.69 105.419 105.522 104.489L94.1438 38.6913C94.0604 38.2113 94.0729 37.7196 94.1808 37.2445C94.2886 36.7694 94.4895 36.3203 94.7719 35.9234V35.9234ZM213.533 18.0553C213.432 17.4973 213.116 17.0013 212.653 16.6741C212.189 16.3468 211.616 16.2144 211.057 16.3054L97.3002 35.9699C97.0418 36.0161 96.7949 36.1128 96.5738 36.2544C96.3528 36.396 96.1617 36.5797 96.0117 36.7952C95.8617 37.0106 95.7556 37.2534 95.6995 37.5099C95.6434 37.7664 95.6384 38.0315 95.6847 38.2899L107.07 104.088C107.172 104.647 107.489 105.144 107.954 105.472C108.418 105.8 108.993 105.931 109.554 105.838L223.304 86.1731C223.563 86.1288 223.811 86.0332 224.033 85.8921C224.255 85.751 224.447 85.5672 224.597 85.3513C224.747 85.1354 224.853 84.8917 224.908 84.6345C224.964 84.3773 224.967 84.1116 224.919 83.853L213.533 18.0553Z" fill="#FF9100"/>
<path d="M206.487 58.7142C206.487 58.7142 203.587 47.8063 204.059 47.4899C204.531 47.1735 214.005 49.0232 215.065 50.8694C214.925 52.7936 207.364 58.7855 206.487 58.7142Z" fill="white"/>
<path d="M116.043 74.0439C116.043 74.0439 114.513 62.8613 113.955 62.7513C113.398 62.6412 105.37 68.0016 105.104 70.1138C105.975 71.8352 115.261 74.4479 116.043 74.0439Z" fill="white"/>
<path d="M159.014 60.0639C152.187 55.2591 144.32 51.7856 136.045 50.7522C127.77 49.7188 119.059 51.2406 112 55.689C117.547 56.7144 122.824 58.8692 127.504 62.0196C132.108 65.1269 136.023 69.1238 140.212 72.7721C144.402 76.4205 149.019 79.7932 154.366 81.2884C157.809 82.2876 161.467 82.2778 164.904 81.2602C167.515 80.4327 171.889 78.1808 172.218 75.0499C172.464 72.7041 169.658 70.2677 168.31 68.6059C165.622 65.3417 162.494 62.4669 159.014 60.0639V60.0639Z" fill="#5F9C2F"/>
<path d="M116.776 54.8674C124.826 54.2741 139.828 59.7433 142.7 60.7387C145.771 61.8845 148.759 63.239 151.645 64.7925C157.969 68.011 164.71 71.6462 167.796 78.0307" stroke="#BFD352" stroke-width="1.31" stroke-linecap="round" stroke-linejoin="round"/>
<path d="M130.146 53.418L132.38 57.4638C132.455 57.5706 132.491 57.6994 132.484 57.8296C132.444 58.0368 132.2 58.1226 132.007 58.1945L127.528 59.5428" stroke="#BFD352" stroke-width="1.31" stroke-linecap="round" stroke-linejoin="round"/>
<path d="M136.621 52.7572L140.478 59.7923L134.388 62.6284" stroke="#BFD352" stroke-width="1.31" stroke-linecap="round" stroke-linejoin="round"/>
<path d="M143.578 55.3492C145.343 57.7806 146.908 60.3506 148.259 63.0342C144.511 64.5687 140.855 66.3193 137.309 68.2773" stroke="#BFD352" stroke-width="1.31" stroke-linecap="round" stroke-linejoin="round"/>
<path d="M153.325 59.0955C154.905 61.6771 156.26 64.3898 157.376 67.2035C156.533 67.82 155.443 67.9581 154.409 68.1381C152.08 68.5389 149.81 69.2318 147.654 70.2005" stroke="#BFD352" stroke-width="1.31" stroke-linecap="round" stroke-linejoin="round"/>
<path d="M166.279 53.5737C169.782 45.9953 174.851 39.0487 181.496 34.0096C188.14 28.9704 196.442 25.9245 204.78 26.2392C200.492 29.9051 197.004 34.4133 194.532 39.4839C192.103 44.4792 190.716 49.8999 188.918 55.1558C187.119 60.4117 184.812 65.6438 180.933 69.6158C178.454 72.2052 175.283 74.0286 171.798 74.8697C169.123 75.4614 164.21 75.7029 162.357 73.1577C160.97 71.2506 162.178 67.7364 162.512 65.6231C163.203 61.4515 164.471 57.3963 166.279 53.5737V53.5737Z" fill="#BFD352"/>
<path d="M200.235 27.9202C192.97 31.4386 182.725 43.6863 180.738 45.9865C178.654 48.5161 176.746 51.1853 175.026 53.9753C171.164 59.9286 167.151 66.4512 167.677 73.5231" stroke="#5F9C2F" stroke-width="1.31" stroke-linecap="round" stroke-linejoin="round"/>
<path d="M187.937 33.3623L188.03 37.9829C188.018 38.1128 188.051 38.2427 188.123 38.3516C188.261 38.5112 188.515 38.4629 188.718 38.4288L193.27 37.3522" stroke="#5F9C2F" stroke-width="1.31" stroke-linecap="round" stroke-linejoin="round"/>
<path d="M182.002 36.0332L182.187 44.0544L188.878 43.4589" stroke="#5F9C2F" stroke-width="1.31" stroke-linecap="round" stroke-linejoin="round"/>
<path d="M177.278 41.7615C176.969 44.7498 176.901 47.7583 177.076 50.7576C181.089 50.2084 185.13 49.8924 189.179 49.8112" stroke="#5F9C2F" stroke-width="1.31" stroke-linecap="round" stroke-linejoin="round"/>
<path d="M170.719 49.886C170.644 52.9119 170.83 55.9387 171.273 58.9328C172.312 59.0441 173.325 58.6176 174.31 58.2556C176.526 57.4359 178.838 56.899 181.189 56.6576" stroke="#5F9C2F" stroke-width="1.31" stroke-linecap="round" stroke-linejoin="round"/>
<path d="M144.393 52.3304C142.749 57.0224 141.375 62.4763 143.942 66.7372C145.673 69.6185 148.13 74.3935 151.218 75.7339C155.262 77.5025 177.937 91.2425 186.211 66.6793C186.946 64.4537 187.435 61.1786 186.906 58.9037C186.469 56.5211 185.691 54.214 184.595 52.0538C176.67 37.9652 150.117 36.0699 144.393 52.3304Z" fill="#625ABB"/>
<g style="mix-blend-mode:multiply" opacity="0.38">
<path d="M182.546 53.5391C182.556 56.3214 181.987 59.0753 180.874 61.6252C179.761 64.1751 178.129 66.465 176.081 68.3488C174.004 70.202 171.514 71.5322 168.818 72.2288C166.123 72.9253 163.3 72.968 160.585 72.3534C158.41 71.6902 156.27 70.9163 154.174 70.0347C152.18 69.3501 150.151 68.773 148.095 68.3057C146.996 67.9666 145.836 67.8702 144.697 68.0233C146.366 70.869 148.555 74.578 151.218 75.7337C155.262 77.5023 177.936 91.2423 186.211 66.6791C186.945 64.4535 187.435 61.1784 186.906 58.9035C186.469 56.5209 185.691 54.2138 184.595 52.0536C183.595 50.2866 182.316 48.6921 180.81 47.3309L180.594 47.2796C182.157 48.9319 182.549 51.2998 182.546 53.5391Z" fill="#554E79"/>
</g>
<path d="M172.052 39.323C171.997 39.8167 171.748 40.2684 171.36 40.5789C170.973 40.8893 170.477 41.0331 169.984 40.9787C168.994 40.8324 168.101 40.3036 167.497 39.5058C167.924 40.4855 166.899 41.6031 165.828 41.6847C164.752 41.6512 163.714 41.28 162.861 40.6236C163.634 41.4866 164.054 42.6087 164.038 43.7671C164.022 44.9256 163.572 46.0358 162.776 46.8774C163.502 46.6088 164.29 46.5517 165.047 46.7128C165.805 46.8739 166.501 47.2465 167.056 47.7875C167.597 48.3425 168 49.0167 168.232 49.756C168.465 50.4953 168.521 51.2789 168.396 52.0437C168.936 51.5791 169.592 51.2697 170.294 51.1484C170.996 51.0271 171.717 51.0984 172.382 51.3549C173.709 51.8871 174.918 52.6746 175.942 53.6727C176.206 52.607 177.484 52.0562 178.574 52.2148C179.651 52.4665 180.651 52.9761 181.488 53.6998C181.027 52.5367 180.928 51.2617 181.204 50.0415C181.48 48.8214 182.117 47.7129 183.033 46.8608C181.605 48.1498 178.267 45.1631 177.56 44.173C175.47 48.1418 171.917 41.5024 172.052 39.323Z" fill="#BCB7F7"/>
<path d="M169.953 44.5242C172.033 45.3377 174.161 46.021 176.326 46.5705C176.832 46.6636 177.318 46.8459 177.76 47.109C177.98 47.2413 178.16 47.431 178.281 47.6579C178.401 47.8847 178.458 48.1401 178.444 48.3966C178.381 48.6715 178.245 48.9241 178.049 49.127C177.853 49.33 177.606 49.4757 177.333 49.5484C176.284 49.8011 175.184 49.7483 174.163 49.3962L172.15 48.9106C170.808 48.6636 169.515 48.1961 168.326 47.5271C167.733 47.1858 167.232 46.7039 166.869 46.1239C166.506 45.5439 166.292 44.8834 166.244 44.2008C166.21 41.3497 168.942 44.1252 169.953 44.5242Z" fill="#625ABB"/>
<path d="M153.935 53.0801C153.308 54.5286 152.317 55.7928 151.568 57.1798C150.876 58.4848 150.368 59.8792 150.058 61.3234C149.847 62.2439 149.637 63.2958 148.833 63.8055C148.38 64.0313 147.863 64.0955 147.368 63.9874C146.874 63.8792 146.431 63.6053 146.113 63.211C145.502 62.3857 145.153 61.3952 145.113 60.3688C144.705 57.0563 145.344 50.5307 148.609 48.5705C149.51 48.0351 152.21 47.5691 153.137 47.8805C155.091 48.568 154.579 51.6086 153.935 53.0801Z" fill="white"/>
<path d="M20.8403 46.3098C20.0215 46.1348 17.9207 46.7877 16.6625 47.2205C15.8134 47.4486 15.0265 47.8649 14.3602 48.4384C14.0411 48.7403 13.8303 49.1388 13.7603 49.5724C13.6902 50.006 13.7647 50.4505 13.9725 50.8375C14.2118 51.1215 14.5283 51.33 14.8837 51.4378C15.2391 51.5456 15.6182 51.548 15.9749 51.4447C16.6897 51.2361 17.3523 50.8789 17.9195 50.3966C19.3481 49.3663 20.8047 48.0487 20.8403 46.3098Z" fill="#90A22F"/>
<path d="M38.052 58.0795C38.1992 57.0704 33.6978 57.2501 31.7093 57.1999C30.3984 57.0734 29.076 57.2486 27.8432 57.7121C27.2341 57.9632 26.7269 58.4116 26.4032 58.9854C26.0794 59.5592 25.9576 60.2251 26.0576 60.8763C26.2492 61.4003 26.5875 61.8582 27.032 62.1954C27.4765 62.5325 28.0085 62.7348 28.5648 62.7781C29.6765 62.8452 30.79 62.6817 31.8355 62.2979C34.3333 61.5742 37.104 60.5019 38.052 58.0795" fill="#90A22F"/>
<path d="M46.7904 72.1399C42.5086 71.418 38.2016 73.5743 34.9747 76.4814C30.3868 80.6413 27.379 86.26 26.4611 92.3845C25.9147 96.1165 26.1963 100.045 27.7754 103.493C29.3545 106.94 32.3635 109.773 36.0231 110.708C41.2667 112.043 46.6819 109.336 50.9637 106.012C54.4398 103.304 57.6 100.037 59.5671 96.1021C61.5342 92.1676 62.8093 86.0345 60.1337 82.0831C57.3476 77.9361 51.787 72.9832 46.7904 72.1399Z" fill="white"/>
<path d="M33.4231 82.3655C32.146 83.9714 31.2716 85.8596 30.8729 87.8723" stroke="#625ABB" stroke-width="1.96" stroke-linecap="round" stroke-linejoin="round"/>
<path d="M33.6638 92.5894C33.3477 92.9025 33.0983 93.2764 32.9306 93.6885" stroke="#625ABB" stroke-width="1.96" stroke-linecap="round" stroke-linejoin="round"/>
<path d="M58.8926 86.1331C58.9161 86.5358 58.8132 86.9358 58.5983 87.2773" stroke="#625ABB" stroke-width="1.96" stroke-linecap="round" stroke-linejoin="round"/>
<path d="M57.3222 92.8765C56.786 94.5086 55.984 96.0376 54.9534 97.3918" stroke="#625ABB" stroke-width="1.96" stroke-linecap="round" stroke-linejoin="round"/>
<path d="M38.2065 78.4286C37.6957 78.7376 37.2715 79.1711 36.9738 79.6887" stroke="#625ABB" stroke-width="1.96" stroke-linecap="round" stroke-linejoin="round"/>
<path d="M49.0624 103.093C48.605 103.521 48.0882 103.88 47.5279 104.16" stroke="#625ABB" stroke-width="1.96" stroke-linecap="round" stroke-linejoin="round"/>
<path d="M31.0039 102.008C30.85 102.629 30.8495 103.278 31.0027 103.9" stroke="#625ABB" stroke-width="1.96" stroke-linecap="round" stroke-linejoin="round"/>
<path d="M68.3846 91.0231C64.5069 91.3635 63.8607 96.2706 64.0222 98.6816C64.0222 106.34 72.7471 104.638 73.7165 100.383C74.6859 96.1288 73.2318 90.5977 68.3846 91.0231Z" fill="#FEFFB5"/>
<path d="M281.42 66.8793C278.636 69.5998 281.245 73.8055 282.898 75.5683C287.751 81.4931 293.422 74.648 291.476 70.7422C289.53 66.8364 284.9 63.4788 281.42 66.8793Z" fill="white"/>
</svg>
