<svg width="710" height="384" viewBox="0 0 710 384" fill="none" xmlns="http://www.w3.org/2000/svg">
<path d="M100.918 128.788H136.529V172.913H174.524V128.788H210.146V249.24H174.524V201.538H136.529V249.24H100.918V128.788ZM337.189 128.788V249.24H302.766V157.413H280.202V191.989C280.202 207.5 279.015 226.576 269.518 237.306C260.022 249.229 242.217 252.806 222.027 249.229V219.422C241.019 222.999 245.778 215.846 245.778 191.989V128.788H337.189ZM366.876 128.788H402.486L422.676 200.346L442.856 128.788H478.477L495.095 249.24H461.848L453.539 184.835L434.547 249.24H410.795L391.792 184.835L383.483 249.24H350.247L366.876 128.788ZM508.153 128.788H543.774V177.682L578.208 128.788H617.38L572.262 188.412L618.567 249.229H575.823L543.763 200.335V249.229H508.142V128.788H508.153ZM354.995 0C141.288 0 0 77.509 0 192C0 305.288 141.288 384 354.995 384C569.888 384 710 305.288 710 192C710 77.509 569.899 0 354.995 0ZM354.995 366.105C154.345 366.105 20.1793 295.739 20.1793 191.989C20.1793 87.047 154.345 17.8841 354.995 17.8841C556.831 17.8841 689.81 87.047 689.81 191.989C689.81 295.75 556.831 366.105 354.995 366.105ZM354.995 34.576C166.226 34.576 40.3695 97.788 40.3695 191.989C40.3695 286.201 166.226 349.402 354.995 349.402C543.774 349.402 669.62 286.201 669.62 191.989C669.631 97.788 543.774 34.576 354.995 34.576ZM354.995 345.836C168.589 345.836 43.9306 283.827 43.9306 192C43.9306 100.173 168.589 38.1637 354.995 38.1637C541.4 38.1637 666.07 100.173 666.07 192C666.07 283.827 541.4 345.836 354.995 345.836Z" fill="#005291"/>
</svg>
