<svg width="316" height="202" viewBox="0 0 316 202" fill="none" xmlns="http://www.w3.org/2000/svg">
<rect y="200" width="200" height="316" rx="12" transform="rotate(-90 0 200)" fill="#BFD352"/>
<mask id="mask0_1008_1437" style="mask-type:alpha" maskUnits="userSpaceOnUse" x="0" y="0" width="316" height="200">
<rect y="200" width="200" height="316" rx="12" transform="rotate(-90 0 200)" fill="#BFD352"/>
</mask>
<g mask="url(#mask0_1008_1437)">
<path d="M72.5 118C15.7 114 -13.5 97 -21 89V223.5L337 229.5V113.5C330.667 96.8333 305.7 64.4 256.5 68C195 72.5 143.5 123 72.5 118Z" fill="#90A22F"/>
<path d="M-6 92.3817C-6 92.3817 66.6235 123.529 139.018 87.9517C211.413 52.3747 273.31 3.79673 338 30.8832" stroke="#FEFFB5" stroke-width="2" stroke-miterlimit="10"/>
</g>
<rect x="24" y="41.1262" width="79.6161" height="40.5064" rx="5" transform="rotate(-2.67431 24 41.1262)" fill="white"/>
<rect x="20" y="37.7147" width="79.6161" height="40.5064" rx="5" transform="rotate(-2.67431 20 37.7147)" stroke="#437E14" stroke-width="2" stroke-linecap="round" stroke-dasharray="1 6"/>
<rect x="119.897" y="21" width="79.6161" height="40.5064" rx="5" transform="rotate(5.52095 119.897 21)" fill="white"/>
<rect x="124.897" y="17" width="79.6161" height="40.5064" rx="5" transform="rotate(5.52095 124.897 17)" stroke="#437E14" stroke-width="2" stroke-linecap="round" stroke-dasharray="1 6"/>
<rect x="216" y="37.3989" width="79.6161" height="40.5064" rx="5" transform="rotate(-1.00683 216 37.3989)" fill="white"/>
<rect x="220.79" y="32.3989" width="79.6161" height="40.5064" rx="5" transform="rotate(-1.00683 220.79 32.3989)" stroke="#437E14" stroke-width="2" stroke-linecap="round" stroke-dasharray="1 6"/>
<path d="M70.5 89C71.6667 103.667 82 135.9 114 147.5" stroke="white" stroke-width="2" stroke-linecap="round"/>
<path d="M259 84C257.659 100.798 245.782 137.715 209 151" stroke="white" stroke-width="2" stroke-linecap="round"/>
<path d="M66.5 95L70 86.5L75.5 94" stroke="white" stroke-width="2" stroke-linecap="round" stroke-linejoin="round"/>
<path d="M264 91L259.722 81L253 89.8235" stroke="white" stroke-width="2" stroke-linecap="round" stroke-linejoin="round"/>
<path d="M185.256 137.486C192.448 129 201.426 121.863 211.771 117.753C222.116 113.642 233.856 112.667 244.456 116.039C237.642 119.229 231.556 123.783 226.573 129.419C221.678 134.979 217.969 141.451 213.813 147.567C209.656 153.682 204.816 159.598 198.409 163.326C194.301 165.771 189.578 166.986 184.801 166.826C181.155 166.634 174.775 165.203 173.262 161.293C172.131 158.331 174.957 154.266 176.133 151.668C178.506 146.543 181.576 141.77 185.256 137.486Z" fill="#BFD352"/>
<path d="M238.012 116.586C227.439 118.527 209.912 130.613 206.539 132.874C202.962 135.376 199.557 138.116 196.349 141.077C189.276 147.357 181.766 154.311 179.943 163.599" stroke="#5F9C2F" stroke-width="1.31" stroke-linecap="round" stroke-linejoin="round"/>
<path d="M220.284 119.211C219.783 121.198 219.272 123.194 218.762 125.181C218.708 125.347 218.708 125.526 218.762 125.691C218.88 125.947 219.218 125.992 219.491 126.001L225.735 126.238" stroke="#5F9C2F" stroke-width="1.31" stroke-linecap="round" stroke-linejoin="round"/>
<path d="M211.698 120.533C210.823 123.984 209.951 127.444 209.082 130.914L217.896 132.518" stroke="#5F9C2F" stroke-width="1.31" stroke-linecap="round" stroke-linejoin="round"/>
<path d="M203.613 126.229C202.15 129.961 200.992 133.804 200.15 137.723C205.504 138.442 210.812 139.474 216.046 140.813" stroke="#5F9C2F" stroke-width="1.31" stroke-linecap="round" stroke-linejoin="round"/>
<path d="M192.265 134.323C191.096 138.194 190.26 142.158 189.768 146.172C191.113 146.559 192.529 146.63 193.906 146.382C197.049 146.12 200.212 146.252 203.322 146.774" stroke="#5F9C2F" stroke-width="1.31" stroke-linecap="round" stroke-linejoin="round"/>
<path d="M181.574 146.6C181.191 149.683 181.455 152.812 182.349 155.788C182.411 156.088 182.56 156.364 182.777 156.581C183.114 156.782 183.513 156.853 183.898 156.782L193.46 156.107" stroke="#5F9C2F" stroke-width="1.31" stroke-linecap="round" stroke-linejoin="round"/>
<path d="M128.382 153.678C119.204 150.51 109.11 149.112 99.1036 150.544C89.0971 151.976 79.1985 156.332 71.94 163.411C78.721 162.825 85.4516 163.563 91.7153 165.578C97.8772 167.575 103.439 170.759 109.222 173.487C115.005 176.215 121.263 178.499 127.927 178.486C132.222 178.519 136.529 177.375 140.337 175.191C143.216 173.472 147.821 169.654 147.503 166.107C147.25 163.426 143.355 161.64 141.376 160.226C137.429 157.46 133.056 155.257 128.382 153.678V153.678Z" fill="#437E14"/>
<path d="M77.378 161.029C86.7126 157.893 105.689 159.256 109.314 159.47C113.201 159.774 117.042 160.33 120.811 161.133C129.023 162.721 137.855 164.618 143 170.702" stroke="#5F9C2F" stroke-width="1.31" stroke-linecap="round" stroke-linejoin="round"/>
<path d="M92.7804 155.304C93.9712 156.558 95.1731 157.814 96.3713 159.064C96.4808 159.163 96.5514 159.295 96.5729 159.441C96.5777 159.681 96.3224 159.861 96.1044 159.986L91.1384 162.861" stroke="#5F9C2F" stroke-width="1.31" stroke-linecap="round" stroke-linejoin="round"/>
<path d="M100.26 152.569C102.332 154.745 104.405 156.928 106.479 159.12L99.9702 164.118" stroke="#5F9C2F" stroke-width="1.31" stroke-linecap="round" stroke-linejoin="round"/>
<path d="M109.061 153.288C111.72 155.416 114.177 157.759 116.407 160.295C112.352 163.142 108.458 166.201 104.745 169.455" stroke="#5F9C2F" stroke-width="1.31" stroke-linecap="round" stroke-linejoin="round"/>
<path d="M121.453 154.369C123.93 156.728 126.172 159.3 128.156 162.057C127.219 162.924 126.1 163.59 124.885 164.001C122.235 165.167 119.724 166.632 117.41 168.363" stroke="#5F9C2F" stroke-width="1.31" stroke-linecap="round" stroke-linejoin="round"/>
<path d="M134.965 158.83C136.493 160.946 137.514 163.375 137.965 165.963C138.034 166.212 138.022 166.481 137.931 166.735C137.737 167.029 137.443 167.255 137.102 167.368L129.087 171.004" stroke="#5F9C2F" stroke-width="1.31" stroke-linecap="round" stroke-linejoin="round"/>
<path d="M204.829 140.777C203.634 142.017 201.942 142.833 201.173 144.366C200.623 145.476 200.648 146.768 200.535 147.999C200.094 152.844 200.302 156.252 197.284 160.111C192.649 166.031 189.542 170.527 183.569 175.095C178.327 179.097 167.185 184.346 160.651 185.315C154.116 186.284 147.335 184.437 141.144 181.939C137.001 180.259 128.358 170.841 124.704 168.269C119.391 164.537 119.6 167.084 115.263 162.248C114.215 161.087 113.12 159.435 113.943 158.11C114.727 156.856 116.308 153.936 117.198 152.8C117.534 152.314 119.244 150.326 119.382 149.748C122.481 136.841 129.53 124.736 141.324 118.646C153.118 112.555 167.899 112.622 180.575 116.656C184.467 117.894 191.506 125.982 191.506 125.982C193.84 127.124 196.196 127.258 198.658 127.851C204.107 129.094 209.806 135.586 204.829 140.777Z" fill="#FFCA00"/>
<path d="M192.721 155.864C188.647 162.322 180.279 164.261 173.948 168.528C170.046 171.158 166.856 174.746 162.898 177.302C161.692 178.152 160.318 178.735 158.868 179.01C156.686 179.3 154.49 178.478 152.461 177.582C148.202 175.815 144.183 173.516 140.501 170.74C132.484 164.436 127.289 155.053 119.786 148.251C119.666 148.724 119.542 149.204 119.428 149.681C119.314 150.159 117.634 152.284 117.244 152.733C116.333 153.899 114.756 156.813 113.989 158.043C113.166 159.368 114.261 161.02 115.309 162.181C119.646 167.017 119.437 164.47 124.75 168.202C128.374 170.753 137.047 180.192 141.19 181.872C147.393 184.352 154.089 186.22 160.697 185.248C167.304 184.276 178.368 179.037 183.615 175.028C189.588 170.46 192.695 165.964 197.33 160.044C200.331 156.21 200.123 152.801 200.581 147.932C200.694 146.701 200.669 145.41 201.219 144.299C201.988 142.766 203.68 141.95 204.875 140.711C205.403 140.152 205.841 139.517 206.175 138.825C198.099 138.087 195.923 150.787 192.721 155.864Z" fill="#FFB400"/>
<path d="M182.87 156.557C181.395 158.003 179.608 159.091 177.646 159.738" stroke="#FF9100" stroke-width="1.63" stroke-linecap="round" stroke-linejoin="round"/>
<path d="M187.305 156.787C186.296 157.625 185.29 158.475 184.277 159.319" stroke="#FF9100" stroke-width="1.63" stroke-linecap="round" stroke-linejoin="round"/>
<path d="M194.715 156.941C193.866 158.166 192.821 159.243 191.621 160.129" stroke="#FF9100" stroke-width="1.63" stroke-linecap="round" stroke-linejoin="round"/>
<path d="M182.955 164.974C182.122 165.675 181.294 166.369 180.46 167.059" stroke="#FF9100" stroke-width="1.63" stroke-linecap="round" stroke-linejoin="round"/>
<path d="M188.328 165.286L186.213 167.417" stroke="#FF9100" stroke-width="1.63" stroke-linecap="round" stroke-linejoin="round"/>
<path d="M175.824 172.394C174.658 173.542 173.371 174.559 171.985 175.427" stroke="#FF9100" stroke-width="1.63" stroke-linecap="round" stroke-linejoin="round"/>
<path d="M173.306 167.574C172.024 168.822 170.619 169.936 169.112 170.9" stroke="#FF9100" stroke-width="1.63" stroke-linecap="round" stroke-linejoin="round"/>
<path d="M162.234 175.714C160.771 176.389 159.127 176.566 157.553 176.22" stroke="#FF9100" stroke-width="1.63" stroke-linecap="round" stroke-linejoin="round"/>
<path d="M167.211 179.439C165.777 180.647 163.943 181.275 162.07 181.198" stroke="#FF9100" stroke-width="1.63" stroke-linecap="round" stroke-linejoin="round"/>
<path d="M184.096 170.685C182.793 171.779 181.488 172.87 180.18 173.961" stroke="#FF9100" stroke-width="1.63" stroke-linecap="round" stroke-linejoin="round"/>
<path d="M166.165 166.286C165.882 166.651 165.52 166.948 165.106 167.153C164.693 167.359 164.238 167.469 163.776 167.475" stroke="#FF9100" stroke-width="1.63" stroke-linecap="round" stroke-linejoin="round"/>
<path d="M133.387 173.176L136.446 175.48" stroke="#FF9100" stroke-width="1.63" stroke-linecap="round" stroke-linejoin="round"/>
<path d="M143.262 175.495C144.657 176.779 146.445 177.555 148.336 177.699" stroke="#FF9100" stroke-width="1.63" stroke-linecap="round" stroke-linejoin="round"/>
<path d="M136.297 170.696L137.835 171.836" stroke="#FF9100" stroke-width="1.63" stroke-linecap="round" stroke-linejoin="round"/>
<path d="M141.781 167.945C142.896 169.153 144.286 170.074 145.834 170.629" stroke="#FF9100" stroke-width="1.63" stroke-linecap="round" stroke-linejoin="round"/>
<path d="M149.178 181.123L152.095 181.707" stroke="#FF9100" stroke-width="1.63" stroke-linecap="round" stroke-linejoin="round"/>
<path d="M121.578 161.532C122.427 162.658 123.454 163.638 124.619 164.434" stroke="#FF9100" stroke-width="1.63" stroke-linecap="round" stroke-linejoin="round"/>
<path d="M120.235 152.65L122.103 155.328" stroke="#FF9100" stroke-width="1.63" stroke-linecap="round" stroke-linejoin="round"/>
<path d="M125.946 160.595L128.634 163.801" stroke="#FF9100" stroke-width="1.63" stroke-linecap="round" stroke-linejoin="round"/>
<path d="M156.783 123.288C156.724 123.305 156.662 123.311 156.601 123.304C156.54 123.297 156.481 123.279 156.427 123.249C156.373 123.22 156.326 123.18 156.288 123.132C156.249 123.084 156.221 123.029 156.204 122.969C156.179 122.881 156.18 122.787 156.208 122.7C156.236 122.612 156.289 122.535 156.361 122.478C156.433 122.42 156.52 122.386 156.612 122.378C156.703 122.37 156.795 122.389 156.875 122.434C156.956 122.478 157.022 122.545 157.064 122.626C157.107 122.708 157.124 122.8 157.114 122.891C157.104 122.983 157.067 123.069 157.009 123.14C156.95 123.21 156.871 123.262 156.783 123.288Z" fill="#FFD6BA"/>
<path d="M164.665 124.072C164.478 124.124 164.28 124.119 164.096 124.058C163.912 123.997 163.75 123.883 163.63 123.73C163.511 123.577 163.439 123.392 163.425 123.199C163.41 123.005 163.453 122.812 163.549 122.643C163.644 122.474 163.787 122.337 163.96 122.249C164.133 122.162 164.328 122.127 164.521 122.15C164.713 122.173 164.895 122.252 165.042 122.378C165.19 122.504 165.297 122.671 165.35 122.858C165.385 122.982 165.395 123.113 165.38 123.242C165.364 123.37 165.324 123.495 165.26 123.608C165.197 123.721 165.111 123.82 165.009 123.899C164.907 123.979 164.79 124.038 164.665 124.072Z" fill="#FFD6BA"/>
<path d="M159.512 127.321C159.426 127.345 159.334 127.334 159.257 127.291C159.179 127.247 159.122 127.175 159.097 127.089C159.073 127.003 159.084 126.912 159.127 126.834C159.171 126.756 159.243 126.699 159.329 126.675C159.415 126.65 159.507 126.661 159.584 126.705C159.662 126.748 159.719 126.821 159.744 126.906C159.768 126.992 159.757 127.084 159.713 127.162C159.67 127.239 159.597 127.297 159.512 127.321Z" fill="#FFD6BA"/>
<path d="M167.069 132.573C166.821 132.631 166.56 132.591 166.341 132.461C166.121 132.332 165.96 132.123 165.891 131.877C165.822 131.632 165.85 131.37 165.97 131.145C166.089 130.92 166.291 130.75 166.533 130.669C166.781 130.612 167.041 130.652 167.261 130.781C167.48 130.911 167.641 131.12 167.71 131.365C167.779 131.61 167.751 131.872 167.632 132.097C167.512 132.322 167.311 132.493 167.069 132.573Z" fill="#FFD6BA"/>
<path d="M173.516 124.843C173.317 124.9 173.105 124.896 172.907 124.832C172.71 124.769 172.536 124.648 172.407 124.485C172.279 124.322 172.201 124.125 172.185 123.918C172.168 123.712 172.213 123.505 172.314 123.323C172.415 123.142 172.567 122.995 172.752 122.901C172.937 122.806 173.145 122.768 173.351 122.792C173.557 122.816 173.751 122.901 173.909 123.035C174.067 123.17 174.182 123.348 174.239 123.547C174.313 123.815 174.279 124.101 174.143 124.344C174.008 124.586 173.783 124.766 173.516 124.843Z" fill="#FFD6BA"/>
<path d="M161.034 119.462C160.893 119.508 160.741 119.509 160.599 119.467C160.457 119.426 160.331 119.342 160.237 119.227C160.143 119.113 160.085 118.972 160.072 118.825C160.059 118.677 160.09 118.529 160.162 118.4C160.235 118.27 160.344 118.165 160.476 118.099C160.609 118.032 160.758 118.007 160.905 118.027C161.052 118.046 161.19 118.11 161.3 118.208C161.411 118.307 161.489 118.437 161.525 118.581C161.57 118.762 161.544 118.955 161.453 119.118C161.362 119.282 161.212 119.405 161.034 119.462Z" fill="#FFD6BA"/>
<path d="M146.696 124.114C146.641 124.131 146.583 124.131 146.528 124.113C146.473 124.096 146.425 124.063 146.389 124.019C146.353 123.974 146.331 123.919 146.327 123.862C146.322 123.805 146.334 123.748 146.363 123.698C146.391 123.648 146.433 123.607 146.484 123.581C146.535 123.555 146.593 123.546 146.65 123.553C146.707 123.56 146.761 123.584 146.804 123.622C146.847 123.66 146.878 123.71 146.892 123.765C146.911 123.837 146.902 123.914 146.865 123.979C146.828 124.045 146.768 124.093 146.696 124.114Z" fill="#FFD6BA"/>
<path d="M140.953 129.755C140.771 129.806 140.577 129.802 140.396 129.744C140.215 129.685 140.056 129.574 139.939 129.425C139.821 129.276 139.75 129.095 139.735 128.906C139.721 128.716 139.762 128.527 139.855 128.361C139.948 128.196 140.088 128.061 140.257 127.975C140.426 127.889 140.617 127.855 140.806 127.877C140.994 127.899 141.172 127.977 141.317 128.101C141.461 128.224 141.566 128.388 141.617 128.57C141.686 128.815 141.655 129.078 141.53 129.3C141.406 129.522 141.198 129.686 140.953 129.755Z" fill="#FFD6BA"/>
<path d="M147.75 129.173C147.628 129.206 147.498 129.203 147.378 129.163C147.257 129.123 147.151 129.048 147.073 128.948C146.995 128.848 146.949 128.727 146.939 128.6C146.93 128.474 146.958 128.347 147.021 128.237C147.083 128.126 147.177 128.037 147.29 127.98C147.403 127.922 147.531 127.9 147.657 127.915C147.783 127.93 147.901 127.982 147.998 128.065C148.094 128.147 148.164 128.256 148.199 128.378C148.222 128.46 148.228 128.545 148.218 128.63C148.208 128.714 148.181 128.795 148.14 128.869C148.098 128.943 148.042 129.008 147.975 129.06C147.908 129.112 147.832 129.15 147.75 129.173Z" fill="#FFD6BA"/>
<path d="M155.001 130.079C154.868 130.115 154.725 130.096 154.605 130.028C154.485 129.959 154.397 129.846 154.36 129.713C154.323 129.58 154.34 129.438 154.407 129.317C154.475 129.196 154.587 129.107 154.72 129.069C154.786 129.049 154.855 129.043 154.924 129.051C154.993 129.059 155.059 129.08 155.119 129.114C155.18 129.148 155.232 129.194 155.275 129.249C155.317 129.303 155.348 129.366 155.365 129.433C155.403 129.567 155.385 129.71 155.317 129.831C155.249 129.953 155.135 130.042 155.001 130.079Z" fill="#FFD6BA"/>
<path d="M141.053 137.798C140.837 137.861 140.607 137.858 140.392 137.79C140.177 137.722 139.987 137.591 139.847 137.415C139.706 137.239 139.621 137.025 139.603 136.8C139.584 136.576 139.632 136.351 139.741 136.154C139.851 135.957 140.016 135.797 140.216 135.694C140.417 135.591 140.643 135.55 140.867 135.576C141.091 135.602 141.302 135.693 141.474 135.84C141.645 135.986 141.769 136.179 141.831 136.396C141.912 136.685 141.876 136.995 141.731 137.257C141.585 137.52 141.342 137.714 141.053 137.798Z" fill="#FFD6BA"/>
<path d="M131.513 139.315C131.441 139.335 131.365 139.34 131.291 139.33C131.217 139.321 131.145 139.297 131.08 139.259C131.015 139.222 130.958 139.172 130.912 139.113C130.866 139.053 130.832 138.986 130.813 138.913C130.793 138.841 130.788 138.765 130.798 138.691C130.807 138.616 130.831 138.545 130.869 138.48C130.906 138.415 130.956 138.358 131.015 138.312C131.075 138.266 131.142 138.232 131.215 138.213C131.287 138.193 131.363 138.188 131.437 138.197C131.512 138.207 131.583 138.231 131.648 138.269C131.713 138.306 131.771 138.356 131.816 138.415C131.862 138.474 131.896 138.542 131.915 138.615C131.935 138.687 131.94 138.763 131.931 138.837C131.921 138.911 131.897 138.983 131.86 139.048C131.822 139.113 131.772 139.17 131.713 139.216C131.654 139.262 131.586 139.296 131.513 139.315Z" fill="#FFD6BA"/>
<path d="M182.203 132.076C182.021 132.128 181.829 132.124 181.649 132.067C181.469 132.009 181.311 131.899 181.194 131.751C181.076 131.603 181.006 131.424 180.991 131.236C180.975 131.048 181.016 130.859 181.109 130.695C181.201 130.53 181.34 130.396 181.508 130.311C181.676 130.225 181.866 130.191 182.053 130.213C182.241 130.236 182.417 130.313 182.56 130.436C182.704 130.559 182.807 130.722 182.858 130.903C182.892 131.023 182.903 131.149 182.889 131.273C182.874 131.397 182.836 131.517 182.775 131.626C182.714 131.735 182.632 131.831 182.534 131.908C182.436 131.985 182.323 132.042 182.203 132.076Z" fill="#FFD6BA"/>
<path d="M110.618 146.456C110.342 149.25 110.337 152.422 112.297 154.424C113.632 155.77 115.617 158.062 117.492 158.391C119.951 158.816 134.224 163.336 135.489 148.755C135.629 147.268 135.402 145.771 134.826 144.393C134.272 143.14 133.537 141.975 132.645 140.934C126.42 134.266 111.595 136.751 110.618 146.456Z" fill="#C12E66"/>
<g style="mix-blend-mode:multiply" opacity="0.38">
<path d="M131.726 142.029C132.102 143.555 132.156 145.143 131.884 146.691C131.612 148.24 131.02 149.714 130.145 151.02C129.254 152.315 128.066 153.377 126.681 154.119C125.295 154.861 123.752 155.26 122.181 155.285C120.895 155.211 119.614 155.071 118.343 154.863C117.157 154.744 115.965 154.688 114.773 154.695C114.111 154.645 113.447 154.746 112.83 154.989C114.117 156.323 115.822 158.023 117.436 158.35C119.895 158.775 134.168 163.294 135.433 148.713C135.573 147.227 135.345 145.729 134.77 144.352C134.216 143.099 133.481 141.933 132.589 140.893C131.804 140.065 130.888 139.37 129.88 138.837L129.755 138.831C130.797 139.605 131.503 140.75 131.726 142.029Z" fill="#C12E66"/>
</g>
<g style="mix-blend-mode:multiply" opacity="0.38">
<path d="M123.643 138.765C124.889 138.93 126.145 139.018 127.402 139.029C127.69 139.011 127.98 139.048 128.255 139.136C128.395 139.177 128.52 139.256 128.618 139.365C128.715 139.473 128.78 139.607 128.805 139.75C128.81 139.91 128.771 140.067 128.691 140.205C128.611 140.343 128.494 140.455 128.353 140.53C127.811 140.811 127.199 140.929 126.592 140.871L125.425 140.874C124.655 140.916 123.883 140.831 123.141 140.622C122.77 140.513 122.432 140.314 122.156 140.044C121.879 139.774 121.673 139.44 121.555 139.072C121.127 137.518 123.001 138.677 123.643 138.765Z" fill="#C12E66"/>
</g>
<path d="M115.963 145.598C115.806 146.478 115.429 147.3 115.206 148.157C115.001 148.962 114.91 149.792 114.935 150.623C115.022 151.157 114.9 151.704 114.593 152.15C114.374 152.333 114.099 152.436 113.814 152.444C113.528 152.451 113.248 152.363 113.019 152.192C112.589 151.823 112.276 151.335 112.121 150.79C111.452 149.022 110.939 145.362 112.448 143.842C113.139 143.302 113.966 142.964 114.838 142.864C115.99 142.967 116.111 144.699 115.963 145.598Z" fill="#FFE4E1"/>
<path d="M136.987 143.154C137.65 145.876 138.647 148.874 141.222 150.105C142.929 150.928 145.568 152.431 147.435 152.114C149.904 151.7 164.838 151.197 161.194 137.021C160.829 135.576 160.117 134.242 159.12 133.134C158.181 132.138 157.1 131.288 155.912 130.61C147.816 126.39 134.675 133.681 136.987 143.154Z" fill="#C12E66"/>
<g style="mix-blend-mode:multiply" opacity="0.38">
<path d="M155.405 131.946C156.266 133.26 156.844 134.739 157.104 136.288C157.363 137.838 157.297 139.425 156.911 140.947C156.498 142.465 155.729 143.862 154.668 145.023C153.607 146.185 152.284 147.076 150.81 147.624C149.594 148.039 148.314 148.201 147.055 148.498C145.797 148.796 144.777 149.172 143.649 149.563C143.028 149.733 142.452 150.035 141.958 150.448C143.626 151.279 145.803 152.355 147.417 152.084C149.886 151.67 164.821 151.167 161.176 136.991C160.811 135.546 160.099 134.212 159.103 133.103C158.163 132.108 157.082 131.258 155.894 130.58C154.875 130.054 153.778 129.693 152.646 129.511L152.53 129.505C153.766 129.92 154.795 130.794 155.405 131.946Z" fill="#C12E66"/>
</g>
<g style="mix-blend-mode:multiply" opacity="0.38">
<path d="M146.666 131.564C147.894 131.31 149.105 130.977 150.291 130.567C150.561 130.456 150.848 130.391 151.139 130.376C151.285 130.371 151.429 130.406 151.556 130.476C151.683 130.547 151.79 130.65 151.863 130.776C151.917 130.926 151.929 131.088 151.898 131.245C151.867 131.402 151.794 131.547 151.686 131.665C151.266 132.099 150.734 132.408 150.149 132.557L149.041 132.939C148.332 133.239 147.577 133.419 146.808 133.47C146.422 133.491 146.037 133.417 145.686 133.254C145.335 133.091 145.03 132.845 144.797 132.537C143.914 131.222 146.062 131.689 146.666 131.564Z" fill="#C12E66"/>
</g>
<path d="M141.729 140.561C141.881 141.436 141.8 142.339 141.874 143.23C141.956 144.055 142.148 144.865 142.445 145.639C142.708 146.112 142.775 146.669 142.632 147.191C142.488 147.439 142.263 147.63 141.995 147.733C141.727 147.836 141.432 147.845 141.159 147.758C140.618 147.555 140.148 147.198 139.809 146.73C138.594 145.284 136.887 142.002 137.817 140.068C138.292 139.329 138.961 138.733 139.75 138.346C140.882 138.071 141.578 139.667 141.729 140.561Z" fill="#FFE4E1"/>
<path d="M124.214 139.939C124.654 132.539 127.104 125.398 131.301 119.286C132.339 117.926 133.273 116.49 134.098 114.991C135.167 112.829 135.583 110.402 135.294 108.007C137.121 112.838 140.966 116.597 143.563 121.059C145.784 124.792 146.987 129.042 147.053 133.385" stroke="#3E5936" stroke-width="2" stroke-linecap="round" stroke-linejoin="round"/>
<path d="M150.374 109.546C155.974 111.053 161.401 114.385 163.913 119.615C162.229 117.482 159.354 116.681 156.642 116.515C153.93 116.349 151.203 116.712 148.51 116.354C143.392 115.679 137.595 112.195 134.248 108.305C135.622 107.193 140.4 108.141 142.216 108.275C144.969 108.439 147.701 108.864 150.374 109.546Z" fill="#3E5936"/>
<path d="M145.475 102.564C147.873 101.81 150.41 101.606 152.898 101.968C155.386 102.331 157.76 103.25 159.843 104.658C158.788 104.255 157.651 104.116 156.53 104.253C155.409 104.391 154.338 104.8 153.412 105.445C151.566 106.554 149.998 108.111 148.063 109.051C144.373 110.807 138.672 110.625 134.324 108.945C134.59 107.395 138.206 105.974 139.455 105.252C141.351 104.125 143.371 103.223 145.475 102.564Z" fill="#3E5936"/>
<path d="M152.622 91.8088L183.223 80.8828C184.717 80.3494 186.36 81.128 186.893 82.6218L197.819 113.223C198.353 114.717 197.574 116.36 196.08 116.893L165.479 127.819C163.985 128.353 162.342 127.574 161.809 126.08L150.883 95.4792C150.349 93.9854 151.128 92.3421 152.622 91.8088Z" fill="#625ABB" stroke="white" stroke-width="3"/>
<g clip-path="url(#clip0_1008_1437)">
<path d="M183.12 96.6949C178.497 92.0644 174.357 97.025 174.357 97.025C174.025 97.3883 173.597 97.653 173.122 97.7892L171.751 98.1138C171.267 98.2043 170.767 98.1615 170.307 97.9901C170.307 97.9901 164.381 95.4057 162.324 101.618C161.133 105.513 161.375 109.691 163.009 113.41C163.583 114.796 164.586 115.581 166.028 115.109C167.471 114.636 169.744 110.124 169.744 110.124C169.983 109.712 170.372 109.406 170.831 109.27L178.921 107.355C179.389 107.271 179.871 107.368 180.267 107.627C180.267 107.627 184.305 110.651 185.831 110.421C187.358 110.191 187.877 109.045 187.769 107.549C187.555 103.494 185.9 99.6525 183.095 96.7009L183.12 96.6949ZM170.74 104.281L169.004 104.692L169.395 106.344C169.164 106.593 168.86 106.764 168.527 106.832C168.378 106.874 168.222 106.887 168.068 106.869C167.915 106.852 167.766 106.804 167.632 106.729L167.248 105.108L165.607 105.496C165.392 105.317 165.24 105.076 165.171 104.806C165.067 104.47 165.065 104.11 165.165 103.771L166.901 103.36L166.496 101.646C166.738 101.458 167.021 101.328 167.323 101.267C167.631 101.205 167.949 101.203 168.258 101.262L168.656 102.945L170.298 102.556C170.527 102.75 170.699 103.002 170.796 103.284C170.862 103.615 170.845 103.957 170.746 104.28L170.74 104.281ZM179.132 104.262C178.861 104.326 178.577 104.31 178.316 104.214C178.055 104.119 177.83 103.949 177.667 103.726C177.505 103.504 177.413 103.238 177.404 102.963C177.395 102.688 177.468 102.415 177.615 102.181C177.762 101.946 177.976 101.759 178.23 101.644C178.483 101.529 178.766 101.49 179.04 101.534C179.315 101.577 179.57 101.7 179.774 101.886C179.977 102.073 180.12 102.316 180.183 102.584C180.226 102.762 180.233 102.946 180.203 103.127C180.174 103.308 180.108 103.482 180.01 103.638C179.912 103.794 179.785 103.929 179.634 104.036C179.483 104.144 179.313 104.22 179.132 104.262ZM178.25 100.536C177.979 100.601 177.695 100.584 177.434 100.489C177.174 100.393 176.948 100.223 176.785 100.001C176.623 99.7778 176.531 99.512 176.522 99.2369C176.513 98.9618 176.586 98.6896 176.733 98.4549C176.88 98.2202 177.094 98.0334 177.348 97.9182C177.602 97.803 177.884 97.7646 178.158 97.8077C178.433 97.8509 178.689 97.9737 178.892 98.1606C179.095 98.3476 179.238 98.5903 179.301 98.858C179.344 99.0358 179.351 99.2205 179.321 99.4013C179.292 99.5822 179.226 99.7556 179.128 99.9117C179.031 100.068 178.903 100.203 178.752 100.311C178.601 100.418 178.431 100.494 178.25 100.536ZM182.139 101.727C181.868 101.792 181.584 101.775 181.323 101.68C181.063 101.584 180.837 101.414 180.674 101.192C180.512 100.969 180.421 100.703 180.411 100.428C180.402 100.153 180.476 99.8806 180.623 99.6459C180.77 99.4112 180.983 99.2244 181.237 99.1092C181.491 98.994 181.773 98.9556 182.048 98.9987C182.322 99.0419 182.578 99.1647 182.781 99.3516C182.984 99.5386 183.127 99.7813 183.19 100.049C183.233 100.227 183.24 100.412 183.21 100.592C183.181 100.773 183.115 100.947 183.017 101.103C182.92 101.259 182.792 101.394 182.641 101.502C182.49 101.609 182.32 101.686 182.139 101.727Z" fill="white"/>
</g>
<path d="M264.459 143.484C266.208 145.287 272.482 147.172 276.304 148.198C278.783 149.054 281.433 149.339 284.056 149.031C285.363 148.835 286.572 148.207 287.488 147.249C288.403 146.29 288.972 145.057 289.101 143.749C289.001 142.647 288.582 141.601 287.894 140.739C287.207 139.878 286.28 139.236 285.226 138.893C283.103 138.236 280.861 138.02 278.637 138.261C273.436 138.488 267.534 139.247 264.459 143.484Z" fill="#3E5936"/>
<path d="M54.0243 142.684C52.8443 140.466 47.3405 136.913 43.9538 134.867C41.8093 133.356 39.3424 132.347 36.7369 131.915C35.4269 131.741 34.0911 132.008 32.9456 132.675C31.8001 133.341 30.9117 134.368 30.4239 135.589C30.214 136.676 30.3267 137.796 30.7481 138.815C31.1696 139.834 31.8818 140.707 32.799 141.33C34.6562 142.551 36.7508 143.38 38.9535 143.766C44.0136 144.992 49.8945 145.901 54.0243 142.684Z" fill="#3E5936"/>
<path d="M254.901 134.776C256.491 134.942 260.324 133.302 262.609 132.242C264.169 131.648 265.58 130.705 266.735 129.484C267.293 128.855 267.627 128.055 267.683 127.213C267.738 126.371 267.513 125.537 267.042 124.846C266.543 124.348 265.912 124.009 265.224 123.869C264.536 123.728 263.822 123.794 263.167 124.056C261.862 124.602 260.679 125.412 259.692 126.437C257.245 128.672 254.673 131.452 254.901 134.776Z" fill="#BFD352"/>
<path d="M60.7892 153.702C59.3078 153.101 55.1699 153.613 52.6809 153.997C51.017 154.135 49.4005 154.649 47.9517 155.501C47.2409 155.951 46.6979 156.627 46.4107 157.42C46.1235 158.213 46.1089 159.077 46.3689 159.872C46.7102 160.489 47.2227 160.99 47.8445 161.316C48.4663 161.641 49.1705 161.777 49.8726 161.706C51.2777 161.544 52.639 161.094 53.8723 160.383C56.8434 158.916 60.0861 156.959 60.7892 153.702Z" fill="#BFD352"/>
<path d="M245.067 149.36C245.705 151.298 249.618 154.903 252.046 157.009C253.553 158.515 255.388 159.664 257.414 160.371C258.438 160.692 259.545 160.662 260.554 160.287C261.563 159.912 262.416 159.213 262.975 158.304C263.293 157.463 263.358 156.55 263.162 155.676C262.966 154.803 262.516 154.005 261.869 153.38C260.551 152.146 258.989 151.192 257.279 150.578C253.399 148.897 248.818 147.356 245.067 149.36Z" fill="#BFD352"/>
<path d="M74.2854 142.421C74.2107 140.382 71.4515 135.832 69.7039 133.135C68.6737 131.27 67.2298 129.657 65.48 128.416C64.5849 127.823 63.514 127.544 62.4404 127.625C61.3668 127.705 60.3533 128.139 59.5636 128.858C59.0242 129.577 58.7085 130.436 58.6546 131.33C58.6007 132.224 58.811 133.115 59.2599 133.896C60.1832 135.447 61.419 136.796 62.891 137.861C66.1524 140.553 70.1259 143.305 74.2854 142.421Z" fill="#BFD352"/>
<defs>
<clipPath id="clip0_1008_1437">
<rect width="26" height="17" fill="white" transform="translate(159.392 99.2229) rotate(-13.317)"/>
</clipPath>
</defs>
</svg>
