<svg width="316" height="200" viewBox="0 0 316 200" fill="none" xmlns="http://www.w3.org/2000/svg">
<rect y="200" width="200" height="316" rx="12" transform="rotate(-90 0 200)" fill="#BFD352"/>
<mask id="mask0_1008_1438" style="mask-type:alpha" maskUnits="userSpaceOnUse" x="0" y="0" width="316" height="200">
<rect y="200" width="200" height="316" rx="12" transform="rotate(-90 0 200)" fill="#BFD352"/>
</mask>
<g mask="url(#mask0_1008_1438)">
<path d="M55 95.1064C34.6 109.506 6.16667 105.773 -5.5 102.106L-10 224.535H324.5C326.333 210.035 328.9 128.306 324.5 119.106C319 107.606 301 102.106 272.5 111.606C244 121.106 226 102.106 170 79.1064C114 56.1064 80.5 77.1064 55 95.1064Z" fill="#90A22F"/>
<path d="M-9 79.0713C-4.16667 84.0713 9.8 93.2713 27 90.0713C48.5 86.0713 59 42.5713 111.5 35.0713C164 27.5713 190.5 61.0713 224.5 85.0713C258.5 109.071 272.5 97.0713 286 93.5713C299.5 90.0713 318 94.0713 322.5 103.571" stroke="#FEFFB5" stroke-width="2"/>
<path d="M166.523 136.157C163.973 132.027 161.166 128.062 158.12 124.284C157.626 123.66 157.095 123.048 156.583 122.425C150.48 115.174 143.618 108.6 136.113 102.813C135.525 102.346 134.94 101.936 134.342 101.47C129.645 97.924 124.738 94.6649 119.647 91.7105C119.066 91.3573 118.456 91.0059 117.857 90.6727C108.862 85.6348 99.4144 81.4512 89.6384 78.1767C88.9984 77.9504 88.3401 77.7348 87.7002 77.5085C81.0671 75.3707 74.3085 73.6442 67.4628 72.3387L65.467 71.9679C59.7729 70.9454 54.0293 70.2215 48.2596 69.7993C47.6301 69.7431 47.0011 69.6963 46.3545 69.6696C37.0233 69.0632 27.6566 69.2923 18.3662 70.3541C17.5819 70.4023 16.7933 70.5361 16.0213 70.6309L16.099 70.8158C18.131 75.9996 20.5226 81.035 23.2564 85.8855C23.5246 86.3907 23.8211 86.8942 24.1082 87.3983C27.481 93.2068 31.2905 98.7505 35.5037 103.982C35.902 104.495 36.3225 105.01 36.7653 105.526C41.0128 110.673 45.605 115.525 50.5101 120.049L51.9975 121.409C56.9642 125.863 62.2018 130.005 67.68 133.812C68.2247 134.186 68.7711 134.589 69.3336 134.943C71.9539 136.68 74.6404 138.412 77.3795 140.074C78.0594 140.488 78.7321 140.94 79.4263 141.277C84.1692 144.059 89.0683 146.604 94.1236 148.911C96.6708 150.073 99.9678 151.398 103.852 152.858C104.822 153.206 105.791 153.545 106.761 153.893C115.083 156.836 123.573 159.279 132.186 161.211C133.572 161.543 134.955 161.819 136.338 162.085C151.448 165.008 165.53 165.405 170.666 159.152C170.922 158.871 171.151 158.568 171.351 158.246C174.109 153.884 173.178 146.913 166.523 136.157Z" fill="#5F9C2F"/>
<path d="M171.387 158.216C171.358 158.092 171.3 157.977 171.218 157.88C171.136 157.783 171.033 157.707 170.917 157.657C165.06 154.962 159.162 152.162 153.222 149.257C152.665 148.988 152.127 148.717 151.59 148.475C145.135 145.311 138.655 142.041 132.149 138.666L130.466 137.82C127.811 136.447 125.143 135.026 122.474 133.568L120.659 132.598C112.931 128.463 105.181 124.196 97.4113 119.797L95.3484 118.643C88.4267 114.673 81.5055 110.608 74.5848 106.448L72.5557 105.226C66.265 101.438 59.9844 97.5587 53.7139 93.5866C52.9945 93.147 52.2951 92.7251 51.5745 92.2666C40.3901 85.2003 29.3212 77.9025 18.3678 70.3731C17.5834 70.4212 16.7948 70.555 16.0228 70.6498L16.1006 70.8347C22.7499 75.416 29.4445 79.909 36.1842 84.314L38.0821 85.5633C42.7279 88.6171 47.3997 91.6313 52.0852 94.5592C52.5101 94.8367 52.9634 95.1124 53.3871 95.371C56.4071 97.2819 59.4448 99.1727 62.4624 101.046L64.4348 102.272C71.1186 106.383 77.8122 110.399 84.5159 114.319C85.1474 114.716 85.796 115.084 86.4252 115.444C92.0211 118.73 97.5926 121.927 103.14 125.032C103.788 125.401 104.437 125.769 105.103 126.117C108.422 127.955 111.727 129.76 115.016 131.531C115.578 131.867 116.138 132.183 116.715 132.47C121.352 134.975 125.981 137.435 130.6 139.852L130.647 139.849C133.822 141.494 136.998 143.117 140.176 144.718L141.935 145.559C147.299 148.265 152.646 150.889 157.975 153.433C158.572 153.729 159.176 153.995 159.753 154.273C163.191 155.883 166.602 157.473 169.987 159.042C170.193 159.137 170.425 159.159 170.645 159.106C170.884 159.051 171.093 158.906 171.227 158.7C171.338 158.564 171.395 158.391 171.387 158.216Z" fill="#BFD352"/>
<path d="M53.9197 94.4751C53.8539 94.1756 53.7975 93.8755 53.7105 93.5394C52.0283 85.6083 50.2009 77.6292 48.2358 69.7249C47.6063 69.6687 46.9774 69.622 46.3307 69.5953C48.1746 77.0706 49.941 84.674 51.5132 92.204C51.693 92.9707 51.8623 93.7193 52.0233 94.4872C52.0285 94.5723 52.0337 94.6573 52.039 94.7424C52.1119 94.9568 52.2592 95.1379 52.4542 95.253C52.6492 95.3681 52.879 95.4094 53.1019 95.3696C53.1686 95.3632 53.2325 95.3396 53.2874 95.3012C53.4784 95.2703 53.6503 95.1674 53.7678 95.0138C53.8854 94.8602 53.9397 94.6675 53.9197 94.4751Z" fill="#BFD352"/>
<path d="M74.587 106.486L74.5818 106.401C72.7752 94.9095 70.3914 83.5161 67.4395 72.2642L65.4437 71.8934C68.3747 82.8611 70.7475 93.9705 72.5527 105.179C72.6496 105.675 72.7241 106.117 72.7956 106.662C72.842 106.881 72.9707 107.074 73.155 107.2C73.3393 107.326 73.5652 107.377 73.7859 107.342C74.0035 107.329 74.2079 107.233 74.3569 107.074C74.5059 106.914 74.5883 106.704 74.587 106.486Z" fill="#BFD352"/>
<path d="M97.4095 119.778L97.4043 119.693L89.6069 78.1311C88.9669 77.9048 88.3086 77.6891 87.6687 77.4628L95.375 118.622L95.6287 119.973C95.688 120.19 95.8283 120.376 96.0207 120.493C96.2132 120.61 96.4431 120.649 96.6633 120.602C96.8689 120.585 97.0603 120.49 97.1988 120.337C97.3373 120.184 97.4126 119.984 97.4095 119.778Z" fill="#BFD352"/>
<path d="M119.647 91.7011C119.066 91.3479 118.456 90.9964 117.857 90.6633C117.781 90.7833 117.749 90.9263 117.768 91.0672C119.219 104.818 120.229 118.795 120.689 132.625C120.709 132.946 120.728 133.249 120.747 133.57C120.756 133.681 120.788 133.788 120.84 133.887C120.892 133.985 120.964 134.071 121.051 134.14C121.138 134.21 121.238 134.26 121.346 134.29C121.453 134.319 121.565 134.326 121.675 134.31C121.881 134.315 122.081 134.244 122.238 134.11C122.394 133.976 122.496 133.789 122.522 133.584C122.529 133.556 122.527 133.526 122.517 133.499C122.053 119.612 121.075 105.529 119.647 91.7011Z" fill="#BFD352"/>
<path d="M136.113 102.803C135.524 102.337 134.939 101.927 134.342 101.461C134.015 113.661 132.718 125.816 130.465 137.811C130.403 138.204 130.341 138.577 130.261 138.971C130.23 139.129 130.251 139.293 130.322 139.437C130.392 139.582 130.508 139.7 130.652 139.772L130.699 139.77C130.798 139.811 130.901 139.84 131.008 139.855C131.233 139.887 131.462 139.836 131.652 139.713C131.843 139.59 131.984 139.402 132.048 139.184L132.149 138.666C134.411 126.834 135.737 114.843 136.113 102.803Z" fill="#BFD352"/>
<path d="M158.12 124.284C157.626 123.66 157.096 123.047 156.583 122.424C155.846 127.412 154.849 132.349 153.868 137.218L151.591 148.494L151.511 148.888C151.496 148.996 151.503 149.106 151.532 149.21C151.561 149.315 151.611 149.413 151.679 149.498C151.748 149.583 151.833 149.652 151.929 149.703C152.026 149.754 152.131 149.784 152.24 149.792C152.437 149.82 152.639 149.786 152.815 149.693C152.992 149.601 153.134 149.455 153.223 149.276C153.27 149.273 153.264 149.169 153.28 149.121L155.639 137.479C156.52 133.138 157.417 128.748 158.12 124.284Z" fill="#BFD352"/>
<path d="M159.923 153.333C159.819 153.196 159.68 153.09 159.52 153.027C159.361 152.963 159.188 152.943 159.018 152.971C158.899 152.988 158.782 153.024 158.674 153.077C158.466 153.203 158.251 153.317 158.031 153.42C150.208 157.647 141.059 159.727 132.203 161.181C133.59 161.514 134.973 161.789 136.355 162.055C144.386 160.613 152.53 158.378 159.601 154.434C159.666 154.392 159.727 154.344 159.782 154.29C159.922 154.178 160.014 154.016 160.041 153.839C160.067 153.661 160.024 153.48 159.923 153.333Z" fill="#BFD352"/>
<path d="M142.026 145.031C141.956 144.834 141.819 144.668 141.639 144.563C141.459 144.458 141.247 144.42 141.042 144.456C141.007 144.447 140.971 144.449 140.938 144.462L140.255 144.628C128.26 147.622 116.04 150.364 103.886 152.799C104.856 153.147 105.826 153.486 106.795 153.834C118.394 151.472 130.013 148.833 141.413 146.017C141.539 145.99 141.659 145.935 141.762 145.857C141.865 145.778 141.95 145.678 142.011 145.563C142.084 145.394 142.089 145.204 142.026 145.031Z" fill="#BFD352"/>
<path d="M116.819 131.847C116.751 131.65 116.614 131.484 116.433 131.38C116.252 131.276 116.04 131.241 115.835 131.282C115.797 131.276 115.759 131.279 115.722 131.289C115.504 131.302 115.302 131.4 115.086 131.432C102.643 134.558 89.9949 137.44 77.3953 140.026C78.0752 140.439 78.748 140.891 79.4422 141.228C91.7399 138.671 104.069 135.855 116.203 132.796C116.326 132.773 116.441 132.723 116.542 132.649C116.643 132.576 116.725 132.481 116.784 132.371C116.827 132.291 116.852 132.203 116.858 132.113C116.864 132.023 116.851 131.932 116.819 131.847Z" fill="#BFD352"/>
<path d="M105.354 125.418C105.297 125.198 105.158 125.009 104.965 124.888C104.773 124.768 104.541 124.726 104.319 124.77C103.96 124.792 103.567 124.883 103.21 124.952C91.1253 126.772 79.2382 129.725 67.7063 133.772C68.251 134.146 68.7974 134.549 69.3599 134.904C80.8197 130.947 92.6259 128.075 104.623 126.326C104.837 126.29 105.034 126.185 105.183 126.026C105.26 125.947 105.316 125.85 105.346 125.744C105.376 125.638 105.379 125.526 105.354 125.418Z" fill="#BFD352"/>
<path d="M86.7016 114.697C86.6423 114.48 86.502 114.293 86.3095 114.176C86.1171 114.059 85.8871 114.021 85.667 114.068L84.5961 114.238L50.5558 120.018L52.0432 121.378L86.0001 115.632C86.1922 115.596 86.3686 115.503 86.5054 115.363C86.5896 115.277 86.6514 115.17 86.6856 115.054C86.7197 114.938 86.7253 114.816 86.7016 114.697Z" fill="#BFD352"/>
<path d="M65.441 101.204C65.3591 100.998 65.2071 100.826 65.0116 100.72C64.816 100.614 64.5894 100.581 64.3715 100.625L62.4971 100.996C53.6049 102.701 44.5902 103.689 35.5399 103.951C35.9382 104.464 36.3587 104.979 36.8015 105.496C46.1109 105.164 55.3773 104.069 64.5073 102.22C64.5989 102.219 64.6903 102.213 64.7814 102.203C64.8923 102.185 64.9984 102.144 65.0927 102.083C65.1871 102.022 65.2678 101.942 65.3298 101.848C65.3918 101.754 65.4336 101.649 65.4528 101.538C65.4719 101.427 65.4679 101.314 65.441 101.204Z" fill="#BFD352"/>
<path d="M38.4598 84.7717C38.4113 84.5549 38.2819 84.3649 38.0979 84.2404C37.9139 84.1159 37.6894 84.0664 37.4701 84.102L36.2279 84.2636L23.3017 85.8542C23.5699 86.3594 23.8664 86.8628 24.1535 87.3669L37.7005 85.6909C37.8538 85.6641 37.9992 85.6034 38.1259 85.5131C38.2455 85.4332 38.3402 85.3214 38.3992 85.1903C38.4583 85.0592 38.4793 84.9141 38.4598 84.7717Z" fill="#BFD352"/>
<path d="M162.191 104.804C157.388 104.105 152.547 103.707 147.694 103.615C146.899 103.592 146.088 103.605 145.282 103.597C135.805 103.615 126.358 104.649 117.102 106.682C116.366 106.833 115.676 107.017 114.935 107.176C109.2 108.497 103.549 110.163 98.0147 112.166C97.3705 112.384 96.7094 112.626 96.0692 112.871C86.4293 116.526 77.1532 121.078 68.3628 126.465C67.7782 126.81 67.19 127.176 66.6054 127.521C60.7054 131.23 55.0399 135.3 49.641 139.706L48.0746 140.997C43.6326 144.704 39.3875 148.64 35.3567 152.79C34.9092 153.236 34.4693 153.688 34.0333 154.166C27.5732 160.927 21.7305 168.251 16.5749 176.052C16.1078 176.684 15.7037 177.375 15.2803 178.027L15.472 178.086C20.7497 179.86 26.1449 181.263 31.6181 182.284C32.1776 182.404 32.754 182.5 33.3247 182.604C39.9427 183.751 46.6383 184.394 53.3538 184.527C54.0028 184.551 54.6676 184.56 55.348 184.553C62.0208 184.605 68.6894 184.203 75.3078 183.352L77.3056 183.086C83.9094 182.141 90.4486 180.789 96.8855 179.037C97.5224 178.861 98.1822 178.701 98.8151 178.497C101.829 177.605 104.883 176.659 107.916 175.629C108.67 175.374 109.449 175.148 110.153 174.833C115.332 172.986 120.43 170.867 125.446 168.476C127.974 167.271 131.107 165.596 134.721 163.558C135.611 163.038 136.494 162.513 137.384 161.994C144.986 157.507 152.313 152.572 159.327 147.213C160.472 146.364 161.572 145.481 162.664 144.593C174.613 134.893 183.965 124.357 182.474 116.403C182.423 116.028 182.338 115.658 182.22 115.297C180.649 110.381 174.709 106.615 162.191 104.804Z" fill="#437E14"/>
<path d="M182.219 115.25C182.106 115.193 181.981 115.164 181.854 115.164C181.727 115.164 181.602 115.194 181.488 115.251C175.66 118.008 169.725 120.728 163.683 123.413C163.119 123.667 162.566 123.906 162.035 124.161C155.464 127.075 148.794 129.939 142.027 132.755L140.298 133.502C137.54 134.654 134.737 135.785 131.905 136.894L129.996 137.661C121.861 140.926 113.612 144.123 105.249 147.251L103.04 148.09C95.5502 150.843 87.9883 153.535 80.3541 156.165L78.1137 156.935C71.1696 159.321 64.1612 161.641 57.0886 163.894C56.2895 164.163 55.5168 164.428 54.7025 164.685C42.1017 168.715 29.3976 172.508 16.5902 176.064C16.1231 176.696 15.719 177.386 15.2956 178.038L15.4872 178.098C23.27 175.946 31.0143 173.703 38.7201 171.369L40.8969 170.717C46.2218 169.119 51.5333 167.476 56.7874 165.767C57.273 165.62 57.7756 165.45 58.246 165.291C61.6506 164.205 65.0513 163.092 68.4255 161.983L70.6322 161.259C78.0768 158.779 85.4547 156.23 92.7659 153.612C93.4763 153.384 94.175 153.123 94.855 152.872C100.969 150.696 106.998 148.48 112.942 146.225C113.64 145.965 114.339 145.704 115.034 145.417C118.576 144.055 122.082 142.683 125.552 141.3C126.17 141.085 126.773 140.86 127.363 140.602C132.262 138.657 137.121 136.692 141.941 134.705L141.969 134.667C145.269 133.291 148.554 131.9 151.822 130.494L153.597 129.686C159.117 127.314 164.564 124.904 169.937 122.455C170.547 122.187 171.139 121.895 171.722 121.631C175.165 120.032 178.575 118.439 181.952 116.854C182.157 116.757 182.324 116.594 182.424 116.39C182.536 116.172 182.559 115.918 182.487 115.684C182.454 115.511 182.359 115.357 182.219 115.25Z" fill="#BFD352"/>
<path d="M57.9018 164.307C57.63 164.165 57.3639 164.015 57.0504 163.866C49.8922 160.059 42.6039 156.333 35.2845 152.76C34.837 153.206 34.3971 153.658 33.9611 154.136C40.874 157.526 47.8351 161.058 54.6153 164.692C55.3184 165.047 56.0008 165.398 56.6926 165.768C56.7612 165.818 56.8297 165.869 56.8982 165.92C57.1094 166.002 57.3428 166.005 57.5563 165.93C57.7698 165.854 57.9491 165.705 58.0618 165.508C58.0998 165.453 58.1228 165.389 58.1286 165.322C58.2276 165.156 58.2592 164.958 58.2171 164.769C58.1749 164.581 58.0621 164.415 57.9018 164.307Z" fill="#BFD352"/>
<path d="M80.3847 156.188L80.3162 156.137C70.3498 150.138 60.0877 144.644 49.569 139.676L48.0026 140.968C58.2901 145.769 68.3274 151.088 78.0758 156.907C78.5187 157.151 78.9047 157.378 79.3688 157.674C79.5661 157.779 79.7963 157.804 80.0115 157.744C80.2268 157.684 80.4108 157.543 80.5254 157.351C80.6553 157.176 80.7131 156.958 80.687 156.742C80.6608 156.525 80.5526 156.327 80.3847 156.188Z" fill="#BFD352"/>
<path d="M105.234 147.24L105.165 147.189L68.3076 126.46C67.723 126.805 67.1348 127.17 66.5502 127.515L103.041 148.056L104.239 148.729C104.443 148.823 104.676 148.836 104.89 148.763C105.103 148.691 105.28 148.54 105.386 148.341C105.504 148.172 105.555 147.965 105.527 147.76C105.499 147.556 105.394 147.37 105.234 147.24Z" fill="#BFD352"/>
<path d="M98.0072 112.16C97.363 112.379 96.7019 112.62 96.0617 112.865C96.1048 113 96.1941 113.116 96.314 113.193C107.783 120.916 119.142 129.122 130.036 137.656C130.294 137.847 130.538 138.027 130.797 138.218C130.888 138.283 130.991 138.328 131.099 138.351C131.208 138.374 131.32 138.374 131.429 138.352C131.538 138.33 131.642 138.286 131.733 138.222C131.824 138.159 131.901 138.077 131.96 137.983C132.096 137.828 132.17 137.629 132.168 137.423C132.166 137.217 132.088 137.019 131.948 136.868C131.931 136.844 131.907 136.826 131.88 136.817C120.941 128.25 109.52 119.951 98.0072 112.16Z" fill="#BFD352"/>
<path d="M117.094 106.676C116.359 106.827 115.669 107.012 114.928 107.17C124.066 115.26 132.547 124.063 140.291 133.497C140.552 133.796 140.798 134.084 141.049 134.399C141.15 134.524 141.289 134.613 141.445 134.652C141.601 134.691 141.766 134.677 141.914 134.614L141.942 134.576C142.037 134.527 142.126 134.466 142.206 134.394C142.374 134.242 142.483 134.034 142.511 133.809C142.54 133.583 142.486 133.355 142.36 133.166L142.028 132.756C134.415 123.42 126.078 114.7 117.094 106.676Z" fill="#BFD352"/>
<path d="M147.694 103.614C146.899 103.592 146.088 103.605 145.282 103.597C148.63 107.367 151.772 111.302 154.873 115.183L162.051 124.173L162.301 124.487C162.374 124.568 162.463 124.633 162.562 124.678C162.661 124.724 162.768 124.748 162.877 124.75C162.986 124.752 163.094 124.732 163.194 124.69C163.295 124.649 163.386 124.587 163.462 124.509C163.611 124.376 163.713 124.2 163.756 124.005C163.798 123.81 163.778 123.607 163.699 123.424C163.727 123.386 163.643 123.325 163.616 123.281L156.211 113.994C153.45 110.529 150.663 107.021 147.694 103.614Z" fill="#BFD352"/>
<path d="M171.111 120.897C170.94 120.889 170.77 120.928 170.619 121.009C170.467 121.09 170.341 121.211 170.253 121.358C170.19 121.461 170.143 121.573 170.113 121.69C170.076 121.93 170.026 122.168 169.963 122.403C168.176 131.113 163.891 139.46 159.316 147.181C160.461 146.332 161.561 145.449 162.653 144.561C166.708 137.481 170.227 129.804 171.749 121.851C171.759 121.774 171.761 121.697 171.755 121.62C171.759 121.441 171.695 121.266 171.575 121.132C171.456 120.998 171.29 120.914 171.111 120.897Z" fill="#BFD352"/>
<path d="M153.251 129.277C153.056 129.204 152.841 129.202 152.644 129.273C152.448 129.343 152.282 129.481 152.178 129.662C152.149 129.682 152.128 129.712 152.116 129.745L151.804 130.374C146.391 141.49 140.641 152.616 134.698 163.493C135.588 162.974 136.47 162.449 137.361 161.929C143.002 151.524 148.446 140.925 153.613 130.381C153.673 130.266 153.708 130.139 153.714 130.01C153.72 129.88 153.698 129.751 153.649 129.631C153.567 129.466 153.424 129.34 153.251 129.277Z" fill="#BFD352"/>
<path d="M126.953 140.122C126.758 140.047 126.543 140.045 126.347 140.117C126.151 140.189 125.988 140.329 125.888 140.512C125.859 140.538 125.836 140.569 125.82 140.603C125.691 140.778 125.635 140.997 125.521 141.183C119.922 152.726 114.004 164.27 107.89 175.586C108.643 175.33 109.422 175.105 110.126 174.79C116.068 163.723 121.832 152.467 127.284 141.203C127.346 141.094 127.382 140.973 127.39 140.849C127.398 140.725 127.379 140.6 127.332 140.485C127.299 140.401 127.247 140.325 127.182 140.262C127.116 140.2 127.038 140.152 126.953 140.122Z" fill="#BFD352"/>
<path d="M114.66 144.776C114.455 144.679 114.22 144.663 114.004 144.734C113.788 144.804 113.607 144.954 113.498 145.153C113.284 145.443 113.101 145.802 112.926 146.119C106.555 156.549 101.18 167.555 96.8719 178.992C97.5088 178.815 98.1686 178.655 98.8016 178.452C103.133 167.128 108.518 156.236 114.886 145.92C114.996 145.732 115.042 145.514 115.016 145.298C115.005 145.188 114.966 145.083 114.904 144.992C114.842 144.901 114.758 144.826 114.66 144.776Z" fill="#BFD352"/>
<path d="M94.46 152.18C94.2554 152.086 94.0225 152.074 93.8092 152.146C93.5959 152.218 93.4185 152.37 93.3133 152.569L92.7555 153.499L75.313 183.296L77.3109 183.031L94.7256 153.318C94.822 153.148 94.8636 152.953 94.8447 152.759C94.8322 152.638 94.7906 152.523 94.7236 152.422C94.6566 152.321 94.5661 152.238 94.46 152.18Z" fill="#BFD352"/>
<path d="M70.4607 159.802C70.2496 159.732 70.0206 159.739 69.8138 159.82C69.607 159.902 69.4356 160.054 69.3296 160.25L68.4098 161.925C64.0023 169.833 58.9673 177.376 53.3533 184.479C54.0024 184.504 54.6671 184.512 55.3475 184.505C61.0751 177.159 66.1894 169.354 70.6389 161.17C70.6969 161.099 70.7513 161.026 70.802 160.949C70.8595 160.853 70.8963 160.745 70.9102 160.634C70.924 160.522 70.9146 160.409 70.8825 160.301C70.8504 160.193 70.7965 160.094 70.7239 160.008C70.6513 159.922 70.5616 159.852 70.4607 159.802Z" fill="#BFD352"/>
<path d="M40.5335 169.919C40.3362 169.817 40.1075 169.794 39.8939 169.855C39.6803 169.916 39.4981 170.056 39.3845 170.247L38.7102 171.303L31.6236 182.23C32.1831 182.349 32.7593 182.445 33.3301 182.549L40.75 171.091C40.828 170.957 40.8749 170.806 40.8871 170.651C40.9027 170.508 40.8778 170.364 40.8153 170.234C40.7528 170.105 40.6551 169.995 40.5335 169.919Z" fill="#BFD352"/>
</g>
<path d="M185.251 179.881H133.774L136.719 157.733H182.726L185.251 179.881Z" fill="#3E5936"/>
<path d="M58 139.183V152.858C58.0035 154.196 58.5366 155.478 59.4828 156.424C60.429 157.37 61.7113 157.904 63.0494 157.907H255.976C257.313 157.903 258.595 157.369 259.54 156.423C260.486 155.477 261.018 154.195 261.022 152.858V139.183H58Z" fill="white"/>
<path d="M261.022 23.0494C261.018 21.7119 260.486 20.43 259.54 19.4839C258.595 18.5378 257.313 18.0043 255.976 18L63.0494 18C61.7113 18.0035 60.429 18.5366 59.4828 19.4828C58.5366 20.429 58.0035 21.7113 58 23.0494V139.183H261.022V23.0494Z" fill="#625ABB"/>
<path d="M253.874 24.7336L65.1538 24.7336V132.453H253.874V24.7336Z" fill="white"/>
<path d="M133.775 179.881H185.251L194.306 182.022L124.72 182.074L133.775 179.881Z" fill="#BFD352"/>
<path d="M193.833 183.21H125.192L124.739 182.074L194.305 182.022L193.833 183.21Z" fill="#3E5936"/>
<path d="M163.122 149.141C163.122 149.855 162.91 150.554 162.514 151.148C162.117 151.741 161.553 152.204 160.893 152.478C160.233 152.751 159.507 152.822 158.806 152.683C158.106 152.544 157.462 152.2 156.957 151.695C156.452 151.19 156.108 150.546 155.969 149.846C155.829 149.145 155.901 148.419 156.174 147.759C156.448 147.099 156.911 146.535 157.504 146.138C158.098 145.741 158.797 145.53 159.511 145.53C160.469 145.53 161.387 145.91 162.065 146.587C162.742 147.265 163.122 148.183 163.122 149.141Z" fill="#625ABB"/>
<path d="M180 148.315C202.06 152.812 218.906 154.989 244.978 150.635C262.626 147.687 277.715 136.83 282.279 121.463C284.219 114.933 282.355 107.011 275.317 102.856C273.103 101.549 270.413 101 267.909 101" stroke="#437E14" stroke-width="2" stroke-linecap="round"/>
<path d="M74.4108 36.552C72.3615 37.6273 72.9877 52.8304 73.5569 60.2976C73.7949 63.8819 123.508 63.4338 126.496 61.6417C129.485 59.8496 127.777 39.2402 123.508 36.552C119.238 33.8638 76.9723 35.2079 74.4108 36.552Z" fill="#FFCA00"/>
<path d="M74.4108 68.8869C72.3615 69.5013 72.9877 78.1888 73.5569 82.4558C73.7949 84.5039 123.337 83.2238 126.496 83.2238C127.5 83.2238 127.319 69.5412 125.5 68.8869C121.231 67.3508 76.9723 68.1188 74.4108 68.8869Z" fill="#FFEEAF"/>
<path d="M74.4108 89.8869C72.3615 90.5013 72.9877 99.1888 73.5569 103.456C73.7949 105.504 123.337 104.224 126.496 104.224C127.5 104.224 127.319 90.5412 125.5 89.8869C121.231 88.3508 76.9723 89.1188 74.4108 89.8869Z" fill="#FFEEAF"/>
<path d="M74.4108 110.887C72.3615 111.501 72.9877 120.189 73.5569 124.456C73.7949 126.504 123.337 125.224 126.496 125.224C127.5 125.224 127.319 111.541 125.5 110.887C121.231 109.351 76.9723 110.119 74.4108 110.887Z" fill="#FFEEAF"/>
<path d="M134.411 68.8869C132.361 69.5013 132.988 78.1888 133.557 82.4558C133.795 84.5039 183.337 83.2238 186.496 83.2238C187.5 83.2238 187.319 69.5412 185.5 68.8869C181.231 67.3508 136.972 68.1188 134.411 68.8869Z" fill="#FFEEAF"/>
<path d="M134.411 89.8869C132.361 90.5013 132.988 99.1888 133.557 103.456C133.795 105.504 183.337 104.224 186.496 104.224C187.5 104.224 187.319 90.5412 185.5 89.8869C181.231 88.3508 136.972 89.1188 134.411 89.8869Z" fill="#FFEEAF"/>
<path d="M134.411 110.887C132.361 111.501 132.988 120.189 133.557 124.456C133.795 126.504 183.337 125.224 186.496 125.224C187.5 125.224 187.319 111.541 185.5 110.887C181.231 109.351 136.972 110.119 134.411 110.887Z" fill="#FFEEAF"/>
<path d="M193.411 68.8869C191.361 69.5013 191.988 78.1888 192.557 82.4558C192.795 84.5039 242.337 83.2238 245.496 83.2238C246.5 83.2238 246.319 69.5412 244.5 68.8869C240.231 67.3508 195.972 68.1188 193.411 68.8869Z" fill="#FFEEAF"/>
<path d="M193.411 89.8869C191.361 90.5013 191.988 99.1888 192.557 103.456C192.795 105.504 242.337 104.224 245.496 104.224C246.5 104.224 246.319 90.5412 244.5 89.8869C240.231 88.3508 195.972 89.1188 193.411 89.8869Z" fill="#FFEEAF"/>
<path d="M193.411 110.887C191.361 111.501 191.988 120.189 192.557 124.456C192.795 126.504 242.337 125.224 245.496 125.224C246.5 125.224 246.319 111.541 244.5 110.887C240.231 109.351 195.972 110.119 193.411 110.887Z" fill="#FFEEAF"/>
<path d="M134.385 36.552C132.373 37.6273 132.988 52.8304 133.547 60.2976C133.78 63.8819 182.589 63.4338 185.523 61.6417C188.458 59.8496 186.781 39.2402 182.589 36.552C178.398 33.8638 136.9 35.2079 134.385 36.552Z" fill="#FFCA00"/>
<path d="M193.411 36.552C191.361 37.6273 191.988 52.8304 192.557 60.2976C192.795 63.8819 242.508 63.4338 245.496 61.6417C248.485 59.8496 246.777 39.2402 242.508 36.552C238.238 33.8638 195.972 35.2079 193.411 36.552Z" fill="#FFCA00"/>
<path d="M80.6033 62.1433C81.8654 66.3964 83.7206 71.0597 87.8033 72.8014C90.5609 73.9814 94.833 76.1522 97.7673 75.5085C101.617 74.6755 125.198 72.7698 118.351 50.6774C117.72 48.6834 116.364 46.0583 114.792 44.689C113.232 43.1935 111.464 41.9311 109.542 40.9407C96.4485 34.8891 76.2492 47.3898 80.6033 62.1433Z" fill="#C12E66"/>
<g style="mix-blend-mode:multiply" opacity="0.38">
<path d="M108.835 43.0861C110.297 45.0932 111.323 47.3829 111.85 49.809C112.377 52.2352 112.393 54.7445 111.896 57.177C111.361 59.6029 110.255 61.8661 108.669 63.7781C107.083 65.6901 105.063 67.1957 102.777 68.1695C100.857 68.8262 98.9049 69.3842 96.9278 69.8417C95.1278 70.388 93.3584 71.0305 91.6271 71.7663C90.6549 72.0952 89.7657 72.6313 89.021 73.3376C91.7155 74.5239 95.2366 76.0637 97.7671 75.5084C101.616 74.6754 125.198 72.7697 118.351 50.6773C117.72 48.6833 116.364 46.0582 114.792 44.6889C113.232 43.1934 111.463 41.9309 109.542 40.9406C107.895 40.1851 106.137 39.6993 104.336 39.5018L104.153 39.5776C106.147 39.9562 107.668 41.4644 108.835 43.0861Z" fill="#554E79"/>
</g>
<path d="M93.8172 38.2839C94.0354 38.6697 94.0915 39.1265 93.9732 39.5536C93.8548 39.9808 93.5718 40.3435 93.1862 40.562C92.3937 40.9733 91.4715 41.0571 90.6179 40.7955C91.4382 41.2814 91.2805 42.6255 90.5485 43.2439C89.7527 43.7818 88.8077 44.0555 87.8477 44.0264C88.8577 44.2469 89.7479 44.8391 90.3417 45.6854C90.9355 46.5316 91.1895 47.5702 91.0533 48.595C91.4385 48.0212 91.9785 47.5684 92.6107 47.2891C93.2429 47.0099 93.9413 46.9157 94.6249 47.0174C95.3062 47.1363 95.9501 47.4135 96.5047 47.8267C97.0593 48.2399 97.5091 48.7776 97.8179 49.3964C97.9659 48.7782 98.2788 48.2116 98.7233 47.7571C99.1678 47.3027 99.7272 46.9772 100.342 46.8155C101.58 46.5073 102.866 46.4452 104.128 46.6325C103.762 45.7238 104.4 44.6573 105.27 44.203C106.181 43.8223 107.171 43.6686 108.154 43.755C107.213 43.1541 106.476 42.2833 106.038 41.2566C105.6 40.2298 105.482 39.0949 105.699 38C105.34 39.6785 101.364 39.262 100.336 38.915C100.897 42.8778 94.8584 39.9309 93.8172 38.2839Z" fill="#F8649C"/>
<path d="M95.0159 43.143C96.9455 42.645 98.8422 42.0274 100.695 41.2941C101.11 41.097 101.557 40.9752 102.014 40.9344C102.242 40.9151 102.472 40.9584 102.677 41.0595C102.883 41.1607 103.057 41.316 103.181 41.5087C103.28 41.7403 103.313 41.9944 103.277 42.2435C103.242 42.4926 103.139 42.7273 102.98 42.9222C102.352 43.6533 101.529 44.1898 100.607 44.4682L98.8968 45.1686C97.7966 45.6912 96.6174 46.0282 95.4072 46.1657C94.7999 46.2287 94.1864 46.1413 93.6207 45.9113C93.0551 45.6813 92.5547 45.3157 92.1637 44.8468C90.6492 42.8022 94.0757 43.3828 95.0159 43.143Z" fill="#C12E66"/>
<path d="M87.898 57.7007C88.2009 59.0764 88.1441 60.5088 88.3271 61.9034C88.5083 63.2089 88.8693 64.4831 89.3998 65.6896C89.7279 66.4658 90.1255 67.3366 89.81 68.1254C89.6001 68.5255 89.2598 68.8419 88.8455 69.0221C88.4312 69.2022 87.9677 69.2354 87.532 69.1161C86.6584 68.8384 85.8888 68.3041 85.3234 67.5827C83.2978 65.3993 80.3509 60.3447 81.6886 57.2212C82.0609 56.363 83.771 54.6151 84.604 54.3563C86.3772 53.8326 87.5951 56.2999 87.898 57.7007Z" fill="white"/>
<path d="M164.577 56.5386C168.125 52.3515 172.555 48.8301 177.66 46.8018C182.764 44.7734 188.557 44.2922 193.788 45.9562C190.426 47.5303 187.422 49.7774 184.964 52.5585C182.549 55.3019 180.718 58.495 178.667 61.5128C176.617 64.5305 174.228 67.4493 171.067 69.2888C169.04 70.4954 166.71 71.0949 164.352 71.0158C162.553 70.9214 159.405 70.2153 158.658 68.2859C158.101 66.8242 159.495 64.8183 160.075 63.5366C161.246 61.0075 162.761 58.6526 164.577 56.5386Z" fill="#BFD352"/>
<path d="M190.608 46.2261C185.391 47.184 176.743 53.1476 175.079 54.263C173.313 55.4975 171.633 56.8498 170.05 58.3106C166.56 61.4094 162.855 64.8409 161.955 69.4237" stroke="#5F9C2F" stroke-width="1.31" stroke-linecap="round" stroke-linejoin="round"/>
<path d="M181.861 47.5212C181.613 48.5017 181.361 49.4866 181.109 50.4671C181.083 50.5489 181.083 50.6371 181.109 50.7189C181.168 50.8449 181.334 50.8674 181.469 50.8719L184.55 50.9888" stroke="#5F9C2F" stroke-width="1.31" stroke-linecap="round" stroke-linejoin="round"/>
<path d="M177.624 48.1735C177.192 49.8765 176.762 51.5839 176.333 53.296L180.682 54.0875" stroke="#5F9C2F" stroke-width="1.31" stroke-linecap="round" stroke-linejoin="round"/>
<path d="M173.635 50.9844C172.913 52.8255 172.341 54.7221 171.926 56.6555C174.568 57.0105 177.187 57.5196 179.769 58.1802" stroke="#5F9C2F" stroke-width="1.31" stroke-linecap="round" stroke-linejoin="round"/>
<path d="M168.036 54.978C167.458 56.8881 167.046 58.8441 166.803 60.8246C167.467 61.0154 168.166 61.0508 168.845 60.9281C170.396 60.799 171.956 60.864 173.491 61.1215" stroke="#5F9C2F" stroke-width="1.31" stroke-linecap="round" stroke-linejoin="round"/>
<path d="M162.76 61.036C162.571 62.5573 162.702 64.1012 163.143 65.5694C163.173 65.7177 163.247 65.8537 163.354 65.9606C163.52 66.0598 163.717 66.095 163.907 66.0597L168.625 65.7269" stroke="#5F9C2F" stroke-width="1.31" stroke-linecap="round" stroke-linejoin="round"/>
<path d="M152.211 57.8878C148.662 53.7008 144.232 50.1793 139.128 48.151C134.023 46.1227 128.23 45.6414 123 47.3054C126.362 48.8795 129.365 51.1266 131.824 53.9077C134.239 56.6511 136.069 59.8442 138.12 62.862C140.171 65.8798 142.559 68.7986 145.721 70.638C147.748 71.8447 150.078 72.4441 152.435 72.3651C154.234 72.2706 157.383 71.5645 158.129 69.6351C158.687 68.1735 157.293 66.1676 156.713 64.8858C155.542 62.3568 154.027 60.0018 152.211 57.8878Z" fill="#437E14"/>
<path d="M126.18 47.5753C131.397 48.5333 140.045 54.4969 141.709 55.6122C143.474 56.8468 145.154 58.1991 146.737 59.6599C150.227 62.7586 153.933 66.1901 154.833 70.7729" stroke="#5F9C2F" stroke-width="1.31" stroke-linecap="round" stroke-linejoin="round"/>
<path d="M134.927 48.8705C135.174 49.8509 135.426 50.8359 135.678 51.8163C135.705 51.8981 135.705 51.9864 135.678 52.0682C135.62 52.1941 135.453 52.2166 135.318 52.2211L132.238 52.3381" stroke="#5F9C2F" stroke-width="1.31" stroke-linecap="round" stroke-linejoin="round"/>
<path d="M139.163 49.5227C139.595 51.2257 140.025 52.9332 140.454 54.6452L136.105 55.4367" stroke="#5F9C2F" stroke-width="1.31" stroke-linecap="round" stroke-linejoin="round"/>
<path d="M143.153 52.3336C143.875 54.1747 144.446 56.0713 144.862 58.0048C142.22 58.3597 139.601 58.8689 137.018 59.5295" stroke="#5F9C2F" stroke-width="1.31" stroke-linecap="round" stroke-linejoin="round"/>
<path d="M148.752 56.3273C149.329 58.2373 149.741 60.1934 149.984 62.1739C149.321 62.3647 148.622 62.4 147.943 62.2773C146.392 62.1482 144.831 62.2133 143.297 62.4708" stroke="#5F9C2F" stroke-width="1.31" stroke-linecap="round" stroke-linejoin="round"/>
<path d="M154.027 62.3853C154.216 63.9065 154.086 65.4505 153.645 66.9187C153.614 67.067 153.541 67.203 153.434 67.3099C153.267 67.409 153.071 67.4443 152.88 67.4089L148.163 67.0761" stroke="#5F9C2F" stroke-width="1.31" stroke-linecap="round" stroke-linejoin="round"/>
<path d="M150.12 45.9675C146.522 49.489 145.335 60.8584 148.551 67.1638C150.458 70.9056 153.385 73.4961 157.545 74.0493C179.039 76.8782 176.74 60.5571 176.178 57.9126C169.05 56.6399 162.942 52.066 157.878 46.93" fill="#544DA1"/>
<path d="M151.056 44.7983C149.844 46.1516 148.965 47.7684 148.488 49.5206C147.705 52.162 147.612 54.9598 148.218 57.6474C148.82 60.0526 149.835 62.3352 151.218 64.3935C152.243 65.99 155.531 73.9325 167.858 71.5398C170.251 71.0901 173.421 68.9313 174.995 67.1279C177.563 64.1731 177.096 59.0775 176.205 55.4346C175.413 52.372 173.921 49.5348 171.847 47.1459C169.122 44.0787 167.647 42.716 163.68 41.4702C159.817 40.2514 154.231 41.4162 151.056 44.7983Z" fill="#625ABB"/>
<path d="M152.585 45.7652C151.486 47.0002 150.693 48.476 150.269 50.0737C149.562 52.4875 149.483 55.0416 150.039 57.4944C150.589 59.6904 151.514 61.7748 152.774 63.6559C153.709 65.1175 156.704 72.3763 167.88 70.2176C170.048 69.7993 172.922 67.8474 174.343 66.2014C176.668 63.503 176.232 58.8526 175.418 55.5291C174.692 52.7309 173.333 50.1368 171.447 47.9464C168.969 45.1446 167.629 43.8988 164.031 42.7474C160.523 41.6321 155.459 42.68 152.585 45.7652Z" fill="#FFF1EA"/>
<path d="M153.372 55.0569C153.465 56.0559 153.917 56.9872 154.644 57.6789C154.928 57.9262 155.373 58.1286 155.652 57.8588C155.741 57.7623 155.807 57.647 155.845 57.5215C156.532 55.6788 156.566 53.6561 155.94 51.7918C155.544 50.6315 153.92 50.0153 153.282 51.342C152.935 52.0931 153.273 54.2788 153.372 55.0569Z" fill="#FFCA00"/>
<path d="M154.307 54.2024C154.351 54.8044 154.589 55.3759 154.986 55.8304C155.139 55.9788 155.377 56.0958 155.526 55.9384C155.577 55.8782 155.613 55.8076 155.634 55.7315C155.999 54.5777 156.016 53.3421 155.683 52.1785C155.472 51.459 154.599 51.0767 154.262 51.9087C154.073 52.3629 154.253 53.7211 154.307 54.2024Z" fill="#3E5936"/>
<path d="M165.205 56.2037C165.262 56.6295 165.405 57.0395 165.623 57.4095C165.842 57.7795 166.132 58.1019 166.477 58.3579C166.756 58.5603 167.206 58.7132 167.48 58.5064C167.57 58.4331 167.639 58.3367 167.678 58.2275C168.018 57.4915 168.201 56.6933 168.218 55.883C168.234 55.0727 168.082 54.2677 167.773 53.5187C167.377 52.5608 165.753 52.0571 165.115 53.1589C164.768 53.7616 165.106 55.5605 165.205 56.2037Z" fill="#FFCA00"/>
<path d="M166.153 55.4977C166.203 56.0166 166.445 56.498 166.833 56.8469C166.985 56.9728 167.224 57.0673 167.372 56.9368C167.422 56.8903 167.457 56.8312 167.476 56.7659C167.844 55.8294 167.862 54.7911 167.525 53.8426C167.314 53.249 166.446 52.9432 166.108 53.6223C165.906 53.9865 166.086 55.1019 166.153 55.4977Z" fill="#3E5936"/>
<path d="M162.655 58.4434C162.697 58.7546 162.801 59.0541 162.961 59.3245C163.121 59.5948 163.333 59.8304 163.586 60.0175C163.792 60.1659 164.121 60.2784 164.323 60.1255C164.387 60.0711 164.437 60.0015 164.467 59.9231C164.713 59.384 164.847 58.8001 164.858 58.2076C164.87 57.615 164.76 57.0263 164.534 56.4781C164.242 55.781 163.055 55.4077 162.592 56.2172C162.335 56.658 162.583 57.9757 162.655 58.4434Z" fill="#FFCA00"/>
<path d="M163.342 57.9307C163.38 58.3061 163.557 58.654 163.837 58.9066C163.949 58.9965 164.12 59.0685 164.233 58.974C164.267 58.9377 164.293 58.8949 164.309 58.8481C164.575 58.163 164.588 57.4056 164.345 56.7119C164.188 56.2621 163.554 56.0462 163.306 56.5499C163.167 56.8243 163.302 57.6608 163.342 57.9307Z" fill="#3E5936"/>
<path d="M170.385 51.4365C170.145 51.2333 169.866 51.0807 169.566 50.988C169.265 50.8952 168.949 50.8642 168.636 50.8968C168.384 50.9238 168.064 51.0632 168.019 51.3106C168.006 51.3944 168.017 51.4801 168.051 51.5579C168.228 52.1217 168.518 52.643 168.905 53.0894C169.292 53.5359 169.767 53.8979 170.3 54.153C170.983 54.4723 172.099 53.9506 171.91 53.0376C171.82 52.5384 170.754 51.7334 170.385 51.4365Z" fill="#FFCA00"/>
<path d="M170.224 52.264C169.943 52.0097 169.577 51.87 169.198 51.8727C169.054 51.8727 168.879 51.9492 168.861 52.0886C168.86 52.1398 168.871 52.1904 168.892 52.237C169.152 52.9235 169.652 53.4924 170.3 53.8381C170.705 54.054 171.33 53.7976 171.199 53.2624C171.101 52.9791 170.448 52.4664 170.224 52.264Z" fill="#3E5936"/>
<path d="M159.119 53.3704C158.773 53.5858 158.474 53.8703 158.242 54.2061C158.01 54.5419 157.849 54.9218 157.77 55.3222C157.718 55.4938 157.715 55.6763 157.761 55.8494C157.808 56.0225 157.901 56.1794 158.031 56.3027C158.127 56.3571 158.235 56.3851 158.346 56.3836C159.105 56.4322 159.865 56.3127 160.572 56.0336C161.28 55.7546 161.917 55.3228 162.438 54.7691C163.108 54.0585 162.915 52.3764 161.719 52.1875C161.049 52.0841 159.632 53.0466 159.119 53.3704Z" fill="#FFCA00"/>
<path d="M160.086 53.982C159.654 54.2199 159.332 54.6167 159.187 55.0884C159.137 55.2728 159.146 55.5381 159.313 55.6191C159.374 55.6465 159.44 55.6588 159.506 55.6551C160.449 55.6564 161.356 55.2939 162.038 54.6432C162.466 54.2339 162.403 53.3209 161.679 53.2535C161.296 53.2175 160.406 53.7887 160.086 53.982Z" fill="#3E5936"/>
<path d="M165.371 63.7055C165.779 63.6669 166.174 63.5439 166.532 63.3441C166.89 63.1443 167.202 62.8722 167.449 62.5451C167.568 62.4118 167.649 62.2485 167.683 62.0727C167.718 61.8968 167.703 61.7151 167.642 61.5467C167.578 61.4565 167.491 61.3851 167.39 61.3398C166.729 60.9654 165.993 60.7418 165.235 60.6851C164.476 60.6283 163.715 60.7398 163.005 61.0115C162.106 61.3578 161.535 62.9544 162.528 63.647C163.073 64.0248 164.768 63.7774 165.371 63.7055Z" fill="#FFCA00"/>
<path d="M164.768 62.7385C165.258 62.7059 165.717 62.487 166.05 62.1268C166.176 61.9829 166.275 61.7491 166.163 61.5917C166.121 61.5427 166.069 61.5042 166.01 61.4792C165.168 61.0726 164.202 61.0034 163.311 61.2858C162.744 61.4657 162.412 62.3157 163.028 62.6935C163.343 62.8959 164.395 62.7745 164.768 62.7385Z" fill="#3E5936"/>
<path d="M159.943 66.8895C160.315 67.0585 160.719 67.1486 161.129 67.154C161.538 67.1594 161.944 67.0801 162.322 66.9209C162.636 66.786 163.001 66.4712 162.987 66.1519C162.977 66.0419 162.938 65.9364 162.875 65.8461C162.488 65.191 161.962 64.6296 161.333 64.2019C160.704 63.7743 159.988 63.4911 159.236 63.3725C158.274 63.2196 156.988 64.326 157.509 65.4188C157.793 66.0215 159.407 66.6556 159.943 66.8895Z" fill="#FFCA00"/>
<path d="M159.902 65.7562C160.342 65.9753 160.85 66.0156 161.319 65.8686C161.499 65.8057 161.705 65.6528 161.683 65.4639C161.674 65.3982 161.647 65.3362 161.606 65.284C161.078 64.5081 160.274 63.9629 159.358 63.7593C158.778 63.6379 158.058 64.2091 158.409 64.8387C158.589 65.176 159.56 65.5943 159.902 65.7562Z" fill="#3E5936"/>
<path d="M158.144 47.9869C157.795 47.7724 157.405 47.632 157 47.5748C156.594 47.5175 156.181 47.5445 155.787 47.6541C155.459 47.7441 155.063 47.9959 155.031 48.3287C155.025 48.4393 155.048 48.5496 155.099 48.648C155.399 49.3468 155.851 49.9705 156.421 50.4743C156.991 50.9781 157.665 51.3497 158.395 51.5623C159.331 51.8412 160.743 50.9057 160.37 49.7634C160.163 49.1158 158.665 48.2972 158.144 47.9869Z" fill="#FFCA00"/>
<path d="M158.058 49.1158C157.648 48.8428 157.149 48.7381 156.664 48.8234C156.479 48.8639 156.254 48.9898 156.25 49.1787C156.254 49.2449 156.272 49.3094 156.304 49.3676C156.731 50.2085 157.465 50.8527 158.355 51.1666C158.912 51.3645 159.704 50.8922 159.43 50.2176C159.268 49.8578 158.355 49.3227 158.058 49.1158Z" fill="#3E5936"/>
<path d="M160.212 60.5347C160.885 59.7947 161.269 58.8364 161.292 57.8363C161.292 57.463 161.121 57.0088 160.747 56.9728C160.614 56.9704 160.481 56.9997 160.361 57.0582C158.538 57.7929 157.024 59.1314 156.07 60.8495C155.481 61.9244 156.12 63.548 157.541 63.0982C158.319 62.8599 159.704 61.1329 160.212 60.5347Z" fill="#FFCA00"/>
<path d="M158.958 60.4223C159.374 59.984 159.636 59.4219 159.704 58.8212C159.704 58.6098 159.637 58.3715 159.421 58.349C159.342 58.3545 159.266 58.376 159.196 58.412C158.097 58.9198 157.172 59.7413 156.538 60.7731C156.151 61.4162 156.453 62.3112 157.298 62.0054C157.752 61.8345 158.629 60.8091 158.958 60.4223Z" fill="#3E5936"/>
<path d="M166.562 63.9572C165.588 64.1922 164.732 64.7721 164.152 65.5898C163.949 65.9046 163.828 66.3723 164.116 66.6107C164.224 66.6874 164.349 66.7382 164.48 66.7591C166.401 67.1768 168.407 66.9195 170.16 66.0305C171.253 65.4773 171.635 63.7818 170.214 63.3321C169.436 63.1072 167.322 63.7503 166.562 63.9572Z" fill="#FFCA00"/>
<path d="M167.543 64.7668C166.954 64.8921 166.423 65.2083 166.032 65.6663C165.901 65.8372 165.82 66.0891 165.996 66.215C166.064 66.257 166.141 66.2831 166.221 66.2914C167.413 66.493 168.639 66.3365 169.742 65.8417C170.426 65.5314 170.682 64.6139 169.81 64.398C169.328 64.2721 168.015 64.6454 167.543 64.7668Z" fill="#3E5936"/>
<path d="M163.455 50.5369C163.908 50.8018 164.409 50.9726 164.929 51.0391C165.449 51.1055 165.977 51.0663 166.482 50.9237C166.891 50.8023 167.381 50.474 167.381 50.0602C167.378 49.9189 167.337 49.7809 167.264 49.6599C166.819 48.7798 166.194 48.0026 165.431 47.3783C164.667 46.754 163.781 46.2965 162.83 46.035C161.616 45.6977 159.893 46.894 160.464 48.3377C160.784 49.1157 162.758 50.1546 163.455 50.5369Z" fill="#FFCA00"/>
<path d="M163.491 49.1157C164.025 49.4537 164.668 49.5774 165.29 49.462C165.524 49.408 165.798 49.2506 165.784 49.0123C165.779 48.9291 165.749 48.8493 165.699 48.7829C165.087 47.7224 164.108 46.9226 162.947 46.5342C162.218 46.2958 161.255 46.8985 161.651 47.744C161.863 48.2162 163.068 48.8549 163.491 49.1157Z" fill="#3E5936"/>
<path d="M169.216 59.3293C169.198 59.8122 169.283 60.2933 169.465 60.7408C169.647 61.1882 169.923 61.5917 170.273 61.9243C170.419 62.0883 170.604 62.2121 170.811 62.2838C171.018 62.3555 171.24 62.3726 171.456 62.3336C171.575 62.2792 171.678 62.1938 171.753 62.0862C172.318 61.4091 172.716 60.6086 172.916 59.7493C173.115 58.89 173.109 57.9959 172.9 57.1391C172.634 56.0283 170.786 55.0838 169.774 56.0912C169.221 56.6399 169.234 58.6233 169.216 59.3293Z" fill="#FFCA00"/>
<path d="M170.498 58.8212C170.456 59.3978 170.646 59.9672 171.024 60.4043C171.177 60.5752 171.447 60.7326 171.654 60.6337C171.721 60.5987 171.777 60.5457 171.816 60.4808C172.136 60.0428 172.364 59.5441 172.485 59.0153C172.606 58.4864 172.619 57.9384 172.522 57.4045C172.396 56.7254 171.415 56.1723 170.853 56.8109C170.547 57.1617 170.52 58.385 170.498 58.8212Z" fill="#3E5936"/>
<path d="M235.271 33.9325C238.194 36.035 239.022 40.2964 237.762 43.6659C237.208 45.162 236.323 46.4855 235.872 47.997C234.675 51.9679 236.642 56.1078 237.395 60.1829C237.907 63.0564 237.82 66.0048 237.139 68.8431C236.458 71.6814 235.198 74.3484 233.438 76.6766C231.653 78.9991 229.248 81.0213 226.368 81.6319C222.327 82.4826 218.29 80.4636 214.672 78.5121C211.218 76.6573 207.717 74.7666 204.916 72.0243C202.114 69.282 200.053 65.5408 200.232 61.6245C200.318 58.1337 201.483 54.7551 203.565 51.9523C206.392 48.0807 210.979 43.9488 215.712 43.1716C217.252 42.9424 218.853 43.0202 220.378 42.6808C226.376 41.3307 227.392 28.2575 235.271 33.9325Z" fill="#90A22F"/>
<path d="M244.415 28.5868C244.879 28.4494 245.368 28.4256 245.843 28.5175C246.08 28.5698 246.292 28.6983 246.449 28.8833C246.606 29.0682 246.697 29.2994 246.71 29.5415C246.689 29.7752 246.608 29.9996 246.476 30.1934C246.343 30.3873 246.164 30.5443 245.954 30.6495C245.547 30.8469 245.105 30.9644 244.654 30.9958C243.576 31.1105 242.506 31.2911 241.451 31.5367C239.859 31.9615 238.364 32.6874 237.046 33.6753C236.272 34.2549 234.804 36.4153 233.875 36.1556C232.274 35.6978 234.442 34.0085 234.977 33.5259C236.253 32.381 237.658 31.3883 239.164 30.5676C240.812 29.6633 242.58 28.9965 244.415 28.5868Z" fill="#3E5936"/>
<path d="M229.305 57.5345C228.946 58.8432 228.483 60.121 227.919 61.3552" stroke="#BFD352" stroke-width="1.63" stroke-linecap="round" stroke-linejoin="round"/>
<path d="M231.907 55.3853C232.252 57.1785 232.249 59.0214 231.898 60.8135" stroke="#BFD352" stroke-width="1.63" stroke-linecap="round" stroke-linejoin="round"/>
<path d="M234.887 59.0894C234.935 60.5659 234.851 62.0439 234.635 63.5054" stroke="#BFD352" stroke-width="1.63" stroke-linecap="round" stroke-linejoin="round"/>
<path d="M231.873 63.8449C231.725 64.6698 231.484 65.4752 231.155 66.2456" stroke="#BFD352" stroke-width="1.63" stroke-linecap="round" stroke-linejoin="round"/>
<path d="M227.165 65.9233C226.783 66.5808 226.4 67.2384 226.023 67.8969" stroke="#BFD352" stroke-width="1.63" stroke-linecap="round" stroke-linejoin="round"/>
<path d="M227.056 70.1319C226.597 70.8761 226.134 71.623 225.667 72.3726" stroke="#BFD352" stroke-width="1.63" stroke-linecap="round" stroke-linejoin="round"/>
<path d="M232.578 68.944C232.252 69.7379 231.837 70.4926 231.343 71.1938" stroke="#BFD352" stroke-width="1.63" stroke-linecap="round" stroke-linejoin="round"/>
<path d="M235.612 66.8808C235.575 67.7059 235.337 68.5096 234.921 69.2228" stroke="#BFD352" stroke-width="1.63" stroke-linecap="round" stroke-linejoin="round"/>
<path d="M231.856 74.1073C231.402 74.926 230.908 75.7214 230.375 76.4902C230.278 76.6666 230.12 76.801 229.93 76.8676" stroke="#BFD352" stroke-width="1.63" stroke-linecap="round" stroke-linejoin="round"/>
<path d="M228.972 73.6619C228.312 74.825 227.525 75.9112 226.625 76.9006" stroke="#BFD352" stroke-width="1.63" stroke-linecap="round" stroke-linejoin="round"/>
<path d="M223.559 75.9211C223.117 76.6116 222.446 77.1245 221.664 77.3702" stroke="#BFD352" stroke-width="1.63" stroke-linecap="round" stroke-linejoin="round"/>
<path d="M222.015 71.7797C221.678 72.209 221.273 72.5806 220.817 72.88" stroke="#BFD352" stroke-width="1.63" stroke-linecap="round" stroke-linejoin="round"/>
<path d="M226.761 39.8007C226.389 40.4068 226.012 41.0118 225.634 41.6168" stroke="#BFD352" stroke-width="1.63" stroke-linecap="round" stroke-linejoin="round"/>
<path d="M222.615 43.6562C222.16 44.0826 221.611 44.397 221.013 44.5744" stroke="#BFD352" stroke-width="1.63" stroke-linecap="round" stroke-linejoin="round"/>
<path d="M226.587 44.5268C226.461 44.7268 226.336 44.9267 226.215 45.1328" stroke="#BFD352" stroke-width="1.63" stroke-linecap="round" stroke-linejoin="round"/>
<path d="M224.134 45.8434C223.656 46.5496 223.062 47.17 222.377 47.6786" stroke="#BFD352" stroke-width="1.63" stroke-linecap="round" stroke-linejoin="round"/>
<path d="M220.309 46.4158C220.107 46.7736 219.785 47.0488 219.4 47.1933" stroke="#BFD352" stroke-width="1.63" stroke-linecap="round" stroke-linejoin="round"/>
<path d="M218.184 45.0933L217.532 45.1938" stroke="#BFD352" stroke-width="1.63" stroke-linecap="round" stroke-linejoin="round"/>
<g style="mix-blend-mode:multiply" opacity="0.54">
<path d="M233.566 49.3908C233.325 51.2173 233.962 53.0254 234.225 54.8504C234.838 59.0904 233.397 63.4252 231.098 67.0429C228.798 70.6606 225.677 73.6704 222.595 76.6451C221.928 77.3681 221.134 77.9633 220.253 78.4015C219.245 78.7492 218.175 78.8811 217.113 78.7888C216.415 78.773 215.719 78.7418 215.02 78.7044C218.563 80.5982 222.462 82.4556 226.369 81.6319C229.248 81.0213 231.651 79.0094 233.438 76.6766C235.198 74.3483 236.459 71.6814 237.139 68.8431C237.82 66.0047 237.907 63.0564 237.395 60.1829C236.642 56.1078 234.676 51.9679 235.873 47.997C236.324 46.4803 237.212 45.1414 237.763 43.6659C238.259 42.3066 238.432 40.8501 238.266 39.4124L238.239 39.2785C238.031 43.0177 234.056 45.6595 233.566 49.3908Z" fill="#90A22F"/>
</g>
<path d="M206.938 54.2191C206.928 54.2497 206.913 54.2781 206.893 54.3026C206.872 54.3272 206.847 54.3475 206.819 54.3622C206.79 54.377 206.759 54.386 206.727 54.3888C206.696 54.3915 206.664 54.3878 206.633 54.3781C206.571 54.3577 206.52 54.3137 206.49 54.2557C206.461 54.1976 206.455 54.1302 206.475 54.0682C206.485 54.0371 206.5 54.0083 206.521 53.9834C206.542 53.9586 206.568 53.9381 206.597 53.9234C206.626 53.9087 206.657 53.8999 206.689 53.8976C206.722 53.8954 206.754 53.8997 206.785 53.9103C206.816 53.9203 206.844 53.9363 206.868 53.9573C206.892 53.9783 206.912 54.0039 206.926 54.0327C206.94 54.0614 206.949 54.0927 206.951 54.1247C206.953 54.1567 206.948 54.1889 206.938 54.2191Z" fill="#FAFFBA"/>
<path d="M211.162 48.8155C211.118 48.9451 211.024 49.0522 210.902 49.1139C210.78 49.1756 210.638 49.187 210.507 49.1458C210.378 49.1013 210.271 49.0079 210.209 48.8856C210.147 48.7633 210.136 48.6217 210.177 48.491C210.222 48.3614 210.315 48.2544 210.437 48.1927C210.56 48.131 210.701 48.1195 210.832 48.1607C210.961 48.2053 211.068 48.2986 211.13 48.421C211.192 48.5433 211.203 48.6849 211.162 48.8155Z" fill="#FAFFBA"/>
<path d="M209.505 54.2104C209.498 54.2329 209.486 54.2539 209.471 54.2719C209.456 54.29 209.437 54.3048 209.416 54.3155C209.395 54.3263 209.372 54.3328 209.348 54.3345C209.325 54.3363 209.301 54.3334 209.278 54.326C209.234 54.3105 209.198 54.2781 209.177 54.2359C209.156 54.1937 209.153 54.1451 209.168 54.1005C209.174 54.0782 209.185 54.0575 209.2 54.0396C209.215 54.0217 209.233 54.007 209.254 53.9965C209.274 53.9861 209.297 53.98 209.32 53.9787C209.343 53.9774 209.367 53.9809 209.388 53.989C209.433 54.0033 209.47 54.0345 209.492 54.0759C209.514 54.1173 209.518 54.1656 209.505 54.2104Z" fill="#FAFFBA"/>
<path d="M210.722 59.7488C210.677 59.8783 210.584 59.9854 210.461 60.0471C210.339 60.1088 210.198 60.1203 210.067 60.079C209.937 60.0345 209.83 59.9411 209.769 59.8188C209.707 59.6965 209.695 59.5549 209.737 59.4242C209.781 59.2947 209.875 59.1876 209.997 59.1259C210.119 59.0642 210.261 59.0528 210.391 59.094C210.521 59.1385 210.628 59.2319 210.69 59.3542C210.751 59.4765 210.763 59.6181 210.722 59.7488Z" fill="#FAFFBA"/>
<path d="M207.331 50.629C207.315 50.676 207.291 50.7196 207.259 50.7571C207.226 50.7945 207.187 50.8252 207.143 50.8473C207.098 50.8694 207.05 50.8825 207.001 50.8857C206.951 50.889 206.902 50.8824 206.855 50.8664C206.808 50.8518 206.765 50.8279 206.727 50.7961C206.69 50.7644 206.659 50.7254 206.637 50.6815C206.614 50.6377 206.601 50.5898 206.598 50.5407C206.594 50.4916 206.601 50.4424 206.617 50.3959C206.632 50.3482 206.656 50.3041 206.688 50.2659C206.72 50.2278 206.759 50.1965 206.804 50.1739C206.848 50.1513 206.897 50.1378 206.946 50.1343C206.996 50.1307 207.046 50.1373 207.093 50.1534C207.188 50.1855 207.265 50.2534 207.31 50.3424C207.354 50.4315 207.362 50.5344 207.331 50.629Z" fill="#FAFFBA"/>
<path d="M204.32 58.8982C204.315 58.9173 204.305 58.935 204.292 58.9502C204.279 58.9655 204.263 58.978 204.246 58.987C204.228 58.996 204.208 59.0013 204.188 59.0025C204.168 59.0037 204.149 59.0009 204.13 58.9941C204.092 58.9813 204.061 58.9541 204.043 58.9185C204.025 58.8829 204.022 58.8417 204.034 58.8037C204.048 58.7667 204.075 58.7363 204.11 58.7185C204.146 58.7008 204.186 58.6969 204.224 58.7077C204.243 58.7134 204.261 58.723 204.276 58.7359C204.292 58.7487 204.304 58.7645 204.313 58.7823C204.322 58.8001 204.327 58.8196 204.329 58.8395C204.33 58.8594 204.327 58.8794 204.32 58.8982Z" fill="#FAFFBA"/>
<path d="M205.101 63.0483C205.055 63.1726 204.964 63.275 204.846 63.3349C204.728 63.3948 204.591 63.4078 204.464 63.3713C204.341 63.3245 204.24 63.2331 204.181 63.1152C204.122 62.9974 204.109 62.8617 204.146 62.7351C204.192 62.6108 204.283 62.5084 204.401 62.4485C204.519 62.3886 204.656 62.3756 204.783 62.4121C204.906 62.4589 205.007 62.5504 205.066 62.6682C205.125 62.7861 205.138 62.9217 205.101 63.0483Z" fill="#FAFFBA"/>
<path d="M206.878 59.905C206.849 59.9902 206.788 60.0608 206.708 60.1019C206.627 60.1429 206.535 60.1511 206.448 60.1249C206.363 60.0959 206.293 60.0348 206.252 59.9547C206.211 59.8746 206.202 59.7816 206.229 59.6956C206.258 59.6103 206.319 59.5398 206.399 59.4987C206.479 59.4577 206.572 59.4495 206.658 59.4757C206.744 59.5036 206.815 59.5645 206.857 59.6449C206.898 59.7254 206.905 59.819 206.878 59.905Z" fill="#FAFFBA"/>
<path d="M209.385 56.9927C209.362 57.0626 209.312 57.1203 209.246 57.1534C209.18 57.1865 209.104 57.1922 209.034 57.1692C208.999 57.1589 208.966 57.1417 208.938 57.1186C208.91 57.0954 208.887 57.0667 208.871 57.0344C208.854 57.002 208.844 56.9666 208.842 56.9303C208.839 56.894 208.844 56.8576 208.856 56.8233C208.867 56.7882 208.885 56.7558 208.909 56.7278C208.932 56.6999 208.962 56.677 208.994 56.6605C209.027 56.644 209.063 56.6343 209.1 56.632C209.136 56.6296 209.173 56.6346 209.207 56.6468C209.276 56.6699 209.333 56.719 209.367 56.7836C209.4 56.8482 209.406 56.9233 209.385 56.9927Z" fill="#FAFFBA"/>
<path d="M208.65 65.3718C208.626 65.4468 208.588 65.5163 208.537 65.5764C208.487 65.6365 208.425 65.6859 208.355 65.7218C208.285 65.7578 208.208 65.7794 208.13 65.7856C208.052 65.7917 207.973 65.7823 207.898 65.7577C207.823 65.7335 207.754 65.6947 207.694 65.6435C207.634 65.5923 207.584 65.5297 207.548 65.4594C207.513 65.3891 207.491 65.3124 207.485 65.2337C207.479 65.1551 207.489 65.076 207.513 65.001C207.564 64.8502 207.671 64.7252 207.813 64.6532C207.954 64.5811 208.119 64.5678 208.27 64.6161C208.421 64.6661 208.545 64.7737 208.616 64.9154C208.687 65.0571 208.7 65.2212 208.65 65.3718Z" fill="#FAFFBA"/>
<path d="M206.508 69.9957C206.483 70.0709 206.428 70.1328 206.357 70.1678C206.286 70.2028 206.204 70.2081 206.128 70.1825C206.091 70.1705 206.057 70.1512 206.027 70.1258C205.998 70.1004 205.974 70.0693 205.956 70.0345C205.939 69.9996 205.928 69.9616 205.926 69.9227C205.923 69.8838 205.928 69.8447 205.941 69.8078C205.965 69.7324 206.018 69.6699 206.089 69.6337C206.159 69.5975 206.241 69.5907 206.316 69.6148C206.392 69.6405 206.454 69.6948 206.49 69.766C206.526 69.8373 206.533 69.9197 206.508 69.9957Z" fill="#FAFFBA"/>
<g style="mix-blend-mode:multiply" opacity="0.54">
<path d="M234.834 35.4524C235.069 35.5934 235.27 35.7832 235.425 36.009C235.802 36.6195 235.417 37.4212 234.985 38.0046C234.286 37.7073 233.611 37.3546 232.967 36.9498C232.525 36.717 232.15 36.373 231.881 35.9518C231.609 35.4586 231.612 34.0454 232.351 33.8551C232.938 33.7042 234.38 35.1263 234.834 35.4524Z" fill="#90A22F"/>
</g>
<path d="M268.356 88C281 91 277.913 108.5 268.356 117.645C259.488 126.132 247.102 127.206 235.426 126.972C227.461 126.812 218.405 126.18 211 122.882" stroke="#C12E66" stroke-width="2" stroke-linecap="round"/>
<path d="M87.0195 99.1288C84.9152 105.444 92.1743 109.797 96.0669 111.184C108.082 116.394 111.348 101.548 105.333 97.1321C99.317 92.7164 89.6498 91.2346 87.0195 99.1288Z" fill="white"/>
<path d="M87.7573 96.8257C85.653 103.141 92.9121 107.494 96.8047 108.881C108.82 114.091 112.086 99.2447 106.07 94.829C100.055 90.4133 90.3876 88.9315 87.7573 96.8257Z" fill="#C12E66"/>
<path d="M109.49 119.336C111.597 122.936 116.645 121.313 118.907 120.052C126.324 116.543 120.678 108.872 116.113 109.883C111.548 110.894 106.857 114.837 109.49 119.336Z" fill="white"/>
<path d="M164.376 95.6833C166.482 99.2829 171.531 97.6603 173.792 96.3991C181.209 92.8899 175.563 85.2196 170.998 86.2303C166.433 87.241 161.743 91.1838 164.376 95.6833Z" fill="white"/>
<path d="M217.041 104.787C218.902 102.105 216.086 99.0562 214.446 97.8671C209.51 93.7591 205.927 100.295 208.149 103.202C210.371 106.109 214.716 108.139 217.041 104.787Z" fill="white"/>
<path d="M226.575 116.789C227.265 119.043 230.253 118.807 231.661 118.407C236.197 117.442 234.089 112.489 231.447 112.451C228.804 112.413 225.712 113.971 226.575 116.789Z" fill="white"/>
<path d="M108.71 118.037C110.817 121.637 115.865 120.014 118.126 118.753C125.544 115.244 119.897 107.574 115.332 108.584C110.768 109.595 106.077 113.538 108.71 118.037Z" fill="#C12E66"/>
<path d="M163.595 94.3845C165.702 97.9841 170.75 96.3615 173.012 95.1002C180.429 91.591 174.783 83.9208 170.218 84.9315C165.653 85.9422 160.962 89.885 163.595 94.3845Z" fill="#625ABB"/>
<path d="M216.377 105.768C218.237 103.087 215.422 100.038 213.781 98.8489C208.845 94.7409 205.262 101.277 207.484 104.184C209.706 107.091 214.051 109.121 216.377 105.768Z" fill="#90A22F"/>
<path d="M226.315 115.973C227.005 118.227 229.993 117.991 231.401 117.591C235.937 116.626 233.829 111.673 231.187 111.635C228.545 111.597 225.452 113.156 226.315 115.973Z" fill="#90A22F"/>
<path d="M291.768 143.031C287.487 142.309 283.18 144.465 279.953 147.372C275.365 151.532 272.357 157.151 271.439 163.275C270.893 167.007 271.174 170.936 272.753 174.383C274.332 177.831 277.341 180.663 281.001 181.599C286.245 182.934 291.66 180.227 295.942 176.903C299.418 174.195 302.578 170.927 304.545 166.993C306.512 163.058 307.787 156.925 305.112 152.974C302.326 148.827 296.765 143.874 291.768 143.031Z" fill="white"/>
<path d="M241.291 170.287C242.471 168.476 244.713 167.626 246.865 167.425C249.935 167.148 253.007 167.942 255.559 169.671C257.109 170.73 258.453 172.157 259.182 173.898C259.912 175.639 259.934 177.696 259.043 179.351C257.763 181.721 254.946 182.791 252.285 183.237C250.121 183.597 247.859 183.652 245.756 183.045C243.652 182.439 240.976 180.837 240.432 178.525C239.853 176.107 239.915 172.401 241.291 170.287Z" fill="white"/>
<path d="M278.401 153.256C277.124 154.862 276.25 156.75 275.851 158.763" stroke="#625ABB" stroke-width="1.96" stroke-linecap="round" stroke-linejoin="round"/>
<path d="M278.642 163.48C278.326 163.793 278.076 164.167 277.909 164.579" stroke="#625ABB" stroke-width="1.96" stroke-linecap="round" stroke-linejoin="round"/>
<path d="M303.871 157.024C303.894 157.427 303.791 157.827 303.576 158.168" stroke="#625ABB" stroke-width="1.96" stroke-linecap="round" stroke-linejoin="round"/>
<path d="M302.3 163.767C301.764 165.399 300.962 166.928 299.931 168.283" stroke="#625ABB" stroke-width="1.96" stroke-linecap="round" stroke-linejoin="round"/>
<path d="M283.185 149.319C282.674 149.628 282.25 150.062 281.952 150.579" stroke="#625ABB" stroke-width="1.96" stroke-linecap="round" stroke-linejoin="round"/>
<path d="M294.04 173.983C293.583 174.411 293.066 174.771 292.506 175.051" stroke="#625ABB" stroke-width="1.96" stroke-linecap="round" stroke-linejoin="round"/>
</svg>
