<svg width="316" height="200" viewBox="0 0 316 200" fill="none" xmlns="http://www.w3.org/2000/svg">
<rect y="200" width="200" height="316" rx="12" transform="rotate(-90 0 200)" fill="#BFD352"/>
<mask id="mask0_1008_1441" style="mask-type:alpha" maskUnits="userSpaceOnUse" x="0" y="0" width="316" height="201">
<rect y="200" width="200" height="316" rx="12" transform="rotate(-90 0 200)" fill="#BFD352"/>
</mask>
<g mask="url(#mask0_1008_1441)">
<path d="M249.613 85.0013C278.813 68.6013 312.78 72.5013 326.113 76.5013L337.613 241.565L-18.8868 233.065C-21.2201 210.732 -23.5868 104.401 -14.3868 114.001C-2.88677 126.001 41.2302 113.934 62.1132 102.001C86.6133 88.0013 119.591 89.2203 140.113 114.001C166.613 146.001 213.113 105.501 249.613 85.0013Z" fill="#90A22F"/>
<path d="M-13.8867 101.936C-7.22005 104.103 9.31328 107.136 22.1133 101.936C38.1133 95.4361 61.1133 79.4361 79.6133 74.9361C98.1133 70.4361 123.095 69.6372 147.113 90.9361C173.613 114.436 206.613 93.9361 222.113 78.9361C240.113 61.5168 276.613 27.9361 316.613 44.4361" stroke="#FEFFB5" stroke-width="2"/>
</g>
<path d="M77.285 134.491C66.9453 130.39 55.6647 128.321 44.6026 129.565C33.5404 130.809 22.7242 135.476 14.9601 143.442C22.473 143.048 29.9868 144.2 37.0366 146.827C43.9725 149.427 50.292 153.39 56.8383 156.829C63.3845 160.268 70.4395 163.208 77.8476 163.48C82.6226 163.703 87.3615 162.551 91.5009 160.161C94.6273 158.275 99.5824 154.009 99.0762 149.847C98.6786 146.701 94.2719 144.445 92.0116 142.707C87.505 139.302 82.5492 136.537 77.285 134.491V134.491Z" fill="#437E14"/>
<path d="M20.9025 140.89C31.1443 137.625 52.2978 140.036 56.3373 140.442C60.6714 140.965 64.9652 141.78 69.1896 142.881C78.3862 145.092 88.2864 147.691 94.2675 155.027" stroke="#5F9C2F" stroke-width="1.31" stroke-linecap="round" stroke-linejoin="round"/>
<path d="M37.7784 134.859C39.1562 136.376 40.5463 137.897 41.9322 139.41C42.0581 139.53 42.1423 139.688 42.1725 139.86C42.1881 140.141 41.9121 140.34 41.6751 140.477L36.2785 143.625" stroke="#5F9C2F" stroke-width="1.31" stroke-linecap="round" stroke-linejoin="round"/>
<path d="M45.9754 131.983C48.3723 134.616 50.7708 137.258 53.171 139.91L46.1504 145.475" stroke="#5F9C2F" stroke-width="1.31" stroke-linecap="round" stroke-linejoin="round"/>
<path d="M55.7901 133.203C58.8377 135.806 61.6692 138.651 64.257 141.712C59.872 144.867 55.6752 148.277 51.688 151.922" stroke="#5F9C2F" stroke-width="1.31" stroke-linecap="round" stroke-linejoin="round"/>
<path d="M69.6121 135C72.4665 137.865 75.07 140.969 77.3942 144.278C76.3896 145.252 75.1742 145.982 73.8422 146.411C70.9465 147.66 68.2181 149.265 65.7202 151.19" stroke="#5F9C2F" stroke-width="1.31" stroke-linecap="round" stroke-linejoin="round"/>
<path d="M84.8249 140.798C86.614 143.338 87.8544 146.223 88.4671 149.268C88.5538 149.563 88.5521 149.876 88.4624 150.17C88.2598 150.505 87.9418 150.756 87.5679 150.874L78.8151 154.781" stroke="#5F9C2F" stroke-width="1.31" stroke-linecap="round" stroke-linejoin="round"/>
<path d="M276.569 141.3C278.126 134.898 280.987 128.736 285.374 123.814C289.762 118.892 295.721 115.26 302.23 114.233C299.468 117.73 297.453 121.757 296.309 126.065C295.193 130.308 294.945 134.719 294.367 139.061C293.789 143.403 292.795 147.82 290.391 151.495C288.865 153.88 286.686 155.776 284.113 156.959C282.131 157.825 278.373 158.761 276.534 157.091C275.149 155.822 275.567 152.92 275.5 151.232C275.397 147.888 275.756 144.546 276.569 141.3V141.3Z" fill="#BFD352"/>
<path d="M298.962 116.233C293.878 120.066 287.803 131.118 286.616 133.21C285.386 135.484 284.31 137.839 283.397 140.258C281.317 145.461 279.185 151.137 280.684 156.54" stroke="#5F9C2F" stroke-width="1.31" stroke-linecap="round" stroke-linejoin="round"/>
<path d="M290.27 122.327C290.531 123.512 290.791 124.705 291.048 125.893C291.063 125.995 291.11 126.089 291.183 126.163C291.314 126.267 291.504 126.201 291.652 126.134L295.021 124.602" stroke="#5F9C2F" stroke-width="1.31" stroke-linecap="round" stroke-linejoin="round"/>
<path d="M286.073 125.305C286.526 127.365 286.982 129.429 287.443 131.497L292.536 130.008" stroke="#5F9C2F" stroke-width="1.31" stroke-linecap="round" stroke-linejoin="round"/>
<path d="M283.304 130.468C283.519 132.832 283.926 135.175 284.52 137.473C287.546 136.434 290.631 135.572 293.758 134.892" stroke="#5F9C2F" stroke-width="1.31" stroke-linecap="round" stroke-linejoin="round"/>
<path d="M279.442 137.765C279.85 140.126 280.459 142.447 281.263 144.703C282.078 144.551 282.847 144.213 283.51 143.716C285.105 142.744 286.815 141.974 288.601 141.425" stroke="#5F9C2F" stroke-width="1.31" stroke-linecap="round" stroke-linejoin="round"/>
<path d="M277.037 147.104C277.653 148.839 278.623 150.426 279.886 151.764C279.998 151.907 280.15 152.013 280.323 152.071C280.555 152.088 280.785 152.02 280.97 151.879L285.855 148.985" stroke="#5F9C2F" stroke-width="1.31" stroke-linecap="round" stroke-linejoin="round"/>
<path d="M227.762 37.5896C230.236 38.026 236.425 35.8792 240.123 34.4719C242.634 33.7132 244.949 32.3915 246.895 30.6056C247.839 29.681 248.451 28.4639 248.631 27.1509C248.812 25.8379 248.55 24.5057 247.89 23.3696C247.163 22.5346 246.21 21.9329 245.148 21.6372C244.086 21.3415 242.959 21.3646 241.904 21.7035C239.798 22.4146 237.854 23.5538 236.193 25.0509C232.111 28.2819 227.772 32.3544 227.762 37.5896Z" fill="#FEFFB5"/>
<path d="M214.915 36.1308C216.301 35.334 218.447 31.7591 219.678 29.5622C220.595 28.1667 221.185 26.5765 221.406 24.91C221.49 24.0731 221.292 23.2289 220.844 22.5141C220.396 21.7993 219.725 21.2555 218.938 20.9706C218.242 20.8596 217.532 20.9546 216.892 21.2439C216.253 21.5332 215.712 22.0044 215.335 22.6007C214.597 23.8075 214.113 25.1572 213.913 26.5664C213.239 29.8107 212.783 33.5706 214.915 36.1308Z" fill="#FEFFB5"/>
<rect x="91.8535" y="45.0001" width="166.625" height="109.833" transform="rotate(4.1004 91.8535 45.0001)" fill="#625ABB" stroke="white" stroke-width="8"/>
<rect x="117.842" y="73.6973" width="100.002" height="65.9181" rx="5" transform="rotate(-2.49321 117.842 73.6973)" fill="#544CA5"/>
<path d="M188.482 155.045C191.347 154.91 192.669 155.845 195.633 157.055C197.292 157.76 199.035 158.25 200.819 158.513" stroke="white" stroke-width="1.63" stroke-linecap="round" stroke-linejoin="round"/>
<path d="M64.1996 155.538L91.6628 145.732C92.9234 145.282 94.3102 145.939 94.7603 147.2L104.566 174.663C105.016 175.923 104.359 177.31 103.098 177.76L75.6351 187.566C74.3745 188.016 72.9877 187.359 72.5376 186.098L62.732 158.635C62.2819 157.375 62.939 155.988 64.1996 155.538Z" fill="white" stroke="#BFD352" stroke-width="3"/>
<path d="M76.0947 161.392C75.2947 162.192 79.7613 169.726 82.0947 173.392C83.5946 172.392 90.0947 165.392 90.0947 163.392C90.0947 161.392 77.0947 160.392 76.0947 161.392Z" fill="#C12E66"/>
<path d="M25.0001 60.1003L38.0003 59.4535" stroke="white" stroke-width="1.63" stroke-linecap="round" stroke-linejoin="round"/>
<path d="M38.5 37.0001L41.9997 44.5001" stroke="white" stroke-width="1.63" stroke-linecap="round" stroke-linejoin="round"/>
<path d="M21.5486 40.0002L40.0574 53.0234" stroke="white" stroke-width="1.63" stroke-linecap="round" stroke-linejoin="round"/>
<path d="M63.7406 40C38.1406 52 34.2407 62 30.2406 71C8.24063 131.5 77.2406 153.5 113.241 138.5C149.241 123.5 146.741 84.5 132.741 61C118.741 37.5 95.7406 25 63.7406 40Z" fill="white"/>
<path d="M66.5162 46.6535C44.2841 57.0579 40.8973 65.7283 37.4235 73.5316C18.3178 125.987 78.2402 145.062 109.504 132.056C140.768 119.051 138.597 85.2365 126.439 64.8612C114.281 44.4859 94.3064 33.648 66.5162 46.6535Z" fill="#90A22F"/>
<mask id="mask1_1008_1441" style="mask-type:alpha" maskUnits="userSpaceOnUse" x="26" y="17" width="117" height="127">
<path fill-rule="evenodd" clip-rule="evenodd" d="M42.4768 39.1862C44.8284 33.8726 47.4397 27.9723 62.4564 20.9277C81.7168 11.8923 95.5603 19.4218 103.987 33.5773C104.493 34.4276 104.974 35.3115 105.427 36.224C116.725 40.4786 125.829 49.3989 132.741 61C146.741 84.5 149.241 123.5 113.241 138.5C77.2406 153.5 8.24063 131.5 30.2406 71C30.3423 70.7712 30.444 70.5417 30.5459 70.3116C32.5821 65.7144 34.7354 60.8526 39.8621 55.5953C39.4297 50.879 40.1319 45.5488 42.2931 39.6009C42.3543 39.4631 42.4154 39.3248 42.4768 39.1862Z" fill="white"/>
</mask>
<g mask="url(#mask1_1008_1441)">
<path d="M106.464 100.957C106.464 100.957 117.781 99.4355 122.759 111.068C127.736 122.701 123.54 132.161 123.54 132.161C123.54 132.161 100.726 105.006 106.464 100.957Z" fill="#F36A9F"/>
<path d="M106.569 63.1745C106.489 63.0069 106.401 62.8521 106.322 62.6845C105.912 55.2058 104.176 44.7572 97.9802 40.5021C92.3204 36.6209 87.3107 37.4935 83.9851 39.0214C82.7257 35.5529 80.0375 32.224 76.2206 29.8858C68.7393 25.3062 59.8097 26.2819 56.2675 32.0692C53.015 37.3967 55.4844 44.9378 61.7364 49.6786C58.0891 53.8842 53.7745 61.2705 54.0126 72.482C54.416 91.6751 45.8426 89.5089 46.7437 99.1194C47.6448 108.73 62.4058 112.985 83.7449 110.254C105.084 107.522 117.895 87.3921 106.569 63.1745Z" fill="#761238"/>
<path d="M98.478 91.439L99.7481 100.315C103.374 102.818 100.563 108.436 97.8729 108.911C93.7772 109.639 85.3154 104.828 83.6355 103.108C83.6355 103.108 83.3286 98.0194 82.9038 95.7091L98.478 91.439Z" fill="#FFAA8D"/>
<path d="M78.849 79.5719C78.9306 79.8426 79.0207 80.1156 79.1258 80.3756C79.4584 80.0747 82.005 89.9475 83.1142 97.2263C90.4089 99.3023 97.8238 96.7793 99.1754 96.2828C97.9332 87.0419 95.8177 78.766 93.6701 73.6943C89.5529 65.1883 76.0449 70.5609 78.849 79.5719Z" fill="#E57D61"/>
<path d="M67.1026 74.4936C69.3253 81.4479 72.9405 89.1071 79.274 92.9753C81.8293 94.5205 84.7793 95.3027 87.798 95.4381C104.962 97.7075 121.714 75.1124 106.562 63.1724C101.188 59.519 99.0211 51.9436 94.6057 48.1742C87.9396 41.0566 76.0064 43.2873 70.5053 50.7531C65.5471 57.4946 64.7619 65.8716 67.1026 74.4936Z" fill="#FFAA8D"/>
<path d="M93.6013 65.9855C94.0668 64.6466 91.9578 63.9482 91.533 65.2999C91.0696 66.6302 93.1765 67.3329 93.6013 65.9855Z" fill="#B03E30"/>
<path d="M102.43 63.0865C102.894 61.7477 100.787 61.0492 100.362 62.401C99.8965 63.7377 102.006 64.4361 102.43 63.0865Z" fill="#B03E30"/>
<path d="M101.04 72.8625C100.377 72.9678 98.9546 73.4384 98.858 72.5315C98.8754 72.4235 98.9349 72.3269 99.0234 72.2628C99.1119 72.1987 99.2222 72.1725 99.33 72.1899C100.763 72.4198 102.595 71.4398 102.763 70.7822C102.823 70.548 102.499 70.3782 102.214 70.275C99.7548 69.4713 95.8222 63.4819 98.1371 64.6639C98.1586 64.7047 100.293 68.7041 102.495 69.4992C105.028 70.7306 102.823 72.3188 101.04 72.8625Z" fill="#B03E30"/>
<path d="M140.429 183.994C106.017 205.641 55.4675 194.309 55.4675 194.309L55.4439 194.23C55.1649 193.278 52.4595 183.914 51.582 175.931C51.3009 173.388 51.2087 170.988 51.4404 169.054C53.4829 151.992 63.5581 108.059 83.6035 103.132C83.6035 103.132 93.447 113.346 101.39 106.966C104.466 104.492 99.7183 100.321 99.7183 100.321C104.988 101.524 118.303 111.996 122.675 116.838C154.892 152.56 136.923 158.31 140.429 183.994Z" fill="#F36A9F"/>
<path d="M67.1024 74.4936C69.3252 81.4479 72.9403 89.1071 79.2738 92.9753C75.5728 89.5734 72.3203 81.2029 72.3203 81.2029L73.2128 77.1197C96.7188 65.3881 91.737 45.8425 91.737 45.8425C74.4272 35.9204 61.3911 58.6637 67.1024 74.4936Z" fill="#E57D61"/>
<path d="M88.6408 44.2372C88.6408 44.2372 93.6656 63.7698 72.7642 75.164L64.1651 71.9791C54.1242 57.9373 64.6993 33.2534 88.6408 44.2372Z" fill="#761238"/>
<path d="M63.1267 78.7788C65.9502 86.597 75.7615 82.9157 72.7621 75.1641C69.9387 67.3458 60.1273 71.0272 63.1267 78.7788Z" fill="#FFAA8D"/>
<path d="M65.9935 80.0554C64.0625 78.551 64.1806 74.9084 64.9658 74.167C66.384 72.6433 69.3662 72.9012 69.2739 73.7372C68.8834 74.6247 66.9912 73.1462 65.6095 74.6741C64.1741 76.1204 66.8538 79.2301 65.9935 80.0554Z" fill="#C16256"/>
<path d="M69.7136 78.9077C68.8726 78.9872 68.1088 76 64.8584 76.1591C64.8044 76.1638 64.75 76.1578 64.6984 76.1414C64.6467 76.1251 64.5988 76.0987 64.5574 76.0637C64.5159 76.0288 64.4817 75.986 64.4568 75.9378C64.4319 75.8896 64.4167 75.8371 64.4121 75.783C66.4053 73.7478 71.2627 78.8453 69.7136 78.9077Z" fill="#C16256"/>
<path d="M81.0525 129.887C81.0525 129.887 80.3659 147.598 72.4276 164.575C64.4893 181.553 55.4782 194.232 55.4782 194.232H55.4395C55.1606 193.28 52.4551 183.917 51.5776 175.933L81.0525 129.887Z" fill="#EB4886"/>
<path d="M68.1474 81.8411C68.3083 83.0317 70.1749 82.7502 69.9775 81.5639C69.8145 80.3712 67.95 80.6548 68.1474 81.8411Z" fill="#F4D4BE"/>
<path d="M103.67 121.813C103.622 122.26 103.441 122.683 103.153 123.027C102.864 123.372 102.48 123.623 102.049 123.748C101.618 123.874 101.16 123.869 100.732 123.734C100.304 123.599 99.9251 123.34 99.644 122.989C99.363 122.639 99.192 122.212 99.1527 121.764C99.1135 121.316 99.2078 120.867 99.4235 120.473C99.6393 120.078 99.967 119.757 100.365 119.549C100.763 119.341 101.214 119.257 101.66 119.305C101.957 119.338 102.244 119.428 102.505 119.572C102.767 119.715 102.997 119.909 103.184 120.142C103.371 120.375 103.51 120.643 103.593 120.929C103.677 121.216 103.703 121.516 103.67 121.813V121.813Z" fill="#C12E66"/>
<path d="M105.556 130.135C105.507 130.582 105.327 131.004 105.039 131.348C104.75 131.693 104.366 131.944 103.935 132.07C103.504 132.196 103.046 132.191 102.617 132.056C102.189 131.92 101.811 131.661 101.53 131.31C101.249 130.96 101.078 130.534 101.038 130.086C100.999 129.638 101.093 129.188 101.309 128.794C101.525 128.4 101.853 128.078 102.251 127.871C102.649 127.663 103.1 127.578 103.546 127.627C103.842 127.659 104.129 127.75 104.391 127.893C104.652 128.037 104.883 128.231 105.07 128.463C105.256 128.696 105.395 128.964 105.479 129.251C105.562 129.537 105.589 129.838 105.556 130.135V130.135Z" fill="#C12E66"/>
<path d="M88.227 63.9634C88.1658 63.953 88.107 63.9319 88.0532 63.901C87.9959 63.8681 87.9457 63.8241 87.9055 63.7717C87.8652 63.7193 87.8356 63.6594 87.8185 63.5955C87.8013 63.5316 87.797 63.465 87.8056 63.3994C87.8142 63.3338 87.8356 63.2706 87.8687 63.2134C87.9352 63.0973 89.5186 60.3852 92.3184 59.3622C92.3813 59.3358 92.4489 59.3224 92.5172 59.3229C92.5854 59.3234 92.6528 59.3377 92.7153 59.3651C92.7778 59.3924 92.8342 59.4322 92.8809 59.482C92.9277 59.5318 92.9638 59.5905 92.9872 59.6547C93.0106 59.7189 93.0208 59.7872 93.0171 59.8554C93.0134 59.9237 92.9958 59.9904 92.9656 60.0517C92.9354 60.113 92.8931 60.1674 92.8412 60.2118C92.7893 60.2562 92.729 60.2896 92.6638 60.31C90.2158 61.2062 88.7547 63.6926 88.7419 63.7162C88.6908 63.8045 88.6144 63.8753 88.5225 63.9194C88.4306 63.9635 88.3277 63.9788 88.227 63.9634V63.9634Z" fill="#761238"/>
<path d="M101.536 76.8447C101.557 76.9031 101.566 76.9652 101.564 77.0274C101.559 77.1609 101.502 77.2873 101.405 77.3788C101.307 77.4702 101.178 77.5193 101.044 77.5152C100.911 77.5152 97.7767 77.3884 95.5561 75.3963C95.4632 75.3054 95.409 75.182 95.4046 75.052C95.4002 74.922 95.4461 74.7954 95.5327 74.6984C95.6192 74.6014 95.7398 74.5417 95.8693 74.5316C95.9988 74.5214 96.1272 74.5618 96.2277 74.6441C98.1715 76.387 101.049 76.5052 101.076 76.5052C101.178 76.509 101.276 76.5434 101.358 76.6039C101.44 76.6645 101.502 76.7484 101.536 76.8447V76.8447Z" fill="#C12E66"/>
<path d="M96.1762 59.1471C96.1249 59.0836 96.0897 59.0085 96.0737 58.9284C96.0577 58.8483 96.0614 58.7654 96.0844 58.687C96.1074 58.6086 96.1491 58.537 96.2058 58.4782C96.2625 58.4195 96.3326 58.3754 96.4101 58.3498C96.5367 58.309 99.5275 57.3591 102.291 58.4809C102.356 58.5031 102.416 58.5382 102.466 58.5843C102.517 58.6304 102.558 58.6864 102.587 58.7489C102.615 58.8113 102.631 58.879 102.632 58.9477C102.634 59.0164 102.621 59.0847 102.596 59.1484C102.57 59.2121 102.532 59.2698 102.483 59.3181C102.434 59.3664 102.376 59.4043 102.312 59.4293C102.248 59.4543 102.18 59.466 102.111 59.4637C102.043 59.4614 101.975 59.445 101.913 59.4157C99.4975 58.4357 96.7491 59.2997 96.7212 59.3083C96.6248 59.34 96.521 59.3416 96.4236 59.3128C96.3263 59.284 96.24 59.2262 96.1762 59.1471V59.1471Z" fill="#761238"/>
<path d="M73.9122 127.642C75.3475 136.296 61.6292 177.525 50.5907 190.851C38.4472 207.274 30.0304 227.944 23.9865 247.707C22.2187 254.179 12.0511 252.417 12.5274 245.772C13.6495 222.071 18.4705 199.304 29.3374 177.725C37.9001 161.324 46.9304 144.155 54.6327 132.67C54.2058 133.304 69.9473 107.462 73.9122 127.642Z" fill="#F99370"/>
<path d="M74.2791 104.649C74.2791 104.649 52.4616 109.867 25.9326 162.692C14.4628 185.528 9.54746 218.568 12.9631 238.506C21.0859 242.772 25.7974 241.979 25.7974 241.979C34.6433 220.704 63.247 176.279 75.2168 149.747C89.583 117.891 74.2791 104.649 74.2791 104.649Z" fill="#F36A9F"/>
<path d="M64.9339 122.655C64.8602 122.822 64.7246 122.954 64.5555 123.022C64.3863 123.09 64.1973 123.09 64.0285 123.021C63.9433 122.986 63.866 122.934 63.8012 122.868C63.7364 122.803 63.6854 122.725 63.6512 122.64C63.617 122.554 63.6001 122.462 63.602 122.37C63.6038 122.278 63.6243 122.187 63.6619 122.103C63.6971 122.02 63.7484 121.944 63.813 121.88C63.8777 121.816 63.9542 121.766 64.0384 121.732C64.1226 121.698 64.2129 121.681 64.3036 121.682C64.3944 121.683 64.4838 121.702 64.5672 121.738C64.6524 121.773 64.7298 121.825 64.7946 121.89C64.8594 121.956 64.9104 122.033 64.9446 122.119C64.9788 122.205 64.9956 122.296 64.9938 122.388C64.9919 122.48 64.9714 122.571 64.9339 122.655V122.655Z" fill="white"/>
<path d="M73.2796 114.193C73.2054 114.373 73.0959 114.536 72.9577 114.673C72.8195 114.81 72.6553 114.918 72.4748 114.991C72.2943 115.064 72.101 115.099 71.9064 115.096C71.7119 115.093 71.5199 115.051 71.3418 114.973C70.9828 114.818 70.6997 114.527 70.5537 114.164C70.4078 113.802 70.4108 113.396 70.5625 113.035C70.7175 112.676 71.008 112.393 71.3708 112.247C71.7336 112.101 72.1397 112.104 72.5002 112.256C72.8593 112.411 73.1423 112.701 73.2883 113.064C73.4343 113.427 73.4313 113.833 73.2796 114.193V114.193Z" fill="white"/>
<path d="M72.2113 123.259C72.1582 123.383 72.0587 123.48 71.9342 123.53C71.8098 123.581 71.6707 123.58 71.5467 123.529C71.4234 123.476 71.3259 123.376 71.2754 123.252C71.2249 123.127 71.2254 122.988 71.2769 122.864C71.303 122.803 71.3411 122.748 71.3889 122.701C71.4368 122.655 71.4935 122.619 71.5556 122.595C71.6176 122.571 71.6837 122.559 71.7502 122.561C71.8168 122.563 71.8824 122.579 71.9429 122.606C72.0632 122.659 72.1582 122.757 72.2082 122.879C72.2583 123 72.2593 123.137 72.2113 123.259Z" fill="white"/>
<path d="M60.1541 126.369C60.042 126.628 59.8318 126.832 59.5697 126.936C59.3075 127.041 59.0147 127.037 58.755 126.927C58.4942 126.817 58.2874 126.608 58.1806 126.346C58.0737 126.084 58.0753 125.79 58.1849 125.529C58.297 125.267 58.508 125.06 58.772 124.953C59.036 124.846 59.3318 124.848 59.5946 124.958C59.8547 125.072 60.0592 125.284 60.1639 125.548C60.2686 125.812 60.2652 126.107 60.1541 126.369Z" fill="white"/>
<path d="M74.2793 104.649C74.2793 104.649 74.1248 109.996 79.4649 111.188C84.805 112.381 83.8246 118.325 89.8255 117.53C95.8265 116.735 95.5153 110.903 101.72 113.041C108.414 115.349 110.579 109.265 108.395 106.467C106.211 103.669 110.738 101.006 108.18 96.8564C108.18 96.8564 102.859 96.9596 99.7055 100.314C99.7055 100.314 99.8922 105.45 96.3993 106.63C94.1036 107.404 87.3711 105.18 83.5928 103.123C83.6121 103.123 78.1712 101.93 74.2793 104.649Z" fill="#EB4886"/>
</g>
<path d="M257.095 87.3506C278.633 97.4466 281.914 105.86 285.279 113.432C303.789 164.332 245.737 182.842 215.449 170.222C185.161 157.602 187.264 124.79 199.043 105.019C210.822 85.2473 230.172 74.7307 257.095 87.3506Z" fill="white"/>
<path d="M254.759 92.9484C273.464 101.702 276.313 108.997 279.236 115.562C295.31 159.694 244.896 175.742 218.592 164.8C192.289 153.858 194.116 125.409 204.345 108.267C214.574 91.1247 231.379 82.0064 254.759 92.9484Z" fill="#90A22F"/>
<mask id="mask2_1008_1441" style="mask-type:alpha" maskUnits="userSpaceOnUse" x="191" y="68" width="98" height="107">
<path fill-rule="evenodd" clip-rule="evenodd" d="M274.985 86.6659C273.006 82.1954 270.809 77.2313 258.175 71.3045C241.971 63.7027 230.324 70.0375 223.234 81.947C222.809 82.6623 222.404 83.4061 222.023 84.1738C212.518 87.7532 204.858 95.2582 199.043 105.019C187.264 124.79 185.161 157.602 215.449 170.222C245.737 182.842 303.789 164.332 285.279 113.432C285.194 113.239 285.108 113.046 285.023 112.853C283.309 108.985 281.498 104.895 277.185 100.471C277.548 96.5034 276.958 92.019 275.139 87.0148C275.088 86.8989 275.036 86.7826 274.985 86.6659Z" fill="white"/>
</mask>
<g mask="url(#mask2_1008_1441)">
<path d="M224.465 184.655C204.989 201.528 175.931 206.871 154.364 190.438V190.414C147.947 185.712 141.463 178.145 136.957 170.232L142.251 161.634C184.293 187.61 200.936 143.287 235.125 139.829L228.282 149.842C228.282 149.842 225.063 183.963 224.465 184.655Z" fill="#FFB400"/>
<path d="M229.873 96.6365C229.873 96.6365 229.674 84.3676 240.746 82.1898L246.55 88.2206L229.873 96.6365Z" fill="#FFCA00"/>
<path d="M234.815 139.486C233.885 131.369 235.153 119.659 236.282 114.842C238.321 105.342 253.363 109.017 250.862 118.358C250.378 118.053 248.825 135.27 249.896 140.05C264.015 144.292 221.557 158.24 234.815 139.486Z" fill="#FFB79E"/>
<path d="M251.008 117.574C250.97 117.836 250.924 118.101 250.862 118.358C250.514 118.127 249.534 127.626 249.526 134.512C243.058 137.46 235.86 135.98 234.54 135.709C234.399 126.974 235.185 119.2 236.466 114.204C239.088 105.756 252.346 108.837 251.008 117.574Z" fill="#F3937A"/>
<path d="M261.038 114.029C258.896 120.522 255.443 127.671 249.48 131.235C247.059 132.667 244.314 133.365 241.477 133.467C225.549 135.619 209.86 113.899 224.193 103.09C226.534 101.378 228.474 99.1766 229.881 96.6383C242.643 71.9709 268.837 91.3295 261.038 114.029Z" fill="#FFB79E"/>
<path d="M207.18 173.812L200.622 197.905C186.577 202.228 171.603 201.247 158.395 193.118C172.915 201.333 192.873 196.708 196.024 191.876C199.335 186.78 206.718 174.551 207.18 173.812Z" fill="#7640CC"/>
<path d="M284.714 254.044C283.193 255.894 281.573 257.752 279.854 259.616C279.854 259.616 271.492 261.191 264.937 252.462C291.655 195.733 240.074 190.44 250.383 140C284.853 144.076 332.787 195.595 284.714 254.044Z" fill="#FFB400"/>
<path d="M262.494 157C262.708 157.547 262.795 158.135 262.75 158.72C262.704 159.306 262.527 159.873 262.232 160.381" stroke="#FF9100" stroke-width="1.63" stroke-linecap="round" stroke-linejoin="round"/>
<path d="M236.306 105.83C235.882 104.574 237.863 103.938 238.249 105.206C238.671 106.462 236.692 107.099 236.306 105.83Z" fill="#B03E30"/>
<path d="M228.068 103.04C227.643 101.784 229.623 101.147 230.009 102.416C230.433 103.672 228.452 104.308 228.068 103.04Z" fill="#B03E30"/>
<path d="M261.038 114.029C258.896 120.522 255.444 127.672 249.481 131.235C248.987 131.528 248.477 131.791 247.952 132.021C252.589 128.689 256.276 120.534 256.276 120.534L256.493 113.155C251.089 105.563 255.051 98.6407 255.051 98.6407C243.768 99.9369 241.2 92.6777 241.2 92.6777C237.718 92.5681 234.355 90.2068 234.355 90.2068C248.684 74.3861 267.766 96.9495 261.038 114.029Z" fill="#F3937A"/>
<path d="M230.52 112.385C231.183 112.585 231.751 111.663 230.889 111.587C229.531 111.843 226.566 110.443 228.203 109.771C230.55 108.973 234.21 103.588 232.069 104.552C232.049 104.589 230.014 108.315 227.948 109.041C225.115 110.445 228.559 112.389 230.52 112.385Z" fill="#B03E30"/>
<path d="M280.821 245.423C280.142 246.619 279.738 246.434 279.045 245.736C260.349 231.75 253.656 262.31 233.509 262.859C213.001 264.891 201.595 266.05 196.008 259.235C186.252 244.094 201.768 176.418 214.313 160.029C219.809 151.509 229.558 143.915 234.807 139.488C234.699 139.933 231.906 151.571 249.898 140.044C250.802 140.427 256.507 146.001 256.148 148.985C257.062 162.691 289.517 230.031 280.821 245.423Z" fill="#FFB400"/>
<path d="M228.897 79.1524C228.897 79.1524 234.174 77.6966 239.581 79.8245C240.254 77.6214 241.638 75.7044 243.515 74.3741C244.428 76.8778 245.624 79.2691 247.077 81.5017C247.567 76.8071 250.462 73 250.462 73C251.232 77.4971 257.431 80.7319 260.365 85.6C260.365 85.6 276.912 91.2817 265.1 105.836C264.614 111.221 261.99 116.669 261.99 116.669C253.303 108.724 255.175 99.1731 259.121 96.6902C252.043 99.205 245.737 96.2256 242.177 91.519C236.907 90.6415 230.47 87.7718 228.897 79.1524Z" fill="#FFCA00"/>
<path d="M264.726 118.077C262.012 125.374 252.859 121.842 255.734 114.607C258.448 107.312 267.601 110.844 264.726 118.077Z" fill="#FFB79E"/>
<path d="M262.135 119.262C263.807 117.507 263.808 114.559 263.045 113.741C261.651 112.311 259.019 112.481 259.013 113.311C259.368 114.146 261.157 112.778 262.438 114.22C263.817 115.307 261.058 118.817 262.135 119.262Z" fill="#C16256"/>
<path d="M258.663 118.155C259.26 118.113 260.21 115.433 263.127 115.608C263.177 115.613 263.228 115.608 263.277 115.593C263.325 115.578 263.37 115.554 263.409 115.521C263.448 115.489 263.481 115.449 263.504 115.404C263.528 115.359 263.542 115.31 263.547 115.259C261.647 113.331 256.941 118.191 258.663 118.155Z" fill="#C16256"/>
<path d="M255.432 141.037C255.529 147.914 237.911 153.982 236.915 154L234.805 147.744C232.095 148.414 229.708 152.213 229.708 152.213C221.897 144.761 229.242 138.253 234.805 139.492C234.695 139.936 233.469 150.139 249.829 139.691C251.937 138.718 255.432 141.037 255.432 141.037Z" fill="white"/>
<path d="M241.606 104.927C241.668 104.927 241.73 104.915 241.787 104.891C241.847 104.867 241.902 104.832 241.949 104.787C241.995 104.742 242.032 104.689 242.057 104.629C242.083 104.57 242.097 104.506 242.097 104.441C242.098 104.377 242.086 104.313 242.062 104.253C242.01 104.123 240.768 101.086 237.403 100.192C237.277 100.159 237.142 100.177 237.029 100.242C236.916 100.308 236.834 100.416 236.801 100.542C236.767 100.669 236.785 100.803 236.851 100.916C236.916 101.03 237.024 101.112 237.15 101.146C240.027 101.907 241.132 104.592 241.148 104.618C241.185 104.709 241.248 104.788 241.33 104.843C241.411 104.898 241.507 104.927 241.606 104.927V104.927Z" fill="#C07006"/>
<path d="M228.471 115.71C228.439 115.764 228.419 115.825 228.412 115.887C228.403 115.951 228.406 116.016 228.422 116.079C228.439 116.141 228.467 116.2 228.506 116.251C228.545 116.303 228.593 116.346 228.649 116.379C228.704 116.412 228.766 116.433 228.83 116.442C228.967 116.462 232.214 116.884 234.657 114.398C234.706 114.352 234.744 114.297 234.771 114.237C234.798 114.176 234.812 114.11 234.813 114.044C234.814 113.978 234.801 113.912 234.776 113.85C234.751 113.789 234.713 113.733 234.666 113.687C234.619 113.64 234.562 113.604 234.501 113.579C234.439 113.555 234.373 113.544 234.307 113.546C234.24 113.548 234.175 113.563 234.115 113.591C234.055 113.619 234.001 113.658 233.956 113.708C231.872 115.831 228.993 115.468 228.965 115.466C228.868 115.453 228.769 115.469 228.681 115.512C228.593 115.555 228.52 115.624 228.471 115.71Z" fill="#B03E30"/>
<path d="M230.817 117.374C230.81 117.425 230.814 117.478 230.827 117.53C230.84 117.583 230.862 117.633 230.892 117.678C230.922 117.723 230.959 117.762 231.002 117.792C231.045 117.823 231.093 117.844 231.142 117.855C231.191 117.866 231.241 117.866 231.289 117.856C231.393 117.835 233.829 117.299 234.826 114.68C234.847 114.631 234.859 114.578 234.859 114.523C234.86 114.467 234.851 114.412 234.832 114.359C234.813 114.306 234.784 114.258 234.748 114.216C234.712 114.174 234.668 114.14 234.621 114.116C234.574 114.092 234.523 114.078 234.472 114.076C234.42 114.073 234.37 114.082 234.324 114.101C234.277 114.12 234.235 114.15 234.201 114.188C234.166 114.226 234.14 114.272 234.123 114.323C233.272 116.559 231.116 117.043 231.096 117.049C231.022 117.064 230.957 117.104 230.907 117.161C230.857 117.219 230.826 117.293 230.817 117.374Z" fill="#B03E30"/>
<path d="M228.9 99.8612C228.989 99.8613 229.076 99.8372 229.153 99.7914C230.646 98.884 232.474 99.7914 232.492 99.8074C232.607 99.8623 232.739 99.8702 232.86 99.8292C232.981 99.7883 233.082 99.7018 233.14 99.588C233.199 99.4742 233.21 99.3421 233.173 99.2196C233.136 99.0972 233.053 98.9939 232.941 98.9318C232.848 98.884 230.612 97.7512 228.643 98.9478C228.551 99.0037 228.48 99.0882 228.441 99.1883C228.402 99.2884 228.396 99.3986 228.425 99.5021C228.454 99.6057 228.516 99.6968 228.602 99.7616C228.688 99.8265 228.792 99.8614 228.9 99.8612V99.8612Z" fill="#C07006"/>
<path d="M252.161 163.029C251.793 164.656 251.436 166.291 251.068 167.926" stroke="#FF9100" stroke-width="1.63" stroke-linecap="round" stroke-linejoin="round"/>
<path d="M255.008 149C255.228 150.365 255.445 151.721 255.653 153.081" stroke="#FF9100" stroke-width="1.63" stroke-linecap="round" stroke-linejoin="round"/>
</g>
<path d="M113.531 65.7969C113.531 65.7969 120.412 16.9109 124.304 16.467C128.196 16.023 208.797 38.8077 209.233 45.2179C209.668 51.6281 194.416 87.9504 191.474 89.5612C188.531 91.172 136.667 75.1187 133.452 77.3339C130.237 79.549 124.599 85.5527 124.599 85.5527C124.599 85.5527 127.157 74.1328 125.621 73.4407C124.085 72.7487 112.961 69.7059 113.531 65.7969Z" fill="#FFCA00" stroke="white" stroke-width="2" stroke-linejoin="round"/>
<path d="M143.767 54.7148C145.364 52.4123 142.947 49.7948 141.538 48.7739C137.3 45.2469 134.224 50.8585 136.132 53.3544C138.04 55.8502 141.77 57.5928 143.767 54.7148Z" fill="white"/>
<path d="M161.797 58.149C163.394 55.8465 160.976 53.229 159.568 52.2081C155.33 48.6811 152.254 54.2927 154.162 56.7886C156.069 59.2844 159.8 61.027 161.797 58.149Z" fill="white"/>
<path d="M178.968 63.3003C180.565 60.9979 178.148 58.3804 176.739 57.3595C172.501 53.8325 169.425 59.4441 171.333 61.9399C173.241 64.4358 176.971 66.1784 178.968 63.3003Z" fill="white"/>
<path d="M212.644 148.581C212.644 148.581 206.966 189.886 203.68 190.271C200.395 190.657 132.263 171.634 131.878 166.222C131.492 160.81 144.274 130.093 146.755 128.725C149.235 127.356 193.08 140.772 195.789 138.893C198.497 137.013 203.243 131.927 203.243 131.927C203.243 131.927 201.113 141.579 202.412 142.159C203.712 142.739 213.114 145.279 212.644 148.581Z" fill="#C12E66" stroke="white" stroke-width="2" stroke-linejoin="round"/>
<path d="M146.824 148.87C146.824 148.87 151.691 145.64 154.555 149.226C157.419 152.812 159.338 151.232 162.571 151.938C165.803 152.643 165.564 154.898 167.479 154.676C169.393 154.453 170.664 152.761 173.21 153.576C175.756 154.39 179.467 156.908 181.382 157.301" stroke="white" stroke-width="1.63" stroke-linecap="round" stroke-linejoin="round"/>
<path d="M144.933 157.356C144.933 157.356 146.966 155.536 150.471 157.171C153.977 158.807 154.959 161.115 157.824 160.98C160.69 160.845 162.012 161.779 164.975 162.99C166.635 163.694 168.378 164.184 170.161 164.447" stroke="white" stroke-width="1.63" stroke-linecap="round" stroke-linejoin="round"/>
</svg>
