<svg width="27" height="26" viewBox="0 0 27 26" fill="none" xmlns="http://www.w3.org/2000/svg">
<path d="M15.0001 19.3L8.7001 24.1C8.5001 24.3 8.3001 24.4 8.1001 24.5C10.7001 25.7 13.7001 26 16.6001 25.2C19.6001 24.4 22.0001 22.7 23.6001 20.4C23.4001 20.4 23.2001 20.4 22.9001 20.4L15.0001 19.3Z" fill="#BFD352"/>
<path d="M6.80016 12.3L9.10016 13.6L7.80016 22L14.3002 16.9C14.3002 16.9 14.4002 16.9 14.4002 16.8H14.5002L22.7002 18L17.5002 11.4L18.8002 9.09999L24.8002 17.1C25.0002 17.3 25.1002 17.5 25.2002 17.7C26.2002 15.2 26.5002 12.4 25.7002 9.49999C24.0002 3.19999 17.9002 -0.700009 11.6002 0.0999906C11.7002 0.199991 11.8002 0.399991 12.0002 0.499991L18.1002 8.39999L15.6002 9.09999L10.6002 2.29999L9.60016 10.7L7.00016 11.4L8.40016 1.49999C8.40016 1.29999 8.50016 1.09999 8.50016 0.899991C2.60016 3.29999 -0.799843 9.69999 0.900157 16.1C1.60016 18.9 3.30016 21.3 5.40016 22.9C5.40016 22.7 5.40016 22.5 5.40016 22.2L6.80016 12.3Z" fill="#BFD352"/>
<path d="M25.1001 17.7C25.0001 17.5 24.9001 17.3 24.7001 17.1L18.7001 9.09998L17.4001 11.4L22.6001 18L14.4001 16.8H14.3001C14.3001 16.8 14.2001 16.8 14.2001 16.9L7.80012 22L9.10012 13.7L6.80012 12.4L5.50012 22.3C5.50012 22.5 5.50012 22.8 5.50012 23C6.30012 23.6 7.20012 24.2 8.10012 24.6C8.30012 24.5 8.50012 24.4 8.70012 24.2L15.0001 19.4L22.9001 20.4C23.2001 20.4 23.4001 20.4 23.6001 20.4C24.3001 19.5 24.8001 18.6 25.1001 17.7Z" fill="#96AD3C"/>
<path d="M7.00012 11.4L9.50012 10.7L10.5001 2.29998L15.5001 9.09998L18.0001 8.39997L12.0001 0.499976C11.9001 0.299976 11.8001 0.199976 11.6001 0.0999756C11.1001 0.199976 10.5001 0.299976 10.0001 0.399976C9.50012 0.499976 9.00012 0.699976 8.50012 0.899976C8.40012 1.09998 8.40012 1.29998 8.40012 1.49998L7.00012 11.4Z" fill="#96AD3C"/>
</svg>
