<svg width="407" height="277" viewBox="0 0 407 277" fill="none" xmlns="http://www.w3.org/2000/svg">
<rect y="37" width="380" height="226" rx="12" fill="#BFD352"/>
<mask id="mask0_1006_1427" style="mask-type:alpha" maskUnits="userSpaceOnUse" x="0" y="37" width="380" height="226">
<rect y="37" width="380" height="226" rx="12" fill="#BFD352"/>
</mask>
<g mask="url(#mask0_1006_1427)">
<path d="M77.5 139.5C28.7 119.5 -15.1667 153.167 -31 172.5L-7.5 288.5L413 269.5C419.667 220.5 429 118.2 413 101C393 79.5 377 132 325 109C273 86 244 67 215 112.5C186 158 138.5 164.5 77.5 139.5Z" fill="#90A22F"/>
<path d="M-31 105C-17 96.6666 21.3 84.9999 62.5 105C114 130 152.5 135 187.5 116.5" stroke="#FEFFB5" stroke-width="2" stroke-linecap="round"/>
<path d="M-12 214.043C2 205.71 40.3 194.043 81.5 214.043C133 239.043 171.5 244.043 206.5 225.543" stroke="#FEFFB5" stroke-width="2" stroke-linecap="round"/>
<path d="M162 75.043C176 66.7097 214.3 55.043 255.5 75.043C307 100.043 345.5 105.043 380.5 86.5431" stroke="#FEFFB5" stroke-width="2" stroke-linecap="round"/>
<path d="M204.667 141.857C201.75 137.524 198.564 133.378 195.128 129.444C194.57 128.793 193.974 128.157 193.396 127.509C186.527 119.969 178.868 113.188 170.553 107.282C169.9 106.805 169.254 106.389 168.591 105.913C163.39 102.298 157.974 99.0001 152.375 96.038C151.735 95.6826 151.064 95.3305 150.406 94.9975C140.519 89.9597 130.181 85.8597 119.529 82.7513C118.831 82.535 118.114 82.3308 117.416 82.1145C110.192 80.0958 102.851 78.5247 95.4333 77.41L93.2712 77.0956C87.1042 76.2367 80.8965 75.701 74.6735 75.4907C73.9941 75.4568 73.3158 75.4331 72.6192 75.4318C62.5582 75.174 52.4943 75.8164 42.5477 77.351C41.7062 77.4359 40.8638 77.6132 40.0375 77.7478L40.1289 77.9434C42.5333 83.4325 45.3182 88.7468 48.4634 93.8477C48.7732 94.3798 49.1134 94.9088 49.4434 95.4388C53.3163 101.543 57.6476 107.344 62.3999 112.792C62.8499 113.327 63.3239 113.863 63.822 114.4C68.6076 119.755 73.7515 124.779 79.218 129.438L80.8751 130.837C86.4049 135.417 92.2128 139.65 98.2653 143.513C98.867 143.893 99.4717 144.303 100.092 144.66C102.983 146.417 105.945 148.166 108.962 149.838C109.71 150.254 110.453 150.712 111.214 151.045C116.432 153.836 121.809 156.366 127.343 158.634C130.131 159.777 133.733 161.062 137.972 162.467C139.03 162.801 140.087 163.125 141.144 163.458C150.219 166.271 159.453 168.54 168.798 170.253V170.253C170.303 170.552 171.802 170.79 173.299 171.018C189.673 173.523 204.835 173.355 210.095 166.412C210.357 166.1 210.591 165.764 210.793 165.41C213.575 160.602 212.279 153.143 204.667 141.857Z" fill="#5F9C2F"/>
<path d="M210.83 165.375C210.793 165.244 210.726 165.123 210.634 165.022C210.542 164.921 210.428 164.843 210.3 164.794C203.887 162.143 197.426 159.381 190.916 156.509C190.305 156.242 189.715 155.974 189.127 155.737C182.052 152.607 174.944 149.364 167.804 146.008L165.958 145.17C163.045 143.805 160.116 142.39 157.183 140.935L155.191 139.969C146.704 135.848 138.19 131.586 129.647 127.184L127.38 126.03C119.768 122.053 112.153 117.974 104.534 113.793L102.3 112.564C95.3746 108.757 88.4561 104.85 81.5445 100.843C80.7522 100.4 79.9821 99.9762 79.1878 99.5135C66.8607 92.3868 54.648 85.006 42.5496 77.3714C41.7081 77.4563 40.8657 77.6336 40.0394 77.7682L40.1308 77.9637C47.4756 82.6096 54.8653 87.1588 62.2998 91.6113L64.3938 92.8747C69.5193 95.9625 74.6711 99.0067 79.8339 101.958C80.3027 102.238 80.8018 102.515 81.2684 102.776C84.5971 104.703 87.9439 106.608 91.2685 108.495L93.4416 109.73C100.803 113.869 108.172 117.905 115.547 121.837C116.243 122.238 116.956 122.607 117.648 122.967C123.805 126.265 129.932 129.467 136.029 132.572C136.742 132.941 137.456 133.309 138.187 133.655C141.834 135.493 145.464 137.294 149.077 139.06C149.695 139.397 150.311 139.714 150.944 139.998C156.037 142.495 161.118 144.945 166.188 147.349L166.239 147.344C169.723 148.979 173.207 150.591 176.693 152.178L178.62 153.008C184.503 155.691 190.365 158.288 196.203 160.799C196.858 161.091 197.519 161.352 198.151 161.626C201.916 163.213 205.652 164.778 209.359 166.323C209.584 166.416 209.835 166.431 210.069 166.364C210.325 166.295 210.543 166.129 210.678 165.903C210.792 165.751 210.846 165.564 210.83 165.375V165.375Z" fill="#BFD352"/>
<path d="M81.8039 101.789C81.7204 101.47 81.6471 101.15 81.5393 100.792C79.395 92.3334 77.0924 83.8294 74.6449 75.4117C73.9655 75.3779 73.2871 75.3542 72.5905 75.3528C74.8896 83.3143 77.1106 91.4168 79.1197 99.4486C79.3456 100.266 79.5593 101.064 79.7649 101.883C79.7741 101.974 79.7833 102.065 79.7925 102.156C79.88 102.384 80.0461 102.572 80.2607 102.688C80.4753 102.803 80.7242 102.838 80.9622 102.786C81.0337 102.776 81.1014 102.748 81.1588 102.705C81.3629 102.663 81.5434 102.545 81.6633 102.375C81.7833 102.205 81.8336 101.996 81.8039 101.789Z" fill="#BFD352"/>
<path d="M104.538 113.833L104.529 113.742C102.1 101.46 99.055 89.3072 95.4047 77.3309L93.2426 77.0166C96.8585 88.6881 99.8799 100.536 102.295 112.513C102.42 113.043 102.519 113.515 102.619 114.099C102.678 114.332 102.825 114.533 103.028 114.662C103.232 114.79 103.477 114.835 103.713 114.787C103.946 114.764 104.162 114.652 104.316 114.475C104.469 114.297 104.549 114.068 104.538 113.833V113.833Z" fill="#BFD352"/>
<path d="M129.646 127.164L129.636 127.072L119.494 82.7035C118.796 82.4872 118.079 82.2831 117.381 82.0668L127.409 126.007L127.739 127.448C127.812 127.679 127.97 127.874 128.182 127.992C128.394 128.109 128.643 128.141 128.878 128.081V128.081C129.098 128.054 129.3 127.944 129.443 127.774C129.585 127.603 129.658 127.385 129.646 127.164V127.164Z" fill="#BFD352"/>
<path d="M152.374 96.0278C151.734 95.6725 151.063 95.3203 150.405 94.9874C150.328 95.1197 150.3 95.2748 150.326 95.4255C152.468 110.152 154.145 125.141 155.225 139.996C155.26 140.341 155.292 140.665 155.327 141.01C155.342 141.129 155.38 141.243 155.441 141.346C155.501 141.45 155.582 141.54 155.678 141.611C155.775 141.681 155.884 141.732 156.001 141.759C156.118 141.785 156.238 141.788 156.356 141.766C156.578 141.763 156.79 141.678 156.953 141.527C157.116 141.377 157.217 141.171 157.237 140.95C157.243 140.92 157.24 140.888 157.227 140.859C156.142 125.943 154.494 110.839 152.374 96.0278Z" fill="#BFD352"/>
<path d="M170.552 107.272C169.899 106.795 169.253 106.379 168.59 105.903C168.754 119.038 167.874 132.165 165.957 145.16C165.908 145.585 165.857 145.99 165.787 146.417C165.76 146.588 165.79 146.763 165.872 146.916C165.954 147.068 166.084 147.19 166.241 147.262L166.292 147.257C166.4 147.297 166.513 147.324 166.628 147.336C166.871 147.36 167.115 147.296 167.315 147.156C167.515 147.015 167.658 146.807 167.718 146.57L167.805 146.008C169.738 133.189 170.656 120.236 170.552 107.272Z" fill="#BFD352"/>
<path d="M195.128 129.444C194.57 128.793 193.973 128.157 193.396 127.509C192.814 132.903 191.951 138.255 191.101 143.534L189.129 155.757L189.06 156.184C189.048 156.3 189.06 156.418 189.096 156.53C189.131 156.641 189.19 156.744 189.267 156.833C189.344 156.921 189.438 156.992 189.544 157.043C189.65 157.093 189.765 157.121 189.882 157.125C190.095 157.147 190.31 157.102 190.496 156.994C190.682 156.887 190.83 156.724 190.918 156.529C190.968 156.524 190.957 156.412 190.972 156.359L193.017 143.74C193.781 139.033 194.56 134.274 195.128 129.444Z" fill="#BFD352"/>
<path d="M198.294 160.608C198.177 160.466 198.023 160.358 197.849 160.296C197.675 160.234 197.487 160.221 197.306 160.257C197.178 160.281 197.055 160.325 196.94 160.386C196.722 160.53 196.496 160.662 196.263 160.782C188.029 165.659 178.277 168.282 168.815 170.221C170.32 170.519 171.819 170.757 173.316 170.985C181.893 169.095 190.557 166.346 197.995 161.806C198.063 161.759 198.127 161.704 198.183 161.643C198.329 161.517 198.422 161.34 198.442 161.148C198.463 160.955 198.41 160.763 198.294 160.608V160.608Z" fill="#BFD352"/>
<path d="M178.696 152.437C178.613 152.228 178.458 152.055 178.26 151.95C178.062 151.844 177.833 151.812 177.613 151.86C177.576 151.852 177.537 151.856 177.502 151.871L176.775 152.077C164 155.805 150.974 159.27 138.006 162.403C139.064 162.736 140.121 163.06 141.179 163.393C153.552 160.362 165.937 157.033 178.078 153.523C178.213 153.488 178.339 153.424 178.447 153.335C178.555 153.247 178.642 153.136 178.702 153.01C178.773 152.825 178.771 152.62 178.696 152.437Z" fill="#BFD352"/>
<path d="M151.029 139.324C150.948 139.114 150.794 138.941 150.595 138.837C150.396 138.733 150.166 138.704 149.948 138.757C149.907 138.753 149.865 138.757 149.826 138.769C149.593 138.793 149.379 138.906 149.148 138.95C135.898 142.838 122.417 146.472 108.976 149.786C109.725 150.202 110.468 150.659 111.228 150.992C124.346 147.722 137.487 144.173 150.407 140.37C150.538 140.34 150.66 140.281 150.765 140.198C150.871 140.115 150.956 140.009 151.014 139.888C151.057 139.801 151.08 139.705 151.083 139.608C151.085 139.51 151.067 139.413 151.029 139.324V139.324Z" fill="#BFD352"/>
<path d="M138.428 132.894C138.357 132.66 138.199 132.462 137.987 132.34C137.775 132.219 137.524 132.183 137.287 132.241C136.901 132.28 136.483 132.393 136.102 132.483C123.182 134.951 110.523 138.629 98.2917 143.469C98.8934 143.849 99.4981 144.259 100.118 144.616C112.275 139.876 124.851 136.289 137.68 133.901C137.909 133.853 138.116 133.732 138.269 133.555C138.349 133.467 138.405 133.36 138.432 133.244C138.46 133.129 138.459 133.008 138.428 132.894Z" fill="#BFD352"/>
<path d="M117.914 122.152C117.842 121.92 117.683 121.726 117.471 121.608C117.259 121.491 117.01 121.459 116.775 121.519L115.631 121.747L79.2658 129.402L80.9229 130.802L117.2 123.187C117.405 123.141 117.59 123.032 117.732 122.877C117.819 122.78 117.881 122.663 117.912 122.537C117.944 122.41 117.945 122.278 117.914 122.152V122.152Z" fill="#BFD352"/>
<path d="M94.479 108.54C94.3823 108.321 94.2116 108.143 93.9968 108.037C93.782 107.931 93.5368 107.905 93.3043 107.962L91.3042 108.44C81.813 110.649 72.1597 112.093 62.4375 112.757C62.8876 113.292 63.3616 113.828 63.8596 114.365C73.8576 113.616 83.777 112.046 93.5178 109.671C93.6163 109.666 93.7144 109.656 93.8119 109.641C93.9304 109.617 94.0427 109.569 94.1417 109.499C94.2406 109.43 94.324 109.34 94.3867 109.237C94.4494 109.133 94.4899 109.018 94.5058 108.898C94.5217 108.778 94.5126 108.656 94.479 108.54Z" fill="#BFD352"/>
<path d="M64.7671 92.0073C64.7058 91.7763 64.5585 91.5774 64.3554 91.4513C64.1523 91.3252 63.9087 91.2814 63.6744 91.329L62.3453 91.5553L48.5108 93.8123C48.8206 94.3443 49.1607 94.8732 49.4908 95.4032L63.9893 93.028C64.1531 92.9928 64.3068 92.9214 64.4393 92.8188C64.5645 92.7279 64.6617 92.6036 64.7196 92.4601C64.7776 92.3166 64.794 92.1597 64.7671 92.0073V92.0073Z" fill="#BFD352"/>
<path d="M201.204 166.687C196.176 165.273 191.063 164.177 185.898 163.403C185.052 163.268 184.185 163.17 183.325 163.05C173.208 161.752 162.982 161.542 152.82 162.425C152.014 162.484 151.252 162.586 150.439 162.652C144.134 163.265 137.872 164.258 131.687 165.626C130.969 165.769 130.23 165.935 129.512 166.108C118.716 168.67 108.183 172.238 98.0526 176.766C97.3807 177.053 96.7021 177.362 96.0302 177.649C89.2178 180.788 82.6055 184.344 76.2309 188.297L74.3797 189.457C69.1237 192.796 64.046 196.407 59.1673 200.276C58.6276 200.69 58.0953 201.111 57.5636 201.561C49.7292 207.879 42.4755 214.884 35.8889 222.494C35.3026 223.103 34.7753 223.784 34.2328 224.421L34.4291 224.511C39.8154 227.138 45.3787 229.385 51.0783 231.236C51.6588 231.441 52.2606 231.623 52.8553 231.814C59.7591 233.958 66.816 235.575 73.9649 236.649C74.6542 236.766 75.3625 236.867 76.0897 236.954C83.2042 237.937 90.3773 238.435 97.5594 238.446L99.7286 238.44C106.908 238.35 114.075 237.815 121.189 236.84C121.893 236.74 122.619 236.661 123.323 236.532C126.664 235.999 130.054 235.414 133.435 234.735C134.275 234.568 135.138 234.435 135.933 234.197C141.717 232.945 147.453 231.392 153.139 229.537C156.004 228.602 159.581 227.25 163.721 225.577C164.743 225.146 165.758 224.708 166.78 224.278C175.517 220.546 184.024 216.296 192.254 211.552V211.552C193.595 210.805 194.891 210.016 196.18 209.219C210.281 200.527 221.726 190.582 221.24 181.886C221.238 181.478 221.198 181.071 221.122 180.67C220.13 175.205 214.313 170.36 201.204 166.687Z" fill="#437E14"/>
<path d="M221.129 180.619C221.016 180.543 220.886 180.494 220.751 180.477C220.615 180.459 220.477 180.474 220.349 180.519C213.745 182.651 207.033 184.73 200.211 186.756C199.574 186.949 198.95 187.127 198.348 187.326C190.93 189.522 183.413 191.652 175.8 193.717L173.85 194.274C170.746 195.12 167.598 195.938 164.421 196.728L162.277 197.281C153.141 199.636 143.893 201.901 134.533 204.077L132.058 204.666C123.682 206.563 115.237 208.385 106.723 210.132L104.225 210.642C96.4823 212.224 88.68 213.726 80.8184 215.147C79.9282 215.323 79.0667 215.499 78.1618 215.66C64.1531 218.21 50.0671 220.493 35.9038 222.508C35.3175 223.118 34.7902 223.798 34.2477 224.436L34.444 224.525C43.0494 223.311 51.6265 221.993 60.1752 220.572L62.589 220.18C68.4943 219.214 74.3915 218.199 80.2367 217.105C80.7754 217.015 81.3354 216.903 81.8595 216.799C85.6442 216.113 89.4284 215.398 93.1837 214.683L95.6394 214.218C103.93 212.605 112.158 210.91 120.325 209.132C121.115 208.987 121.897 208.806 122.658 208.632C129.485 207.159 136.228 205.632 142.885 204.051C143.667 203.871 144.449 203.69 145.231 203.48C149.2 202.518 153.132 201.541 157.029 200.547C157.718 200.404 158.392 200.247 159.059 200.054C164.557 198.659 170.016 197.237 175.437 195.786L175.472 195.749C179.185 194.74 182.884 193.712 186.568 192.665L188.574 192.049C194.795 190.285 200.944 188.469 207.019 186.602C207.707 186.401 208.38 186.172 209.039 185.972C212.936 184.743 216.796 183.517 220.621 182.294C220.853 182.219 221.054 182.068 221.189 181.865C221.339 181.647 221.398 181.38 221.355 181.12C221.343 180.931 221.263 180.753 221.129 180.619V180.619Z" fill="#BFD352"/>
<path d="M81.6288 215.701C81.3584 215.512 81.0952 215.315 80.7813 215.112C73.6705 210.054 66.4097 205.064 59.0943 200.234C58.5546 200.648 58.0223 201.069 57.4905 201.519C64.3974 206.098 71.3362 210.835 78.0676 215.655C78.7687 216.131 79.4482 216.601 80.1352 217.092C80.2013 217.156 80.2674 217.219 80.3335 217.283C80.5475 217.4 80.7962 217.436 81.0345 217.385C81.2728 217.334 81.485 217.199 81.6326 217.005C81.6807 216.952 81.7142 216.887 81.7297 216.816C81.8585 216.652 81.9197 216.446 81.9009 216.238C81.8822 216.031 81.7848 215.839 81.6288 215.701Z" fill="#BFD352"/>
<path d="M106.753 210.16L106.687 210.096C96.8833 202.309 86.6941 195.019 76.158 188.255L74.3068 189.416C84.6193 195.969 94.5927 203.042 104.188 210.606C104.627 210.929 105.008 211.224 105.462 211.605C105.658 211.744 105.9 211.803 106.138 211.769C106.376 211.735 106.592 211.61 106.741 211.421C106.904 211.252 106.996 211.028 106.998 210.793C107 210.558 106.913 210.332 106.753 210.16V210.16Z" fill="#BFD352"/>
<path d="M134.518 204.063L134.452 203.999L97.9947 176.753C97.3228 177.04 96.6442 177.349 95.9723 177.636L132.064 204.63L133.249 205.515C133.454 205.644 133.701 205.689 133.939 205.641C134.176 205.594 134.387 205.457 134.527 205.259V205.259C134.677 205.096 134.76 204.881 134.758 204.659C134.756 204.437 134.671 204.224 134.518 204.063V204.063Z" fill="#BFD352"/>
<path d="M131.679 165.619C130.961 165.762 130.222 165.928 129.505 166.101C129.532 166.251 129.611 166.387 129.729 166.485C140.896 176.322 151.879 186.659 162.32 197.281C162.57 197.521 162.805 197.747 163.054 197.987C163.142 198.068 163.246 198.131 163.359 198.17C163.471 198.21 163.591 198.226 163.711 198.218C163.83 198.209 163.946 198.177 164.052 198.121C164.159 198.066 164.252 197.99 164.328 197.897C164.495 197.752 164.602 197.549 164.628 197.329C164.655 197.109 164.598 196.887 164.471 196.706C164.456 196.678 164.433 196.656 164.405 196.642C153.92 185.978 142.885 175.534 131.679 165.619Z" fill="#BFD352"/>
<path d="M152.813 162.418C152.007 162.477 151.245 162.579 150.432 162.645C159.061 172.549 166.889 183.123 173.843 194.267C174.08 194.623 174.303 194.965 174.527 195.335C174.617 195.483 174.753 195.597 174.914 195.66C175.076 195.723 175.253 195.732 175.42 195.685L175.455 195.649C175.564 195.609 175.667 195.556 175.762 195.491C175.963 195.352 176.108 195.146 176.169 194.909C176.231 194.672 176.205 194.421 176.097 194.202L175.8 193.718C168.973 182.696 161.286 172.231 152.813 162.418Z" fill="#BFD352"/>
<path d="M185.897 163.403C185.052 163.268 184.185 163.17 183.325 163.05C186.374 167.538 189.182 172.175 191.952 176.748L198.363 187.34L198.586 187.71C198.653 187.807 198.739 187.888 198.838 187.95C198.937 188.012 199.048 188.053 199.164 188.071C199.28 188.088 199.398 188.081 199.511 188.051C199.625 188.021 199.731 187.968 199.822 187.895C199.999 187.774 200.134 187.6 200.206 187.398C200.279 187.196 200.285 186.976 200.226 186.77C200.261 186.733 200.18 186.656 200.158 186.606L193.545 175.665C191.08 171.583 188.592 167.451 185.897 163.403Z" fill="#BFD352"/>
<path d="M208.488 185.103C208.307 185.071 208.119 185.088 207.947 185.154C207.774 185.219 207.622 185.33 207.508 185.475C207.426 185.576 207.361 185.69 207.313 185.811C207.24 186.062 207.153 186.309 207.053 186.551C203.936 195.599 198.202 203.912 192.246 211.516C193.587 210.769 194.883 209.98 196.172 209.183C201.484 202.19 206.307 194.486 209.036 186.21C209.057 186.129 209.07 186.047 209.074 185.964C209.104 185.773 209.059 185.578 208.951 185.418C208.842 185.259 208.677 185.146 208.488 185.103V185.103Z" fill="#BFD352"/>
<path d="M188.262 191.565C188.064 191.459 187.834 191.428 187.615 191.476C187.395 191.523 187.2 191.648 187.063 191.826C187.03 191.844 187.003 191.873 186.986 191.907L186.566 192.535C179.243 203.646 171.56 214.722 163.705 225.505C164.728 225.074 165.742 224.636 166.765 224.206C174.232 213.884 181.515 203.328 188.495 192.793C188.575 192.679 188.63 192.548 188.654 192.411C188.679 192.274 188.674 192.132 188.638 191.997C188.573 191.811 188.438 191.656 188.262 191.565Z" fill="#BFD352"/>
<path d="M158.687 199.485C158.49 199.378 158.26 199.346 158.041 199.395C157.822 199.444 157.628 199.572 157.496 199.753C157.462 199.776 157.433 199.806 157.411 199.841C157.249 200.01 157.159 200.235 157.012 200.418C149.431 211.96 141.511 223.458 133.413 234.685C134.253 234.518 135.115 234.386 135.91 234.147C143.79 223.161 151.507 211.948 158.891 200.684C158.971 200.577 159.026 200.453 159.052 200.322C159.078 200.19 159.075 200.055 159.042 199.925C159.017 199.83 158.973 199.742 158.912 199.666C158.851 199.59 158.774 199.528 158.687 199.485V199.485Z" fill="#BFD352"/>
<path d="M144.921 202.743C144.715 202.611 144.467 202.562 144.226 202.607C143.986 202.652 143.772 202.787 143.628 202.985C143.36 203.264 143.114 203.622 142.883 203.936C134.634 214.182 127.368 225.182 121.18 236.79C121.885 236.69 122.611 236.611 123.315 236.482C129.511 224.998 136.772 214.122 145.003 203.996C145.146 203.811 145.225 203.584 145.228 203.35C145.231 203.231 145.205 203.114 145.151 203.008C145.097 202.902 145.018 202.811 144.921 202.743Z" fill="#BFD352"/>
<path d="M122.332 207.839C122.127 207.71 121.88 207.665 121.642 207.712C121.405 207.76 121.194 207.896 121.054 208.094L120.33 209.009L97.5726 238.388L99.7418 238.382L122.457 209.09C122.584 208.923 122.655 208.72 122.662 208.51C122.666 208.38 122.637 208.251 122.58 208.134C122.522 208.017 122.437 207.916 122.332 207.839V207.839Z" fill="#BFD352"/>
<path d="M95.6587 212.639C95.4432 212.535 95.1979 212.51 94.9657 212.568C94.7336 212.627 94.5296 212.765 94.3893 212.959L93.1748 214.619C87.3717 222.447 80.9498 229.798 73.9709 236.599C74.6602 236.715 75.3684 236.817 76.0956 236.904C83.2296 229.859 89.7726 222.24 95.6587 214.124C95.7305 214.056 95.7989 213.985 95.8636 213.911C95.9383 213.815 95.9926 213.706 96.0229 213.589C96.0532 213.471 96.0588 213.349 96.0395 213.23C96.0203 213.11 95.9766 212.996 95.911 212.895C95.8455 212.793 95.7595 212.706 95.6587 212.639Z" fill="#BFD352"/>
<path d="M62.3117 219.277C62.1153 219.141 61.8743 219.084 61.6379 219.12C61.4015 219.155 61.1875 219.28 61.0397 219.467L60.1733 220.5L51.0915 231.178C51.672 231.383 52.2737 231.566 52.8683 231.756L62.3798 220.558C62.4818 220.426 62.5527 220.272 62.5873 220.108C62.6238 219.957 62.6174 219.8 62.5686 219.653C62.5199 219.506 62.4308 219.376 62.3117 219.277V219.277Z" fill="#BFD352"/>
<path d="M234.413 154.604C234.413 154.604 237.256 164.727 237.728 167.267C237.986 168.653 236.97 174.063 235.743 179.016C234.751 183.071 233.612 186.813 232.935 187.787C232.487 188.361 231.994 188.897 231.459 189.392C226.873 193.706 221.988 197.692 216.841 201.32C214.547 202.97 212.157 204.481 209.683 205.847C207.843 206.801 205.916 207.575 203.927 208.158C197.987 209.889 191.849 210.846 185.664 211.006C180.75 211.186 175.829 210.965 170.951 210.346C165.13 209.629 159.396 208.333 153.832 206.477C153.502 206.364 153.172 206.252 152.844 206.126C147.892 204.415 143.063 202.364 138.394 199.986C132.856 197.19 127.586 193.891 122.652 190.13C119.177 187.479 115.916 184.559 112.901 181.395C109.234 177.586 106.083 173.313 103.527 168.685C102.999 167.709 102.515 166.718 102.063 165.696C100.79 162.854 99.7563 159.911 98.9736 156.896C97.4536 150.868 96.5312 144.704 96.2199 138.495C96.0779 135.944 96.028 133.62 95.9988 131.548C95.9754 129.036 96.0092 126.985 95.9998 125.586C96.0486 121.311 96.8144 117.074 98.2654 113.052L113.075 117.577L231.303 153.701L234.413 154.604Z" fill="#BFD352"/>
<path d="M231.459 189.392C226.873 193.706 221.988 197.692 216.841 201.32L207.904 183.817L224.339 175.427L231.459 189.392Z" fill="#5F9C2F"/>
<path d="M234.413 154.604C234.413 154.604 237.256 164.726 237.728 167.267C237.986 168.653 236.969 174.063 235.743 179.016L220.696 166.074L231.363 153.679L234.413 154.604Z" fill="#5F9C2F"/>
<path d="M199.912 189.632L203.951 208.175C198.011 209.905 191.873 210.862 185.688 211.022L181.874 193.543L199.912 189.632Z" fill="#5F9C2F"/>
<path d="M172.839 190.685L170.952 210.351C165.131 209.633 159.396 208.335 153.832 206.477C153.502 206.364 153.172 206.252 152.844 206.126L154.486 188.949L172.839 190.685Z" fill="#5F9C2F"/>
<path d="M146.672 182.704L138.407 199.951C132.868 197.155 127.599 193.856 122.664 190.095L130.063 174.709L146.672 182.704Z" fill="#5F9C2F"/>
<path d="M125.52 166.66L112.891 181.368C109.225 177.558 106.073 173.286 103.517 168.658C102.989 167.682 102.505 166.69 102.054 165.669L111.52 154.641L125.52 166.66Z" fill="#5F9C2F"/>
<path d="M110.385 134.393L115.486 152.124L98.9894 156.872C97.4693 150.843 96.5469 144.68 96.2356 138.471L110.385 134.393Z" fill="#5F9C2F"/>
<path d="M113.111 117.539L113.472 131.06L96.0368 131.516C96.0134 129.004 96.0472 126.953 96.0379 125.554C96.0866 121.279 96.8525 117.042 98.3035 113.02L113.111 117.539Z" fill="#5F9C2F"/>
<path d="M98.3069 113.013C98.3069 113.013 95.6077 135.38 98.0768 148.166C100.546 160.953 105.208 168.478 105.208 168.478C105.208 168.478 117.357 180.98 122.058 185.062C126.76 189.145 150.107 201.286 151.786 202.092C153.465 202.899 169.838 207.548 171.969 207.424C174.101 207.3 202.278 203.146 203.802 202.611C205.325 202.076 216.722 196.987 217.633 196.044C218.543 195.1 231.036 185.16 232.526 183.21C234.016 181.26 235.601 166.772 235.898 162.318C236.194 157.865 231.226 145.492 231.226 145.492C231.226 145.492 153.914 110.071 152.341 110.006C150.767 109.941 98.3069 113.013 98.3069 113.013Z" fill="#FFFCF7"/>
<path d="M152.387 112.337C152.387 112.337 102.957 114.327 102.45 114.66C101.943 114.992 100.003 129.333 100.646 137.799C101.29 146.266 105.211 160.093 105.211 160.093L109.548 167.572C109.548 167.572 120.172 180.603 125.83 183.892C131.489 187.182 153.072 199.157 153.072 199.157C153.072 199.157 168.511 203.362 170.923 203.597C173.334 203.831 197.669 199.766 201.092 198.904C204.515 198.043 212.916 194.135 212.916 194.135C212.916 194.135 228.174 183.218 230.214 181.075C232.253 178.932 233.28 164.17 233.198 162.179C233.117 160.187 229.187 148.537 229.187 148.537C229.187 148.537 154.204 112.268 152.387 112.337Z" fill="#C12E66"/>
<path d="M168.982 141.287C168.982 141.287 165.151 144.084 164.651 145.897C164.151 147.709 165.992 148.836 167.547 148.549C169.102 148.263 169.587 141.408 169.658 141.013C169.776 140.539 168.982 141.287 168.982 141.287Z" fill="#FFFCF7"/>
<path d="M172.691 166.173C172.691 166.173 168.858 168.965 168.36 170.783C167.861 172.601 169.703 173.728 171.267 173.469C172.832 173.21 173.307 166.328 173.378 165.932C173.483 165.42 172.691 166.173 172.691 166.173Z" fill="#FFFCF7"/>
<path d="M195.521 174.802C195.521 174.802 192.81 178.694 192.941 180.582C193.073 182.469 195.173 182.924 196.576 182.135C197.979 181.346 196.167 174.723 196.118 174.339C196.025 173.828 195.521 174.802 195.521 174.802Z" fill="#FFFCF7"/>
<path d="M145.896 134.269C145.896 134.269 141.257 135.237 140.052 136.697C138.847 138.158 140.065 139.936 141.599 140.312C143.133 140.688 146.406 134.646 146.629 134.333C146.932 133.911 145.896 134.269 145.896 134.269Z" fill="#FFFCF7"/>
<path d="M151.427 157.026C151.427 157.026 147.161 159.093 146.347 160.805C145.534 162.518 147.146 163.941 148.731 163.935C150.317 163.928 152.001 157.27 152.152 156.908C152.347 156.425 151.427 157.026 151.427 157.026Z" fill="#FFFCF7"/>
<path d="M124.534 141.769C124.534 141.769 119.894 142.737 118.69 144.198C117.485 145.658 118.702 147.437 120.237 147.812C121.771 148.188 125.043 142.146 125.267 141.833C125.57 141.411 124.534 141.769 124.534 141.769Z" fill="#FFFCF7"/>
<path d="M188.994 152.498C188.994 152.498 186.259 156.375 186.379 158.266C186.5 160.157 188.596 160.62 189.975 159.851C191.355 159.083 189.614 152.435 189.571 152.049C189.508 151.533 188.994 152.498 188.994 152.498Z" fill="#FFFCF7"/>
<path d="M154.824 176.641C154.824 176.641 150.694 178.956 149.979 180.721C149.264 182.486 150.966 183.797 152.545 183.7C154.123 183.603 155.417 176.853 155.564 176.462C155.707 175.991 154.824 176.641 154.824 176.641Z" fill="#FFFCF7"/>
<path d="M211.031 165.186C211.031 165.186 209.937 169.796 210.777 171.502C211.617 173.209 213.725 172.858 214.702 171.632C215.68 170.405 211.605 164.885 211.417 164.544C211.148 164.113 211.031 165.186 211.031 165.186Z" fill="#FFFCF7"/>
<path fill-rule="evenodd" clip-rule="evenodd" d="M212.264 63.1927C215.195 61.8509 218.257 60.8159 221.401 60.1043C224.142 59.4609 226.941 59.1135 229.707 58.6116C230.19 59.1842 229.978 59.8984 229.997 60.5418C229.98 62.4884 230.316 64.422 230.988 66.249C231.408 67.236 232.094 68.0869 232.97 68.7068C234.192 69.6141 235.633 69.9229 236.888 69.0414C239.14 67.4522 241.521 67.227 244.178 67.4908C247.434 67.8125 250.483 66.7766 253.405 65.3675C256.595 63.9492 259.537 62.0266 262.116 59.6732C262.532 59.2021 263.065 58.8492 263.661 58.6502C266.844 59.1729 269.987 59.9146 273.067 60.87C283.464 63.9349 293.241 68.8047 301.951 75.2568C302.214 75.4499 302.452 75.6815 302.703 75.9003C302.703 75.9737 302.686 76.0462 302.655 76.1128C302.624 76.1794 302.579 76.2385 302.523 76.2863C300.593 77.6697 298.888 79.2911 296.842 80.4492C295.175 81.3951 293.251 81.5109 291.379 81.543C288.587 81.5881 286.232 82.7334 283.961 84.2197C283.751 84.3926 283.501 84.5089 283.234 84.5574C282.967 84.6058 282.692 84.5848 282.436 84.4963C280.505 83.8529 278.491 83.5505 276.928 82.1157C276.638 81.8812 276.288 81.7319 275.918 81.6846C272.566 81.0412 269.233 80.2562 265.771 80.8867C264.278 81.1101 262.841 81.6167 261.537 82.3795C260.087 83.2372 258.582 84.0001 257.033 84.6636C254.517 85.876 252.176 87.4212 250.072 89.2576C249.119 90.0619 248.231 90.9434 247.247 91.7155C246.331 92.5198 245.687 93.5885 245.403 94.7743C245.12 95.96 245.211 97.2045 245.664 98.3363C245.864 98.8783 246.248 99.3328 246.749 99.6198C247.25 99.9069 247.837 100.008 248.405 99.9062C248.74 99.8998 249.067 99.8091 249.357 99.6424C251.963 97.8601 255.032 97.0687 257.831 95.7304C259.501 95.0413 261.222 94.4841 262.979 94.064C263.667 93.8581 264.362 94.1347 265.05 94.1991C266.475 94.3786 267.876 94.7152 269.226 95.2028C269.418 95.2372 269.6 95.3123 269.759 95.4231C269.919 95.5339 270.054 95.6778 270.153 95.845C270.252 96.0121 270.315 96.1987 270.336 96.3921C270.357 96.5855 270.336 96.7811 270.275 96.9658C270.203 97.3638 270.154 97.7655 270.127 98.169C270.125 98.4111 270.047 98.6465 269.904 98.8417C269.761 99.0369 269.56 99.182 269.329 99.2564C268.572 99.5558 267.799 99.8114 267.013 100.022C264.317 100.35 261.666 101.032 258.932 100.987C258.561 100.963 258.19 101.027 257.848 101.172C257.506 101.317 257.203 101.54 256.963 101.824C256.07 102.85 255.044 103.752 253.913 104.507C253.35 104.898 252.89 105.419 252.571 106.026C252.253 106.633 252.087 107.308 252.086 107.994C252.025 110.188 251.843 112.377 251.539 114.55C251.159 117.491 251.893 120.29 254.646 122.066C255.045 122.285 255.36 122.629 255.543 123.046C255.725 123.462 255.765 123.927 255.657 124.369C255.283 127.239 255.315 127.258 252.439 127.026C250.606 126.934 248.767 127.022 246.951 127.29C246.562 127.329 246.193 127.482 245.89 127.729C245.586 127.976 245.363 128.307 245.246 128.68C244.817 130.008 244.6 131.396 244.603 132.791C244.551 134.252 244.796 135.725 244.442 137.179C244.295 137.345 244.107 137.471 243.897 137.543C243.688 137.615 243.463 137.632 243.245 137.591C238.992 137.662 234.758 138.055 230.512 138.235C229.27 138.299 228.922 138.878 229.315 140.429C229.867 142.829 230.707 145.154 231.818 147.352C232.09 147.702 232.249 148.126 232.275 148.568C232.004 149.057 231.554 148.819 231.194 148.793C230.093 148.716 229.025 148.42 227.938 148.246C225.538 147.867 223.074 147.545 220.719 148.137C214.877 149.597 210.778 153.201 208.713 158.901C207.455 162.588 206.757 166.442 206.641 170.335C206.467 173.674 207.593 176.608 209.401 179.343C210.921 181.825 212.966 183.944 215.391 185.552C216.955 186.51 218.042 187.971 219.181 189.361C220.51 190.934 222.112 192.255 223.91 193.26C224.296 193.492 224.843 193.569 224.927 194.154C224.605 194.482 224.238 194.347 223.897 194.244C219.052 192.771 214.15 191.51 209.285 190.107C205.142 188.91 201.32 186.942 197.504 184.96C193.367 182.824 189.204 180.726 185.389 178.017C183.042 176.458 180.806 174.738 178.697 172.87C178.641 172.77 178.602 172.661 178.581 172.548C178.559 172.254 178.585 171.959 178.659 171.673C178.818 170.763 178.727 169.827 178.396 168.965C178.066 168.103 177.507 167.346 176.78 166.777C175.841 166.012 174.845 165.319 173.801 164.705C171.961 163.566 171.645 162.775 172.031 160.677C172.264 159.638 172.563 158.615 172.926 157.614C173.205 156.781 173.38 155.917 173.447 155.041C173.518 154.235 173.396 153.423 173.089 152.674C172.782 151.925 172.3 151.261 171.684 150.736C170.183 149.32 168.44 148.187 166.537 147.391C164.336 146.49 163.094 144.727 162.309 142.713C160.778 138.585 158.917 134.587 156.744 130.758C156.54 130.409 156.423 130.016 156.403 129.613C156.306 128.48 156.866 127.483 157.046 126.396C157.593 124.665 158.133 122.928 158.68 121.197C158.768 120.809 158.913 120.436 159.111 120.09C159.755 120.238 159.929 120.798 160.18 121.268C161.172 123.154 162.285 124.974 163.512 126.717C164.728 128.513 165.758 130.428 166.588 132.431C167.412 134.297 168.287 136.118 170.32 137.012C171.607 137.571 173.022 137.764 174.412 137.572C174.873 137.525 175.314 137.357 175.689 137.085C176.064 136.812 176.361 136.445 176.548 136.021C177.327 134.437 177.939 132.777 178.375 131.067C178.558 130.201 178.521 129.303 178.266 128.455C177.809 126.827 177.467 125.17 177.243 123.494C177.178 123.115 177.219 122.725 177.361 122.368C177.503 122.01 177.74 121.699 178.047 121.467C179.014 120.732 180.072 120.125 181.194 119.659C182.242 119.203 183.173 118.514 183.915 117.644C184.658 116.775 185.193 115.748 185.479 114.641C185.858 113.354 186.206 112.022 186.56 110.709C186.795 109.821 187.121 108.958 187.531 108.136C188.278 106.656 189.108 106.27 190.671 106.797C192.955 107.509 195.316 107.942 197.704 108.084C201.172 108.386 203.771 106.656 205.103 103.368C205.684 101.856 206.066 100.275 206.242 98.6644C206.398 97.2718 207.009 95.9695 207.979 94.9583C208.858 94.0867 209.536 93.0344 209.967 91.8745C210.398 90.7146 210.572 89.4748 210.476 88.241C210.417 87.2493 210.641 86.2613 211.119 85.3907C212.979 81.6846 214.105 77.8048 213.764 73.6033C213.45 70.6086 212.95 67.6366 212.264 64.7048C212.155 64.1836 211.872 63.6817 212.264 63.1927Z" fill="white"/>
<path fill-rule="evenodd" clip-rule="evenodd" d="M178.774 172.767C180.672 174.054 182.39 175.617 184.301 176.911C186.54 178.442 188.767 179.98 191.147 181.286C194.049 182.869 196.989 184.368 199.917 185.893C204.587 188.276 209.525 190.092 214.626 191.304C217.109 191.915 219.554 192.694 222.012 193.395C222.943 193.722 223.898 193.973 224.869 194.148C225.396 193.852 225.744 194.251 226.156 194.476C227.306 195.221 228.191 196.311 228.684 197.59C230.024 200.813 231.169 204.113 232.114 207.473C232.35 208.437 232.458 209.428 232.435 210.42C232.474 213.901 232.197 217.395 232.873 220.85C233.389 224.06 234.568 227.128 236.334 229.858C237.003 230.946 237.995 231.798 239.172 232.294C240.349 232.79 241.652 232.906 242.897 232.624C246.256 232.033 249.291 230.254 251.448 227.612C253.026 225.917 254.498 224.127 255.856 222.252C258.399 218.501 260.225 214.31 261.241 209.892C262.368 205.281 264.436 200.953 267.315 197.178C267.439 197.038 267.596 196.932 267.772 196.869C269.606 196.619 271.446 196.432 273.267 196.142C273.625 196.071 273.996 196.104 274.335 196.239C274.94 196.799 274.399 197.178 274.077 197.526C273.312 198.214 272.606 198.965 271.967 199.771C269.339 203.471 267.791 207.828 267.495 212.357C267.462 213.007 267.372 213.653 267.225 214.287C267.094 214.702 267.093 215.147 267.221 215.564C267.35 215.98 267.602 216.347 267.945 216.616C268.287 216.885 268.703 217.043 269.138 217.069C269.573 217.096 270.005 216.989 270.378 216.764C271.628 216.204 272.668 215.262 273.35 214.074C275.384 210.801 277.062 207.32 278.356 203.69C279.133 201.775 279.393 199.689 279.109 197.642C278.967 196.837 278.298 196.355 278.17 195.57C279.193 194.856 280.441 194.823 281.586 194.47C290.484 191.725 298.881 187.565 306.454 182.148C310.012 179.607 313.577 177.071 316.903 174.221C321.603 170.267 326.064 166.037 330.261 161.552C333.079 158.502 335.871 155.44 338.419 152.158C338.632 151.875 338.883 151.457 339.282 151.631C339.68 151.804 339.43 152.229 339.43 152.538C339.482 153.415 339.461 154.296 339.365 155.169C339.302 157.839 339.055 160.5 338.625 163.135C338.027 167.335 337.14 171.489 335.968 175.566C335.897 175.81 335.794 176.048 335.704 176.286C333.914 177.296 331.991 178.048 329.991 178.519C327.261 179.264 324.606 180.256 322.057 181.485C319.067 182.933 316.483 185.099 314.536 187.791C312.728 190.319 310.733 192.752 309.845 195.834C308.597 200.144 309.761 204.925 314.561 206.958C315.61 207.402 316.665 207.814 317.778 208.155C318.094 208.252 318.563 208.155 318.621 208.676C317.202 210.592 315.638 212.397 313.944 214.074C300.929 227.768 284.036 237.15 265.533 240.963C265.057 241.008 264.593 241.13 264.156 241.323C263.149 241.675 262.107 241.917 261.048 242.044C258.526 242.551 255.968 242.861 253.398 242.97C251.532 243.08 249.666 243.234 247.787 243.241C239.734 243.291 231.706 242.334 223.891 240.39C223.247 240.236 219.316 239.322 218.628 239.103C203.482 234.194 190.105 225.309 179.154 213.746C174.104 208.402 169.718 202.468 166.092 196.072C165.899 195.724 165.739 195.351 165.565 194.991C164.516 192.861 165.404 191.169 166.794 189.599C167.675 188.614 168.724 187.81 169.683 186.896C172.827 183.737 175.37 180.03 177.185 175.958C177.584 175.096 177.951 174.215 178.279 173.32C178.337 173.089 178.343 172.728 178.774 172.767Z" fill="#EBF587"/>
<path fill-rule="evenodd" clip-rule="evenodd" d="M244.3 137.077C244.3 135.423 244.249 133.769 244.3 132.116C244.334 130.906 244.551 129.709 244.944 128.564C245.067 128.116 245.329 127.718 245.692 127.427C246.054 127.136 246.5 126.966 246.964 126.943C248.561 126.732 250.173 126.646 251.783 126.685C252.297 126.695 252.809 126.747 253.315 126.84C254.685 127.174 255.528 126.389 255.341 125.205C255.266 124.807 255.288 124.397 255.406 124.009C255.682 123.269 255.406 122.889 254.807 122.49C253.773 121.888 252.908 121.033 252.293 120.006C251.679 118.979 251.335 117.812 251.294 116.616C251.152 115.35 251.248 114.069 251.577 112.839C251.95 111.655 251.783 110.433 251.79 109.229C251.706 108.239 251.829 107.242 252.15 106.302C252.438 105.54 252.93 104.873 253.572 104.372C254.767 103.585 255.85 102.639 256.789 101.56C257.041 101.239 257.369 100.985 257.742 100.821C258.116 100.657 258.525 100.588 258.932 100.62C261.096 100.607 263.252 100.366 265.366 99.8998C265.789 99.8095 266.22 99.762 266.653 99.7582C267.022 99.7832 267.388 99.6785 267.689 99.4623C268.019 99.2322 268.406 99.0985 268.808 99.0762C269.638 99.0054 269.85 98.7416 269.902 97.8795C269.917 97.5146 269.958 97.1512 270.024 96.7921C270.191 95.9685 270.127 95.8205 269.381 95.5052C268.004 95.0134 266.585 94.6515 265.141 94.4243C262.696 93.9803 260.527 94.9004 258.385 95.8141C257.063 96.4449 255.698 96.9782 254.299 97.4098C253.347 97.6906 252.447 98.1253 251.635 98.6966C251.004 99.1397 250.334 99.5251 249.634 99.8483C247.44 100.788 245.774 99.8483 245.214 97.7508C244.87 96.5453 244.907 95.263 245.319 94.0791C245.731 92.8952 246.499 91.8675 247.517 91.1364C248.303 90.5333 249.042 89.8731 249.731 89.1611C250.592 88.3663 251.522 87.6493 252.51 87.0185C254.621 85.492 256.914 84.2362 259.337 83.2803C260.017 82.9873 260.664 82.6228 261.267 82.1929C263.145 81.0289 265.3 80.389 267.508 80.3399C269.524 80.1921 271.55 80.3791 273.505 80.8932C274.079 81.0049 274.659 81.0844 275.242 81.1313C276.335 81.2931 277.358 81.7667 278.189 82.4953C278.745 82.9622 279.408 83.2829 280.119 83.4283C281.021 83.597 281.901 83.8645 282.745 84.2261C282.819 84.279 282.903 84.3167 282.991 84.337C283.08 84.3572 283.172 84.3596 283.262 84.3441C283.352 84.3285 283.438 84.2953 283.514 84.2463C283.591 84.1973 283.658 84.1336 283.71 84.0588C284.397 83.2859 285.312 82.7499 286.322 82.5275C286.716 82.4416 287.097 82.3031 287.454 82.1157C288.775 81.3805 290.283 81.0494 291.791 81.1634C293.036 81.1619 294.276 80.9953 295.478 80.668C296.569 80.3386 297.578 79.7815 298.438 79.0337C299.824 77.8842 301.272 76.8103 302.774 75.8166C304.15 76.7241 305.454 77.7373 306.673 78.8471C319.722 89.9091 329.46 104.363 334.81 120.611C334.963 121.292 335.199 121.951 335.511 122.574C336.155 123.475 336.271 124.556 336.431 125.611C336.546 126.594 336.749 127.565 337.036 128.513C337.448 130.149 337.764 131.807 337.982 133.48C336.676 135.474 335.109 137.286 333.324 138.865C330.39 141.529 327.012 143.665 324.174 146.458C323.647 146.948 323.012 147.308 322.32 147.508C321.628 147.708 320.899 147.743 320.192 147.609C318.3 147.378 316.395 147.281 314.568 148.124C313.608 148.598 312.543 148.82 311.473 148.767C310.844 148.698 310.21 148.837 309.668 149.164C309.126 149.491 308.707 149.987 308.475 150.575C307.528 152.445 306.331 154.176 304.917 155.723C303.591 157.241 302.941 159.229 302.105 161.063C301.635 162.099 301.23 163.161 300.78 164.21C300.072 166.007 298.685 167.454 296.919 168.237C294.937 169.106 292.891 168.546 291.881 166.642C289.417 161.99 287.705 157.093 287.647 151.746C287.699 150.791 287.667 149.833 287.551 148.883C287.306 147.596 286.94 147.255 285.621 147.262C284.007 147.233 282.396 147.093 280.801 146.844C279.312 146.727 277.928 146.035 276.941 144.913C276.608 144.501 276.178 144.177 275.69 143.97C275.202 143.764 274.67 143.681 274.142 143.729C271.877 143.8 271.066 143.144 270.41 140.969C270.185 140.155 270.024 139.325 269.928 138.486C269.69 136.768 269.284 136.446 267.541 136.523C267.393 136.533 267.244 136.533 267.097 136.523C264.941 136.008 262.786 136.523 260.662 136.626C257.632 136.774 254.601 137.025 251.571 137.154C249.646 137.339 247.713 137.423 245.78 137.405C245.265 137.34 244.731 137.456 244.3 137.077Z" fill="#625ABB"/>
<path fill-rule="evenodd" clip-rule="evenodd" d="M267.393 136.292C267.628 136.184 267.889 136.143 268.145 136.176C269.49 136.176 269.818 136.414 270.108 137.726C270.275 138.473 270.384 139.232 270.494 139.991C270.603 140.681 270.82 141.35 271.137 141.973C271.581 142.88 272.283 143.562 273.376 143.427C274.184 143.279 275.018 143.365 275.779 143.674C276.54 143.983 277.198 144.502 277.674 145.171C278.373 145.949 279.346 146.427 280.39 146.503C282.157 146.8 283.945 146.959 285.736 146.979C287.223 146.979 287.448 147.191 287.815 148.664C287.939 149.276 287.978 149.902 287.93 150.524C287.75 156.147 289.468 161.282 291.939 166.217C292.994 168.315 295.072 168.926 297.151 167.845C297.735 167.535 298.275 167.15 298.759 166.7C299.613 165.885 300.273 164.889 300.69 163.785C301.629 161.43 302.684 159.133 303.829 156.875C304.173 156.151 304.646 155.497 305.226 154.944C306.424 153.8 307.373 152.42 308.012 150.891C308.283 150.29 308.658 149.741 309.118 149.269C309.335 149.019 309.608 148.824 309.914 148.697C310.22 148.571 310.551 148.518 310.881 148.542C312.353 148.583 313.813 148.265 315.134 147.616C315.804 147.312 316.535 147.167 317.27 147.191C318.442 147.19 319.612 147.25 320.777 147.371C321.402 147.456 322.038 147.389 322.631 147.173C323.224 146.958 323.756 146.602 324.181 146.136C326.478 143.742 329.264 141.941 331.792 139.837C333.602 138.341 335.252 136.661 336.715 134.825C337.08 134.321 337.513 133.871 338.001 133.486C338.405 135.118 338.685 136.779 338.838 138.453C339.475 143.611 339.7 148.811 339.513 154.005C339.555 154.406 339.503 154.812 339.359 155.189V151.792C338.716 151.856 338.671 152.338 338.432 152.628C336.772 154.668 335.087 156.688 333.33 158.644C330.756 161.481 328.183 164.287 325.435 166.912C323.158 169.08 320.854 171.216 318.48 173.288C314.864 176.441 310.958 179.208 307.117 182.058C302.527 185.408 297.602 188.273 292.422 190.609C288.163 192.651 283.71 194.257 279.129 195.402C278.842 195.461 278.552 195.497 278.26 195.512C276.857 195.132 275.686 195.801 274.522 196.393C273.536 196.365 272.55 196.46 271.588 196.676C270.296 196.904 268.987 197.027 267.676 197.043C267.535 196.506 267.604 195.935 267.869 195.447C268.245 194.225 268.333 192.932 268.127 191.669C267.92 190.407 267.425 189.209 266.678 188.17C266.003 187.122 265.244 186.131 264.484 185.14C263.717 184.131 263.156 182.979 262.836 181.752C262.516 180.525 262.442 179.247 262.618 177.992C262.966 174.562 263.262 171.113 262.509 167.697C262.325 166.721 261.972 165.785 261.467 164.93C260.823 163.914 260.727 162.704 260.289 161.617C260.057 160.966 259.671 160.381 259.163 159.911C257.983 158.972 256.962 157.849 256.139 156.585C256.043 155.987 256.564 155.864 256.905 155.646C261.28 152.86 264.143 148.883 265.913 144.064C266.342 142.897 266.747 141.722 267.129 140.538C267.579 139.129 268.004 137.752 267.393 136.292Z" fill="white"/>
<path fill-rule="evenodd" clip-rule="evenodd" d="M212.264 63.1927C212.676 65.2324 213.094 67.2784 213.493 69.3245C214.034 71.8754 214.212 74.49 214.021 77.0906C213.8 79.3186 213.206 81.4936 212.264 83.5248C212.118 83.9391 211.939 84.3414 211.73 84.728C210.901 86.1265 210.551 87.7577 210.733 89.3735C210.75 90.7465 210.351 92.0924 209.588 93.234C209.141 94.0386 208.582 94.7752 207.928 95.4216C207.137 96.1995 206.655 97.2371 206.57 98.3427C206.387 99.9829 206.02 101.597 205.476 103.155C204.897 104.707 203.905 106.071 202.607 107.1C201.888 107.648 201.064 108.042 200.185 108.254C199.307 108.467 198.394 108.494 197.504 108.335C195.68 108.192 193.868 107.911 192.087 107.492C191.63 107.363 191.173 107.222 190.723 107.08C189.043 106.546 188.439 106.817 187.66 108.425C187.074 109.848 186.61 111.318 186.27 112.82C185.973 114.256 185.468 115.641 184.771 116.931C184.033 118.124 182.971 119.081 181.708 119.691C180.499 120.227 179.343 120.873 178.253 121.622C177.951 121.823 177.718 122.113 177.586 122.451C177.454 122.789 177.428 123.16 177.513 123.513C177.742 125.145 178.088 126.757 178.549 128.339C178.896 129.585 178.839 130.91 178.388 132.122C177.941 133.518 177.401 134.883 176.773 136.208C176.526 136.724 176.137 137.159 175.652 137.462C175.166 137.766 174.605 137.924 174.032 137.919C172.894 137.995 171.751 137.851 170.667 137.495C169.194 136.978 167.979 135.91 167.276 134.516C166.865 133.737 166.498 132.939 166.138 132.135C165.49 130.534 164.677 129.005 163.712 127.573C161.981 125.186 160.617 122.587 159.099 120.077C159.652 118.173 160.342 116.31 161.164 114.505C166.329 102.234 174.083 91.2234 183.896 82.2251C187.892 78.5318 191.907 74.8451 196.436 71.8145C201.284 68.4613 206.458 65.6051 211.878 63.2892C212.005 63.2481 212.134 63.2158 212.264 63.1927Z" fill="#625ABB"/>
<path fill-rule="evenodd" clip-rule="evenodd" d="M178.774 172.767C178.103 174.619 177.306 176.423 176.387 178.165C174.534 181.415 172.565 184.599 169.779 187.173C168.917 187.965 168.016 188.717 167.206 189.547C166.769 189.991 166.385 190.483 166.06 191.014C165.727 191.453 165.501 191.964 165.403 192.507C165.304 193.049 165.336 193.607 165.494 194.135C165.55 194.423 165.568 194.717 165.546 195.01C164.55 193.386 163.662 191.699 162.888 189.959C161.138 186.32 159.648 182.562 158.429 178.712C158.352 178.468 158.32 178.217 158.262 177.966C157.291 174.105 156.396 170.245 155.656 166.313C155.238 164.132 154.897 161.945 154.524 159.757C154.304 158.721 154.196 157.664 154.202 156.604C153.964 153.178 153.936 149.74 154.119 146.31C154.717 146.039 154.897 146.58 155.122 146.889C158.127 151.013 161.363 154.957 164.626 158.876C167.303 161.95 170.19 164.835 173.267 167.51C174.946 169.048 176.69 170.502 178.414 172.014C178.568 172.172 178.69 172.357 178.774 172.561V172.767Z" fill="#BFD352"/>
<path fill-rule="evenodd" clip-rule="evenodd" d="M318.583 208.676C316.842 208.245 315.16 207.608 313.57 206.778C312.222 206.091 311.091 205.043 310.302 203.752C309.512 202.461 309.096 200.976 309.099 199.463C309.004 196.803 309.774 194.184 311.293 191.999C312.374 190.339 313.455 188.679 314.671 187.115C316.434 184.85 318.649 182.976 321.176 181.614C323.868 180.19 326.716 179.083 329.662 178.313C331.215 177.884 332.741 177.362 334.231 176.75C334.69 176.52 335.183 176.363 335.691 176.287C334.71 179.864 333.462 183.363 331.959 186.755C328.716 194.328 324.465 201.429 319.323 207.866C319.123 208.176 318.873 208.45 318.583 208.676Z" fill="#BFD352"/>
<path fill-rule="evenodd" clip-rule="evenodd" d="M178.736 172.542C177.71 171.783 176.724 170.971 175.782 170.11C173.55 168.327 171.574 166.249 169.432 164.377C168.35 163.443 167.357 162.411 166.466 161.295C165.706 160.317 164.735 159.519 163.963 158.535C162.547 156.72 161.042 154.983 159.613 153.181C157.915 151.032 156.267 148.851 154.601 146.676C154.466 146.49 154.344 146.322 154.099 146.31C154.141 143.968 154.315 141.631 154.62 139.309C154.981 136.034 155.611 132.804 156.267 129.574C156.332 129.491 156.396 129.491 156.46 129.574C156.917 130.449 157.355 131.344 157.844 132.199C159.404 134.901 160.719 137.737 161.775 140.673C162.399 142.551 163.365 144.296 164.625 145.821C164.9 146.157 165.248 146.425 165.642 146.606C167.982 147.588 170.143 148.952 172.038 150.64C173.717 152.203 173.968 154.095 173.588 156.186C173.345 157.22 173.033 158.237 172.655 159.229C172.328 160.204 172.159 161.225 172.153 162.254C172.146 162.494 172.19 162.734 172.284 162.956C172.377 163.178 172.517 163.377 172.694 163.54C173.181 163.988 173.719 164.376 174.296 164.698C175.084 165.172 175.844 165.69 176.574 166.249C178.697 167.864 179.45 169.942 178.736 172.542Z" fill="#625ABB"/>
<path fill-rule="evenodd" clip-rule="evenodd" d="M263.66 58.6245C259.962 62.3224 255.471 65.1319 250.528 66.8409C247.852 67.81 244.975 68.0845 242.164 67.6388C241.532 67.5039 240.879 67.5065 240.248 67.6464C239.618 67.7863 239.025 68.0602 238.509 68.4495C238.01 68.826 237.466 69.1374 236.888 69.376C236.139 69.7367 235.296 69.8555 234.476 69.716C233.657 69.5765 232.901 69.1856 232.313 68.5974C230.737 67.1755 230.196 65.3289 229.894 63.3278C229.714 61.7626 229.643 60.1867 229.682 58.6116C231.498 58.1817 233.343 57.8785 235.202 57.7044C239.684 57.1516 244.199 56.9237 248.714 57.0223C253.403 57.1419 258.078 57.5978 262.702 58.3864C263.03 58.4379 263.345 58.5472 263.66 58.6245Z" fill="#625ABB"/>
<path fill-rule="evenodd" clip-rule="evenodd" d="M256.152 156.431C256.305 156.529 256.446 156.646 256.57 156.778C257.192 157.69 257.96 158.494 258.841 159.159C260.373 160.233 260.707 161.848 261.177 163.437C261.234 163.798 261.351 164.146 261.525 164.467C262.341 165.693 262.845 167.1 262.992 168.565C263.308 171.035 263.338 173.533 263.082 176.01C262.86 177.531 262.8 179.07 262.901 180.604C263.212 182.566 264.083 184.396 265.411 185.873C266.426 187.083 267.269 188.428 267.914 189.869C268.821 191.934 268.641 194.013 267.991 196.091C267.894 196.406 267.772 196.734 267.663 197.024L267.425 197.249C266.453 197.828 265.34 197.699 264.311 197.745C262.264 197.835 260.199 198.073 258.159 197.989C254.202 197.828 250.239 197.802 246.288 197.423C241.611 196.972 236.92 196.644 232.262 196.027C230.126 195.737 227.944 195.583 225.956 194.611C225.614 194.412 225.249 194.257 224.869 194.148C224.275 193.721 223.639 193.357 222.971 193.06C221.048 191.835 219.363 190.272 217.997 188.447C216.958 187.22 215.759 186.138 214.433 185.23C210.696 182.512 207.977 178.62 206.712 174.176C206.248 172.28 206.174 170.31 206.493 168.385C206.647 166.639 206.892 164.901 207.226 163.18C207.618 161.241 208.184 159.342 208.919 157.505C210.047 155.092 211.705 152.965 213.769 151.282C215.834 149.599 218.251 148.403 220.841 147.783C222.545 147.524 224.277 147.496 225.988 147.699C227.951 147.88 229.888 148.291 231.837 148.607C231.945 148.631 232.051 148.666 232.152 148.71C232.751 148.71 232.912 149.211 233.182 149.578C235.061 152.152 237.145 154.5 240.015 156.012C244.841 158.528 249.782 158.586 254.814 156.701C255.238 156.527 255.624 156.147 256.152 156.431Z" fill="#625ABB"/>
<path fill-rule="evenodd" clip-rule="evenodd" d="M225.957 194.605C226.922 194.573 227.803 194.972 228.743 195.126C230.608 195.435 232.474 195.769 234.353 195.93C236.232 196.091 238.111 196.432 239.996 196.529C241.128 196.593 242.254 196.735 243.374 196.844C244.649 196.864 245.92 196.985 247.176 197.204C247.249 197.217 247.323 197.217 247.395 197.204C248.972 197.082 250.522 197.532 252.099 197.429C254.261 197.294 256.416 197.803 258.565 197.622C260.534 197.462 262.516 197.545 264.478 197.391C265.462 197.314 266.408 197.217 267.425 197.217C267.268 197.784 266.985 198.308 266.595 198.748C264.207 201.787 262.559 205.341 261.782 209.127C261.216 211.906 260.032 214.474 258.938 217.079C258.023 219.362 256.797 221.508 255.296 223.456C254.338 224.659 253.366 225.869 252.33 226.988C251.462 227.979 250.536 228.918 249.557 229.8C247.111 231.96 243.919 233.082 240.659 232.927C238.728 232.843 237.397 231.711 236.316 230.25C234.574 227.787 233.382 224.979 232.822 222.014C232.38 220.115 232.147 218.173 232.127 216.224C232.127 214.242 232.127 212.26 232.127 210.272C232.147 208.915 231.929 207.565 231.484 206.283C230.679 203.889 229.83 201.502 229 199.115C228.485 197.329 227.42 195.751 225.957 194.605V194.605Z" fill="#BFD352"/>
<path fill-rule="evenodd" clip-rule="evenodd" d="M274.509 196.374C274.63 196.299 274.744 196.213 274.85 196.117C275.235 195.607 275.796 195.259 276.424 195.14C277.052 195.021 277.702 195.14 278.247 195.473C279.605 196.837 279.611 198.485 279.411 200.267C279.122 202.911 278.073 205.266 277.012 207.647C276.037 209.821 274.937 211.938 273.717 213.985C272.976 215.308 271.837 216.364 270.462 217.002C270.051 217.253 269.574 217.372 269.094 217.342C268.614 217.312 268.154 217.135 267.778 216.835C267.371 216.543 267.07 216.126 266.92 215.648C266.771 215.17 266.781 214.656 266.948 214.184C267.373 212.949 267.174 211.643 267.386 210.375C267.716 208.157 268.341 205.993 269.245 203.941C269.773 202.728 270.386 201.554 271.079 200.428C271.785 199.357 272.624 198.38 273.576 197.52C273.942 197.224 274.412 196.94 274.509 196.374Z" fill="#BFD352"/>
<path fill-rule="evenodd" clip-rule="evenodd" d="M225.384 147.635C225.384 147.635 230.364 149.301 238.722 147.545C247.08 145.788 243.451 140.216 244.313 137.07C245.175 133.924 252.034 135.828 253.089 135.828C254.145 135.828 253.237 136.433 253.089 140.821C252.941 145.209 254.376 153.857 256.165 156.424C257.954 158.991 244.879 163.83 239.745 162.8C234.61 161.771 225.384 147.635 225.384 147.635Z" fill="#625ABB"/>
<path fill-rule="evenodd" clip-rule="evenodd" d="M268.538 136.182C268.145 136.182 254.035 136.729 253.456 137.038C252.877 137.347 252.536 144.971 253.173 149.321C253.81 153.67 254.974 155.478 257.091 157.46C259.208 159.442 266.221 155.041 266.221 155.041L268.029 140.66L268.538 136.182Z" fill="white"/>
<path fill-rule="evenodd" clip-rule="evenodd" d="M244.275 135.835C244.275 135.835 244.866 141.992 244.525 144.579C244.184 147.165 234.649 149.147 231.232 148.356C227.816 147.564 227.275 138.704 227.275 138.704C227.275 138.704 228.298 136.948 228.691 136.774C229.083 136.6 244.275 135.835 244.275 135.835Z" fill="white"/>
<path d="M312 208.549C312.415 211.449 317.042 217.529 319.944 221.117C321.697 223.624 324.002 225.709 326.688 227.217C328.056 227.928 329.627 228.164 331.148 227.887C332.668 227.611 334.05 226.837 335.069 225.692C335.73 224.583 336.051 223.309 335.993 222.024C335.935 220.74 335.5 219.5 334.742 218.453C333.189 216.378 331.221 214.637 328.958 213.34C323.895 209.989 317.805 206.659 312 208.549Z" fill="#3E5936"/>
<path d="M344 206.369C344.242 208.239 347.14 212.203 348.962 214.545C350.06 216.175 351.5 217.529 353.178 218.51C354.037 218.959 355.016 219.105 355.965 218.926C356.913 218.746 357.778 218.252 358.425 217.519C358.836 216.796 359.034 215.967 358.995 215.132C358.956 214.296 358.682 213.49 358.205 212.811C357.247 211.452 356.02 210.316 354.605 209.477C351.421 207.225 347.623 205.13 344 206.369Z" fill="#3E5936"/>
<path d="M41.4067 161.576C38.6225 164.297 41.2319 168.502 42.8847 170.265C47.7375 176.19 53.4088 169.345 51.4627 165.439C49.5167 161.533 44.8869 158.176 41.4067 161.576Z" fill="white"/>
<path d="M64.8654 171.057C63.5759 172.317 64.7845 174.265 65.55 175.081C67.7976 177.825 70.4242 174.655 69.5229 172.846C68.6216 171.037 66.4773 169.482 64.8654 171.057Z" fill="white"/>
<path d="M49.5778 137.656C48.2883 138.916 49.4969 140.864 50.2624 141.681C52.51 144.425 55.1366 141.254 54.2353 139.445C53.334 137.636 51.1897 136.081 49.5778 137.656Z" fill="white"/>
<path d="M129.578 209.656C128.288 210.916 129.497 212.864 130.262 213.681C132.51 216.425 135.137 213.254 134.235 211.445C133.334 209.636 131.19 208.081 129.578 209.656Z" fill="white"/>
</g>
<path d="M238.132 261.301C238.917 264.927 240.197 268.921 243.475 270.645C245.7 271.796 249.126 273.875 251.619 273.53C254.884 273.067 274.673 272.967 270.354 254.111C269.928 252.184 269.034 250.392 267.752 248.892C266.547 247.54 265.15 246.372 263.606 245.425C253.071 239.559 235.428 248.695 238.132 261.301Z" fill="#C12E66"/>
<g style="mix-blend-mode:multiply" opacity="0.38">
<path d="M262.893 247.175C263.985 248.942 264.697 250.918 264.982 252.976C265.267 255.034 265.12 257.129 264.55 259.127C263.953 261.117 262.889 262.935 261.447 264.43C260.004 265.925 258.225 267.053 256.258 267.721C254.611 268.15 252.942 268.492 251.259 268.746C249.718 269.078 248.196 269.49 246.699 269.982C245.847 270.188 245.052 270.583 244.374 271.139C246.535 272.295 249.368 273.744 251.532 273.501C254.797 273.038 274.586 272.938 270.267 254.082C269.84 252.155 268.947 250.363 267.665 248.863C266.459 247.511 265.063 246.343 263.519 245.395C262.195 244.672 260.762 244.169 259.276 243.907L259.117 243.95C260.742 244.501 262.094 245.656 262.893 247.175V247.175Z" fill="#C12E66"/>
</g>
<g style="mix-blend-mode:multiply" opacity="0.38">
<path d="M251.402 246.345C253.036 246.047 254.651 245.649 256.237 245.153C256.593 245.014 256.972 244.942 257.354 244.942C257.547 244.937 257.737 244.986 257.903 245.083C258.069 245.18 258.205 245.322 258.295 245.492C258.366 245.69 258.38 245.904 258.336 246.11C258.291 246.316 258.19 246.505 258.043 246.656C257.475 247.229 256.753 247.626 255.965 247.799L254.498 248.276C253.546 248.641 252.541 248.847 251.523 248.884C251.012 248.897 250.506 248.784 250.048 248.557C249.591 248.329 249.197 247.992 248.899 247.577C247.73 245.796 250.558 246.494 251.402 246.345Z" fill="#C12E66"/>
</g>
<path d="M244.509 258.055C244.668 259.226 244.527 260.412 244.594 261.581C244.663 262.677 244.885 263.758 245.253 264.793C245.579 265.429 245.647 266.167 245.442 266.853C245.24 267.171 244.936 267.413 244.58 267.538C244.224 267.663 243.836 267.665 243.479 267.543C242.787 267.253 242.197 266.766 241.78 266.143C240.222 264.191 238.093 259.794 239.375 257.27C240.026 256.31 240.929 255.55 241.985 255.071C243.477 254.733 244.331 256.863 244.509 258.055Z" fill="#FFE4E1"/>
<path d="M269.969 246.458C271.906 249.614 274.375 252.981 278.114 253.485C280.595 253.829 284.525 254.65 286.745 253.494C289.683 251.972 308.268 245.286 297.937 228.93C296.892 227.26 295.455 225.869 293.752 224.879C292.167 224.008 290.462 223.376 288.692 223.005C276.797 220.978 263.219 235.476 269.969 246.458Z" fill="#C12E66"/>
<g style="mix-blend-mode:multiply" opacity="0.38">
<path d="M288.596 224.891C290.212 226.195 291.539 227.821 292.493 229.666C293.447 231.51 294.008 233.533 294.139 235.605C294.235 237.682 293.833 239.752 292.969 241.643C292.105 243.533 290.803 245.191 289.17 246.478C287.809 247.493 286.263 248.215 284.801 249.1C283.339 249.984 282.207 250.872 280.947 251.82C280.235 252.285 279.632 252.899 279.179 253.619C281.614 253.988 284.789 254.459 286.71 253.464C289.648 251.942 308.233 245.256 297.902 228.899C296.857 227.229 295.42 225.839 293.717 224.849C292.132 223.977 290.427 223.346 288.657 222.974C287.162 222.725 285.636 222.716 284.138 222.946L283.99 222.986C285.713 223.007 287.362 223.689 288.596 224.891V224.891Z" fill="#C12E66"/>
</g>
<g style="mix-blend-mode:multiply" opacity="0.38">
<path d="M277.447 227.952C278.889 227.135 280.278 226.225 281.603 225.229C281.898 224.98 282.233 224.782 282.593 224.645C282.774 224.58 282.969 224.565 283.158 224.602C283.347 224.639 283.523 224.727 283.666 224.855C283.795 225.022 283.876 225.221 283.9 225.431C283.924 225.64 283.891 225.853 283.803 226.045C283.451 226.761 282.907 227.365 282.232 227.79L280.993 228.72C280.222 229.385 279.345 229.918 278.398 230.294C277.921 230.476 277.406 230.539 276.899 230.476C276.392 230.414 275.908 230.227 275.49 229.934C273.846 228.638 276.738 228.355 277.447 227.952Z" fill="#C12E66"/>
</g>
<path d="M274.883 241.273C275.429 242.313 275.693 243.481 276.147 244.572C276.585 245.576 277.155 246.517 277.842 247.371C278.364 247.86 278.675 248.533 278.707 249.248C278.625 249.618 278.42 249.95 278.125 250.188C277.83 250.427 277.462 250.557 277.083 250.559C276.32 250.523 275.584 250.263 274.968 249.813C272.853 248.486 269.375 245.048 269.762 242.239C270.06 241.116 270.659 240.096 271.495 239.289C272.808 238.484 274.331 240.209 274.883 241.273Z" fill="#FFE4E1"/>
<path d="M252.597 247.591C250.149 238.102 250.338 228.125 253.14 218.735C253.894 216.603 254.488 214.418 254.917 212.197C255.386 209.044 254.925 205.822 253.592 202.926C257.849 208.263 264.209 211.434 269.285 215.995C273.592 219.791 276.829 224.65 278.672 230.087" stroke="#5F9C2F" stroke-width="2" stroke-linecap="round" stroke-linejoin="round"/>
<path d="M273.186 198.749C280.843 198.376 289.022 200.368 294.302 205.929C291.319 203.928 287.377 204.086 283.898 204.976C280.419 205.866 277.135 207.429 273.602 208.07C266.889 209.296 258.184 207.262 252.397 203.724C253.674 201.769 260.069 201.025 262.409 200.457C265.939 199.547 269.548 198.976 273.186 198.749V198.749Z" fill="#5F9C2F"/>
<path d="M264.193 191.952C266.905 190.03 270.014 188.745 273.291 188.193C276.568 187.641 279.927 187.835 283.119 188.762C281.628 188.682 280.141 188.969 278.786 189.596C277.431 190.223 276.25 191.171 275.346 192.359C273.473 194.503 272.131 197.096 270.079 199.064C266.149 202.768 258.903 204.851 252.752 204.499C252.458 202.442 256.431 199.188 257.71 197.773C259.637 195.587 261.813 193.633 264.193 191.952V191.952Z" fill="#3E5936"/>
<path d="M294.682 65C308.516 67.8786 328.49 72.4547 335.583 86.6729C339.649 94.8229 334.257 103.999 328.356 109.645C319.488 118.133 307.102 119.206 295.426 118.972C287.461 118.812 278.405 118.181 271 114.882" stroke="white" stroke-width="2" stroke-linecap="round"/>
<path d="M301.884 28.2089L310.701 30.8268L405.96 59.1114C389.564 57.3552 372 54.3895 343.629 47.4004C307.1 38.4014 312.658 43.6231 327.29 48.9565C340.703 53.8454 347.488 54.6792 352.698 65.0188" stroke="#96AD3C" stroke-linecap="round"/>
<path d="M198.254 21.3749C203.086 24.85 204.455 31.8934 202.373 37.4625C201.456 39.9354 199.994 42.1228 199.249 44.6211C197.271 51.1843 200.521 58.0267 201.765 64.7622C202.612 69.5115 202.468 74.3847 201.343 79.0759C200.218 83.7671 198.135 88.1751 195.226 92.0234C192.276 95.8619 188.3 99.2044 183.541 100.214C176.862 101.62 170.188 98.2824 164.21 95.0571C158.5 91.9914 152.714 88.8663 148.084 84.3338C143.454 79.8013 140.046 73.6179 140.342 67.1448C140.485 61.3752 142.409 55.791 145.851 51.1584C150.523 44.7593 158.104 37.9301 165.928 36.6455C168.473 36.2668 171.12 36.3953 173.639 35.8344C183.554 33.6029 185.233 11.9953 198.254 21.3749Z" fill="#FFCA00"/>
<path d="M213.368 12.5396C214.134 12.3124 214.944 12.2731 215.728 12.4249C216.119 12.5115 216.471 12.7238 216.73 13.0295C216.989 13.3352 217.14 13.7174 217.161 14.1174C217.126 14.5037 216.992 14.8745 216.774 15.195C216.555 15.5154 216.259 15.7749 215.912 15.9488C215.238 16.275 214.509 16.4692 213.762 16.5212C211.981 16.7107 210.213 17.0093 208.468 17.4151C205.838 18.1172 203.367 19.3171 201.189 20.9498C199.909 21.9079 197.482 25.4786 195.948 25.0494C193.301 24.2927 196.884 21.5005 197.768 20.7029C199.878 18.8107 202.201 17.1699 204.689 15.8135C207.413 14.3188 210.335 13.2166 213.368 12.5396V12.5396Z" fill="#90A22F"/>
<path d="M188.395 60.3847C187.801 62.5479 187.035 64.6597 186.102 66.6997" stroke="#FF9100" stroke-width="1.63" stroke-linecap="round" stroke-linejoin="round"/>
<path d="M192.695 56.8326C193.265 59.7965 193.26 62.8425 192.68 65.8045" stroke="#FF9100" stroke-width="1.63" stroke-linecap="round" stroke-linejoin="round"/>
<path d="M197.62 62.9548C197.7 65.3953 197.56 67.8381 197.203 70.2537" stroke="#FF9100" stroke-width="1.63" stroke-linecap="round" stroke-linejoin="round"/>
<path d="M192.639 70.8149C192.395 72.1782 191.996 73.5094 191.451 74.7828" stroke="#FF9100" stroke-width="1.63" stroke-linecap="round" stroke-linejoin="round"/>
<path d="M184.857 74.2497C184.225 75.3365 183.593 76.4233 182.969 77.5118" stroke="#FF9100" stroke-width="1.63" stroke-linecap="round" stroke-linejoin="round"/>
<path d="M184.677 81.2061C183.919 82.436 183.154 83.6705 182.382 84.9095" stroke="#FF9100" stroke-width="1.63" stroke-linecap="round" stroke-linejoin="round"/>
<path d="M193.803 79.2427C193.265 80.5549 192.58 81.8022 191.762 82.9611" stroke="#FF9100" stroke-width="1.63" stroke-linecap="round" stroke-linejoin="round"/>
<path d="M198.819 75.8328C198.757 77.1965 198.366 78.5249 197.677 79.7036" stroke="#FF9100" stroke-width="1.63" stroke-linecap="round" stroke-linejoin="round"/>
<path d="M192.61 87.7766C191.861 89.1299 191.044 90.4444 190.162 91.7151C190.003 92.0067 189.741 92.2289 189.427 92.339" stroke="#FF9100" stroke-width="1.63" stroke-linecap="round" stroke-linejoin="round"/>
<path d="M187.844 87.0407C186.753 88.9631 185.451 90.7584 183.964 92.3937" stroke="#FF9100" stroke-width="1.63" stroke-linecap="round" stroke-linejoin="round"/>
<path d="M178.896 90.7747C178.165 91.9158 177.057 92.7636 175.764 93.1697" stroke="#FF9100" stroke-width="1.63" stroke-linecap="round" stroke-linejoin="round"/>
<path d="M176.346 83.9298C175.788 84.6393 175.119 85.2535 174.364 85.7483" stroke="#FF9100" stroke-width="1.63" stroke-linecap="round" stroke-linejoin="round"/>
<path d="M184.19 31.0741C183.574 32.0757 182.951 33.0757 182.327 34.0757" stroke="#FF9100" stroke-width="1.63" stroke-linecap="round" stroke-linejoin="round"/>
<path d="M177.337 37.4464C176.584 38.1512 175.678 38.6709 174.689 38.9642" stroke="#FF9100" stroke-width="1.63" stroke-linecap="round" stroke-linejoin="round"/>
<path d="M183.901 38.8854C183.694 39.2159 183.486 39.5464 183.286 39.8871" stroke="#FF9100" stroke-width="1.63" stroke-linecap="round" stroke-linejoin="round"/>
<path d="M179.848 41.0616C179.057 42.2288 178.075 43.2542 176.943 44.0949" stroke="#FF9100" stroke-width="1.63" stroke-linecap="round" stroke-linejoin="round"/>
<path d="M173.526 42.0076C173.191 42.599 172.658 43.0539 172.022 43.2927" stroke="#FF9100" stroke-width="1.63" stroke-linecap="round" stroke-linejoin="round"/>
<path d="M170.014 39.8218L168.936 39.988" stroke="#FF9100" stroke-width="1.63" stroke-linecap="round" stroke-linejoin="round"/>
<g style="mix-blend-mode:multiply" opacity="0.54">
<path d="M195.436 46.9249C195.039 49.9437 196.091 52.9322 196.526 55.9485C197.539 62.9566 195.158 70.1212 191.357 76.1006C187.556 82.08 182.398 87.0546 177.304 91.9712C176.201 93.1663 174.889 94.1501 173.433 94.8743C171.767 95.449 169.999 95.667 168.243 95.5144C167.089 95.4883 165.94 95.4367 164.784 95.3749C170.64 98.505 177.083 101.575 183.541 100.214C188.3 99.2044 192.272 95.879 195.226 92.0234C198.135 88.1751 200.218 83.7671 201.343 79.0759C202.468 74.3847 202.612 69.5115 201.765 64.7622C200.521 58.0267 197.271 51.1843 199.249 44.6211C199.996 42.1143 201.463 39.9014 202.373 37.4625C203.194 35.2159 203.479 32.8085 203.205 30.4323L203.161 30.211C202.816 36.3913 196.247 40.7577 195.436 46.9249Z" fill="#FFCA00"/>
</g>
<path d="M151.426 54.9053C151.41 54.9558 151.385 55.0027 151.351 55.0433C151.317 55.0839 151.275 55.1173 151.228 55.1418C151.182 55.1662 151.13 55.1811 151.078 55.1856C151.025 55.1901 150.972 55.1841 150.922 55.1679C150.82 55.1343 150.735 55.0616 150.686 54.9656C150.637 54.8697 150.628 54.7583 150.661 54.6558C150.677 54.6044 150.702 54.5568 150.737 54.5157C150.771 54.4745 150.814 54.4408 150.862 54.4165C150.909 54.3921 150.961 54.3776 151.015 54.3739C151.069 54.3701 151.122 54.3773 151.173 54.3948C151.223 54.4113 151.27 54.4377 151.31 54.4725C151.35 54.5072 151.383 54.5496 151.406 54.5971C151.43 54.6446 151.444 54.6963 151.447 54.7492C151.45 54.8021 151.443 54.8552 151.426 54.9053Z" fill="#FAFFBA"/>
<path d="M158.407 45.974C158.333 46.1882 158.179 46.3652 157.977 46.4671C157.775 46.5691 157.541 46.588 157.325 46.5199C157.111 46.4463 156.934 46.292 156.832 46.0898C156.73 45.8877 156.711 45.6536 156.779 45.4377C156.852 45.2235 157.007 45.0466 157.209 44.9446C157.411 44.8426 157.645 44.8237 157.861 44.8918C158.075 44.9654 158.252 45.1197 158.354 45.3219C158.456 45.5241 158.475 45.7581 158.407 45.974V45.974Z" fill="#FAFFBA"/>
<path d="M155.668 54.8908C155.656 54.9281 155.637 54.9626 155.612 54.9925C155.587 55.0223 155.556 55.0468 155.521 55.0646C155.486 55.0824 155.448 55.093 155.409 55.096C155.37 55.099 155.331 55.0941 155.294 55.0818C155.22 55.0562 155.16 55.0027 155.126 54.933C155.092 54.8632 155.086 54.7828 155.111 54.7092C155.122 54.6723 155.14 54.638 155.164 54.6085C155.189 54.5789 155.219 54.5546 155.253 54.5373C155.287 54.52 155.325 54.51 155.363 54.5079C155.401 54.5057 155.439 54.5116 155.475 54.5249C155.549 54.5485 155.61 54.6 155.646 54.6684C155.682 54.7368 155.69 54.8167 155.668 54.8908V54.8908Z" fill="#FAFFBA"/>
<path d="M157.68 64.0447C157.606 64.2589 157.451 64.4358 157.249 64.5378C157.047 64.6398 156.813 64.6587 156.597 64.5906C156.383 64.517 156.206 64.3627 156.104 64.1605C156.002 63.9583 155.983 63.7243 156.051 63.5083C156.125 63.2942 156.279 63.1172 156.481 63.0153C156.684 62.9133 156.918 62.8943 157.134 62.9625C157.348 63.036 157.525 63.1904 157.627 63.3926C157.729 63.5947 157.748 63.8288 157.68 64.0447V64.0447Z" fill="#FAFFBA"/>
<path d="M152.075 48.9714C152.049 49.0491 152.009 49.1211 151.956 49.1831C151.902 49.245 151.837 49.2957 151.764 49.3322C151.691 49.3688 151.611 49.3903 151.529 49.3957C151.448 49.4011 151.366 49.3903 151.289 49.3637C151.211 49.3396 151.139 49.3001 151.077 49.2476C151.015 49.1951 150.964 49.1307 150.927 49.0582C150.891 48.9857 150.869 48.9066 150.863 48.8255C150.858 48.7444 150.868 48.663 150.895 48.5861C150.919 48.5074 150.959 48.4344 151.012 48.3713C151.065 48.3083 151.13 48.2566 151.204 48.2192C151.277 48.1818 151.357 48.1595 151.44 48.1537C151.522 48.1479 151.605 48.1586 151.683 48.1853C151.838 48.2383 151.967 48.3506 152.04 48.4978C152.114 48.6449 152.126 48.8151 152.075 48.9714V48.9714Z" fill="#FAFFBA"/>
<path d="M147.099 62.6386C147.089 62.6702 147.073 62.6995 147.052 62.7247C147.031 62.75 147.005 62.7707 146.975 62.7855C146.946 62.8003 146.913 62.8091 146.881 62.8111C146.848 62.8131 146.815 62.8084 146.784 62.7973C146.721 62.776 146.67 62.7311 146.64 62.6722C146.61 62.6134 146.605 62.5452 146.625 62.4824C146.648 62.4214 146.693 62.3712 146.752 62.3418C146.81 62.3124 146.877 62.306 146.94 62.3238C146.971 62.3333 147.001 62.3492 147.026 62.3704C147.051 62.3916 147.072 62.4177 147.087 62.4471C147.102 62.4766 147.11 62.5087 147.112 62.5416C147.114 62.5746 147.11 62.6076 147.099 62.6386V62.6386Z" fill="#FAFFBA"/>
<path d="M148.389 69.4984C148.313 69.7038 148.162 69.873 147.967 69.972C147.772 70.071 147.546 70.0925 147.336 70.0323C147.132 69.9548 146.965 69.8037 146.868 69.6089C146.771 69.4141 146.75 69.1899 146.81 68.9807C146.886 68.7752 147.037 68.606 147.232 68.507C147.428 68.408 147.653 68.3865 147.864 68.4468C148.067 68.5242 148.234 68.6753 148.332 68.8701C148.429 69.0649 148.449 69.2891 148.389 69.4984Z" fill="#FAFFBA"/>
<path d="M151.326 64.3029C151.278 64.4437 151.177 64.5604 151.045 64.6282C150.912 64.696 150.759 64.7097 150.616 64.6662C150.475 64.6183 150.359 64.5174 150.291 64.385C150.223 64.2526 150.209 64.099 150.253 63.9567C150.301 63.8158 150.402 63.6992 150.534 63.6314C150.667 63.5635 150.82 63.5499 150.962 63.5933C151.105 63.6394 151.223 63.74 151.291 63.873C151.359 64.006 151.372 64.1606 151.326 64.3029V64.3029Z" fill="#FAFFBA"/>
<path d="M155.47 59.4893C155.432 59.6048 155.349 59.7003 155.24 59.755C155.131 59.8096 155.005 59.819 154.89 59.781C154.832 59.7641 154.778 59.7356 154.732 59.6973C154.686 59.659 154.648 59.6117 154.62 59.5582C154.593 59.5047 154.577 59.4462 154.572 59.3862C154.568 59.3262 154.576 59.266 154.596 59.2092C154.614 59.1514 154.644 59.0977 154.683 59.0515C154.722 59.0053 154.77 58.9674 154.825 58.9402C154.879 58.913 154.938 58.897 154.998 58.8931C155.059 58.8892 155.119 58.8975 155.177 58.9175C155.29 58.9557 155.385 59.0369 155.44 59.1437C155.495 59.2505 155.505 59.3746 155.47 59.4893V59.4893Z" fill="#FAFFBA"/>
<path d="M154.254 73.3384C154.216 73.4623 154.152 73.5773 154.069 73.6766C153.985 73.7759 153.882 73.8576 153.767 73.917C153.651 73.9763 153.525 74.0121 153.395 74.0223C153.266 74.0325 153.136 74.0169 153.012 73.9763C152.888 73.9363 152.773 73.872 152.674 73.7874C152.575 73.7028 152.493 73.5994 152.434 73.4832C152.375 73.367 152.339 73.2402 152.329 73.1102C152.319 72.9802 152.335 72.8495 152.376 72.7256C152.459 72.4764 152.637 72.2698 152.871 72.1507C153.105 72.0316 153.377 72.0096 153.627 72.0894C153.875 72.172 154.081 72.3499 154.199 72.5841C154.317 72.8182 154.337 73.0895 154.254 73.3384V73.3384Z" fill="#FAFFBA"/>
<path d="M150.716 80.9809C150.673 81.1051 150.583 81.2074 150.466 81.2653C150.348 81.3232 150.212 81.3319 150.088 81.2896C150.026 81.2697 149.97 81.2379 149.921 81.1959C149.872 81.1539 149.832 81.1025 149.803 81.0449C149.774 80.9873 149.757 80.9245 149.752 80.8601C149.748 80.7958 149.756 80.7312 149.777 80.6702C149.818 80.5457 149.906 80.4423 150.022 80.3825C150.138 80.3227 150.274 80.3115 150.398 80.3512C150.523 80.3938 150.626 80.4835 150.686 80.6012C150.745 80.719 150.756 80.8553 150.716 80.9809V80.9809Z" fill="#FAFFBA"/>
<g style="mix-blend-mode:multiply" opacity="0.54">
<path d="M197.533 23.8869C197.921 24.1199 198.254 24.4337 198.51 24.8069C199.132 25.8158 198.497 27.141 197.783 28.1053C196.626 27.6139 195.511 27.0308 194.448 26.3618C193.716 25.977 193.097 25.4086 192.652 24.7122C192.203 23.8972 192.207 21.5614 193.429 21.2469C194.4 20.9974 196.782 23.3479 197.533 23.8869Z" fill="#FFCA00"/>
</g>
<path d="M230 171.337C257.5 176.5 278.5 179 311 174C333 170.615 351.811 158.147 357.5 140.5C359.918 133 357.594 123.902 348.82 119.131C346.061 117.63 342.707 117 339.586 117" stroke="#437E14" stroke-width="2" stroke-linecap="round"/>
</svg>
