<svg id="Layer_1" data-name="Layer 1" xmlns="http://www.w3.org/2000/svg" viewBox="0 0 130.99 55.71"><defs><style>.cls-1{fill:#213b3b;}.cls-2{fill:#b3d318;}.cls-3{fill:#81991d;}</style></defs><path class="cls-1" d="M29.74,45.36V46H26.2v-.68Z"/><path class="cls-1" d="M32.6,41.44v7.41h-.74V41.44Z"/><path class="cls-1" d="M39.64,46.59H35.51a1.77,1.77,0,0,0,.57,1.19,1.74,1.74,0,0,0,1.23.5,1.87,1.87,0,0,0,.88-.21,1.84,1.84,0,0,0,.58-.43l.18-.21.48.48-.09.12a3.44,3.44,0,0,1-.26.25,2.83,2.83,0,0,1-.43.32,3.07,3.07,0,0,1-.59.25,2.45,2.45,0,0,1-.75.12,2.4,2.4,0,0,1-1.79-.78,2.58,2.58,0,0,1-.75-1.87,2.64,2.64,0,0,1,.74-1.88,2.38,2.38,0,0,1,1.75-.77,2.34,2.34,0,0,1,1.74.72,2.53,2.53,0,0,1,.69,1.82ZM38.4,44.8a1.61,1.61,0,0,0-1.14-.45,1.63,1.63,0,0,0-1.16.47,1.84,1.84,0,0,0-.59,1.12H39A1.81,1.81,0,0,0,38.4,44.8Z"/><path class="cls-1" d="M42.92,45.94l2-.32a1.27,1.27,0,0,0-.35-.92,1.28,1.28,0,0,0-.92-.35,1.56,1.56,0,0,0-.76.19,1.68,1.68,0,0,0-.51.37l-.16.18-.48-.47.09-.11a1.83,1.83,0,0,1,.24-.23,3.47,3.47,0,0,1,.38-.29,2.21,2.21,0,0,1,.53-.23,2.18,2.18,0,0,1,.67-.1,2,2,0,0,1,1.44.56,1.89,1.89,0,0,1,.57,1.4v3.23h-.74v-.69l-.06.09a2.61,2.61,0,0,1-.53.43,1.68,1.68,0,0,1-.46.19,2,2,0,0,1-.59.09A1.89,1.89,0,0,1,42,48.51a1.34,1.34,0,0,1-.52-1,1.42,1.42,0,0,1,.38-1A2,2,0,0,1,42.92,45.94Zm.32,2.33a1.6,1.6,0,0,0,1.18-.47,1.67,1.67,0,0,0,.46-1.22v-.32l-1.74.32q-1,.18-1,.9a.69.69,0,0,0,.28.56A1.23,1.23,0,0,0,43.24,48.27Z"/><path class="cls-1" d="M50.76,43.66v.74h-.32A1.57,1.57,0,0,0,48.85,46v2.81h-.74V43.77h.74v.69l.06-.09a1.26,1.26,0,0,1,.2-.19,2,2,0,0,1,.33-.24,1.84,1.84,0,0,1,.48-.19,2.06,2.06,0,0,1,.62-.09Z"/><path class="cls-1" d="M53.29,43.77v.74a.35.35,0,0,0,.06-.09l.2-.21a2.1,2.1,0,0,1,.33-.26,2.25,2.25,0,0,1,.46-.2,2,2,0,0,1,.59-.09,2,2,0,0,1,1.5.59A2.2,2.2,0,0,1,57,45.83v3h-.74v-3a1.48,1.48,0,0,0-.39-1.07,1.32,1.32,0,0,0-1-.41,1.49,1.49,0,0,0-1.13.48A1.66,1.66,0,0,0,53.29,46v2.81h-.74V43.77Z"/><path class="cls-1" d="M59.51,42.41a.45.45,0,0,1-.13-.34.45.45,0,0,1,.47-.47.45.45,0,0,1,.34.13.49.49,0,0,1,.14.34.48.48,0,0,1-.48.48A.49.49,0,0,1,59.51,42.41Zm0,6.44V43.77h.74v5.08Z"/><path class="cls-1" d="M63.46,43.77v.74l.06-.09a1.31,1.31,0,0,1,.19-.21A3.75,3.75,0,0,1,64,44a2.25,2.25,0,0,1,.46-.2,2,2,0,0,1,.59-.09,2,2,0,0,1,1.5.59,2.2,2.2,0,0,1,.57,1.58v3h-.74v-3A1.48,1.48,0,0,0,66,44.76a1.29,1.29,0,0,0-1-.41,1.49,1.49,0,0,0-1.13.48A1.69,1.69,0,0,0,63.46,46v2.81h-.74V43.77Z"/><path class="cls-1" d="M73.35,48.54V47.9l-.06.09a1.19,1.19,0,0,1-.2.2,2.16,2.16,0,0,1-.33.27,2.24,2.24,0,0,1-.48.2,2.11,2.11,0,0,1-.62.09A2.25,2.25,0,0,1,70,48a2.5,2.5,0,0,1-.71-1.81,2.53,2.53,0,0,1,.7-1.8,2.27,2.27,0,0,1,1.68-.74,2.11,2.11,0,0,1,.62.09,1.51,1.51,0,0,1,.48.21,2.36,2.36,0,0,1,.33.25,1.72,1.72,0,0,1,.2.22l.06.08v-.74h.75v4.77a2.48,2.48,0,0,1-.73,1.8,2.4,2.4,0,0,1-1.77.74,2.48,2.48,0,0,1-.77-.12,2.17,2.17,0,0,1-.59-.26,2.75,2.75,0,0,1-.41-.31,1.27,1.27,0,0,1-.26-.27l-.08-.1.47-.48.07.09s.1.11.21.21a3.75,3.75,0,0,0,.33.26,2.25,2.25,0,0,0,.46.2,1.84,1.84,0,0,0,.57.09,1.67,1.67,0,0,0,1.24-.54A1.81,1.81,0,0,0,73.35,48.54Zm-2.84-3.65a2,2,0,0,0,0,2.63,1.54,1.54,0,0,0,1.15.54,1.58,1.58,0,0,0,1.19-.54,2,2,0,0,0,0-2.63,1.58,1.58,0,0,0-1.19-.54A1.54,1.54,0,0,0,70.51,44.89Z"/><path class="cls-1" d="M82.46,44.35l-.53.53-.13-.15a1.61,1.61,0,0,0-.37-.23,1.32,1.32,0,0,0-.62-.15,1,1,0,0,0-.68.23.64.64,0,0,0-.27.51.56.56,0,0,0,.29.49,2.23,2.23,0,0,0,.68.3c.27.07.54.16.81.25a1.64,1.64,0,0,1,.69.47,1.2,1.2,0,0,1,.28.82,1.38,1.38,0,0,1-.5,1.1,2,2,0,0,1-1.35.44,2.48,2.48,0,0,1-.68-.1,1.81,1.81,0,0,1-.52-.22,2.8,2.8,0,0,1-.36-.26,1.64,1.64,0,0,1-.23-.23l-.06-.09.53-.53.06.08a1,1,0,0,0,.16.17,1.49,1.49,0,0,0,.27.23,1.42,1.42,0,0,0,.37.18,1.48,1.48,0,0,0,.46.08,1.26,1.26,0,0,0,.83-.24.75.75,0,0,0,.28-.61.59.59,0,0,0-.28-.51,2.45,2.45,0,0,0-.69-.32c-.27-.07-.54-.16-.81-.25a2,2,0,0,1-.69-.45,1.13,1.13,0,0,1-.28-.8,1.31,1.31,0,0,1,.48-1,1.74,1.74,0,0,1,1.21-.43,2.25,2.25,0,0,1,.58.07,1.86,1.86,0,0,1,.46.17l.33.21a1.31,1.31,0,0,1,.2.17Z"/><path class="cls-1" d="M85.21,43.24V42.07h.68v1.7H87v.69H85.89v3c0,.53.23.79.69.79a1.86,1.86,0,0,0,.34,0l.26-.08.09,0v.69a1.53,1.53,0,0,1-.72.16,1.36,1.36,0,0,1-1-.39,1.54,1.54,0,0,1-.36-1.09v-3h-1v-.69h.58C85.07,43.77,85.21,43.59,85.21,43.24Z"/><path class="cls-1" d="M93,48.85v-.69s0,.05-.06.09a2.61,2.61,0,0,1-.53.43,1.68,1.68,0,0,1-.46.19,2.05,2.05,0,0,1-2.07-.53,2.24,2.24,0,0,1-.58-1.61v-3h.74v3a1.5,1.5,0,0,0,.41,1.1,1.35,1.35,0,0,0,1,.44,1.42,1.42,0,0,0,1.09-.48A1.69,1.69,0,0,0,93,46.58V43.77h.74v5.08Z"/><path class="cls-1" d="M100.19,44.56V41.44h.74v7.41h-.74v-.79l-.07.09a2.68,2.68,0,0,1-.23.22,2.48,2.48,0,0,1-.36.28,2.06,2.06,0,0,1-.51.21,2.19,2.19,0,0,1-.63.1,2.25,2.25,0,0,1-1.7-.78,2.73,2.73,0,0,1,0-3.74,2.25,2.25,0,0,1,1.7-.78,1.89,1.89,0,0,1,.63.1,2,2,0,0,1,.51.22,3.32,3.32,0,0,1,.36.26l.23.23Zm-.56,3.12a2,2,0,0,0,0-2.74,1.68,1.68,0,0,0-1.24-.59,1.57,1.57,0,0,0-1.18.57,2.12,2.12,0,0,0,0,2.78,1.57,1.57,0,0,0,1.18.57A1.68,1.68,0,0,0,99.63,47.68Z"/><path class="cls-1" d="M103.5,42.41a.46.46,0,0,1-.14-.34.49.49,0,0,1,.14-.34.45.45,0,0,1,.34-.13.45.45,0,0,1,.47.47.45.45,0,0,1-.13.34.49.49,0,0,1-.34.14A.46.46,0,0,1,103.5,42.41Zm0,6.44V43.77h.74v5.08Z"/><path class="cls-1" d="M107.09,48.19a2.71,2.71,0,0,1,0-3.76,2.57,2.57,0,0,1,3.67,0,2.73,2.73,0,0,1,0,3.76,2.57,2.57,0,0,1-3.67,0Zm3.14-.49a2,2,0,0,0,0-2.78,1.79,1.79,0,0,0-2.62,0,1.94,1.94,0,0,0-.54,1.39,2,2,0,0,0,.54,1.39,1.79,1.79,0,0,0,2.62,0Z"/><path class="cls-1" d="M23.69,44.56V41.44h.73v7.41h-.73v-.79l-.08.09a2.15,2.15,0,0,1-.22.22,2.57,2.57,0,0,1-.37.28,2.15,2.15,0,0,1-.5.21,2.21,2.21,0,0,1-2.34-.68,2.76,2.76,0,0,1,0-3.74,2.28,2.28,0,0,1,1.71-.78,1.87,1.87,0,0,1,.62.1A1.74,1.74,0,0,1,23,44a2.09,2.09,0,0,1,.36.26,1.64,1.64,0,0,1,.23.23Zm-.56,3.12a2,2,0,0,0,0-2.74,1.69,1.69,0,0,0-1.24-.59,1.57,1.57,0,0,0-1.18.57,2.12,2.12,0,0,0,0,2.78,1.57,1.57,0,0,0,1.18.57A1.69,1.69,0,0,0,23.13,47.68Z"/><path class="cls-2" d="M52.47,29.34l-6.34,4.79a3.18,3.18,0,0,1-.63.39,12.77,12.77,0,0,0,15.59-4.14,2.91,2.91,0,0,1-.71,0Z"/><path class="cls-2" d="M44.19,22.36l2.27,1.32L45.2,32h0l6.52-5.14.07-.07.1,0,8.2,1.24h0l-5.23-6.62,1.31-2.27,6,8a3.78,3.78,0,0,1,.36.57A12.79,12.79,0,0,0,49,10.17a3.79,3.79,0,0,1,.37.41l6.12,7.93L53,19.19,48,12.4h0l-1,8.38-2.54.68,1.38-9.91A4.06,4.06,0,0,1,46,11a12.8,12.8,0,0,0-3.06,22,2.94,2.94,0,0,1,0-.65Z"/><path class="cls-3" d="M62.58,27.71a3.78,3.78,0,0,0-.36-.57l-6-8-1.31,2.27,5.23,6.62h0l-8.2-1.24-.1,0-.07.07L45.21,32h0l1.26-8.33-2.27-1.32L42.92,32.3a2.94,2.94,0,0,0,0,.65,12.57,12.57,0,0,0,2.61,1.57,3.18,3.18,0,0,0,.63-.39l6.34-4.79,7.91,1a2.91,2.91,0,0,0,.71,0A12.68,12.68,0,0,0,62.58,27.71Z"/><path class="cls-3" d="M44.45,21.46,47,20.78l1-8.38h0l5,6.79,2.53-.68L49.4,10.58a3.79,3.79,0,0,0-.37-.41,12.59,12.59,0,0,0-1.58.31A15.51,15.51,0,0,0,46,11a4.06,4.06,0,0,0-.12.57Z"/><polygon class="cls-1" points="28.36 10.69 28.36 29.41 13.87 10.69 10.43 10.69 10.43 35.13 14.12 35.13 14.12 16.43 28.61 35.13 32.03 35.13 32.03 10.69 28.36 10.69"/><path class="cls-1" d="M87.29,10.63,79.51,30.31h-1.4L70.37,10.63H66l9.14,21.79a5.13,5.13,0,0,0,1.51,2.24,3.76,3.76,0,0,0,2.22.58A3.56,3.56,0,0,0,81,34.66a5.46,5.46,0,0,0,1.54-2.29L91.7,10.63Z"/><path class="cls-1" d="M116.52,10.7v2.83a12.2,12.2,0,0,0-2.39-1.74,14.12,14.12,0,0,0-6.94-1.69,14.63,14.63,0,0,0-7,1.67,11.85,11.85,0,0,0-4.73,4.58A13.14,13.14,0,0,0,93.72,23a12.83,12.83,0,0,0,1.68,6.53A12.13,12.13,0,0,0,100,34a13.46,13.46,0,0,0,6.6,1.64,16.87,16.87,0,0,0,5.93-1.12A11.12,11.12,0,0,0,115,33.3l1.54-1.09,0,2.93h4V10.7Zm-1.25,17.16a8.48,8.48,0,0,1-3.38,3.26,10.55,10.55,0,0,1-9.52,0A8.33,8.33,0,0,1,99,27.83a9.86,9.86,0,0,1-1.19-4.89A10,10,0,0,1,99,18.09a8.45,8.45,0,0,1,3.31-3.37,10.28,10.28,0,0,1,9.6,0,8.65,8.65,0,0,1,3.38,3.38A9.8,9.8,0,0,1,116.5,23,9.45,9.45,0,0,1,115.27,27.86Z"/></svg>